<?xml version="1.0" encoding="utf-8"?>
<svg width="58" height="49" viewBox="0 0 58 49" xmlns="http://www.w3.org/2000/svg">
  <path fill-rule="nonzero" d="M13.945 48.031c-3.915 0-7.217-1.375-9.908-4.125S0 37.216 0 32.082c0-6.722 1.712-12.924 5.138-18.608C8.563 7.791 12.966 3.3 18.348 0l5.321 2.75c-2.201 1.955-4.403 4.766-6.605 8.433-2.202 3.666-3.425 7.577-3.67 11.733 3.67.244 6.728 1.466 9.174 3.666 2.447 2.2 3.67 5.011 3.67 8.433 0 3.911-1.193 7.058-3.578 9.441-2.385 2.384-5.29 3.575-8.715 3.575zm31.578 0c-3.792 0-7.033-1.375-9.724-4.125-2.692-2.75-4.037-6.69-4.037-11.824 0-6.722 1.682-12.924 5.046-18.608C40.172 7.791 44.545 3.3 49.927 0l5.32 2.75c-6.238 5.622-9.602 12.344-10.09 20.166 3.547.244 6.574 1.466 9.082 3.666 2.507 2.2 3.761 5.011 3.761 8.433 0 3.911-1.223 7.058-3.67 9.441-2.446 2.384-5.382 3.575-8.807 3.575z" style="fill: rgb(157, 157, 244);"/>
</svg>