<?xml version="1.0" encoding="utf-8"?>
<svg width="132.462" height="20.915" viewBox="0 0 132.462 20.915" xmlns="http://www.w3.org/2000/svg">
  <g id="stars" transform="translate(-456.654 -7448.947)">
    <g id="Group_6956" data-name="Group 6956" transform="translate(456.654 7448.947)">
      <path id="Path_19699" data-name="Path 19699" d="M0 0h20.915v20.915H0z" fill="none"/>
      <path id="Path_19700" data-name="Path 19700" d="m10.715 15.726-5.378 2.828 1.027-5.99-4.357-4.241 6.013-.872L10.709 2 13.4 7.451l6.013.871-4.357 4.241 1.027 5.99z" transform="translate(-.258 -.257)" style="fill: rgb(18, 106, 191);"/>
    </g>
    <g id="Group_6957" data-name="Group 6957" transform="translate(484.541 7448.947)">
      <path id="Path_19699-2" data-name="Path 19699" d="M0 0h20.915v20.915H0z" fill="none"/>
      <path id="Path_19700-2" data-name="Path 19700" d="m10.715 15.726-5.378 2.828 1.027-5.99-4.357-4.241 6.013-.872L10.709 2 13.4 7.451l6.013.871-4.357 4.241 1.027 5.99z" transform="translate(-.258 -.257)" style="fill: rgb(18, 106, 191);"/>
    </g>
    <g id="Group_6958" data-name="Group 6958" transform="translate(512.428 7448.947)">
      <path id="Path_19699-3" data-name="Path 19699" d="M0 0h20.915v20.915H0z" fill="none"/>
      <path id="Path_19700-3" data-name="Path 19700" d="m10.715 15.726-5.378 2.828 1.027-5.99-4.357-4.241 6.013-.872L10.709 2 13.4 7.451l6.013.871-4.357 4.241 1.027 5.99z" transform="translate(-.258 -.257)" style="fill: rgb(18, 106, 191);"/>
    </g>
    <g id="Group_6959" data-name="Group 6959" transform="translate(540.314 7448.947)">
      <path id="Path_19699-4" data-name="Path 19699" d="M0 0h20.915v20.915H0z" fill="none"/>
      <path id="Path_19700-4" data-name="Path 19700" d="m10.715 15.726-5.378 2.828 1.027-5.99-4.357-4.241 6.013-.872L10.709 2 13.4 7.451l6.013.871-4.357 4.241 1.027 5.99z" transform="translate(-.258 -.257)" style="fill: rgb(18, 106, 191);"/>
    </g>
    <g id="Group_6960" data-name="Group 6960" transform="translate(568.201 7448.947)">
      <path id="Path_19699-5" data-name="Path 19699" d="M0 0h20.915v20.915H0z" fill="none"/>
      <path id="Path_19700-5" data-name="Path 19700" d="m10.715 15.726-5.378 2.828 1.027-5.99-4.357-4.241 6.013-.872L10.709 2 13.4 7.451l6.013.871-4.357 4.241 1.027 5.99z" transform="translate(-.258 -.257)" style="fill: rgb(18, 106, 191);"/>
    </g>
  </g>
</svg>