<?xml version="1.0" encoding="utf-8"?>
<svg width="26" height="27" viewBox="0 0 26 27" fill="none" xmlns="http://www.w3.org/2000/svg">
  <path d="M25.0636 21.4269C21.5119 16.5624 11.527 9.05715 0 17.9526C6.57288 30.4045 21.4336 27.1778 25.0636 21.4269Z" fill="url(#paint0_linear_7966_5108)"/>
  <path d="M11.5672 7.97229C13.8386 4.13241 17.9125 1.48589 23.7426 0.0216074C24.1143 -0.0717485 24.4932 0.145786 24.5977 0.512451C26.2723 6.39304 26.001 11.3106 23.749 15.2319C23.5414 15.5933 23.2702 15.9854 22.9351 16.41C23.7889 18.0731 24.4867 19.9713 25.029 22.1027C25.123 22.4721 24.9043 22.8489 24.5354 22.9527C18.673 24.6038 13.7614 24.3074 9.83678 22.0297C5.91395 19.753 3.20535 15.6291 1.69756 9.70405C1.60355 9.33462 1.82229 8.95788 2.19115 8.854C5.64995 7.87991 8.77774 7.58368 11.5672 7.97229ZM23.1735 20.7512C21.6993 16.085 19.3634 12.8433 16.1755 10.9931C12.7618 9.01184 8.46339 8.67996 3.24862 10.0275C4.69599 15.2487 7.13407 18.8305 10.5511 20.8136C13.7557 22.6735 17.7399 23.0799 22.5299 22.008L9.11178 14.2637C8.77348 14.0685 8.65848 13.6376 8.85491 13.3013C9.05135 12.9651 9.48483 12.8508 9.82318 13.046L23.1735 20.7512ZM18.7718 11.0872C20.0727 12.1608 21.2084 13.4871 22.1781 15.0632C22.3106 14.8751 22.4241 14.6985 22.5187 14.5338C24.4803 11.1181 24.79 6.80443 23.4171 1.56342C18.5178 2.9073 15.0763 5.14 13.0568 8.25296C14.4254 8.58063 15.7038 9.08873 16.8898 9.77708C17.1412 9.92295 17.3876 10.0764 17.629 10.2375L19.2418 7.44503C19.712 6.63089 20.9406 7.33193 20.4704 8.14607L18.7718 11.0872Z" style="fill: rgb(21, 42, 65);"/>
  <defs>
    <linearGradient id="paint0_linear_7966_5108" x1="9.89556" y1="13.0694" x2="15.4809" y2="27.0957" gradientUnits="userSpaceOnUse">
      <stop stop-opacity="0" style="stop-color: rgb(157, 157, 244);"/>
      <stop offset="1" style="stop-color: rgb(157, 157, 244);"/>
    </linearGradient>
  </defs>
</svg>