<?xml version="1.0" encoding="utf-8"?>
<svg width="28" height="28" viewBox="0 0 28 28" fill="none" xmlns="http://www.w3.org/2000/svg">
  <path d="M3.99805 27H13.498V17H3.99805V27Z" fill="url(#paint0_linear)"/>
  <path d="M27.6234 9.4722L14.5583 0.139983C14.2783 -0.0466611 13.8117 -0.0466611 13.4384 0.139983L0.373289 9.4722C0.186644 9.65885 0 9.93882 0 10.2188V27.0168C0 27.5767 0.373289 27.95 0.933222 27.95H4.66611H13.0651H27.0634C27.6234 27.95 27.9967 27.5767 27.9967 27.0168V10.2188C27.9967 9.93882 27.81 9.65885 27.6234 9.4722ZM5.59933 26.0836L5.99829 27L10.4983 27.0168L12.1319 26.0836H5.59933ZM26.1302 26.0836H13.9983H12.9983C11.4983 26.0836 11.0866 26.0836 10.5267 26.0836H5.59933C5.0394 26.0836 4.99829 26.0836 3.73289 26.0836H1.86644V10.6854L13.9983 2.00643L26.1302 10.6854V26.0836Z" style="fill: rgb(21, 42, 65);"/>
  <defs>
    <linearGradient id="paint0_linear" x1="19.3827" y1="19.7" x2="19.3827" y2="34.15" gradientUnits="userSpaceOnUse">
      <stop style="stop-color: rgb(157, 157, 244);"/>
      <stop offset="1" stop-opacity="0" style="stop-color: rgb(157, 157, 244);"/>
    </linearGradient>
  </defs>
</svg>