<?xml version="1.0" encoding="utf-8"?>
<svg width="27" height="34" viewBox="0 0 27 34" fill="none" xmlns="http://www.w3.org/2000/svg">
  <path d="M22.194 3.75016C20.9657 2.5324 19.5058 1.57329 17.9004 0.92953C16.295 0.285773 14.5769 -0.0295592 12.8476 0.00217846C5.92995 0.101417 0.16811 5.80765 0.00385222 12.7227C-0.0480693 14.8588 0.425559 16.975 1.3831 18.8851C2.34064 20.7953 3.75277 22.441 5.49535 23.6775C5.72628 23.8389 5.9153 24.0532 6.0467 24.3024C6.17809 24.5517 6.24806 24.8287 6.25077 25.1105V27.6616C6.25099 27.7784 6.29748 27.8903 6.38006 27.9729C6.46264 28.0555 6.57457 28.1019 6.69135 28.1022H19.3888C19.5056 28.1022 19.6177 28.0557 19.7003 27.9731C19.783 27.8905 19.8294 27.7784 19.8294 27.6616V25.1087C19.8311 24.8288 19.8999 24.5534 20.0298 24.3055C20.1597 24.0575 20.3471 23.8442 20.5762 23.6835C22.1325 22.5817 23.4282 21.1521 24.372 19.4954C25.3159 17.8386 25.885 15.995 26.0393 14.0945C26.1935 12.194 25.9292 10.2828 25.2648 8.49556C24.6004 6.70829 23.5522 5.08845 22.194 3.75016Z" fill="url(#paint0_linear)"/>
  <path d="M16.4718 10.4885L16.4729 10.4905C17.0465 11.496 17.5012 12.7354 17.792 14.127C18.0824 15.517 18.1991 17.0097 18.1312 18.4968C18.0634 19.9843 17.8131 21.4184 17.4038 22.6966C16.9939 23.9764 16.4409 25.049 15.8022 25.8537C15.6132 26.0902 15.4832 26.3701 15.4001 26.6524C15.3158 26.9385 15.2743 27.2443 15.2732 27.547V27.5501V29.15H10.7259L10.7259 27.5515L10.7259 27.5469C10.7242 27.2427 10.682 26.9357 10.597 26.6486C10.5131 26.3657 10.3825 26.0854 10.1929 25.8487C9.47718 24.9445 8.87181 23.7068 8.45448 22.2258C8.03776 20.747 7.82884 19.0971 7.85169 17.4244L7.8517 17.4242C7.88789 14.7136 8.54207 12.2763 9.53043 10.535C10.536 8.76348 11.7754 7.88104 12.9327 7.85151L12.9327 7.85153L12.9387 7.85133C13.5225 7.83227 14.1331 8.01832 14.7421 8.45275C15.357 8.8914 15.9522 9.57217 16.4718 10.4885Z" stroke-width="1.7" style="stroke: rgb(21, 42, 65);"/>
  <path d="M19.4339 28.1201H6.77329C6.65678 28.1201 6.54504 28.2134 6.46266 28.3794C6.38027 28.5454 6.33398 28.7706 6.33398 29.0054C6.33398 29.2402 6.38027 29.4653 6.46266 29.6313C6.54504 29.7974 6.65678 29.8906 6.77329 29.8906H19.4339C19.5504 29.8906 19.6621 29.7974 19.7445 29.6313C19.8269 29.4653 19.8732 29.2402 19.8732 29.0054C19.8732 28.7706 19.8269 28.5454 19.7445 28.3794C19.6621 28.2134 19.5504 28.1201 19.4339 28.1201Z" style="fill: rgb(21, 42, 65);"/>
  <path d="M19.389 31.4053H6.69156C6.57471 31.4053 6.46265 31.4985 6.38002 31.6646C6.2974 31.8306 6.25098 32.0557 6.25098 32.2905C6.25098 32.5253 6.2974 32.7505 6.38002 32.9165C6.46265 33.0825 6.57471 33.1758 6.69156 33.1758H19.389C19.5059 33.1758 19.6179 33.0825 19.7005 32.9165C19.7832 32.7505 19.8296 32.5253 19.8296 32.2905C19.8296 32.0557 19.7832 31.8306 19.7005 31.6646C19.6179 31.4985 19.5059 31.4053 19.389 31.4053Z" style="fill: rgb(21, 42, 65);"/>
  <defs>
    <linearGradient id="paint0_linear" x1="13.041" y1="0" x2="13.041" y2="28.1022" gradientUnits="userSpaceOnUse">
      <stop style="stop-color: rgb(157, 157, 244);"/>
      <stop offset="1" stop-opacity="0" style="stop-color: rgb(157, 157, 244);"/>
    </linearGradient>
  </defs>
</svg>