<?xml version="1.0" encoding="utf-8"?>
<svg width="42" height="21" viewBox="0 0 42 21" fill="none" xmlns="http://www.w3.org/2000/svg">
  <path d="M 18.722 6.645 C 18.722 10.315 15.747 13.29 12.077 13.29 C 8.407 13.29 5.432 10.315 5.432 6.645 C 5.432 2.975 8.407 -0.038 12.077 -0.038 C 15.747 -0.038 18.722 2.975 18.722 6.645 Z" fill="url(#paint0_linear)"/>
  <path d="M37.3275 6.64498C37.3275 10.3149 34.3525 13.29 30.6826 13.29C27.0126 13.29 24.0376 10.3149 24.0376 6.64498C24.0376 2.97506 27.0126 0 30.6826 0C34.3525 0 37.3275 2.97506 37.3275 6.64498Z" fill="url(#paint1_linear)"/>
  <path d="M36.7648 12.5698C36.4046 8.99747 33.3895 6.19995 29.7351 6.19995C26.4999 6.19995 23.7724 8.39417 22.9375 11.3745C22.4295 10.8339 21.7106 10.494 20.9131 10.494C20.1157 10.494 19.3971 10.8339 18.8891 11.3745C18.0538 8.39417 15.3267 6.19995 12.0918 6.19995C8.36916 6.19995 5.31727 9.10422 5.05156 12.7712H1V13.8043H5.05156C5.31693 17.4716 8.36916 20.3759 12.0918 20.3759C15.9882 20.3759 19.1579 17.1962 19.1579 13.2878C19.1579 12.317 19.9454 11.5271 20.9131 11.5271C21.8809 11.5271 22.6687 12.317 22.6687 13.2878C22.6687 17.1962 25.8387 20.3759 29.7351 20.3759C33.5254 20.3759 36.6192 17.3645 36.7854 13.6028H40.8699V12.5698H36.7648ZM12.0918 19.3428C8.76326 19.3428 6.05535 16.6266 6.05535 13.2878C6.05535 9.94926 8.76326 7.23301 12.0918 7.23301C15.4201 7.23301 18.128 9.94926 18.128 13.2878C18.128 16.6266 15.4204 19.3428 12.0918 19.3428ZM29.7351 19.3428C26.4062 19.3428 23.6986 16.6266 23.6986 13.2878C23.6986 9.94926 26.4062 7.23301 29.7351 7.23301C33.0634 7.23301 35.7709 9.94926 35.7709 13.2878C35.7709 16.6266 33.0637 19.3428 29.7351 19.3428Z" style="fill: rgb(21, 42, 65); paint-order: fill; stroke: rgb(21, 42, 65);"/>
  <defs>
    <linearGradient id="paint0_linear" x1="21.3796" y1="0" x2="21.3796" y2="13.29" gradientUnits="userSpaceOnUse">
      <stop stop-opacity="0" style="stop-color: rgb(157, 157, 244);"/>
      <stop offset="1" style="stop-color: rgb(157, 157, 244);"/>
    </linearGradient>
    <linearGradient id="paint1_linear" x1="21.3796" y1="0" x2="21.3796" y2="13.29" gradientUnits="userSpaceOnUse">
      <stop stop-opacity="0" style="stop-color: rgb(157, 157, 244);"/>
      <stop offset="1" style="stop-color: rgb(157, 157, 244);"/>
    </linearGradient>
  </defs>
</svg>