<?xml version="1.0" encoding="utf-8"?>
<svg width="30" height="33" viewBox="0 0 30 33" fill="none" xmlns="http://www.w3.org/2000/svg">
  <path d="M5.17627 3.25127C7.64557 -1.4101 23.0795 -0.744722 24.9315 3.25127C26.7836 7.24726 22.4621 23.2312 22.4621 23.2312H7.64568C7.64568 23.2312 2.70696 7.91263 5.17627 3.25127Z" fill="url(#paint0_linear)"/>
  <path d="M28.8646 14.5394C28.8091 14.4661 28.7394 14.4049 28.6595 14.3595C28.5797 14.314 28.4914 14.2852 28.4001 14.2749L25.952 13.9935C24.9392 13.8794 23.9191 14.132 23.0766 14.7055L23.3478 12.4066C23.3493 12.3806 23.3493 12.3546 23.3478 12.3286C23.3273 10.5833 22.616 8.91726 21.3698 7.69519C20.1236 6.47312 18.4439 5.79461 16.6986 5.80818H13.3383C11.5918 5.79099 9.90964 6.46697 8.66068 7.68797C7.41172 8.90896 6.69781 10.5753 6.67546 12.3218C6.67396 12.3478 6.67396 12.3739 6.67546 12.3998L6.94672 14.7089C6.09987 14.1277 5.07137 13.8724 4.05101 13.9901L1.59949 14.2715C1.50813 14.2822 1.41989 14.3113 1.34015 14.3572C1.2604 14.403 1.19082 14.4646 1.13563 14.5382C1.08044 14.6118 1.0408 14.6958 1.01911 14.7852C0.997429 14.8746 0.994157 14.9675 1.00949 15.0582L2.68114 25.0101C2.84885 26.0317 3.37514 26.9602 4.16559 27.6288C4.95603 28.2975 5.95888 28.6625 6.99419 28.6585H7.22815L5.97696 31.7102C5.94312 31.7926 5.92584 31.8808 5.9261 31.9699C5.92636 32.0589 5.94415 32.1471 5.97847 32.2293C6.04778 32.3952 6.18019 32.5269 6.34656 32.5952C6.51292 32.6636 6.69963 32.663 6.8656 32.5937C7.03156 32.5244 7.1632 32.392 7.23155 32.2256L8.69296 28.6653H21.2863L22.7748 32.229C22.8473 32.39 22.9798 32.5164 23.144 32.5813C23.3083 32.6462 23.4914 32.6444 23.6543 32.5764C23.8173 32.5084 23.9473 32.3795 24.0167 32.2171C24.0862 32.0547 24.0895 31.8716 24.026 31.7068L22.7545 28.6551H23.0088C24.0425 28.6586 25.0437 28.2941 25.8333 27.6269C26.6229 26.9597 27.1494 26.0333 27.3184 25.0135L28.9901 15.0616C29.0058 14.9706 29.0028 14.8773 28.9812 14.7875C28.9597 14.6977 28.92 14.6133 28.8646 14.5394ZM13.3383 7.16449H16.6986C18.0791 7.14715 19.4107 7.67512 20.4042 8.63376C21.3978 9.59239 21.9731 10.9043 22.0051 12.2845L21.466 16.7841C21.466 16.7841 21.466 16.801 21.466 16.8112L20.876 21.7651H9.15411L8.57768 16.9129C8.57768 16.9129 8.57768 16.8858 8.57768 16.8722L8.03516 12.2845C8.06719 10.9049 8.64198 9.5935 9.6348 8.63496C10.6276 7.67642 11.9584 7.14805 13.3383 7.16449ZM25.9825 24.7965C25.8658 25.4995 25.5031 26.1382 24.959 26.5985C24.4148 27.0587 23.7248 27.3106 23.0122 27.309H6.99419C6.28152 27.3106 5.59151 27.0587 5.0474 26.5985C4.50329 26.1382 4.14052 25.4995 4.02388 24.7965L2.45735 15.5397L4.19681 15.3396C4.8313 15.2662 5.47226 15.4046 6.01991 15.7333C6.56756 16.062 6.99116 16.5626 7.22476 17.1571L7.88257 22.5213C7.90179 22.6873 7.98163 22.8404 8.10679 22.9511C8.23195 23.0619 8.3936 23.1225 8.56072 23.1214H21.4795C21.6467 23.1225 21.8083 23.0619 21.9335 22.9511C22.0586 22.8404 22.1385 22.6873 22.1577 22.5213L22.8019 17.096C23.0489 16.5218 23.4738 16.0421 24.0141 15.7276C24.5544 15.4132 25.1815 15.2808 25.8028 15.3498L27.5422 15.5498L25.9825 24.7965Z" stroke-width="0.5" style="fill: rgb(21, 42, 65); stroke: rgb(21, 42, 65);"/>
  <defs>
    <linearGradient id="paint0_linear" x1="14.9389" y1="0" x2="14.9389" y2="23.2312" gradientUnits="userSpaceOnUse">
      <stop style="stop-color: rgb(157, 157, 244);"/>
      <stop offset="1" stop-opacity="0" style="stop-color: rgb(157, 157, 244);"/>
    </linearGradient>
  </defs>
</svg>