<?xml version="1.0" encoding="utf-8"?>
<svg width="32" height="32" viewBox="0 0 32 32" fill="none" xmlns="http://www.w3.org/2000/svg">
  <path d="M23.2356 1.00085C23.0443 1.01887 22.8667 1.1078 22.7377 1.25015C22.6087 1.39249 22.5376 1.57795 22.5385 1.77005V15.4355L12.9231 9.9429C12.8056 9.87511 12.6724 9.83958 12.5368 9.83989C12.4011 9.8402 12.268 9.87635 12.1509 9.94468C12.0338 10.013 11.9368 10.1111 11.8697 10.229C11.8027 10.3469 11.7681 10.4804 11.7692 10.616V15.4355L2.15387 9.9429C2.03643 9.87511 1.90314 9.83958 1.76754 9.83989C1.63193 9.8402 1.49881 9.87635 1.38168 9.94468C1.26454 10.013 1.16755 10.1111 1.10052 10.229C1.0335 10.3469 0.998833 10.4804 1.00003 10.616V30.2308C1.00005 30.4348 1.0811 30.6304 1.22535 30.7747C1.36961 30.9189 1.56525 31 1.76926 31H30.2308C30.4348 31 30.6304 30.9189 30.7747 30.7747C30.9189 30.6304 31 30.4348 31 30.2308V1.77005C31 1.56605 30.9189 1.37041 30.7747 1.22616C30.6304 1.08191 30.4348 1.00087 30.2308 1.00085H23.3077C23.2837 0.999718 23.2596 0.999718 23.2356 1.00085ZM24.0769 2.53926H29.4615V29.4616H2.53849V11.9501L12.1539 17.4427C12.2713 17.5105 12.4046 17.546 12.5402 17.5457C12.6758 17.5454 12.8089 17.5092 12.9261 17.4409C13.0432 17.3726 13.1402 17.2745 13.2072 17.1566C13.2742 17.0387 13.3089 16.9052 13.3077 16.7696V11.9501L22.9231 17.4427C23.0405 17.5105 23.1738 17.546 23.3094 17.5457C23.445 17.5454 23.5781 17.5092 23.6953 17.4409C23.8124 17.3726 23.9094 17.2745 23.9764 17.1566C24.0435 17.0387 24.0781 16.9052 24.0769 16.7696V2.53926Z" stroke-width="0.142857" style="fill: rgb(21, 42, 65); stroke: rgb(21, 42, 65);"/>
  <rect x="6" y="20" width="8" height="7" style="fill-rule: nonzero; fill: url(#gradient-1); paint-order: fill;"/>
  <rect x="19" y="20" width="8" height="7" fill="url(#paint1_linear)"/>
  <defs>
    <linearGradient id="paint1_linear" x1="23" y1="20" x2="23" y2="27" gradientUnits="userSpaceOnUse" gradientTransform="matrix(0.999999, -0.000676, 0.000668, 0.989645, 0.022871, 0.295114)">
      <stop style="stop-color: rgb(157, 157, 244);"/>
      <stop offset="1" stop-opacity="0" style="stop-color: rgb(157, 157, 244);"/>
    </linearGradient>
    <linearGradient gradientUnits="userSpaceOnUse" x1="10" y1="20" x2="10" y2="27" id="gradient-1" spreadMethod="pad" gradientTransform="matrix(0.999983, 0.005833, -0.005846, 1.002005, 0.158007, -0.112501)">
      <stop style="stop-color: rgb(157, 157, 244);"/>
      <stop offset="1" stop-opacity="0" style="stop-color: rgb(157, 157, 244);"/>
    </linearGradient>
  </defs>
</svg>