<svg xmlns="http://www.w3.org/2000/svg" width="48.575" height="55.575" viewBox="0 0 48.575 55.575"><defs><style>.a{fill:#ff6250;}.b{fill:#ffdf90;}.c{fill:#36f;}</style></defs><g transform="translate(-233 -2763)"><path class="a" d="M-111.033,37.565h47.859a.334.334,0,0,1,.173.042.34.34,0,0,1,.131.12.352.352,0,0,1,.053.169.334.334,0,0,1-.036.173A53.674,53.674,0,0,1-80.9,58.726a55.212,55.212,0,0,1-30.13,9.308.329.329,0,0,1-.138-.024.355.355,0,0,1-.118-.076.342.342,0,0,1-.078-.116.371.371,0,0,1-.027-.138V37.919a.351.351,0,0,1,.027-.136.342.342,0,0,1,.078-.116.366.366,0,0,1,.116-.078A.361.361,0,0,1-111.033,37.565Z" transform="translate(344.391 2725.435)"/><path class="b" d="M-100.705,74.324A10.689,10.689,0,0,0-90.017,63.636,10.687,10.687,0,0,0-100.705,52.95a10.685,10.685,0,0,0-10.686,10.686A10.687,10.687,0,0,0-100.705,74.324Z" transform="translate(344.391 2744.251)"/><path class="c" d="M-94.6,81.034a5.966,5.966,0,0,1-3.608-7.427l8.067-23.023A5.571,5.571,0,0,1-82.8,47.342a5.968,5.968,0,0,1,3.608,7.429l-8.067,23.021A5.568,5.568,0,0,1-94.6,81.034Z" transform="translate(360.135 2736.908)"/></g></svg>