<svg xmlns="http://www.w3.org/2000/svg" width="56" height="56" viewBox="0 0 56 56"><defs><style>.a{fill:#cf0a2c;}.b{fill:#fff;}</style></defs><path class="a" d="M56.5,46.7a9.784,9.784,0,0,1-9.8,9.8H10.3A9.784,9.784,0,0,1,.5,46.7V10.3A9.784,9.784,0,0,1,10.3.5H46.7a9.784,9.784,0,0,1,9.8,9.8Z" transform="translate(-0.5 -0.5)"/><path class="b" d="M18.114,48.756h4.143l.219-4.362h.146a9.4,9.4,0,0,0,8.832,4.961c5.887,0,11.83-4.688,11.83-14.121.064-8.024-4.569-13.475-11.112-13.475-4.253,0-7.3,1.908-9,4.853h-.108V10.037H18.326V41.921l-.219,6.825Zm4.954-15.339a9.482,9.482,0,0,1,.273-1.963,7.649,7.649,0,0,1,7.306-5.889c5.124,0,7.85,4.526,7.85,9.814,0,6.06-3,10.15-8.015,10.15a7.4,7.4,0,0,1-7.2-5.616,8.9,8.9,0,0,1-.219-1.745Z" transform="translate(-2.701 -1.692)"/></svg>