<svg xmlns="http://www.w3.org/2000/svg" width="38" height="57" viewBox="0 0 38 57"><defs><style>.a{fill:#0acf83;}.b{fill:#a259ff;}.c{fill:#f24e1e;}.d{fill:#ff7262;}.e{fill:#1abcfe;}</style></defs><g transform="translate(-239 -2120)"><path class="a" d="M18.58,33.21a9.5,9.5,0,0,0,9.5-9.5v-9.5h-9.5a9.5,9.5,0,1,0,0,19Z" transform="translate(229.92 2143.79)"/><path class="b" d="M9.08,20.29a9.5,9.5,0,0,1,9.5-9.5h9.5v19h-9.5A9.5,9.5,0,0,1,9.08,20.29Z" transform="translate(229.92 2128.21)"/><path class="c" d="M9.08,16.87a9.5,9.5,0,0,1,9.5-9.5h9.5v19h-9.5A9.5,9.5,0,0,1,9.08,16.87Z" transform="translate(229.92 2112.63)"/><path class="d" d="M12.5,7.38H22a9.5,9.5,0,0,1,0,19H12.5Z" transform="translate(245.5 2112.676)"/><path class="e" d="M31.5,20.29a9.5,9.5,0,1,1-9.5-9.5A9.5,9.5,0,0,1,31.5,20.29Z" transform="translate(245.5 2128.21)"/></g></svg>