<svg xmlns="http://www.w3.org/2000/svg" width="69.386" height="48.017" viewBox="0 0 69.386 48.017">
  <path id="marvel" d="M40.475,14.959l2.892-2.891q1.254-1.255,2.388-2.2t2.263-1.948A25.934,25.934,0,0,1,52.165,4.9a6.636,6.636,0,0,1,3.142-.88,5.5,5.5,0,0,1,3.834,1.571,4.775,4.775,0,0,1,1.7,3.583,6.651,6.651,0,0,1-.817,3.08,32,32,0,0,1-2.954,4.336q-9.8,12.822-9.8,16.592A1.444,1.444,0,0,0,48.9,34.819a4.913,4.913,0,0,0,2.766-1.069,26.567,26.567,0,0,0,3.9-3.708q1.255-1.382,3.079-3.771t3.206-4.4a13.474,13.474,0,0,1,2.326-2.765,3.415,3.415,0,0,1,2.2-.754,3,3,0,0,1,3.017,3.017q0,2.389-2.2,6.348a50.883,50.883,0,0,1-5.719,8.108,39.055,39.055,0,0,1-8.987,8.17,16.037,16.037,0,0,1-8.359,2.892,7.722,7.722,0,0,1-5.783-2.326,8.2,8.2,0,0,1-2.262-5.971,19.6,19.6,0,0,1,.314-3.583,24.241,24.241,0,0,1,.942-3.52,25.753,25.753,0,0,1,1.76-3.9A49.168,49.168,0,0,1,41.983,23q.124-.25.629-1.006a41.7,41.7,0,0,0-6.474,6.348,60.133,60.133,0,0,0-6.473,9.867,33.926,33.926,0,0,1-3.645,5.342,4.159,4.159,0,0,1-3.142,1.32,4.314,4.314,0,0,1-3.331-1.445,5.111,5.111,0,0,1-1.32-3.583,11.605,11.605,0,0,1,.314-2.7,21.933,21.933,0,0,1,1.32-3.582,38.16,38.16,0,0,1,1.634-3.834,28.1,28.1,0,0,1,1.76-3.2l2.388-4.148a5.821,5.821,0,0,0,.754-1.257,45.2,45.2,0,0,0-4.9,4.588q-2.394,2.583-4.588,5.343a51.74,51.74,0,0,0-3.9,5.593,45.467,45.467,0,0,0-2.828,5.468,16.138,16.138,0,0,1-2.7,4.714A4.169,4.169,0,0,1,4.4,48.017a3.929,3.929,0,0,1-3.142-1.508A5.892,5.892,0,0,1,0,42.612q0-4.775,4.65-16.467A112.443,112.443,0,0,1,10.37,13.827a79.96,79.96,0,0,1,6.1-9.679,17.618,17.618,0,0,1,3.017-3.2A4.5,4.5,0,0,1,22.249,0a3.979,3.979,0,0,1,2.828,1.131A3.668,3.668,0,0,1,26.271,3.9a6.963,6.963,0,0,1-.565,2.64A37.87,37.87,0,0,1,23,11.313q-.574.969-1.131,1.948-.754,1.32-1.885,3.331L18.6,19.358q3.771-4.525,6.6-7.667a63.113,63.113,0,0,1,4.965-5.028A19.9,19.9,0,0,1,34,3.9a6.812,6.812,0,0,1,3.079-.88A4.23,4.23,0,0,1,40.1,4.211a3.919,3.919,0,0,1,1.257,2.953,7.46,7.46,0,0,1-.5,2.514,32.787,32.787,0,0,1-2.137,4.274l-2.64,4.777L35.07,20.615l1.508-1.634q2.263-2.387,3.9-4.022Z" fill="#1991eb"/>
</svg>
