<svg xmlns="http://www.w3.org/2000/svg" width="57" height="55.575" viewBox="0 0 57 55.575"><defs><style>.a{fill:#470137;}.b{fill:#ff61f6;}</style></defs><g transform="translate(-229 -2453)"><g transform="translate(229 2453)"><path class="a" d="M10.094,0H46.906A10.085,10.085,0,0,1,57,10.094V45.481A10.085,10.085,0,0,1,46.906,55.575H10.094A10.085,10.085,0,0,1,0,45.481V10.094A10.085,10.085,0,0,1,10.094,0Z"/></g><g transform="translate(237.303 2465.18)"><path class="b" d="M56.63,60.356,49.505,72.113l7.6,12.469a.409.409,0,0,1,.048.285c-.024.1-.119.024-.261.048H51.453c-.38,0-.641-.024-.807-.261-.5-1-1.021-1.971-1.52-2.969-.5-.974-1.045-1.971-1.615-2.993S46.37,76.649,45.8,75.6h-.047c-.5,1.021-1.045,2.043-1.591,3.064s-1.092,2.042-1.615,3.04c-.546,1-1.093,2.019-1.639,2.993-.1.238-.285.261-.546.261H35.136c-.1,0-.166.047-.166-.071a.33.33,0,0,1,.048-.261L42.4,72.516l-7.2-12.184c-.071-.1-.1-.19-.048-.237A.275.275,0,0,1,35.4,60h5.391a1.4,1.4,0,0,1,.332.048.674.674,0,0,1,.237.214c.451,1.021.974,2.043,1.52,3.064.57,1.021,1.116,2.019,1.71,3.016.57,1,1.093,2,1.591,3.016h.048c.5-1.045,1.021-2.066,1.544-3.064s1.069-2,1.615-2.993,1.069-2.019,1.591-2.993a.4.4,0,0,1,.142-.237.453.453,0,0,1,.309-.048H56.44a.219.219,0,0,1,.261.166c.024.024-.024.119-.071.166Z" transform="translate(-34.961 -57.93)"/><path class="b" d="M140.3,78.767A11.807,11.807,0,0,1,135.19,77.7a8.28,8.28,0,0,1-3.586-3.23,10.276,10.276,0,0,1-1.306-5.415,9.754,9.754,0,0,1,1.306-5.011,9.863,9.863,0,0,1,3.776-3.681,12.149,12.149,0,0,1,6.009-1.378,4.241,4.241,0,0,1,.5.024c.214.024.451.024.736.047v-7.5c0-.166.071-.261.238-.261h4.821a.213.213,0,0,1,.237.166V74.112c0,.427.024.9.047,1.425.048.5.071.974.1,1.377a.386.386,0,0,1-.238.38,18.139,18.139,0,0,1-3.871,1.14A20.949,20.949,0,0,1,140.3,78.767Zm2.327-4.75V63.567a6.073,6.073,0,0,0-.641-.119c-.261-.024-.522-.048-.784-.048a5.855,5.855,0,0,0-2.684.618,5.325,5.325,0,0,0-2.019,1.757,5.265,5.265,0,0,0-.784,3.016,6.619,6.619,0,0,0,.4,2.446,4.642,4.642,0,0,0,1.069,1.686,4.1,4.1,0,0,0,1.615.95,6.217,6.217,0,0,0,1.971.309c.356,0,.689-.024,1-.047A2.077,2.077,0,0,0,142.623,74.017Z" transform="translate(-107.654 -51.284)"/></g></g></svg>