<svg xmlns="http://www.w3.org/2000/svg" width="57.001" height="57" viewBox="0 0 57.001 57"><defs><style>.a{fill:#3c5a99;}.b{fill:#fff;fill-rule:evenodd;}</style></defs><g transform="translate(-131.32 -462.297)"><g transform="translate(131.32 462.297)"><path class="a" d="M159.82,519.3a28.5,28.5,0,1,1,28.5-28.5A28.532,28.532,0,0,1,159.82,519.3Z" transform="translate(-131.32 -462.297)"/></g><g transform="translate(151.854 473.715)"><path class="b" d="M154.481,490.448v16.518a.43.43,0,0,0,.43.43h6.134a.43.43,0,0,0,.43-.43V490.179h4.447a.43.43,0,0,0,.428-.394l.428-5.058a.431.431,0,0,0-.429-.467h-4.875v-3.588A1.523,1.523,0,0,1,163,479.149h3.428a.43.43,0,0,0,.43-.429v-5.058a.43.43,0,0,0-.43-.43h-5.791a6.153,6.153,0,0,0-6.154,6.154v4.876h-3.067a.43.43,0,0,0-.43.43v5.058a.43.43,0,0,0,.43.43h3.067Z" transform="translate(-150.984 -473.231)"/></g></g></svg>