<svg xmlns="http://www.w3.org/2000/svg" width="45.271" height="45.271" viewBox="0 0 45.271 45.271"><defs><style>.a{fill:#f3f9ff;}.b{fill:#f9ab00;}.c{fill:#e37400;}</style></defs><g transform="translate(-380 -451)"><rect class="a" width="45.271" height="45.271" rx="10" transform="translate(380 451)"/><g transform="translate(391 460.978)"><path class="b" d="M1600.148,22.768a3.231,3.231,0,0,1-3.214,3.248,3.094,3.094,0,0,1-.4-.022,3.314,3.314,0,0,1-2.828-3.358V3.4a3.315,3.315,0,0,1,2.833-3.358,3.227,3.227,0,0,1,3.607,3.226Z" transform="translate(-1576.661 0)"/><path class="c" d="M3.22,925.861A3.22,3.22,0,1,1,0,929.081,3.22,3.22,0,0,1,3.22,925.861Zm8.473-9.76a3.314,3.314,0,0,0-3.132,3.386v8.65c0,2.348,1.033,3.772,2.547,4.076a3.225,3.225,0,0,0,3.8-2.521,3.153,3.153,0,0,0,.064-.649v-9.705a3.231,3.231,0,0,0-3.226-3.238Z" transform="translate(0 -906.28)"/></g></g></svg>