<svg xmlns="http://www.w3.org/2000/svg" width="53.618" height="59.637" viewBox="0 0 53.618 59.637"><defs><style>.a{fill:#f8761f;}</style></defs><path class="a" d="M54.938,28.326a15.137,15.137,0,0,0-5.5-5.464,14.83,14.83,0,0,0-5.564-1.93V13.667a5.323,5.323,0,0,0,3.285-4.99,5.46,5.46,0,0,0-5.432-5.487H41.7a5.505,5.505,0,0,0-5.5,5.487,5.254,5.254,0,0,0,3.216,4.99v7.225a15.9,15.9,0,0,0-4.84,1.52L15.12,7.684a6.216,6.216,0,0,0,.255-1.605,6.129,6.129,0,1,0-2.953,5.191l1.274.964,17.448,12.58a14.525,14.525,0,0,0-2.47,2.894,13.511,13.511,0,0,0-2.244,7.279v.546a15.24,15.24,0,0,0,.956,5.26,13.74,13.74,0,0,0,2.261,3.931l-5.8,5.809a4.691,4.691,0,1,0,2.866,2.994L32.7,47.539A14.994,14.994,0,0,0,35.366,49a15.567,15.567,0,0,0,6.229,1.31H42a14.908,14.908,0,0,0,12.676-7.043,13.74,13.74,0,0,0,2.162-7.416V35.71a14.594,14.594,0,0,0-1.911-7.389ZM47.627,40.892a7.617,7.617,0,0,1-5.605,2.921h-.4a7.519,7.519,0,0,1-3.54-.942,8.189,8.189,0,0,1-3.1-2.825A6.587,6.587,0,0,1,33.687,36.2v-.409a8.173,8.173,0,0,1,3.8-6.988,7.083,7.083,0,0,1,4-1.206h.136a8.128,8.128,0,0,1,3.762.864,7.967,7.967,0,0,1,2.957,2.689,8.544,8.544,0,0,1,1.324,3.776l.032.851A7.474,7.474,0,0,1,47.577,40.9Z" transform="translate(-3.223)"/></svg>