<svg xmlns="http://www.w3.org/2000/svg" width="76.21" height="57" viewBox="0 0 76.21 57"><defs><style>.a{fill:#603eff;}</style></defs><path class="a" d="M13.845,13.662,37.567,26.092a1.1,1.1,0,0,0,.984,0L62.273,13.662a.639.639,0,0,0,0-1.139L38.551.092a1.1,1.1,0,0,0-.984,0L13.845,12.522A.639.639,0,0,0,13.845,13.662ZM7.267,25.16l30.3,15.849a1.1,1.1,0,0,0,.984,0l30.3-15.849a.639.639,0,0,0,0-1.139l-8.7-4.558-21.6,11.343a1.1,1.1,0,0,1-.984,0l-21.6-11.291-8.7,4.558A.6.6,0,0,0,7.267,25.16ZM75.791,36.192l-9.53-4.972L38.551,45.774a1.1,1.1,0,0,1-.984,0L9.8,31.22.275,36.192a.639.639,0,0,0,0,1.139l37.24,19.527a1.1,1.1,0,0,0,.984,0l37.24-19.527a.625.625,0,0,0,.052-1.139Z" transform="translate(0.075 0.025)"/></svg>