<svg xmlns="http://www.w3.org/2000/svg" width="57.001" height="57" viewBox="0 0 57.001 57"><defs><style>.a{fill:#007ab9;}.b{fill:#fff;}</style></defs><g transform="translate(-131.366 -527.444)"><g transform="translate(131.366 527.444)"><path class="a" d="M159.867,584.444a28.5,28.5,0,1,1,28.5-28.5A28.532,28.532,0,0,1,159.867,584.444Z" transform="translate(-131.366 -527.444)"/><g transform="translate(14.929 21.946)"><path class="b" d="M175.322,557.149V567.79a.476.476,0,0,1-.476.477h-5.494a.477.477,0,0,1-.476-.477v-9.9c0-2.6-.93-4.383-3.265-4.383a3.525,3.525,0,0,0-3.305,2.357,4.393,4.393,0,0,0-.213,1.571V567.79a.477.477,0,0,1-.477.476h-5.492a.474.474,0,0,1-.476-.476c.013-2.636.068-15.424.012-18.429a.474.474,0,0,1,.476-.482h5.481a.477.477,0,0,1,.476.477v2.271c-.014.021-.031.043-.043.064h.043v-.064a6.4,6.4,0,0,1,5.81-3.2c4.241,0,7.419,2.771,7.419,8.725Zm-29.208,11.118h5.493a.477.477,0,0,0,.476-.477V549.356a.477.477,0,0,0-.476-.477h-5.493a.477.477,0,0,0-.476.477V567.79A.477.477,0,0,0,146.114,568.267Z" transform="translate(-145.638 -548.424)"/></g></g><g transform="translate(145.874 540.478)"><circle class="b" cx="3.45" cy="3.45" r="3.45"/></g></g></svg>