<svg xmlns="http://www.w3.org/2000/svg" width="55.233" height="58.666" viewBox="0 0 55.233 58.666"><g transform="translate(-44.121 -30.984)"><path d="M85.678,58.689a4.718,4.718,0,0,1,1.212,0,4.1,4.1,0,0,0,.065-2.294c-.287-1.395-.691-2.242-1.5-2.112s-.847,1.147-.548,2.542a4.492,4.492,0,0,0,.769,1.864Zm-7,1.108c.587.261.939.43,1.082.274.248-.248-.456-1.225-1.577-1.708a4.118,4.118,0,0,0-4,.482c-.391.287-.756.678-.7.926.117.482,1.3-.352,2.959-.456a4.607,4.607,0,0,1,2.242.482Zm-1.173.665c-1.186.183-1.955.847-1.76,1.317.117.039.156.1.678-.1a4.9,4.9,0,0,1,2.451-.261c.378.039.561.065.652-.065.169-.274-.756-1.03-2.021-.886ZM84.57,62.7c.443-.9-1.421-1.825-1.864-.913S84.14,63.6,84.57,62.7Zm2.047-2.672c-1-.013-1.043,2.06-.039,2.086,1.017,0,1.056-2.073.039-2.086ZM58.041,70.33a.975.975,0,0,1-1.108-.313c-.678-1.043,1.447-2.659.391-4.68a2.8,2.8,0,0,0-4.576-.73c-1.134,1.252-1.134,3.077-.652,3.142.561.078.534-.847.965-1.525a1.67,1.67,0,0,1,2.32-.5.013.013,0,0,1,.013.013c1.512.991.182,2.32.3,3.741.183,2.177,2.412,2.138,2.816,1.173a.278.278,0,0,0-.026-.3c0,.143.078-.143-.443-.026ZM97.2,68.1a23.123,23.123,0,0,0-.886-2.686,4.355,4.355,0,0,0-.4-5.645c-1.356-1.421-4.432-2.164-5.371-2.425-.2-1.486.613-7.665-2.816-10.846,2.712-2.816,4.406-5.919,4.406-8.578-.013-5.11-6.3-6.662-14.04-3.455l-1.643.691-3.011-2.946c-8.813-7.691-36.424,22.983-27.6,30.44l1.929,1.63a9.445,9.445,0,0,0-.534,4.38,9.241,9.241,0,0,0,8.826,7.887c7.548,17.391,35,17.417,42.108.391a17.7,17.7,0,0,0,1.186-5.54c0-2.32-1.317-3.3-2.151-3.3ZM55.9,74.4a7.1,7.1,0,0,1-6.518-5.945c-.808-8,9.7-9.829,10.977-1.617.6,3.872-.613,7.639-4.458,7.561ZM53.491,59.471a7.625,7.625,0,0,0-4.8,3.064,13.5,13.5,0,0,1-2.034-1.955c-1.695-3.246,1.864-9.543,4.354-13.089C57.167,38.7,66.8,32.055,71.273,33.255,72,33.463,74.4,36.24,74.4,36.24a62.637,62.637,0,0,0-8.591,5.932,38.94,38.94,0,0,0-12.319,17.3ZM84.7,72.69a20.891,20.891,0,0,1-9.086-.926c.808-2.633,3.533.8,12.593-1.8a20.374,20.374,0,0,0,6.662-3.311,12.97,12.97,0,0,1,.926,3.168c.482-.091,1.864-.065,1.5,2.36A12.177,12.177,0,0,1,93.9,78.83a14.118,14.118,0,0,1-4.067,3.051A17.663,17.663,0,0,1,87.177,83c-6.988,2.281-14.145-.222-16.465-5.619a10.672,10.672,0,0,1-.469-1.278A11.214,11.214,0,0,1,72.707,65.6a.982.982,0,0,0,.326-.626,1.117,1.117,0,0,0-.248-.6c-.913-1.33-4.08-3.585-3.442-7.952a5.944,5.944,0,0,1,5.762-5.215l.652.039c1.108.065,2.073.209,2.985.248a5.96,5.96,0,0,0,4.524-1.512A3.449,3.449,0,0,1,85,49a2.283,2.283,0,0,1,1.773.287c1.3.873,1.486,2.972,1.551,4.511.039.873.143,3.011.183,3.611.078,1.395.443,1.59,1.186,1.825.417.143.808.235,1.369.4a7.99,7.99,0,0,1,3.4,1.6,2.183,2.183,0,0,1,.626,1.212c.209,1.486-1.147,3.324-4.745,4.98a24.423,24.423,0,0,1-13.128,1.786c-2.633-.352-4.133,3.051-2.555,5.371,2.959,4.367,16,2.607,19.776-2.79.091-.13.013-.209-.091-.13-5.462,3.728-12.684,4.993-16.791,3.4-.626-.248-1.929-.847-2.086-2.177,5.7,1.76,9.282.091,9.282.091s.287-.339-.052-.3ZM64.859,47.451a25.7,25.7,0,0,1,7.3-5.958.093.093,0,0,1,.13.039.111.111,0,0,1,0,.091,7.042,7.042,0,0,0-.678,1.656.1.1,0,0,0,.078.117.086.086,0,0,0,.078-.013,14.18,14.18,0,0,1,6.4-2.255.1.1,0,0,1,.1.091.118.118,0,0,1-.039.091,4.95,4.95,0,0,0-1,1.017.089.089,0,0,0,.026.13.078.078,0,0,0,.052.013,12.565,12.565,0,0,1,5.358,1.408c.1.052.026.248-.078.222a22.4,22.4,0,0,0-17.573,3.507.119.119,0,0,1-.143-.026c-.039-.052-.039-.1-.013-.13Z" transform="translate(0 0)"/></g></svg>