<svg xmlns="http://www.w3.org/2000/svg" width="45.271" height="45.271" viewBox="0 0 45.271 45.271"><defs><style>.a{fill:#f3f9ff;}.b{fill:none;}.c{fill:#53bce7;}</style></defs><g transform="translate(-380 -874)"><rect class="a" width="45.271" height="45.271" rx="10" transform="translate(380 874)"/><g transform="translate(373.21 883.726)"><path class="b" d="M79.275,19.161a2.128,2.128,0,0,0-2.256,1.97,2.278,2.278,0,0,0,4.514,0A2.129,2.129,0,0,0,79.275,19.161Z" transform="translate(-48.87 -7.891)"/><path class="c" d="M38.932,14.431l3.994-4.21H34.7a.306.306,0,0,0-.295.291v.849a4.67,4.67,0,0,0-4-2.088A4.4,4.4,0,0,0,25.922,12.6V10.222H24.49a1.205,1.205,0,0,0-.862.389l-2.771,3.082-2.772-3.082a1.2,1.2,0,0,0-.862-.389H15.79v6.153h1.672a.313.313,0,0,0,.3-.3h0V13.187l3.1,3.452,3.1-3.452,0,2.887a.311.311,0,0,0,.294.3h1.672v-2.5a4.4,4.4,0,0,0,4.484,3.331,4.284,4.284,0,0,0,4.543-3.966,3.5,3.5,0,0,0-.171-1.075H38.4l-3.983,4.21h8.214a.307.307,0,0,0,.294-.292h0V14.431Zm-8.526.779a2.128,2.128,0,0,1-2.256-1.97,2.278,2.278,0,0,1,4.514,0A2.129,2.129,0,0,1,30.405,15.21Z" transform="translate(0)"/></g></g></svg>