<svg xmlns="http://www.w3.org/2000/svg" width="56.999" height="57" viewBox="0 0 56.999 57"><defs><style>.a{fill:red;}.b{fill:#fff;}</style></defs><g transform="translate(-213.225 -398.068)"><g transform="translate(213.225 398.068)"><path class="a" d="M241.724,455.068a28.5,28.5,0,1,1,28.5-28.5A28.532,28.532,0,0,1,241.724,455.068Z" transform="translate(-213.225 -398.068)"/></g><g transform="translate(225.168 414.927)"><path class="b" d="M258.283,421.532a7.319,7.319,0,0,0-7.319-7.319H231.981a7.32,7.32,0,0,0-7.319,7.319v8.9a7.32,7.32,0,0,0,7.319,7.319h18.983a7.319,7.319,0,0,0,7.319-7.319Zm-11.976,4.9-7.571,4.152c-.329.179-.625-.06-.625-.434v-8.523c0-.378.3-.616.635-.429l7.623,4.371A.5.5,0,0,1,246.307,426.428Z" transform="translate(-224.662 -414.213)"/></g></g></svg>