<?xml version="1.0" encoding="utf-8"?>
<svg width="60" height="60" viewBox="0 0 60 60" fill="none" xmlns="http://www.w3.org/2000/svg">
  <rect y="22" width="60" height="25" fill="#F9FAFF"/>
  <rect y="6.30078" width="60" height="12.1805" fill="#F9FAFF"/>
  <path d="M51.7234 53.0457C52.2399 52.1875 52.633 51.2608 52.8912 50.2931L54.9563 49.898L54.9789 47.6133L55 45.3287L52.9414 44.8948C52.7005 43.9243 52.3248 42.9923 51.8254 42.126L53.0062 40.387L51.4043 38.7565L49.8073 37.1292L48.045 38.2756C47.1868 37.7588 46.2598 37.3658 45.2915 37.1082L44.8963 35.0437L42.611 35.0227L40.3256 35L39.8931 37.0628C38.9219 37.3039 37.9891 37.6794 37.1218 38.1784L35.392 36.9948L33.7593 38.5946L32.1299 40.1943L33.2766 41.956C32.7599 42.8141 32.3668 43.7407 32.1088 44.7085L30.0437 45.1036L30.0227 47.3883L30 49.6729L32.0586 50.1069C32.2995 51.0779 32.6751 52.0104 33.1746 52.8773L31.9906 54.6114L33.5909 56.2419L35.1911 57.8724L36.9534 56.7244C37.8118 57.2409 38.7387 57.634 39.7068 57.8918L40.0891 59.9563L42.3745 59.979L44.6599 60L45.0988 57.9501C46.0685 57.7069 46.9992 57.3287 47.8636 56.8264L49.6032 58.0068L51.2342 56.4054L52.8652 54.8057L51.7234 53.0457ZM38.4969 51.4265C37.7202 50.6359 37.1954 49.6328 36.989 48.5441C36.7826 47.4553 36.9038 46.3298 37.3373 45.3099C37.7708 44.29 38.4971 43.4216 39.4244 42.8144C40.3517 42.2072 41.4383 41.8886 42.5467 41.8988C43.6551 41.909 44.7357 42.2475 45.6516 42.8717C46.5676 43.4958 47.2778 44.3775 47.6924 45.4052C48.1071 46.4328 48.2076 47.5604 47.9812 48.6451C47.7548 49.7299 47.2116 50.7232 46.4205 51.4994C45.3597 52.5396 43.9291 53.1161 42.4433 53.1021C40.9574 53.0882 39.5379 52.4849 38.4969 51.4249V51.4265Z" fill="#F9FAFF"/>
  <rect y="22" width="60" height="25" style="fill: rgb(219, 220, 255);"/>
  <rect y="6.30078" width="60" height="12.1805" style="fill: rgb(157, 157, 244);"/>
  <g style="mix-blend-mode:multiply">
    <path d="M51.7234 53.0457C52.2399 52.1875 52.633 51.2608 52.8912 50.2931L54.9563 49.898L54.9789 47.6133L55 45.3287L52.9414 44.8948C52.7005 43.9243 52.3248 42.9923 51.8254 42.126L53.0062 40.387L51.4043 38.7565L49.8073 37.1292L48.045 38.2756C47.1868 37.7588 46.2598 37.3658 45.2915 37.1082L44.8963 35.0437L42.611 35.0227L40.3256 35L39.8931 37.0628C38.9219 37.3039 37.9891 37.6794 37.1218 38.1784L35.392 36.9948L33.7593 38.5946L32.1299 40.1943L33.2766 41.956C32.7599 42.8141 32.3668 43.7407 32.1088 44.7085L30.0437 45.1036L30.0227 47.3883L30 49.6729L32.0586 50.1069C32.2995 51.0779 32.6751 52.0104 33.1746 52.8773L31.9906 54.6114L33.5909 56.2419L35.1911 57.8724L36.9534 56.7244C37.8118 57.2409 38.7387 57.634 39.7068 57.8918L40.0891 59.9563L42.3745 59.979L44.6599 60L45.0988 57.9501C46.0685 57.7069 46.9992 57.3287 47.8636 56.8264L49.6032 58.0068L51.2342 56.4054L52.8652 54.8057L51.7234 53.0457ZM38.4969 51.4265C37.7202 50.6359 37.1954 49.6328 36.989 48.5441C36.7826 47.4553 36.9038 46.3298 37.3373 45.3099C37.7708 44.29 38.4971 43.4216 39.4244 42.8144C40.3517 42.2072 41.4383 41.8886 42.5467 41.8988C43.6551 41.909 44.7357 42.2475 45.6516 42.8717C46.5676 43.4958 47.2778 44.3775 47.6924 45.4052C48.1071 46.4328 48.2076 47.5604 47.9812 48.6451C47.7548 49.7299 47.2116 50.7232 46.4205 51.4994C45.3597 52.5396 43.9291 53.1161 42.4433 53.1021C40.9574 53.0882 39.5379 52.4849 38.4969 51.4249V51.4265Z" style="fill: rgb(219, 220, 255);"/>
  </g>
</svg>