<?xml version="1.0" encoding="utf-8"?>
<svg width="60" height="60" viewBox="0 0 60 60" fill="none" xmlns="http://www.w3.org/2000/svg">
  <path d="M29.5605 53L29.5605 30.56L52.0005 30.56L52.0005 53L29.5605 53Z" fill="#F9FAFF"/>
  <path d="M40.741 30.5C34.5277 30.5 29.4907 25.4631 29.4907 19.2497C29.4907 13.0363 34.5277 7.99941 40.741 7.99941C46.9544 7.99941 51.9913 13.0363 51.9913 19.2497C51.9913 25.4631 46.9544 30.5 40.741 30.5Z" fill="#F9FAFF"/>
  <path d="M6.99854 8.00195L18.2185 8.00195C24.4152 8.00195 29.4385 13.0253 29.4385 19.222C29.4385 25.4186 24.4152 30.4419 18.2185 30.4419L6.99854 30.4419L6.99854 8.00195Z" fill="#F9FAFF"/>
  <path d="M6.99854 53L6.99853 30.56L18.1596 41.839L29.4385 53L6.99854 53Z" fill="#F9FAFF"/>
  <path d="M29.562 53L29.562 30.56L52.002 30.56L52.002 53L29.562 53Z" style="fill: rgb(157, 157, 244);"/>
  <g style="mix-blend-mode:multiply">
    <path d="M40.7425 30.5C34.5291 30.5 29.4922 25.4631 29.4922 19.2497C29.4922 13.0363 34.5291 7.99941 40.7425 7.99941C46.9558 7.99941 51.9928 13.0363 51.9928 19.2497C51.9928 25.4631 46.9559 30.5 40.7425 30.5Z" style="fill: rgb(219, 220, 255);"/>
  </g>
  <g style="mix-blend-mode:multiply">
    <path d="M7 8.00195L18.22 8.00195C24.4166 8.00195 29.44 13.0253 29.44 19.222C29.44 25.4186 24.4166 30.4419 18.22 30.4419L7 30.4419L7 8.00195Z" style="fill: rgb(157, 157, 244);"/>
  </g>
  <g style="mix-blend-mode:multiply">
    <path d="M7 53L7 30.56L18.161 41.839L29.44 53L7 53Z" style="fill: rgb(219, 220, 255);"/>
  </g>
</svg>