<svg xmlns="http://www.w3.org/2000/svg" xmlns:xlink="http://www.w3.org/1999/xlink" width="1500" zoomAndPan="magnify" viewBox="0 0 1125 225" height="300" preserveAspectRatio="xMidYMid meet" version="1.0"><defs><g/><clipPath id="id1"><path d="M 47 1.898438 L 249 1.898438 L 249 223 L 47 223 Z M 47 1.898438 " clip-rule="nonzero"/></clipPath></defs><g clip-path="url(#id1)"><path fill="#9d9df4" d="M 248.753906 171.824219 C 248.605469 165.179688 247.296875 158.777344 244.824219 152.609375 C 243.605469 149.425781 242.507812 146.871094 240.03125 141.367188 L 240.03125 141.054688 L 239.246094 139.441406 C 224.109375 105.933594 208.195312 72.6875 191.511719 39.703125 L 190.019531 36.757812 C 187.308594 31.371094 186.089844 28.894531 184.402344 25.910156 C 181.851562 20.992188 178.605469 16.589844 174.65625 12.707031 C 173.019531 11.121094 171.253906 9.695312 169.363281 8.421875 C 167.46875 7.148438 165.484375 6.050781 163.398438 5.128906 C 161.3125 4.207031 159.164062 3.476562 156.953125 2.933594 C 154.738281 2.390625 152.496094 2.046875 150.21875 1.898438 L 146.292969 1.898438 C 143.929688 2.015625 141.597656 2.34375 139.296875 2.886719 C 136.996094 3.425781 134.761719 4.171875 132.597656 5.125 C 130.429688 6.074219 128.371094 7.210938 126.414062 8.539062 C 124.457031 9.867188 122.636719 11.359375 120.949219 13.019531 C 117.179688 16.8125 114.066406 21.085938 111.601562 25.832031 C 109.949219 28.816406 108.613281 31.449219 106.019531 36.558594 L 105.707031 37.148438 L 104.527344 39.46875 C 93.421875 61.421875 82.578125 83.691406 71.996094 106.273438 C 64.140625 122.859375 58.796875 134.765625 53.53125 146.671875 C 50.664062 152.652344 48.699219 158.914062 47.640625 165.457031 C 47.234375 168.292969 47.074219 171.140625 47.160156 174.003906 C 47.242188 176.867188 47.570312 179.699219 48.144531 182.507812 C 48.714844 185.3125 49.523438 188.050781 50.566406 190.714844 C 51.609375 193.382812 52.875 195.941406 54.359375 198.390625 C 55.484375 200.28125 56.734375 202.089844 58.105469 203.8125 C 59.480469 205.535156 60.960938 207.15625 62.558594 208.675781 C 64.152344 210.195312 65.839844 211.601562 67.625 212.890625 C 69.414062 214.179688 71.277344 215.339844 73.222656 216.375 C 75.164062 217.410156 77.171875 218.308594 79.238281 219.066406 C 81.304688 219.828125 83.414062 220.445312 85.566406 220.917969 C 87.714844 221.390625 89.886719 221.714844 92.082031 221.890625 C 94.277344 222.066406 96.476562 222.09375 98.675781 221.96875 C 103.71875 221.609375 108.636719 220.621094 113.429688 219.003906 C 118.21875 217.382812 122.730469 215.191406 126.960938 212.417969 L 127.15625 212.417969 C 127.5 212.203125 127.8125 211.949219 128.097656 211.65625 C 128.382812 211.367188 128.628906 211.046875 128.839844 210.703125 C 129.050781 210.355469 129.21875 209.988281 129.34375 209.601562 C 129.472656 209.21875 129.554688 208.824219 129.589844 208.417969 C 129.625 208.015625 129.613281 207.609375 129.558594 207.207031 C 129.503906 206.808594 129.402344 206.417969 129.253906 206.039062 C 129.109375 205.660156 128.921875 205.300781 128.695312 204.964844 C 128.464844 204.628906 128.203125 204.324219 127.90625 204.050781 C 125.457031 201.699219 123.191406 199.183594 121.109375 196.503906 C 120.703125 195.980469 120.214844 195.542969 119.652344 195.195312 C 119.085938 194.851562 118.476562 194.617188 117.824219 194.492188 C 117.175781 194.371094 116.523438 194.367188 115.867188 194.484375 C 115.214844 194.597656 114.605469 194.828125 114.035156 195.167969 C 110.371094 197.4375 106.441406 199.074219 102.25 200.078125 C 99.101562 200.824219 95.917969 201.007812 92.703125 200.628906 C 89.492188 200.253906 86.4375 199.335938 83.546875 197.878906 C 81.875 197.007812 80.308594 195.972656 78.851562 194.777344 C 77.394531 193.582031 76.074219 192.246094 74.894531 190.773438 C 73.714844 189.304688 72.699219 187.726562 71.847656 186.042969 C 70.996094 184.359375 70.324219 182.605469 69.835938 180.785156 C 69.125 178.042969 68.820312 175.257812 68.925781 172.425781 C 69.035156 169.597656 69.546875 166.839844 70.464844 164.160156 C 71.832031 160.238281 73.40625 156.402344 75.179688 152.648438 L 75.375 152.175781 L 76.4375 149.777344 C 91.234375 116.898438 106.949219 84.148438 123.582031 51.53125 L 124.839844 49.015625 C 127.785156 43.160156 129.160156 40.488281 130.890625 37.226562 C 132.558594 33.773438 134.851562 30.800781 137.765625 28.308594 C 138.519531 27.71875 139.320312 27.199219 140.164062 26.75 C 141.007812 26.296875 141.882812 25.921875 142.789062 25.621094 C 143.699219 25.316406 144.625 25.09375 145.570312 24.949219 C 146.515625 24.804688 147.46875 24.742188 148.421875 24.761719 C 149.378906 24.777344 150.328125 24.875 151.265625 25.054688 C 152.207031 25.234375 153.125 25.492188 154.019531 25.828125 C 154.917969 26.164062 155.777344 26.570312 156.601562 27.054688 C 157.429688 27.535156 158.210938 28.085938 158.941406 28.699219 C 162.109375 31.664062 164.582031 35.121094 166.367188 39.074219 C 170.296875 46.542969 173.675781 53.300781 179.921875 65.835938 L 181.023438 68.078125 L 181.023438 68.3125 C 194.980469 96.476562 208.328125 124.746094 221.054688 153.117188 L 221.683594 154.574219 L 221.921875 155.121094 C 223.601562 158.65625 225.003906 162.296875 226.125 166.046875 C 226.828125 168.566406 227.175781 171.132812 227.175781 173.75 C 227.175781 176.367188 226.828125 178.933594 226.125 181.453125 C 225.902344 182.246094 225.644531 183.027344 225.347656 183.792969 C 225.054688 184.5625 224.726562 185.316406 224.363281 186.054688 C 224 186.792969 223.601562 187.515625 223.171875 188.21875 C 222.742188 188.917969 222.28125 189.601562 221.789062 190.257812 C 221.292969 190.917969 220.773438 191.554688 220.222656 192.167969 C 219.671875 192.777344 219.09375 193.363281 218.488281 193.921875 C 217.882812 194.480469 217.253906 195.007812 216.601562 195.507812 C 215.945312 196.007812 215.269531 196.480469 214.574219 196.917969 C 213.878906 197.355469 213.164062 197.761719 212.429688 198.132812 C 211.695312 198.507812 210.945312 198.84375 210.179688 199.148438 C 209.414062 199.449219 208.636719 199.71875 207.847656 199.949219 C 207.058594 200.183594 206.257812 200.378906 205.449219 200.535156 C 204.644531 200.695312 203.828125 200.816406 203.011719 200.898438 C 202.191406 200.980469 201.371094 201.027344 200.546875 201.035156 C 199.726562 201.042969 198.902344 201.011719 198.082031 200.945312 C 197.261719 200.878906 196.449219 200.773438 195.636719 200.628906 C 191.550781 199.804688 187.644531 198.453125 183.917969 196.578125 C 180.191406 194.707031 176.777344 192.375 173.675781 189.585938 C 170.808594 187.210938 168.085938 184.683594 165.503906 182.003906 C 157.832031 174.503906 151.101562 166.238281 145.308594 157.207031 L 144.917969 156.65625 L 144.679688 156.339844 C 140.917969 150.734375 137.683594 144.839844 134.976562 138.65625 C 132.777344 133.890625 131.296875 128.914062 130.535156 123.722656 C 129.953125 119.882812 130.28125 116.125 131.519531 112.445312 C 132.085938 110.890625 132.882812 109.464844 133.910156 108.167969 C 134.941406 106.871094 136.144531 105.765625 137.53125 104.859375 C 138.382812 104.3125 139.277344 103.835938 140.207031 103.433594 C 141.132812 103.027344 142.089844 102.695312 143.070312 102.441406 C 144.050781 102.1875 145.046875 102.011719 146.058594 101.910156 C 147.066406 101.8125 148.078125 101.796875 149.089844 101.855469 C 150.101562 101.917969 151.101562 102.058594 152.089844 102.277344 C 153.082031 102.496094 154.046875 102.792969 154.992188 103.164062 C 155.933594 103.535156 156.84375 103.980469 157.714844 104.496094 C 158.589844 105.007812 159.417969 105.589844 160.199219 106.234375 C 161.695312 107.605469 162.898438 109.199219 163.808594 111.011719 C 164.714844 112.828125 165.265625 114.746094 165.464844 116.765625 C 165.921875 122.910156 164.980469 128.832031 162.636719 134.53125 C 162.214844 135.65625 161.757812 136.785156 161.261719 137.910156 C 160.824219 138.878906 160.523438 139.886719 160.355469 140.933594 C 160.1875 141.984375 160.15625 143.035156 160.269531 144.09375 C 160.378906 145.148438 160.625 146.171875 161.003906 147.164062 C 161.386719 148.152344 161.890625 149.078125 162.515625 149.933594 C 164.507812 152.554688 166.394531 154.953125 168.175781 157.125 C 168.453125 157.457031 168.765625 157.753906 169.117188 158.007812 C 169.464844 158.265625 169.839844 158.472656 170.242188 158.640625 C 170.640625 158.804688 171.054688 158.917969 171.484375 158.980469 C 171.910156 159.046875 172.339844 159.058594 172.773438 159.015625 C 173.203125 158.976562 173.621094 158.882812 174.03125 158.742188 C 174.441406 158.597656 174.824219 158.410156 175.1875 158.171875 C 175.550781 157.9375 175.878906 157.660156 176.175781 157.34375 C 176.472656 157.027344 176.726562 156.679688 176.9375 156.300781 C 177.746094 154.835938 178.507812 153.367188 179.214844 151.898438 C 181.707031 147.144531 183.667969 142.179688 185.097656 137.007812 C 186.527344 131.835938 187.394531 126.566406 187.699219 121.207031 C 187.875 117.566406 187.585938 113.964844 186.84375 110.394531 C 186.097656 106.828125 184.917969 103.410156 183.300781 100.144531 C 182.199219 98.011719 180.910156 96 179.433594 94.109375 C 177.953125 92.21875 176.3125 90.484375 174.503906 88.90625 C 172.699219 87.324219 170.761719 85.925781 168.695312 84.710938 C 166.625 83.496094 164.460938 82.480469 162.203125 81.675781 C 158.007812 80.175781 153.6875 79.367188 149.234375 79.246094 C 144.785156 79.125 140.425781 79.699219 136.15625 80.964844 C 132.078125 82.132812 128.296875 83.921875 124.804688 86.328125 C 121.316406 88.738281 118.304688 91.640625 115.765625 95.035156 C 113.570312 98.046875 111.828125 101.300781 110.546875 104.800781 C 109.265625 108.300781 108.488281 111.910156 108.222656 115.628906 C 107.929688 120.703125 108.238281 125.738281 109.140625 130.742188 C 110.042969 135.742188 111.519531 140.566406 113.566406 145.21875 C 118.632812 157.101562 125.183594 168.105469 133.207031 178.230469 C 136.273438 182.160156 141.8125 188.410156 147.707031 194.539062 C 153.453125 200.78125 159.832031 206.296875 166.839844 211.082031 C 171.03125 214.003906 175.515625 216.363281 180.296875 218.160156 C 185.078125 219.957031 190.007812 221.136719 195.085938 221.695312 C 197.878906 221.992188 200.675781 222.042969 203.476562 221.855469 C 206.277344 221.664062 209.039062 221.234375 211.765625 220.566406 C 214.492188 219.894531 217.140625 218.996094 219.707031 217.867188 C 222.277344 216.734375 224.730469 215.390625 227.066406 213.835938 C 228.765625 212.679688 230.390625 211.429688 231.933594 210.074219 C 233.476562 208.71875 234.933594 207.273438 236.296875 205.738281 C 237.660156 204.203125 238.925781 202.589844 240.089844 200.898438 C 241.253906 199.207031 242.3125 197.449219 243.257812 195.625 C 244.203125 193.800781 245.035156 191.925781 245.746094 190 C 246.460938 188.074219 247.054688 186.113281 247.523438 184.113281 C 247.992188 182.113281 248.335938 180.089844 248.558594 178.046875 C 248.777344 176.003906 248.867188 173.957031 248.832031 171.902344 Z M 248.753906 171.824219 " fill-opacity="1" fill-rule="nonzero"/></g><g fill="#09094f" fill-opacity="1"><g transform="translate(293.890669, 139.25689)"><g><path d="M 74.480469 0 L 99.128906 0 L 61.367188 -104.898438 L 35.492188 -104.898438 L -2.273438 0 L 22.378906 0 L 28.847656 -19.757812 L 68.011719 -19.757812 Z M 34.964844 -38.988281 L 48.429688 -80.597656 L 61.890625 -38.988281 Z M 34.964844 -38.988281 "/></g></g></g><g fill="#09094f" fill-opacity="1"><g transform="translate(396.899025, 139.25689)"><g><path d="M 101.753906 -104.898438 L 68.359375 -32.34375 L 35.316406 -104.898438 L 10.316406 -104.898438 L 10.316406 0 L 33.394531 0 L 33.394531 -62.589844 L 61.714844 0 L 75.003906 0 L 103.5 -62.414062 L 103.5 0 L 126.578125 0 L 126.578125 -104.898438 Z M 101.753906 -104.898438 "/></g></g></g><g fill="#09094f" fill-opacity="1"><g transform="translate(539.942781, 139.25689)"><g><path d="M 42.660156 1.398438 C 62.242188 1.398438 78.847656 -10.140625 78.847656 -29.722656 C 78.847656 -68.535156 30.597656 -58.917969 30.597656 -77.101562 C 30.597656 -83.046875 35.140625 -85.84375 40.734375 -85.84375 C 46.679688 -85.84375 52.625 -82.519531 57.871094 -76.75 L 73.253906 -91.4375 C 65.5625 -100.355469 53.847656 -106.296875 40.910156 -106.296875 C 24.300781 -106.296875 7.34375 -96.332031 7.34375 -75.351562 C 7.34375 -39.6875 55.773438 -48.253906 55.773438 -29.894531 C 55.773438 -24.125 50.875 -20.28125 42.835938 -20.28125 C 33.21875 -20.28125 25.699219 -25.699219 21.855469 -33.917969 L 2.796875 -22.027344 C 9.617188 -8.917969 24.300781 1.398438 42.660156 1.398438 Z M 42.660156 1.398438 "/></g></g></g><g fill="#09094f" fill-opacity="1"><g transform="translate(628.964978, 139.25689)"><g/></g></g><g fill="#09094f" fill-opacity="1"><g transform="translate(677.077638, 139.25689)"><g><path d="M 75.003906 -104.898438 L -0.875 -104.898438 L -0.875 -84.445312 L 25.699219 -84.445312 L 25.699219 0 L 48.601562 0 L 48.601562 -84.445312 L 75.003906 -84.445312 Z M 75.003906 -104.898438 "/></g></g></g><g fill="#09094f" fill-opacity="1"><g transform="translate(757.358469, 139.25689)"><g><path d="M 74.304688 -84.617188 L 74.304688 -104.898438 L 11.1875 -104.898438 L 11.1875 0 L 74.304688 0 L 74.304688 -20.28125 L 34.265625 -20.28125 L 34.265625 -42.308594 L 68.535156 -42.308594 L 68.535156 -62.589844 L 34.265625 -62.589844 L 34.265625 -84.617188 Z M 74.304688 -84.617188 "/></g></g></g><g fill="#09094f" fill-opacity="1"><g transform="translate(844.982021, 139.25689)"><g><path d="M 60.316406 1.398438 C 81.121094 1.398438 99.128906 -10.316406 108.046875 -27.449219 L 88.117188 -37.765625 C 83.046875 -27.796875 72.730469 -21.15625 60.316406 -21.15625 C 42.660156 -21.15625 29.195312 -34.792969 29.195312 -52.449219 C 29.195312 -70.109375 42.660156 -83.746094 60.316406 -83.746094 C 72.730469 -83.746094 83.046875 -77.101562 88.117188 -67.136719 L 108.046875 -77.449219 C 99.128906 -94.585938 81.121094 -106.296875 60.316406 -106.296875 C 30.597656 -106.296875 6.46875 -82.171875 6.46875 -52.449219 C 6.46875 -22.726562 30.597656 1.398438 60.316406 1.398438 Z M 60.316406 1.398438 "/></g></g></g><g fill="#09094f" fill-opacity="1"><g transform="translate(963.724789, 139.25689)"><g><path d="M 76.050781 -104.898438 L 76.050781 -62.765625 L 33.394531 -62.765625 L 33.394531 -104.898438 L 10.316406 -104.898438 L 10.316406 0 L 33.394531 0 L 33.394531 -42.308594 L 76.050781 -42.308594 L 76.050781 0 L 98.957031 0 L 98.957031 -104.898438 Z M 76.050781 -104.898438 "/></g></g></g><g fill="#09094f" fill-opacity="1"><g transform="translate(394.606617, 193.328004)"><g><path d="M 3.582031 0 L 11.628906 0 C 19.722656 0 26.347656 -6.574219 26.347656 -14.71875 C 26.347656 -22.863281 19.722656 -29.441406 11.628906 -29.441406 L 3.582031 -29.441406 Z M 6.671875 -3.140625 L 6.671875 -26.300781 L 11.578125 -26.300781 C 18.105469 -26.300781 23.207031 -21.34375 23.207031 -14.71875 C 23.207031 -8.097656 18.105469 -3.140625 11.578125 -3.140625 Z M 6.671875 -3.140625 "/></g></g></g><g fill="#09094f" fill-opacity="1"><g transform="translate(441.888958, 193.328004)"><g><path d="M 3.828125 0 L 6.96875 0 L 6.96875 -29.441406 L 3.828125 -29.441406 Z M 3.828125 0 "/></g></g></g><g fill="#09094f" fill-opacity="1"><g transform="translate(471.166138, 193.328004)"><g><path d="M 17.613281 -15.601562 L 17.613281 -12.660156 L 29.441406 -12.660156 C 28.507812 -6.96875 23.601562 -2.746094 17.664062 -2.746094 C 11.039062 -2.746094 5.691406 -8.046875 5.691406 -14.71875 C 5.691406 -21.394531 11.039062 -26.691406 17.664062 -26.691406 C 22.128906 -26.691406 26.054688 -24.289062 28.066406 -20.65625 L 30.765625 -22.179688 C 28.214844 -26.742188 23.304688 -29.832031 17.664062 -29.832031 C 9.273438 -29.832031 2.550781 -23.0625 2.550781 -14.71875 C 2.550781 -6.378906 9.273438 0.390625 17.664062 0.390625 C 26.003906 0.390625 32.777344 -6.378906 32.777344 -14.71875 L 32.777344 -15.601562 Z M 17.613281 -15.601562 "/></g></g></g><g fill="#09094f" fill-opacity="1"><g transform="translate(524.973488, 193.328004)"><g><path d="M 3.828125 0 L 6.96875 0 L 6.96875 -29.441406 L 3.828125 -29.441406 Z M 3.828125 0 "/></g></g></g><g fill="#09094f" fill-opacity="1"><g transform="translate(554.250668, 193.328004)"><g><path d="M 19.871094 -29.441406 L 0.441406 -29.441406 L 0.441406 -26.300781 L 8.585938 -26.300781 L 8.585938 0 L 11.726562 0 L 11.726562 -26.300781 L 19.871094 -26.300781 Z M 19.871094 -29.441406 "/></g></g></g><g fill="#09094f" fill-opacity="1"><g transform="translate(593.094616, 193.328004)"><g><path d="M 21.34375 0 L 24.777344 0 L 14.132812 -29.441406 L 10.648438 -29.441406 L 0 0 L 3.433594 0 L 5.839844 -6.871094 L 18.941406 -6.871094 Z M 6.871094 -9.863281 L 12.414062 -25.710938 L 17.910156 -9.863281 Z M 6.871094 -9.863281 "/></g></g></g><g fill="#09094f" fill-opacity="1"><g transform="translate(636.403051, 193.328004)"><g><path d="M 6.722656 -3.140625 L 6.722656 -29.441406 L 3.582031 -29.441406 L 3.582031 0 L 17.664062 0 L 17.664062 -3.140625 Z M 6.722656 -3.140625 "/></g></g></g><g fill="#09094f" fill-opacity="1"><g transform="translate(673.039306, 193.328004)"><g><path d="M 21.34375 0 L 24.777344 0 L 14.132812 -29.441406 L 10.648438 -29.441406 L 0 0 L 3.433594 0 L 5.839844 -6.871094 L 18.941406 -6.871094 Z M 6.871094 -9.863281 L 12.414062 -25.710938 L 17.910156 -9.863281 Z M 6.871094 -9.863281 "/></g></g></g><g fill="#09094f" fill-opacity="1"><g transform="translate(716.34774, 193.328004)"><g><path d="M 17.613281 -15.601562 L 17.613281 -12.660156 L 29.441406 -12.660156 C 28.507812 -6.96875 23.601562 -2.746094 17.664062 -2.746094 C 11.039062 -2.746094 5.691406 -8.046875 5.691406 -14.71875 C 5.691406 -21.394531 11.039062 -26.691406 17.664062 -26.691406 C 22.128906 -26.691406 26.054688 -24.289062 28.066406 -20.65625 L 30.765625 -22.179688 C 28.214844 -26.742188 23.304688 -29.832031 17.664062 -29.832031 C 9.273438 -29.832031 2.550781 -23.0625 2.550781 -14.71875 C 2.550781 -6.378906 9.273438 0.390625 17.664062 0.390625 C 26.003906 0.390625 32.777344 -6.378906 32.777344 -14.71875 L 32.777344 -15.601562 Z M 17.613281 -15.601562 "/></g></g></g><g fill="#09094f" fill-opacity="1"><g transform="translate(770.155099, 193.328004)"><g><path d="M 19.921875 -26.398438 L 19.921875 -29.441406 L 3.828125 -29.441406 L 3.828125 0 L 19.921875 0 L 19.921875 -3.042969 L 6.96875 -3.042969 L 6.96875 -13.199219 L 18.253906 -13.199219 L 18.253906 -16.242188 L 6.96875 -16.242188 L 6.96875 -26.398438 Z M 19.921875 -26.398438 "/></g></g></g><g fill="#09094f" fill-opacity="1"><g transform="translate(811.550183, 193.328004)"><g><path d="M 24.730469 -29.441406 L 24.730469 -5.25 L 6.527344 -29.441406 L 3.582031 -29.441406 L 3.582031 0 L 6.722656 0 L 6.722656 -24.191406 L 24.875 0 L 27.820312 0 L 27.820312 -29.441406 Z M 24.730469 -29.441406 "/></g></g></g><g fill="#09094f" fill-opacity="1"><g transform="translate(861.481783, 193.328004)"><g><path d="M 19.871094 -29.441406 L 0.441406 -29.441406 L 0.441406 -26.300781 L 8.585938 -26.300781 L 8.585938 0 L 11.726562 0 L 11.726562 -26.300781 L 19.871094 -26.300781 Z M 19.871094 -29.441406 "/></g></g></g><g fill="#09094f" fill-opacity="1"><g transform="translate(900.325731, 193.328004)"><g><path d="M 14.472656 0.390625 C 20.902344 0.390625 25.5625 -3.875 25.5625 -9.664062 L 25.5625 -29.441406 L 22.421875 -29.441406 L 22.421875 -10.15625 C 22.421875 -5.886719 19.039062 -2.746094 14.472656 -2.746094 C 9.910156 -2.746094 6.574219 -5.886719 6.574219 -10.15625 L 6.574219 -29.441406 L 3.433594 -29.441406 L 3.433594 -9.664062 C 3.433594 -3.875 8.097656 0.390625 14.472656 0.390625 Z M 14.472656 0.390625 "/></g></g></g><g fill="#09094f" fill-opacity="1"><g transform="translate(947.853368, 193.328004)"><g><path d="M 15.503906 -13.445312 C 19.382812 -13.984375 22.324219 -17.222656 22.324219 -21.195312 C 22.324219 -25.808594 18.644531 -29.441406 14.132812 -29.441406 L 3.582031 -29.441406 L 3.582031 0 L 6.722656 0 L 6.722656 -13.296875 L 12.265625 -13.296875 L 20.609375 0 L 24.191406 0 Z M 6.722656 -16.289062 L 6.722656 -26.300781 L 13.933594 -26.300781 C 16.878906 -26.300781 19.183594 -24.238281 19.183594 -21.292969 C 19.183594 -18.300781 16.929688 -16.289062 13.933594 -16.289062 Z M 6.722656 -16.289062 "/></g></g></g></svg>