<svg xmlns="http://www.w3.org/2000/svg" xmlns:xlink="http://www.w3.org/1999/xlink" width="500" zoomAndPan="magnify" viewBox="0 0 375 374.999991" height="500" preserveAspectRatio="xMidYMid meet" version="1.0"><defs><g/><clipPath id="id1"><path d="M 111.351562 105 L 200 105 L 200 194.601562 L 111.351562 194.601562 Z M 111.351562 105 " clip-rule="nonzero"/></clipPath><clipPath id="id2"><path d="M 175 62.601562 L 263.601562 62.601562 L 263.601562 194.601562 L 175 194.601562 Z M 175 62.601562 " clip-rule="nonzero"/></clipPath><clipPath id="id3"><path d="M 111.351562 184 L 185 184 L 185 194.601562 L 111.351562 194.601562 Z M 111.351562 184 " clip-rule="nonzero"/></clipPath><clipPath id="id4"><path d="M 175 82 L 263.601562 82 L 263.601562 194.601562 L 175 194.601562 Z M 175 82 " clip-rule="nonzero"/></clipPath><clipPath id="id5"><path d="M 175 62.601562 L 188 62.601562 L 188 85 L 175 85 Z M 175 62.601562 " clip-rule="nonzero"/></clipPath></defs><g clip-path="url(#id1)"><path fill="#ffca85" d="M 187.476562 105.414062 L 162.800781 105.414062 L 111.351562 194.527344 L 185.375 194.527344 L 199.816406 169.515625 L 189.578125 151.792969 L 187.476562 148.148438 L 185.375 151.792969 L 173.035156 173.15625 L 148.367188 173.15625 Z M 187.476562 105.414062 " fill-opacity="1" fill-rule="evenodd"/></g><g clip-path="url(#id2)"><path fill="#9d9df4" d="M 263.601562 194.527344 L 225.539062 128.601562 L 187.476562 62.679688 L 175.140625 84.050781 L 180.816406 93.882812 L 187.476562 105.414062 L 194.246094 117.136719 L 226.589844 173.15625 L 233.246094 184.691406 L 238.929688 194.527344 Z M 263.601562 194.527344 " fill-opacity="1" fill-rule="evenodd"/></g><path fill="#f7b35a" d="M 187.476562 105.414062 L 168.316406 115.535156 L 128.386719 184.691406 L 148.367188 173.15625 Z M 187.476562 105.414062 " fill-opacity="1" fill-rule="evenodd"/><g clip-path="url(#id3)"><path fill="#f7b35a" d="M 128.386719 184.691406 L 111.351562 194.527344 L 184.625 194.527344 L 179.289062 184.691406 Z M 128.386719 184.691406 " fill-opacity="1" fill-rule="evenodd"/></g><path fill="#f7b35a" d="M 173.035156 173.15625 L 179.289062 184.691406 L 185.703125 173.15625 L 188.230469 168.609375 L 187.476562 148.148438 Z M 173.035156 173.15625 " fill-opacity="1" fill-rule="evenodd"/><g clip-path="url(#id4)"><path fill="#7171ff" d="M 194.246094 117.136719 L 226.589844 173.15625 L 233.246094 184.691406 L 238.929688 194.527344 L 263.601562 194.527344 L 246.566406 184.691406 L 187.476562 82.347656 L 175.140625 84.050781 L 180.816406 93.882812 L 187.476562 105.414062 Z M 194.246094 117.136719 " fill-opacity="1" fill-rule="evenodd"/></g><g clip-path="url(#id5)"><path fill="#aeaefa" d="M 187.476562 82.347656 L 187.476562 62.679688 L 175.140625 84.050781 Z M 187.476562 82.347656 " fill-opacity="1" fill-rule="evenodd"/></g><g fill="#126abf" fill-opacity="1"><g transform="translate(36.989994, 264.187052)"><g><path d="M 26.546875 -6.59375 L 12.609375 -6.59375 L 10.375 0 L 0.84375 0 L 14.359375 -37.34375 L 24.890625 -37.34375 L 38.40625 0 L 28.78125 0 Z M 24.203125 -13.609375 L 19.578125 -27.28125 L 15 -13.609375 Z M 24.203125 -13.609375 "/></g></g></g><g fill="#126abf" fill-opacity="1"><g transform="translate(80.389275, 264.187052)"><g><path d="M 45.578125 -37.34375 L 45.578125 0 L 36.484375 0 L 36.484375 -22.390625 L 28.140625 0 L 20.796875 0 L 12.390625 -22.4375 L 12.390625 0 L 3.296875 0 L 3.296875 -37.34375 L 14.046875 -37.34375 L 24.515625 -11.484375 L 34.890625 -37.34375 Z M 45.578125 -37.34375 "/></g></g></g><g fill="#126abf" fill-opacity="1"><g transform="translate(133.414998, 264.187052)"><g><path d="M 16.8125 0.375 C 14.082031 0.375 11.632812 -0.0664062 9.46875 -0.953125 C 7.300781 -1.835938 5.570312 -3.148438 4.28125 -4.890625 C 2.988281 -6.628906 2.304688 -8.722656 2.234375 -11.171875 L 11.90625 -11.171875 C 12.050781 -9.785156 12.53125 -8.726562 13.34375 -8 C 14.164062 -7.28125 15.234375 -6.921875 16.546875 -6.921875 C 17.890625 -6.921875 18.953125 -7.226562 19.734375 -7.84375 C 20.515625 -8.46875 20.90625 -9.328125 20.90625 -10.421875 C 20.90625 -11.347656 20.59375 -12.109375 19.96875 -12.703125 C 19.351562 -13.304688 18.59375 -13.800781 17.6875 -14.1875 C 16.78125 -14.582031 15.492188 -15.03125 13.828125 -15.53125 C 11.421875 -16.269531 9.453125 -17.007812 7.921875 -17.75 C 6.398438 -18.5 5.085938 -19.601562 3.984375 -21.0625 C 2.890625 -22.519531 2.34375 -24.414062 2.34375 -26.75 C 2.34375 -30.226562 3.597656 -32.953125 6.109375 -34.921875 C 8.628906 -36.890625 11.910156 -37.875 15.953125 -37.875 C 20.066406 -37.875 23.378906 -36.890625 25.890625 -34.921875 C 28.410156 -32.953125 29.757812 -30.210938 29.9375 -26.703125 L 20.109375 -26.703125 C 20.035156 -27.910156 19.585938 -28.859375 18.765625 -29.546875 C 17.953125 -30.234375 16.910156 -30.578125 15.640625 -30.578125 C 14.535156 -30.578125 13.644531 -30.285156 12.96875 -29.703125 C 12.300781 -29.117188 11.96875 -28.273438 11.96875 -27.171875 C 11.96875 -25.972656 12.535156 -25.035156 13.671875 -24.359375 C 14.804688 -23.679688 16.578125 -22.953125 18.984375 -22.171875 C 21.398438 -21.359375 23.359375 -20.578125 24.859375 -19.828125 C 26.367188 -19.085938 27.671875 -18.007812 28.765625 -16.59375 C 29.867188 -15.175781 30.421875 -13.347656 30.421875 -11.109375 C 30.421875 -8.984375 29.878906 -7.050781 28.796875 -5.3125 C 27.710938 -3.582031 26.144531 -2.203125 24.09375 -1.171875 C 22.039062 -0.140625 19.613281 0.375 16.8125 0.375 Z M 16.8125 0.375 "/></g></g></g><g fill="#126abf" fill-opacity="1"><g transform="translate(170.325739, 264.187052)"><g/></g></g><g fill="#126abf" fill-opacity="1"><g transform="translate(185.803002, 264.187052)"><g><path d="M 30.15625 -37.34375 L 30.15625 -30.046875 L 20.265625 -30.046875 L 20.265625 0 L 11.171875 0 L 11.171875 -30.046875 L 1.28125 -30.046875 L 1.28125 -37.34375 Z M 30.15625 -37.34375 "/></g></g></g><g fill="#126abf" fill-opacity="1"><g transform="translate(221.437309, 264.187052)"><g><path d="M 12.390625 -30.046875 L 12.390625 -22.5 L 24.578125 -22.5 L 24.578125 -15.484375 L 12.390625 -15.484375 L 12.390625 -7.28125 L 26.171875 -7.28125 L 26.171875 0 L 3.296875 0 L 3.296875 -37.34375 L 26.171875 -37.34375 L 26.171875 -30.046875 Z M 12.390625 -30.046875 "/></g></g></g><g fill="#126abf" fill-opacity="1"><g transform="translate(254.412385, 264.187052)"><g><path d="M 1.75 -18.71875 C 1.75 -22.40625 2.546875 -25.691406 4.140625 -28.578125 C 5.742188 -31.472656 7.972656 -33.726562 10.828125 -35.34375 C 13.679688 -36.957031 16.914062 -37.765625 20.53125 -37.765625 C 24.957031 -37.765625 28.75 -36.59375 31.90625 -34.25 C 35.0625 -31.914062 37.171875 -28.722656 38.234375 -24.671875 L 28.25 -24.671875 C 27.5 -26.234375 26.441406 -27.421875 25.078125 -28.234375 C 23.710938 -29.054688 22.160156 -29.46875 20.421875 -29.46875 C 17.617188 -29.46875 15.347656 -28.488281 13.609375 -26.53125 C 11.878906 -24.582031 11.015625 -21.976562 11.015625 -18.71875 C 11.015625 -15.457031 11.878906 -12.851562 13.609375 -10.90625 C 15.347656 -8.957031 17.617188 -7.984375 20.421875 -7.984375 C 22.160156 -7.984375 23.710938 -8.390625 25.078125 -9.203125 C 26.441406 -10.015625 27.5 -11.203125 28.25 -12.765625 L 38.234375 -12.765625 C 37.171875 -8.722656 35.0625 -5.539062 31.90625 -3.21875 C 28.75 -0.894531 24.957031 0.265625 20.53125 0.265625 C 16.914062 0.265625 13.679688 -0.539062 10.828125 -2.15625 C 7.972656 -3.769531 5.742188 -6.007812 4.140625 -8.875 C 2.546875 -11.75 1.75 -15.03125 1.75 -18.71875 Z M 1.75 -18.71875 "/></g></g></g><g fill="#126abf" fill-opacity="1"><g transform="translate(299.141273, 264.187052)"><g><path d="M 35.640625 -37.34375 L 35.640625 0 L 26.546875 0 L 26.546875 -15.375 L 12.390625 -15.375 L 12.390625 0 L 3.296875 0 L 3.296875 -37.34375 L 12.390625 -37.34375 L 12.390625 -22.71875 L 26.546875 -22.71875 L 26.546875 -37.34375 Z M 35.640625 -37.34375 "/></g></g></g><g fill="#9d9df4" fill-opacity="1"><g transform="translate(132.912527, 306.159589)"><g><path d="M 12.453125 -3.953125 L 4.71875 -3.953125 L 3.28125 0 L 0.84375 0 L 7.265625 -17.65625 L 9.9375 -17.65625 L 16.328125 0 L 13.875 0 Z M 11.796875 -5.828125 L 8.578125 -14.796875 L 5.375 -5.828125 Z M 11.796875 -5.828125 "/></g></g></g><g fill="#9d9df4" fill-opacity="1"><g transform="translate(151.349621, 306.159589)"><g><path d="M 7.71875 -14.1875 C 8.925781 -14.1875 9.984375 -13.921875 10.890625 -13.390625 C 11.796875 -12.867188 12.46875 -12.207031 12.90625 -11.40625 L 12.90625 -13.953125 L 15.25 -13.953125 L 15.25 0.3125 C 15.25 1.582031 14.976562 2.710938 14.4375 3.703125 C 13.894531 4.703125 13.117188 5.476562 12.109375 6.03125 C 11.097656 6.59375 9.921875 6.875 8.578125 6.875 C 6.742188 6.875 5.21875 6.441406 4 5.578125 C 2.78125 4.710938 2.054688 3.53125 1.828125 2.03125 L 4.125 2.03125 C 4.382812 2.882812 4.910156 3.566406 5.703125 4.078125 C 6.503906 4.597656 7.460938 4.859375 8.578125 4.859375 C 9.859375 4.859375 10.898438 4.457031 11.703125 3.65625 C 12.503906 2.863281 12.90625 1.75 12.90625 0.3125 L 12.90625 -2.625 C 12.445312 -1.8125 11.769531 -1.128906 10.875 -0.578125 C 9.976562 -0.0351562 8.925781 0.234375 7.71875 0.234375 C 6.476562 0.234375 5.351562 -0.0703125 4.34375 -0.6875 C 3.332031 -1.300781 2.535156 -2.160156 1.953125 -3.265625 C 1.378906 -4.367188 1.09375 -5.625 1.09375 -7.03125 C 1.09375 -8.457031 1.378906 -9.707031 1.953125 -10.78125 C 2.535156 -11.863281 3.332031 -12.703125 4.34375 -13.296875 C 5.351562 -13.890625 6.476562 -14.1875 7.71875 -14.1875 Z M 12.90625 -7 C 12.90625 -8.050781 12.691406 -8.96875 12.265625 -9.75 C 11.847656 -10.53125 11.273438 -11.128906 10.546875 -11.546875 C 9.828125 -11.960938 9.035156 -12.171875 8.171875 -12.171875 C 7.304688 -12.171875 6.515625 -11.96875 5.796875 -11.5625 C 5.085938 -11.15625 4.519531 -10.5625 4.09375 -9.78125 C 3.675781 -9 3.46875 -8.082031 3.46875 -7.03125 C 3.46875 -5.957031 3.675781 -5.023438 4.09375 -4.234375 C 4.519531 -3.453125 5.085938 -2.851562 5.796875 -2.4375 C 6.515625 -2.019531 7.304688 -1.8125 8.171875 -1.8125 C 9.035156 -1.8125 9.828125 -2.019531 10.546875 -2.4375 C 11.273438 -2.851562 11.847656 -3.453125 12.265625 -4.234375 C 12.691406 -5.023438 12.90625 -5.945312 12.90625 -7 Z M 12.90625 -7 "/></g></g></g><g fill="#9d9df4" fill-opacity="1"><g transform="translate(169.837653, 306.159589)"><g><path d="M 14.703125 -7.515625 C 14.703125 -7.066406 14.675781 -6.597656 14.625 -6.109375 L 3.46875 -6.109375 C 3.550781 -4.734375 4.019531 -3.660156 4.875 -2.890625 C 5.726562 -2.117188 6.769531 -1.734375 8 -1.734375 C 9 -1.734375 9.832031 -1.960938 10.5 -2.421875 C 11.175781 -2.890625 11.648438 -3.515625 11.921875 -4.296875 L 14.421875 -4.296875 C 14.046875 -2.960938 13.296875 -1.875 12.171875 -1.03125 C 11.054688 -0.1875 9.664062 0.234375 8 0.234375 C 6.675781 0.234375 5.488281 -0.0625 4.4375 -0.65625 C 3.394531 -1.25 2.578125 -2.09375 1.984375 -3.1875 C 1.390625 -4.289062 1.09375 -5.5625 1.09375 -7 C 1.09375 -8.445312 1.378906 -9.710938 1.953125 -10.796875 C 2.535156 -11.878906 3.347656 -12.710938 4.390625 -13.296875 C 5.429688 -13.890625 6.632812 -14.1875 8 -14.1875 C 9.320312 -14.1875 10.492188 -13.894531 11.515625 -13.3125 C 12.535156 -12.738281 13.320312 -11.945312 13.875 -10.9375 C 14.425781 -9.925781 14.703125 -8.785156 14.703125 -7.515625 Z M 12.296875 -8 C 12.296875 -8.882812 12.097656 -9.644531 11.703125 -10.28125 C 11.316406 -10.914062 10.789062 -11.394531 10.125 -11.71875 C 9.457031 -12.050781 8.710938 -12.21875 7.890625 -12.21875 C 6.722656 -12.21875 5.726562 -11.84375 4.90625 -11.09375 C 4.082031 -10.351562 3.609375 -9.320312 3.484375 -8 Z M 12.296875 -8 "/></g></g></g><g fill="#9d9df4" fill-opacity="1"><g transform="translate(186.899649, 306.159589)"><g><path d="M 8.765625 -14.21875 C 10.460938 -14.21875 11.835938 -13.703125 12.890625 -12.671875 C 13.941406 -11.640625 14.46875 -10.15625 14.46875 -8.21875 L 14.46875 0 L 12.171875 0 L 12.171875 -7.890625 C 12.171875 -9.285156 11.820312 -10.351562 11.125 -11.09375 C 10.425781 -11.832031 9.476562 -12.203125 8.28125 -12.203125 C 7.050781 -12.203125 6.078125 -11.816406 5.359375 -11.046875 C 4.640625 -10.285156 4.28125 -9.175781 4.28125 -7.71875 L 4.28125 0 L 1.96875 0 L 1.96875 -13.953125 L 4.28125 -13.953125 L 4.28125 -11.96875 C 4.738281 -12.6875 5.359375 -13.238281 6.140625 -13.625 C 6.929688 -14.019531 7.804688 -14.21875 8.765625 -14.21875 Z M 8.765625 -14.21875 "/></g></g></g><g fill="#9d9df4" fill-opacity="1"><g transform="translate(204.470941, 306.159589)"><g><path d="M 4.78125 -12.046875 L 4.78125 -3.828125 C 4.78125 -3.140625 4.925781 -2.65625 5.21875 -2.375 C 5.507812 -2.101562 6.007812 -1.96875 6.71875 -1.96875 L 8.4375 -1.96875 L 8.4375 0 L 6.34375 0 C 5.050781 0 4.082031 -0.296875 3.4375 -0.890625 C 2.789062 -1.484375 2.46875 -2.460938 2.46875 -3.828125 L 2.46875 -12.046875 L 0.65625 -12.046875 L 0.65625 -13.953125 L 2.46875 -13.953125 L 2.46875 -17.46875 L 4.78125 -17.46875 L 4.78125 -13.953125 L 8.4375 -13.953125 L 8.4375 -12.046875 Z M 4.78125 -12.046875 "/></g></g></g><g fill="#9d9df4" fill-opacity="1"><g transform="translate(215.013924, 306.159589)"><g><path d="M 14.34375 -13.953125 L 14.34375 0 L 12.015625 0 L 12.015625 -2.0625 C 11.578125 -1.351562 10.960938 -0.796875 10.171875 -0.390625 C 9.378906 0.00390625 8.507812 0.203125 7.5625 0.203125 C 6.476562 0.203125 5.503906 -0.0195312 4.640625 -0.46875 C 3.773438 -0.914062 3.085938 -1.585938 2.578125 -2.484375 C 2.078125 -3.390625 1.828125 -4.488281 1.828125 -5.78125 L 1.828125 -13.953125 L 4.125 -13.953125 L 4.125 -6.09375 C 4.125 -4.71875 4.472656 -3.660156 5.171875 -2.921875 C 5.867188 -2.179688 6.816406 -1.8125 8.015625 -1.8125 C 9.253906 -1.8125 10.226562 -2.191406 10.9375 -2.953125 C 11.65625 -3.710938 12.015625 -4.828125 12.015625 -6.296875 L 12.015625 -13.953125 Z M 14.34375 -13.953125 "/></g></g></g><g fill="#9d9df4" fill-opacity="1"><g transform="translate(232.585216, 306.159589)"><g><path d="M 4.28125 -11.6875 C 4.6875 -12.488281 5.265625 -13.109375 6.015625 -13.546875 C 6.773438 -13.992188 7.695312 -14.21875 8.78125 -14.21875 L 8.78125 -11.8125 L 8.171875 -11.8125 C 5.578125 -11.8125 4.28125 -10.40625 4.28125 -7.59375 L 4.28125 0 L 1.96875 0 L 1.96875 -13.953125 L 4.28125 -13.953125 Z M 4.28125 -11.6875 "/></g></g></g></svg>