<svg xmlns="http://www.w3.org/2000/svg" xmlns:xlink="http://www.w3.org/1999/xlink" width="500" zoomAndPan="magnify" viewBox="0 0 375 374.999991" height="500" preserveAspectRatio="xMidYMid meet" version="1.0"><defs><g/><clipPath id="id1"><path d="M 202 44.40625 L 305.515625 44.40625 L 305.515625 189 L 202 189 Z M 202 44.40625 " clip-rule="nonzero"/></clipPath><clipPath id="id2"><path d="M 69.265625 86 L 188 86 L 188 243.90625 L 69.265625 243.90625 Z M 69.265625 86 " clip-rule="nonzero"/></clipPath><clipPath id="id3"><path d="M 131 70 L 305.515625 70 L 305.515625 243.90625 L 131 243.90625 Z M 131 70 " clip-rule="nonzero"/></clipPath></defs><g clip-path="url(#id1)"><path fill="#f7b35a" d="M 250.09375 44.300781 C 229.542969 44.300781 211.566406 55.574219 202 72.285156 C 209.191406 74.242188 215.914062 77.648438 221.816406 82.355469 C 227.683594 72.867188 238.164062 66.53125 250.09375 66.53125 C 268.429688 66.53125 283.347656 81.488281 283.347656 99.875 L 283.347656 143.542969 L 289.28125 149.496094 C 299.75 159.992188 305.515625 173.945312 305.515625 188.789062 L 305.515625 99.875 C 305.515625 69.230469 280.65625 44.300781 250.09375 44.300781 Z M 250.09375 44.300781 " fill-opacity="1" fill-rule="nonzero"/></g><path fill="#010101" d="M 150.253906 84.664062 C 150.292969 84.625 150.339844 84.589844 150.386719 84.546875 C 150.339844 84.589844 150.292969 84.625 150.253906 84.664062 Z M 150.253906 84.664062 " fill-opacity="1" fill-rule="nonzero"/><path fill="#010101" d="M 149.207031 85.636719 C 149.304688 85.546875 149.402344 85.457031 149.503906 85.367188 C 149.402344 85.457031 149.304688 85.546875 149.207031 85.636719 Z M 149.207031 85.636719 " fill-opacity="1" fill-rule="nonzero"/><path fill="#010101" d="M 148.203125 86.621094 C 148.339844 86.484375 148.472656 86.355469 148.613281 86.21875 C 148.472656 86.355469 148.339844 86.484375 148.203125 86.621094 C 148.199219 86.625 148.1875 86.636719 148.183594 86.640625 Z M 148.203125 86.621094 " fill-opacity="1" fill-rule="nonzero"/><g clip-path="url(#id2)"><path fill="#9d9df4" d="M 85.5 228.082031 C 95.96875 238.582031 109.886719 244.359375 124.6875 244.359375 C 139.492188 244.359375 153.40625 238.582031 163.875 228.082031 L 187.390625 204.503906 L 171.714844 188.789062 L 148.199219 212.367188 C 141.917969 218.664062 133.566406 222.132812 124.683594 222.132812 C 115.800781 222.132812 107.449219 218.664062 101.167969 212.367188 C 94.894531 206.070312 91.433594 197.695312 91.433594 188.789062 C 91.433594 179.882812 94.894531 171.507812 101.171875 165.210938 L 132.542969 133.753906 C 130.191406 117.050781 135.402344 99.464844 148.179688 86.640625 L 85.5 149.496094 C 75.03125 159.992188 69.265625 173.945312 69.265625 188.789062 C 69.265625 203.632812 75.03125 217.589844 85.5 228.082031 Z M 85.5 228.082031 " fill-opacity="1" fill-rule="nonzero"/></g><path fill="#010101" d="M 148.609375 86.21875 C 148.808594 86.023438 149.003906 85.828125 149.203125 85.636719 C 149.007812 85.828125 148.808594 86.023438 148.609375 86.21875 Z M 148.609375 86.21875 " fill-opacity="1" fill-rule="nonzero"/><path fill="#010101" d="M 149.5 85.367188 C 149.75 85.132812 150 84.894531 150.253906 84.664062 C 150 84.894531 149.75 85.132812 149.5 85.367188 Z M 149.5 85.367188 " fill-opacity="1" fill-rule="nonzero"/><g clip-path="url(#id3)"><path fill="#126abf" d="M 289.28125 149.496094 L 283.347656 143.542969 L 226.578125 86.621094 C 226.472656 86.515625 226.371094 86.414062 226.265625 86.308594 C 226.035156 86.085938 225.804688 85.859375 225.574219 85.632812 C 225.484375 85.546875 225.398438 85.46875 225.308594 85.386719 C 225.046875 85.140625 224.789062 84.898438 224.527344 84.660156 C 224.492188 84.625 224.453125 84.59375 224.417969 84.558594 C 223.566406 83.792969 222.695312 83.058594 221.816406 82.355469 C 221.816406 82.355469 221.816406 82.355469 221.816406 82.351562 C 215.914062 77.644531 209.191406 74.238281 202 72.28125 C 201.992188 72.289062 201.988281 72.300781 201.984375 72.308594 C 197.214844 71.015625 192.304688 70.363281 187.394531 70.363281 C 174.140625 70.363281 160.882812 75.089844 150.386719 84.542969 C 150.34375 84.582031 150.300781 84.617188 150.253906 84.660156 C 150 84.890625 149.75 85.125 149.5 85.363281 C 149.402344 85.453125 149.304688 85.542969 149.203125 85.632812 C 149.003906 85.824219 148.804688 86.019531 148.609375 86.214844 C 148.472656 86.351562 148.332031 86.480469 148.199219 86.617188 L 148.179688 86.636719 C 135.402344 99.460938 130.1875 117.042969 132.542969 133.75 C 134.167969 145.265625 139.386719 156.363281 148.203125 165.203125 L 171.71875 188.785156 L 187.394531 204.5 L 210.910156 228.078125 L 210.929688 228.058594 L 210.910156 228.078125 C 220.695312 237.886719 233.488281 243.578125 247.207031 244.28125 C 247.222656 244.28125 247.242188 244.28125 247.257812 244.285156 C 247.664062 244.304688 248.066406 244.320312 248.476562 244.332031 C 248.546875 244.332031 248.617188 244.335938 248.683594 244.339844 C 249.152344 244.351562 249.625 244.359375 250.097656 244.359375 C 250.574219 244.359375 251.046875 244.355469 251.515625 244.339844 C 251.585938 244.339844 251.65625 244.335938 251.71875 244.332031 C 252.125 244.320312 252.535156 244.304688 252.941406 244.285156 C 252.957031 244.285156 252.976562 244.285156 252.992188 244.28125 C 266.707031 243.578125 279.503906 237.886719 289.289062 228.078125 C 299.070312 218.269531 304.746094 205.4375 305.445312 191.683594 C 305.445312 191.667969 305.445312 191.648438 305.449219 191.632812 C 305.472656 191.226562 305.484375 190.820312 305.496094 190.410156 C 305.496094 190.339844 305.5 190.273438 305.507812 190.203125 C 305.515625 189.730469 305.527344 189.261719 305.527344 188.785156 C 305.515625 173.945312 299.75 159.992188 289.28125 149.496094 Z M 283.308594 190.488281 C 283.300781 190.570312 283.292969 190.648438 283.289062 190.730469 C 283.257812 191.21875 283.226562 191.710938 283.175781 192.191406 C 283.175781 192.207031 283.171875 192.222656 283.171875 192.234375 C 281.566406 207.871094 269.136719 220.339844 253.539062 221.957031 C 253.523438 221.957031 253.503906 221.960938 253.488281 221.960938 C 253.007812 222.011719 252.519531 222.046875 252.03125 222.070312 C 251.949219 222.078125 251.871094 222.085938 251.789062 222.09375 C 251.230469 222.121094 250.664062 222.136719 250.09375 222.136719 C 249.523438 222.136719 248.964844 222.121094 248.398438 222.09375 C 248.316406 222.085938 248.238281 222.078125 248.15625 222.070312 C 247.671875 222.042969 247.1875 222.011719 246.703125 221.960938 C 246.6875 221.960938 246.667969 221.957031 246.652344 221.957031 C 239.070312 221.179688 232.042969 217.847656 226.578125 212.367188 L 203.0625 188.789062 L 194.667969 180.367188 L 187.386719 173.066406 L 163.871094 149.488281 C 150.910156 136.492188 150.90625 115.347656 163.859375 102.347656 C 163.867188 102.34375 163.867188 102.34375 163.871094 102.335938 C 163.960938 102.246094 164.050781 102.167969 164.140625 102.082031 C 164.457031 101.773438 164.773438 101.464844 165.097656 101.171875 C 165.1875 101.085938 165.28125 101.011719 165.378906 100.933594 C 165.710938 100.636719 166.042969 100.34375 166.386719 100.0625 C 166.421875 100.039062 166.453125 100.015625 166.488281 99.984375 C 172.386719 95.1875 179.683594 92.574219 187.386719 92.574219 C 190 92.574219 192.558594 92.878906 195.039062 93.460938 C 199.816406 94.585938 204.28125 96.757812 208.148438 99.875 C 208.199219 99.914062 208.25 99.949219 208.292969 99.988281 C 208.324219 100.015625 208.355469 100.035156 208.382812 100.058594 C 208.734375 100.34375 209.074219 100.640625 209.410156 100.941406 C 209.496094 101.015625 209.585938 101.09375 209.671875 101.167969 C 210.011719 101.480469 210.34375 101.800781 210.675781 102.125 C 210.746094 102.195312 210.820312 102.261719 210.890625 102.332031 L 216.824219 108.28125 L 242.246094 133.773438 L 273.59375 165.203125 C 279.875 171.503906 283.332031 179.878906 283.332031 188.785156 C 283.347656 189.359375 283.332031 189.929688 283.308594 190.488281 Z M 283.308594 190.488281 " fill-opacity="1" fill-rule="nonzero"/></g><g fill="#126abf" fill-opacity="1"><g transform="translate(76.084449, 301.776602)"><g><path d="M 22.390625 -5.5625 L 10.625 -5.5625 L 8.75 0 L 0.71875 0 L 12.109375 -31.484375 L 21 -31.484375 L 32.390625 0 L 24.265625 0 Z M 20.40625 -11.484375 L 16.515625 -23.015625 L 12.65625 -11.484375 Z M 20.40625 -11.484375 "/></g></g></g><g fill="#126abf" fill-opacity="1"><g transform="translate(108.248493, 301.776602)"><g><path d="M 38.4375 -31.484375 L 38.4375 0 L 30.78125 0 L 30.78125 -18.890625 L 23.734375 0 L 17.546875 0 L 10.453125 -18.9375 L 10.453125 0 L 2.78125 0 L 2.78125 -31.484375 L 11.84375 -31.484375 L 20.6875 -9.6875 L 29.421875 -31.484375 Z M 38.4375 -31.484375 "/></g></g></g><g fill="#126abf" fill-opacity="1"><g transform="translate(148.532085, 301.776602)"><g><path d="M 14.171875 0.3125 C 11.867188 0.3125 9.804688 -0.0546875 7.984375 -0.796875 C 6.160156 -1.546875 4.703125 -2.65625 3.609375 -4.125 C 2.515625 -5.59375 1.941406 -7.359375 1.890625 -9.421875 L 10.046875 -9.421875 C 10.171875 -8.253906 10.578125 -7.363281 11.265625 -6.75 C 11.953125 -6.132812 12.847656 -5.828125 13.953125 -5.828125 C 15.085938 -5.828125 15.984375 -6.085938 16.640625 -6.609375 C 17.296875 -7.140625 17.625 -7.867188 17.625 -8.796875 C 17.625 -9.566406 17.363281 -10.207031 16.84375 -10.71875 C 16.320312 -11.226562 15.675781 -11.644531 14.90625 -11.96875 C 14.144531 -12.300781 13.0625 -12.675781 11.65625 -13.09375 C 9.625 -13.726562 7.960938 -14.359375 6.671875 -14.984375 C 5.390625 -15.609375 4.285156 -16.535156 3.359375 -17.765625 C 2.429688 -18.992188 1.96875 -20.59375 1.96875 -22.5625 C 1.96875 -25.488281 3.03125 -27.78125 5.15625 -29.4375 C 7.28125 -31.101562 10.046875 -31.9375 13.453125 -31.9375 C 16.921875 -31.9375 19.71875 -31.101562 21.84375 -29.4375 C 23.96875 -27.78125 25.101562 -25.472656 25.25 -22.515625 L 16.953125 -22.515625 C 16.890625 -23.535156 16.515625 -24.335938 15.828125 -24.921875 C 15.140625 -25.503906 14.257812 -25.796875 13.1875 -25.796875 C 12.257812 -25.796875 11.507812 -25.546875 10.9375 -25.046875 C 10.375 -24.554688 10.09375 -23.847656 10.09375 -22.921875 C 10.09375 -21.898438 10.570312 -21.101562 11.53125 -20.53125 C 12.488281 -19.96875 13.984375 -19.359375 16.015625 -18.703125 C 18.046875 -18.015625 19.695312 -17.359375 20.96875 -16.734375 C 22.238281 -16.109375 23.335938 -15.195312 24.265625 -14 C 25.191406 -12.800781 25.65625 -11.257812 25.65625 -9.375 C 25.65625 -7.582031 25.195312 -5.953125 24.28125 -4.484375 C 23.375 -3.015625 22.050781 -1.847656 20.3125 -0.984375 C 18.582031 -0.117188 16.535156 0.3125 14.171875 0.3125 Z M 14.171875 0.3125 "/></g></g></g><g fill="#126abf" fill-opacity="1"><g transform="translate(175.223282, 301.776602)"><g/></g></g><g fill="#126abf" fill-opacity="1"><g transform="translate(183.836139, 301.776602)"><g><path d="M 25.4375 -31.484375 L 25.4375 -25.34375 L 17.09375 -25.34375 L 17.09375 0 L 9.421875 0 L 9.421875 -25.34375 L 1.078125 -25.34375 L 1.078125 -31.484375 Z M 25.4375 -31.484375 "/></g></g></g><g fill="#126abf" fill-opacity="1"><g transform="translate(209.450704, 301.776602)"><g><path d="M 10.453125 -25.34375 L 10.453125 -18.96875 L 20.71875 -18.96875 L 20.71875 -13.046875 L 10.453125 -13.046875 L 10.453125 -6.140625 L 22.078125 -6.140625 L 22.078125 0 L 2.78125 0 L 2.78125 -31.484375 L 22.078125 -31.484375 L 22.078125 -25.34375 Z M 10.453125 -25.34375 "/></g></g></g><g fill="#126abf" fill-opacity="1"><g transform="translate(232.822296, 301.776602)"><g><path d="M 1.484375 -15.796875 C 1.484375 -18.898438 2.15625 -21.671875 3.5 -24.109375 C 4.84375 -26.546875 6.71875 -28.441406 9.125 -29.796875 C 11.53125 -31.160156 14.257812 -31.84375 17.3125 -31.84375 C 21.050781 -31.84375 24.25 -30.851562 26.90625 -28.875 C 29.570312 -26.90625 31.351562 -24.21875 32.25 -20.8125 L 23.828125 -20.8125 C 23.191406 -22.125 22.296875 -23.125 21.140625 -23.8125 C 19.992188 -24.507812 18.6875 -24.859375 17.21875 -24.859375 C 14.863281 -24.859375 12.953125 -24.035156 11.484375 -22.390625 C 10.015625 -20.742188 9.28125 -18.546875 9.28125 -15.796875 C 9.28125 -13.035156 10.015625 -10.832031 11.484375 -9.1875 C 12.953125 -7.550781 14.863281 -6.734375 17.21875 -6.734375 C 18.6875 -6.734375 19.992188 -7.078125 21.140625 -7.765625 C 22.296875 -8.453125 23.191406 -9.453125 23.828125 -10.765625 L 32.25 -10.765625 C 31.351562 -7.359375 29.570312 -4.675781 26.90625 -2.71875 C 24.25 -0.757812 21.050781 0.21875 17.3125 0.21875 C 14.257812 0.21875 11.53125 -0.457031 9.125 -1.8125 C 6.71875 -3.175781 4.84375 -5.066406 3.5 -7.484375 C 2.15625 -9.910156 1.484375 -12.679688 1.484375 -15.796875 Z M 1.484375 -15.796875 "/></g></g></g><g fill="#126abf" fill-opacity="1"><g transform="translate(266.107824, 301.776602)"><g><path d="M 30.0625 -31.484375 L 30.0625 0 L 22.390625 0 L 22.390625 -12.96875 L 10.453125 -12.96875 L 10.453125 0 L 2.78125 0 L 2.78125 -31.484375 L 10.453125 -31.484375 L 10.453125 -19.15625 L 22.390625 -19.15625 L 22.390625 -31.484375 Z M 30.0625 -31.484375 "/></g></g></g><g fill="#126abf" fill-opacity="1"><g transform="translate(145.428943, 326.863836)"><g><path d="M 7.703125 -1.90625 L 3.65625 -1.90625 L 3 0 L 0.25 0 L 4.15625 -10.828125 L 7.21875 -10.828125 L 11.140625 0 L 8.34375 0 Z M 7.015625 -3.953125 L 5.671875 -7.90625 L 4.34375 -3.953125 Z M 7.015625 -3.953125 "/></g></g></g><g fill="#126abf" fill-opacity="1"><g transform="translate(158.637014, 326.863836)"><g><path d="M 8.140625 -7.40625 C 7.941406 -7.757812 7.660156 -8.03125 7.296875 -8.21875 C 6.929688 -8.414062 6.503906 -8.515625 6.015625 -8.515625 C 5.160156 -8.515625 4.472656 -8.234375 3.953125 -7.671875 C 3.441406 -7.109375 3.1875 -6.359375 3.1875 -5.421875 C 3.1875 -4.429688 3.457031 -3.65625 4 -3.09375 C 4.539062 -2.53125 5.285156 -2.25 6.234375 -2.25 C 6.878906 -2.25 7.425781 -2.410156 7.875 -2.734375 C 8.320312 -3.066406 8.648438 -3.539062 8.859375 -4.15625 L 5.5 -4.15625 L 5.5 -6.109375 L 11.25 -6.109375 L 11.25 -3.65625 C 11.050781 -3 10.71875 -2.382812 10.25 -1.8125 C 9.78125 -1.25 9.1875 -0.789062 8.46875 -0.4375 C 7.75 -0.09375 6.9375 0.078125 6.03125 0.078125 C 4.957031 0.078125 4 -0.15625 3.15625 -0.625 C 2.320312 -1.09375 1.671875 -1.742188 1.203125 -2.578125 C 0.742188 -3.410156 0.515625 -4.359375 0.515625 -5.421875 C 0.515625 -6.492188 0.742188 -7.445312 1.203125 -8.28125 C 1.671875 -9.125 2.320312 -9.78125 3.15625 -10.25 C 3.988281 -10.71875 4.941406 -10.953125 6.015625 -10.953125 C 7.304688 -10.953125 8.394531 -10.632812 9.28125 -10 C 10.175781 -9.375 10.769531 -8.507812 11.0625 -7.40625 Z M 8.140625 -7.40625 "/></g></g></g><g fill="#126abf" fill-opacity="1"><g transform="translate(172.230338, 326.863836)"><g><path d="M 3.59375 -8.71875 L 3.59375 -6.53125 L 7.125 -6.53125 L 7.125 -4.484375 L 3.59375 -4.484375 L 3.59375 -2.109375 L 7.59375 -2.109375 L 7.59375 0 L 0.953125 0 L 0.953125 -10.828125 L 7.59375 -10.828125 L 7.59375 -8.71875 Z M 3.59375 -8.71875 "/></g></g></g><g fill="#126abf" fill-opacity="1"><g transform="translate(182.418002, 326.863836)"><g><path d="M 10.640625 0 L 8 0 L 3.59375 -6.671875 L 3.59375 0 L 0.953125 0 L 0.953125 -10.828125 L 3.59375 -10.828125 L 8 -4.125 L 8 -10.828125 L 10.640625 -10.828125 Z M 10.640625 0 "/></g></g></g><g fill="#126abf" fill-opacity="1"><g transform="translate(195.857222, 326.863836)"><g><path d="M 8.75 -10.828125 L 8.75 -8.71875 L 5.875 -8.71875 L 5.875 0 L 3.234375 0 L 3.234375 -8.71875 L 0.375 -8.71875 L 0.375 -10.828125 Z M 8.75 -10.828125 "/></g></g></g><g fill="#126abf" fill-opacity="1"><g transform="translate(206.815397, 326.863836)"><g><path d="M 3.546875 -10.828125 L 3.546875 -4.34375 C 3.546875 -3.695312 3.703125 -3.195312 4.015625 -2.84375 C 4.335938 -2.5 4.804688 -2.328125 5.421875 -2.328125 C 6.046875 -2.328125 6.519531 -2.5 6.84375 -2.84375 C 7.175781 -3.195312 7.34375 -3.695312 7.34375 -4.34375 L 7.34375 -10.828125 L 9.984375 -10.828125 L 9.984375 -4.359375 C 9.984375 -3.398438 9.773438 -2.582031 9.359375 -1.90625 C 8.953125 -1.238281 8.398438 -0.734375 7.703125 -0.390625 C 7.003906 -0.0546875 6.226562 0.109375 5.375 0.109375 C 4.53125 0.109375 3.769531 -0.0546875 3.09375 -0.390625 C 2.414062 -0.722656 1.878906 -1.226562 1.484375 -1.90625 C 1.097656 -2.582031 0.90625 -3.398438 0.90625 -4.359375 L 0.90625 -10.828125 Z M 3.546875 -10.828125 "/></g></g></g><g fill="#126abf" fill-opacity="1"><g transform="translate(219.530343, 326.863836)"><g><path d="M 6.484375 0 L 4.21875 -4.09375 L 3.59375 -4.09375 L 3.59375 0 L 0.953125 0 L 0.953125 -10.828125 L 5.375 -10.828125 C 6.226562 -10.828125 6.957031 -10.675781 7.5625 -10.375 C 8.164062 -10.082031 8.613281 -9.675781 8.90625 -9.15625 C 9.207031 -8.632812 9.359375 -8.054688 9.359375 -7.421875 C 9.359375 -6.703125 9.15625 -6.054688 8.75 -5.484375 C 8.34375 -4.921875 7.742188 -4.519531 6.953125 -4.28125 L 9.453125 0 Z M 3.59375 -5.953125 L 5.234375 -5.953125 C 5.710938 -5.953125 6.070312 -6.066406 6.3125 -6.296875 C 6.550781 -6.535156 6.671875 -6.875 6.671875 -7.3125 C 6.671875 -7.71875 6.550781 -8.039062 6.3125 -8.28125 C 6.070312 -8.519531 5.710938 -8.640625 5.234375 -8.640625 L 3.59375 -8.640625 Z M 3.59375 -5.953125 "/></g></g></g></svg>