<svg xmlns="http://www.w3.org/2000/svg" xmlns:xlink="http://www.w3.org/1999/xlink" width="1000" zoomAndPan="magnify" viewBox="0 0 750 225" height="300" preserveAspectRatio="xMidYMid meet" version="1.0"><defs><g/><clipPath id="id1"><path d="M 55.136719 89 L 144 89 L 144 177.984375 L 55.136719 177.984375 Z M 55.136719 89 " clip-rule="nonzero"/></clipPath><clipPath id="id2"><path d="M 118 46.734375 L 206.636719 46.734375 L 206.636719 177.984375 L 118 177.984375 Z M 118 46.734375 " clip-rule="nonzero"/></clipPath><clipPath id="id3"><path d="M 55.136719 168 L 129 168 L 129 177.984375 L 55.136719 177.984375 Z M 55.136719 168 " clip-rule="nonzero"/></clipPath><clipPath id="id4"><path d="M 118 66 L 206.636719 66 L 206.636719 177.984375 L 118 177.984375 Z M 118 66 " clip-rule="nonzero"/></clipPath><clipPath id="id5"><path d="M 118 46.734375 L 131 46.734375 L 131 69 L 118 69 Z M 118 46.734375 " clip-rule="nonzero"/></clipPath></defs><g clip-path="url(#id1)"><path fill="#ffca85" d="M 130.882812 89.300781 L 106.332031 89.300781 L 55.136719 177.914062 L 128.792969 177.914062 L 143.164062 153.042969 L 132.976562 135.417969 L 130.882812 131.796875 L 128.792969 135.417969 L 116.515625 156.664062 L 91.96875 156.664062 Z M 130.882812 89.300781 " fill-opacity="1" fill-rule="evenodd"/></g><g clip-path="url(#id2)"><path fill="#9d9df4" d="M 206.636719 177.914062 L 168.761719 112.359375 L 130.882812 46.808594 L 118.609375 68.058594 L 124.257812 77.835938 L 130.882812 89.300781 L 137.621094 100.960938 L 169.804688 156.664062 L 176.429688 168.132812 L 182.085938 177.914062 Z M 206.636719 177.914062 " fill-opacity="1" fill-rule="evenodd"/></g><path fill="#f7b35a" d="M 130.882812 89.300781 L 111.820312 99.367188 L 72.089844 168.132812 L 91.96875 156.664062 Z M 130.882812 89.300781 " fill-opacity="1" fill-rule="evenodd"/><g clip-path="url(#id3)"><path fill="#f7b35a" d="M 72.089844 168.132812 L 55.136719 177.914062 L 128.046875 177.914062 L 122.738281 168.132812 Z M 72.089844 168.132812 " fill-opacity="1" fill-rule="evenodd"/></g><path fill="#f7b35a" d="M 116.515625 156.664062 L 122.738281 168.132812 L 129.117188 156.664062 L 131.636719 152.140625 L 130.882812 131.796875 Z M 116.515625 156.664062 " fill-opacity="1" fill-rule="evenodd"/><g clip-path="url(#id4)"><path fill="#7171ff" d="M 137.621094 100.960938 L 169.804688 156.664062 L 176.429688 168.132812 L 182.085938 177.914062 L 206.636719 177.914062 L 189.683594 168.132812 L 130.882812 66.367188 L 118.609375 68.058594 L 124.257812 77.835938 L 130.882812 89.300781 Z M 137.621094 100.960938 " fill-opacity="1" fill-rule="evenodd"/></g><g clip-path="url(#id5)"><path fill="#aeaefa" d="M 130.882812 66.367188 L 130.882812 46.808594 L 118.609375 68.058594 Z M 130.882812 66.367188 " fill-opacity="1" fill-rule="evenodd"/></g><g fill="#126abf" fill-opacity="1"><g transform="translate(216.789897, 133.637282)"><g><path d="M 41.640625 -10.34375 L 19.78125 -10.34375 L 16.265625 0 L 1.328125 0 L 22.53125 -58.578125 L 39.0625 -58.578125 L 60.25 0 L 45.140625 0 Z M 37.96875 -21.359375 L 30.703125 -42.8125 L 23.53125 -21.359375 Z M 37.96875 -21.359375 "/></g></g></g><g fill="#126abf" fill-opacity="1"><g transform="translate(283.886145, 133.637282)"><g><path d="M 71.515625 -58.578125 L 71.515625 0 L 57.25 0 L 57.25 -35.140625 L 44.140625 0 L 32.625 0 L 19.4375 -35.21875 L 19.4375 0 L 5.171875 0 L 5.171875 -58.578125 L 22.03125 -58.578125 L 38.46875 -18.03125 L 54.75 -58.578125 Z M 71.515625 -58.578125 "/></g></g></g><g fill="#126abf" fill-opacity="1"><g transform="translate(366.087316, 133.637282)"><g><path d="M 26.375 0.578125 C 22.082031 0.578125 18.238281 -0.113281 14.84375 -1.5 C 11.457031 -2.894531 8.75 -4.953125 6.71875 -7.671875 C 4.6875 -10.398438 3.613281 -13.6875 3.5 -17.53125 L 18.6875 -17.53125 C 18.914062 -15.351562 19.664062 -13.691406 20.9375 -12.546875 C 22.21875 -11.410156 23.890625 -10.84375 25.953125 -10.84375 C 28.066406 -10.84375 29.734375 -11.328125 30.953125 -12.296875 C 32.179688 -13.273438 32.796875 -14.628906 32.796875 -16.359375 C 32.796875 -17.804688 32.304688 -19 31.328125 -19.9375 C 30.359375 -20.882812 29.164062 -21.664062 27.75 -22.28125 C 26.332031 -22.894531 24.316406 -23.59375 21.703125 -24.375 C 17.910156 -25.539062 14.816406 -26.707031 12.421875 -27.875 C 10.035156 -29.039062 7.976562 -30.765625 6.25 -33.046875 C 4.53125 -35.328125 3.671875 -38.304688 3.671875 -41.984375 C 3.671875 -47.429688 5.644531 -51.695312 9.59375 -54.78125 C 13.539062 -57.875 18.6875 -59.421875 25.03125 -59.421875 C 31.488281 -59.421875 36.691406 -57.875 40.640625 -54.78125 C 44.585938 -51.695312 46.703125 -47.398438 46.984375 -41.890625 L 31.546875 -41.890625 C 31.429688 -43.785156 30.734375 -45.273438 29.453125 -46.359375 C 28.179688 -47.441406 26.539062 -47.984375 24.53125 -47.984375 C 22.8125 -47.984375 21.421875 -47.523438 20.359375 -46.609375 C 19.304688 -45.691406 18.78125 -44.367188 18.78125 -42.640625 C 18.78125 -40.753906 19.671875 -39.28125 21.453125 -38.21875 C 23.234375 -37.164062 26.015625 -36.023438 29.796875 -34.796875 C 33.578125 -33.515625 36.648438 -32.289062 39.015625 -31.125 C 41.378906 -29.957031 43.421875 -28.257812 45.140625 -26.03125 C 46.867188 -23.8125 47.734375 -20.945312 47.734375 -17.4375 C 47.734375 -14.101562 46.882812 -11.070312 45.1875 -8.34375 C 43.488281 -5.613281 41.023438 -3.441406 37.796875 -1.828125 C 34.578125 -0.222656 30.769531 0.578125 26.375 0.578125 Z M 26.375 0.578125 "/></g></g></g><g fill="#126abf" fill-opacity="1"><g transform="translate(423.002367, 133.637282)"><g/></g></g><g fill="#126abf" fill-opacity="1"><g transform="translate(446.286007, 133.637282)"><g><path d="M 47.3125 -58.578125 L 47.3125 -47.15625 L 31.796875 -47.15625 L 31.796875 0 L 17.53125 0 L 17.53125 -47.15625 L 2 -47.15625 L 2 -58.578125 Z M 47.3125 -58.578125 "/></g></g></g><g fill="#126abf" fill-opacity="1"><g transform="translate(501.198178, 133.637282)"><g><path d="M 19.4375 -47.15625 L 19.4375 -35.296875 L 38.5625 -35.296875 L 38.5625 -24.28125 L 19.4375 -24.28125 L 19.4375 -11.4375 L 41.0625 -11.4375 L 41.0625 0 L 5.171875 0 L 5.171875 -58.578125 L 41.0625 -58.578125 L 41.0625 -47.15625 Z M 19.4375 -47.15625 "/></g></g></g><g fill="#126abf" fill-opacity="1"><g transform="translate(551.937707, 133.637282)"><g><path d="M 2.75 -29.375 C 2.75 -35.15625 4 -40.3125 6.5 -44.84375 C 9.007812 -49.382812 12.503906 -52.921875 16.984375 -55.453125 C 21.460938 -57.984375 26.539062 -59.25 32.21875 -59.25 C 39.164062 -59.25 45.113281 -57.410156 50.0625 -53.734375 C 55.019531 -50.066406 58.332031 -45.0625 60 -38.71875 L 44.3125 -38.71875 C 43.144531 -41.164062 41.488281 -43.03125 39.34375 -44.3125 C 37.207031 -45.59375 34.773438 -46.234375 32.046875 -46.234375 C 27.648438 -46.234375 24.085938 -44.703125 21.359375 -41.640625 C 18.640625 -38.578125 17.28125 -34.488281 17.28125 -29.375 C 17.28125 -24.257812 18.640625 -20.171875 21.359375 -17.109375 C 24.085938 -14.046875 27.648438 -12.515625 32.046875 -12.515625 C 34.773438 -12.515625 37.207031 -13.15625 39.34375 -14.4375 C 41.488281 -15.71875 43.144531 -17.582031 44.3125 -20.03125 L 60 -20.03125 C 58.332031 -13.6875 55.019531 -8.691406 50.0625 -5.046875 C 45.113281 -1.398438 39.164062 0.421875 32.21875 0.421875 C 26.539062 0.421875 21.460938 -0.84375 16.984375 -3.375 C 12.503906 -5.90625 9.007812 -9.425781 6.5 -13.9375 C 4 -18.445312 2.75 -23.59375 2.75 -29.375 Z M 2.75 -29.375 "/></g></g></g><g fill="#126abf" fill-opacity="1"><g transform="translate(621.120265, 133.637282)"><g><path d="M 55.90625 -58.578125 L 55.90625 0 L 41.640625 0 L 41.640625 -24.125 L 19.4375 -24.125 L 19.4375 0 L 5.171875 0 L 5.171875 -58.578125 L 19.4375 -58.578125 L 19.4375 -35.640625 L 41.640625 -35.640625 L 41.640625 -58.578125 Z M 55.90625 -58.578125 "/></g></g></g><g fill="#9d9df4" fill-opacity="1"><g transform="translate(344.153952, 163.312328)"><g><path d="M 7.9375 -18.8125 C 9.988281 -18.8125 11.765625 -18.429688 13.265625 -17.671875 C 14.773438 -16.910156 15.925781 -15.816406 16.71875 -14.390625 C 17.519531 -12.972656 17.921875 -11.300781 17.921875 -9.375 C 17.921875 -7.445312 17.519531 -5.773438 16.71875 -4.359375 C 15.925781 -2.941406 14.773438 -1.859375 13.265625 -1.109375 C 11.765625 -0.367188 9.988281 0 7.9375 0 L 2.078125 0 L 2.078125 -18.8125 Z M 7.9375 -2.03125 C 10.363281 -2.03125 12.21875 -2.671875 13.5 -3.953125 C 14.78125 -5.242188 15.421875 -7.050781 15.421875 -9.375 C 15.421875 -11.707031 14.773438 -13.53125 13.484375 -14.84375 C 12.203125 -16.164062 10.351562 -16.828125 7.9375 -16.828125 L 4.53125 -16.828125 L 4.53125 -2.03125 Z M 7.9375 -2.03125 "/></g></g></g><g fill="#9d9df4" fill-opacity="1"><g transform="translate(364.592958, 163.312328)"><g><path d="M 3.34375 -17.203125 C 2.875 -17.203125 2.476562 -17.363281 2.15625 -17.6875 C 1.832031 -18.007812 1.671875 -18.40625 1.671875 -18.875 C 1.671875 -19.34375 1.832031 -19.738281 2.15625 -20.0625 C 2.476562 -20.382812 2.875 -20.546875 3.34375 -20.546875 C 3.789062 -20.546875 4.171875 -20.382812 4.484375 -20.0625 C 4.804688 -19.738281 4.96875 -19.34375 4.96875 -18.875 C 4.96875 -18.40625 4.804688 -18.007812 4.484375 -17.6875 C 4.171875 -17.363281 3.789062 -17.203125 3.34375 -17.203125 Z M 4.53125 -14.796875 L 4.53125 0 L 2.078125 0 L 2.078125 -14.796875 Z M 4.53125 -14.796875 "/></g></g></g><g fill="#9d9df4" fill-opacity="1"><g transform="translate(372.584959, 163.312328)"><g><path d="M 8.1875 -15.03125 C 9.457031 -15.03125 10.570312 -14.75 11.53125 -14.1875 C 12.5 -13.632812 13.21875 -12.9375 13.6875 -12.09375 L 13.6875 -14.796875 L 16.171875 -14.796875 L 16.171875 0.328125 C 16.171875 1.671875 15.878906 2.867188 15.296875 3.921875 C 14.722656 4.984375 13.898438 5.8125 12.828125 6.40625 C 11.765625 7 10.519531 7.296875 9.09375 7.296875 C 7.15625 7.296875 5.535156 6.832031 4.234375 5.90625 C 2.941406 4.988281 2.175781 3.738281 1.9375 2.15625 L 4.375 2.15625 C 4.644531 3.0625 5.203125 3.785156 6.046875 4.328125 C 6.890625 4.878906 7.90625 5.15625 9.09375 5.15625 C 10.445312 5.15625 11.550781 4.734375 12.40625 3.890625 C 13.257812 3.046875 13.6875 1.859375 13.6875 0.328125 L 13.6875 -2.78125 C 13.195312 -1.914062 12.472656 -1.191406 11.515625 -0.609375 C 10.566406 -0.0351562 9.457031 0.25 8.1875 0.25 C 6.863281 0.25 5.664062 -0.0703125 4.59375 -0.71875 C 3.53125 -1.375 2.691406 -2.285156 2.078125 -3.453125 C 1.460938 -4.628906 1.15625 -5.960938 1.15625 -7.453125 C 1.15625 -8.960938 1.460938 -10.289062 2.078125 -11.4375 C 2.691406 -12.582031 3.53125 -13.46875 4.59375 -14.09375 C 5.664062 -14.71875 6.863281 -15.03125 8.1875 -15.03125 Z M 13.6875 -7.421875 C 13.6875 -8.535156 13.460938 -9.503906 13.015625 -10.328125 C 12.566406 -11.160156 11.957031 -11.796875 11.1875 -12.234375 C 10.425781 -12.679688 9.585938 -12.90625 8.671875 -12.90625 C 7.753906 -12.90625 6.914062 -12.6875 6.15625 -12.25 C 5.394531 -11.820312 4.789062 -11.191406 4.34375 -10.359375 C 3.894531 -9.535156 3.671875 -8.566406 3.671875 -7.453125 C 3.671875 -6.316406 3.894531 -5.328125 4.34375 -4.484375 C 4.789062 -3.648438 5.394531 -3.015625 6.15625 -2.578125 C 6.914062 -2.140625 7.753906 -1.921875 8.671875 -1.921875 C 9.585938 -1.921875 10.425781 -2.140625 11.1875 -2.578125 C 11.957031 -3.015625 12.566406 -3.648438 13.015625 -4.484375 C 13.460938 -5.328125 13.6875 -6.304688 13.6875 -7.421875 Z M 13.6875 -7.421875 "/></g></g></g><g fill="#9d9df4" fill-opacity="1"><g transform="translate(392.186965, 163.312328)"><g><path d="M 3.34375 -17.203125 C 2.875 -17.203125 2.476562 -17.363281 2.15625 -17.6875 C 1.832031 -18.007812 1.671875 -18.40625 1.671875 -18.875 C 1.671875 -19.34375 1.832031 -19.738281 2.15625 -20.0625 C 2.476562 -20.382812 2.875 -20.546875 3.34375 -20.546875 C 3.789062 -20.546875 4.171875 -20.382812 4.484375 -20.0625 C 4.804688 -19.738281 4.96875 -19.34375 4.96875 -18.875 C 4.96875 -18.40625 4.804688 -18.007812 4.484375 -17.6875 C 4.171875 -17.363281 3.789062 -17.203125 3.34375 -17.203125 Z M 4.53125 -14.796875 L 4.53125 0 L 2.078125 0 L 2.078125 -14.796875 Z M 4.53125 -14.796875 "/></g></g></g><g fill="#9d9df4" fill-opacity="1"><g transform="translate(400.178969, 163.312328)"><g><path d="M 5.078125 -12.765625 L 5.078125 -4.046875 C 5.078125 -3.328125 5.226562 -2.816406 5.53125 -2.515625 C 5.84375 -2.222656 6.375 -2.078125 7.125 -2.078125 L 8.9375 -2.078125 L 8.9375 0 L 6.71875 0 C 5.351562 0 4.328125 -0.3125 3.640625 -0.9375 C 2.960938 -1.570312 2.625 -2.609375 2.625 -4.046875 L 2.625 -12.765625 L 0.703125 -12.765625 L 0.703125 -14.796875 L 2.625 -14.796875 L 2.625 -18.515625 L 5.078125 -18.515625 L 5.078125 -14.796875 L 8.9375 -14.796875 L 8.9375 -12.765625 Z M 5.078125 -12.765625 "/></g></g></g><g fill="#9d9df4" fill-opacity="1"><g transform="translate(411.356974, 163.312328)"><g><path d="M 1.15625 -7.453125 C 1.15625 -8.960938 1.460938 -10.289062 2.078125 -11.4375 C 2.691406 -12.582031 3.53125 -13.46875 4.59375 -14.09375 C 5.664062 -14.71875 6.863281 -15.03125 8.1875 -15.03125 C 9.476562 -15.03125 10.597656 -14.75 11.546875 -14.1875 C 12.503906 -13.632812 13.21875 -12.9375 13.6875 -12.09375 L 13.6875 -14.796875 L 16.171875 -14.796875 L 16.171875 0 L 13.6875 0 L 13.6875 -2.75 C 13.195312 -1.882812 12.472656 -1.164062 11.515625 -0.59375 C 10.554688 -0.03125 9.4375 0.25 8.15625 0.25 C 6.84375 0.25 5.65625 -0.0703125 4.59375 -0.71875 C 3.53125 -1.375 2.691406 -2.285156 2.078125 -3.453125 C 1.460938 -4.628906 1.15625 -5.960938 1.15625 -7.453125 Z M 13.6875 -7.421875 C 13.6875 -8.535156 13.460938 -9.503906 13.015625 -10.328125 C 12.566406 -11.160156 11.957031 -11.796875 11.1875 -12.234375 C 10.425781 -12.679688 9.585938 -12.90625 8.671875 -12.90625 C 7.753906 -12.90625 6.914062 -12.6875 6.15625 -12.25 C 5.394531 -11.820312 4.789062 -11.191406 4.34375 -10.359375 C 3.894531 -9.535156 3.671875 -8.566406 3.671875 -7.453125 C 3.671875 -6.316406 3.894531 -5.328125 4.34375 -4.484375 C 4.789062 -3.648438 5.394531 -3.015625 6.15625 -2.578125 C 6.914062 -2.140625 7.753906 -1.921875 8.671875 -1.921875 C 9.585938 -1.921875 10.425781 -2.140625 11.1875 -2.578125 C 11.957031 -3.015625 12.566406 -3.648438 13.015625 -4.484375 C 13.460938 -5.328125 13.6875 -6.304688 13.6875 -7.421875 Z M 13.6875 -7.421875 "/></g></g></g><g fill="#9d9df4" fill-opacity="1"><g transform="translate(430.958986, 163.312328)"><g><path d="M 4.53125 -19.984375 L 4.53125 0 L 2.078125 0 L 2.078125 -19.984375 Z M 4.53125 -19.984375 "/></g></g></g><g fill="#9d9df4" fill-opacity="1"><g transform="translate(438.95099, 163.312328)"><g><path d="M 1.15625 -7.453125 C 1.15625 -8.960938 1.460938 -10.289062 2.078125 -11.4375 C 2.691406 -12.582031 3.53125 -13.46875 4.59375 -14.09375 C 5.664062 -14.71875 6.863281 -15.03125 8.1875 -15.03125 C 9.476562 -15.03125 10.597656 -14.75 11.546875 -14.1875 C 12.503906 -13.632812 13.21875 -12.9375 13.6875 -12.09375 L 13.6875 -14.796875 L 16.171875 -14.796875 L 16.171875 0 L 13.6875 0 L 13.6875 -2.75 C 13.195312 -1.882812 12.472656 -1.164062 11.515625 -0.59375 C 10.554688 -0.03125 9.4375 0.25 8.15625 0.25 C 6.84375 0.25 5.65625 -0.0703125 4.59375 -0.71875 C 3.53125 -1.375 2.691406 -2.285156 2.078125 -3.453125 C 1.460938 -4.628906 1.15625 -5.960938 1.15625 -7.453125 Z M 13.6875 -7.421875 C 13.6875 -8.535156 13.460938 -9.503906 13.015625 -10.328125 C 12.566406 -11.160156 11.957031 -11.796875 11.1875 -12.234375 C 10.425781 -12.679688 9.585938 -12.90625 8.671875 -12.90625 C 7.753906 -12.90625 6.914062 -12.6875 6.15625 -12.25 C 5.394531 -11.820312 4.789062 -11.191406 4.34375 -10.359375 C 3.894531 -9.535156 3.671875 -8.566406 3.671875 -7.453125 C 3.671875 -6.316406 3.894531 -5.328125 4.34375 -4.484375 C 4.789062 -3.648438 5.394531 -3.015625 6.15625 -2.578125 C 6.914062 -2.140625 7.753906 -1.921875 8.671875 -1.921875 C 9.585938 -1.921875 10.425781 -2.140625 11.1875 -2.578125 C 11.957031 -3.015625 12.566406 -3.648438 13.015625 -4.484375 C 13.460938 -5.328125 13.6875 -6.304688 13.6875 -7.421875 Z M 13.6875 -7.421875 "/></g></g></g><g fill="#9d9df4" fill-opacity="1"><g transform="translate(458.553002, 163.312328)"><g><path d="M 8.1875 -15.03125 C 9.457031 -15.03125 10.570312 -14.75 11.53125 -14.1875 C 12.5 -13.632812 13.21875 -12.9375 13.6875 -12.09375 L 13.6875 -14.796875 L 16.171875 -14.796875 L 16.171875 0.328125 C 16.171875 1.671875 15.878906 2.867188 15.296875 3.921875 C 14.722656 4.984375 13.898438 5.8125 12.828125 6.40625 C 11.765625 7 10.519531 7.296875 9.09375 7.296875 C 7.15625 7.296875 5.535156 6.832031 4.234375 5.90625 C 2.941406 4.988281 2.175781 3.738281 1.9375 2.15625 L 4.375 2.15625 C 4.644531 3.0625 5.203125 3.785156 6.046875 4.328125 C 6.890625 4.878906 7.90625 5.15625 9.09375 5.15625 C 10.445312 5.15625 11.550781 4.734375 12.40625 3.890625 C 13.257812 3.046875 13.6875 1.859375 13.6875 0.328125 L 13.6875 -2.78125 C 13.195312 -1.914062 12.472656 -1.191406 11.515625 -0.609375 C 10.566406 -0.0351562 9.457031 0.25 8.1875 0.25 C 6.863281 0.25 5.664062 -0.0703125 4.59375 -0.71875 C 3.53125 -1.375 2.691406 -2.285156 2.078125 -3.453125 C 1.460938 -4.628906 1.15625 -5.960938 1.15625 -7.453125 C 1.15625 -8.960938 1.460938 -10.289062 2.078125 -11.4375 C 2.691406 -12.582031 3.53125 -13.46875 4.59375 -14.09375 C 5.664062 -14.71875 6.863281 -15.03125 8.1875 -15.03125 Z M 13.6875 -7.421875 C 13.6875 -8.535156 13.460938 -9.503906 13.015625 -10.328125 C 12.566406 -11.160156 11.957031 -11.796875 11.1875 -12.234375 C 10.425781 -12.679688 9.585938 -12.90625 8.671875 -12.90625 C 7.753906 -12.90625 6.914062 -12.6875 6.15625 -12.25 C 5.394531 -11.820312 4.789062 -11.191406 4.34375 -10.359375 C 3.894531 -9.535156 3.671875 -8.566406 3.671875 -7.453125 C 3.671875 -6.316406 3.894531 -5.328125 4.34375 -4.484375 C 4.789062 -3.648438 5.394531 -3.015625 6.15625 -2.578125 C 6.914062 -2.140625 7.753906 -1.921875 8.671875 -1.921875 C 9.585938 -1.921875 10.425781 -2.140625 11.1875 -2.578125 C 11.957031 -3.015625 12.566406 -3.648438 13.015625 -4.484375 C 13.460938 -5.328125 13.6875 -6.304688 13.6875 -7.421875 Z M 13.6875 -7.421875 "/></g></g></g><g fill="#9d9df4" fill-opacity="1"><g transform="translate(478.155014, 163.312328)"><g><path d="M 15.578125 -7.96875 C 15.578125 -7.5 15.550781 -7.003906 15.5 -6.484375 L 3.671875 -6.484375 C 3.765625 -5.023438 4.265625 -3.882812 5.171875 -3.0625 C 6.078125 -2.25 7.179688 -1.84375 8.484375 -1.84375 C 9.546875 -1.84375 10.429688 -2.085938 11.140625 -2.578125 C 11.847656 -3.078125 12.347656 -3.738281 12.640625 -4.5625 L 15.28125 -4.5625 C 14.882812 -3.144531 14.09375 -1.988281 12.90625 -1.09375 C 11.71875 -0.195312 10.242188 0.25 8.484375 0.25 C 7.078125 0.25 5.816406 -0.0625 4.703125 -0.6875 C 3.597656 -1.320312 2.726562 -2.21875 2.09375 -3.375 C 1.46875 -4.539062 1.15625 -5.890625 1.15625 -7.421875 C 1.15625 -8.953125 1.460938 -10.289062 2.078125 -11.4375 C 2.691406 -12.59375 3.550781 -13.476562 4.65625 -14.09375 C 5.757812 -14.71875 7.035156 -15.03125 8.484375 -15.03125 C 9.878906 -15.03125 11.117188 -14.722656 12.203125 -14.109375 C 13.285156 -13.503906 14.117188 -12.664062 14.703125 -11.59375 C 15.285156 -10.519531 15.578125 -9.3125 15.578125 -7.96875 Z M 13.046875 -8.484375 C 13.046875 -9.410156 12.835938 -10.210938 12.421875 -10.890625 C 12.003906 -11.566406 11.441406 -12.078125 10.734375 -12.421875 C 10.023438 -12.773438 9.238281 -12.953125 8.375 -12.953125 C 7.125 -12.953125 6.0625 -12.554688 5.1875 -11.765625 C 4.320312 -10.972656 3.828125 -9.878906 3.703125 -8.484375 Z M 13.046875 -8.484375 "/></g></g></g><g fill="#9d9df4" fill-opacity="1"><g transform="translate(496.245021, 163.312328)"><g><path d="M 9.28125 -15.0625 C 11.082031 -15.0625 12.539062 -14.515625 13.65625 -13.421875 C 14.78125 -12.335938 15.34375 -10.769531 15.34375 -8.71875 L 15.34375 0 L 12.90625 0 L 12.90625 -8.375 C 12.90625 -9.84375 12.535156 -10.96875 11.796875 -11.75 C 11.054688 -12.539062 10.050781 -12.9375 8.78125 -12.9375 C 7.476562 -12.9375 6.441406 -12.53125 5.671875 -11.71875 C 4.910156 -10.90625 4.53125 -9.726562 4.53125 -8.1875 L 4.53125 0 L 2.078125 0 L 2.078125 -14.796875 L 4.53125 -14.796875 L 4.53125 -12.6875 C 5.019531 -13.445312 5.679688 -14.03125 6.515625 -14.4375 C 7.359375 -14.851562 8.28125 -15.0625 9.28125 -15.0625 Z M 9.28125 -15.0625 "/></g></g></g><g fill="#9d9df4" fill-opacity="1"><g transform="translate(514.875029, 163.312328)"><g><path d="M 5.078125 -12.765625 L 5.078125 -4.046875 C 5.078125 -3.328125 5.226562 -2.816406 5.53125 -2.515625 C 5.84375 -2.222656 6.375 -2.078125 7.125 -2.078125 L 8.9375 -2.078125 L 8.9375 0 L 6.71875 0 C 5.351562 0 4.328125 -0.3125 3.640625 -0.9375 C 2.960938 -1.570312 2.625 -2.609375 2.625 -4.046875 L 2.625 -12.765625 L 0.703125 -12.765625 L 0.703125 -14.796875 L 2.625 -14.796875 L 2.625 -18.515625 L 5.078125 -18.515625 L 5.078125 -14.796875 L 8.9375 -14.796875 L 8.9375 -12.765625 Z M 5.078125 -12.765625 "/></g></g></g><g fill="#9d9df4" fill-opacity="1"><g transform="translate(526.053034, 163.312328)"><g><path d="M 15.203125 -14.796875 L 15.203125 0 L 12.75 0 L 12.75 -2.1875 C 12.28125 -1.425781 11.625 -0.832031 10.78125 -0.40625 C 9.945312 0.0078125 9.023438 0.21875 8.015625 0.21875 C 6.867188 0.21875 5.832031 -0.0195312 4.90625 -0.5 C 3.988281 -0.976562 3.265625 -1.691406 2.734375 -2.640625 C 2.203125 -3.597656 1.9375 -4.757812 1.9375 -6.125 L 1.9375 -14.796875 L 4.375 -14.796875 L 4.375 -6.453125 C 4.375 -4.992188 4.742188 -3.875 5.484375 -3.09375 C 6.222656 -2.3125 7.226562 -1.921875 8.5 -1.921875 C 9.8125 -1.921875 10.847656 -2.320312 11.609375 -3.125 C 12.367188 -3.9375 12.75 -5.117188 12.75 -6.671875 L 12.75 -14.796875 Z M 15.203125 -14.796875 "/></g></g></g><g fill="#9d9df4" fill-opacity="1"><g transform="translate(544.683042, 163.312328)"><g><path d="M 4.53125 -12.390625 C 4.96875 -13.234375 5.585938 -13.890625 6.390625 -14.359375 C 7.191406 -14.828125 8.164062 -15.0625 9.3125 -15.0625 L 9.3125 -12.53125 L 8.671875 -12.53125 C 5.910156 -12.53125 4.53125 -11.035156 4.53125 -8.046875 L 4.53125 0 L 2.078125 0 L 2.078125 -14.796875 L 4.53125 -14.796875 Z M 4.53125 -12.390625 "/></g></g></g></svg>