<svg xmlns="http://www.w3.org/2000/svg" xmlns:xlink="http://www.w3.org/1999/xlink" width="1000" zoomAndPan="magnify" viewBox="0 0 750 225" height="300" preserveAspectRatio="xMidYMid meet" version="1.0"><defs><g/><clipPath id="id1"><path d="M 54 38 L 165 38 L 165 187.511719 L 54 187.511719 Z M 54 38 " clip-rule="nonzero"/></clipPath><clipPath id="id2"><path d="M 97 100 L 219.75 100 L 219.75 183 L 97 183 Z M 97 100 " clip-rule="nonzero"/></clipPath><clipPath id="id3"><path d="M 22.5 37.511719 L 116 37.511719 L 116 183 L 22.5 183 Z M 22.5 37.511719 " clip-rule="nonzero"/></clipPath></defs><g clip-path="url(#id1)"><path fill="#126abf" d="M 138.078125 181.5 C 136.046875 181.5 134.398438 179.851562 134.398438 177.816406 C 134.398438 175.785156 136.046875 174.136719 138.078125 174.136719 C 140.113281 174.136719 141.761719 175.785156 141.761719 177.816406 C 141.761719 179.851562 140.113281 181.5 138.078125 181.5 Z M 154.851562 78.023438 C 152.816406 78.023438 151.167969 76.375 151.167969 74.339844 C 151.167969 72.308594 152.816406 70.65625 154.851562 70.65625 C 156.882812 70.65625 158.53125 72.308594 158.53125 74.339844 C 158.53125 76.375 156.882812 78.023438 154.851562 78.023438 Z M 138.078125 168.140625 C 134.785156 168.140625 131.878906 169.789062 130.128906 172.304688 L 69.027344 172.230469 L 136.796875 53.714844 L 146.242188 69.921875 C 145.5625 71.246094 145.171875 72.75 145.171875 74.339844 C 145.171875 79.683594 149.507812 84.019531 154.851562 84.019531 C 160.195312 84.019531 164.527344 79.683594 164.527344 74.339844 C 164.527344 69.257812 160.609375 65.097656 155.632812 64.699219 L 140.261719 39.222656 C 140.261719 39.222656 135.71875 34.742188 130.570312 43.675781 L 56.164062 172.804688 C 56.164062 172.804688 49.734375 182.203125 60.121094 182.699219 L 129.726562 182.699219 C 131.40625 185.566406 134.515625 187.496094 138.078125 187.496094 C 143.421875 187.496094 147.753906 183.164062 147.753906 177.820312 C 147.753906 172.472656 143.421875 168.140625 138.078125 168.140625 Z M 138.078125 168.140625 " fill-opacity="1" fill-rule="nonzero"/></g><g clip-path="url(#id2)"><path fill="#f7b35a" d="M 132.671875 100.597656 C 141.144531 100.394531 169.351562 99.492188 173.964844 101.8125 C 176.558594 103.117188 179.722656 109.839844 181.320312 112.265625 C 191.332031 127.457031 217.925781 173.296875 217.925781 173.296875 C 217.925781 173.296875 223.367188 180.71875 215.453125 182.699219 L 172.910156 182.699219 C 172.910156 182.699219 170.4375 183.328125 167.46875 177.816406 L 150.15625 147.574219 L 109.378906 147.574219 L 109.367188 147.59375 L 97.589844 147.59375 C 103.941406 136.714844 116.835938 114.742188 125.601562 100.597656 Z M 132.671875 100.597656 " fill-opacity="1" fill-rule="nonzero"/></g><g clip-path="url(#id3)"><path fill="#126abf" d="M 32.25 176.894531 C 34.28125 176.894531 35.933594 175.246094 35.933594 173.214844 C 35.933594 171.179688 34.28125 169.53125 32.25 169.53125 C 30.214844 169.53125 28.566406 171.179688 28.566406 173.214844 C 28.566406 175.246094 30.214844 176.894531 32.25 176.894531 Z M 100.863281 55.253906 C 100.890625 55.273438 100.921875 55.296875 100.953125 55.316406 Z M 103.59375 56.484375 C 103.636719 56.496094 103.679688 56.507812 103.722656 56.519531 Z M 103.972656 56.574219 C 104.003906 56.578125 104.03125 56.585938 104.058594 56.589844 C 104.03125 56.585938 104.003906 56.578125 103.972656 56.574219 Z M 106.007812 56.789062 L 90.257812 84.335938 L 41.039062 169.589844 L 41.035156 169.578125 C 41.464844 170.675781 41.703125 171.867188 41.703125 173.117188 C 41.703125 178.460938 37.371094 182.796875 32.027344 182.796875 C 28.464844 182.796875 25.351562 180.867188 23.671875 177.996094 L 23.585938 177.996094 C 22.753906 176.5625 22.277344 174.894531 22.277344 173.117188 C 22.277344 171.070312 22.910156 169.171875 23.988281 167.601562 L 24.078125 167.601562 C 25.824219 165.085938 28.734375 163.441406 32.027344 163.441406 C 32.195312 163.441406 32.359375 163.445312 32.523438 163.453125 L 32.519531 163.453125 L 97.175781 51.242188 L 97.207031 51.300781 C 96.601562 50.03125 96.261719 48.609375 96.261719 47.113281 C 96.261719 45.0625 96.894531 43.164062 97.972656 41.597656 L 98.0625 41.597656 C 99.808594 39.082031 102.714844 37.433594 106.011719 37.433594 C 111.355469 37.433594 115.6875 41.765625 115.6875 47.113281 C 115.6875 52.457031 111.355469 56.789062 106.011719 56.789062 Z M 41.019531 169.539062 C 40.996094 169.484375 40.976562 169.433594 40.953125 169.378906 C 40.976562 169.433594 40.996094 169.484375 41.019531 169.539062 Z M 40.929688 169.324219 C 40.90625 169.269531 40.882812 169.21875 40.859375 169.164062 C 40.882812 169.21875 40.90625 169.269531 40.929688 169.324219 Z M 40.84375 169.125 C 40.816406 169.0625 40.785156 169 40.753906 168.933594 C 40.785156 169 40.816406 169.0625 40.84375 169.125 Z M 40.730469 168.890625 C 40.707031 168.839844 40.683594 168.789062 40.660156 168.742188 C 40.683594 168.789062 40.707031 168.839844 40.730469 168.890625 Z M 40.632812 168.6875 C 40.601562 168.632812 40.574219 168.578125 40.542969 168.523438 C 40.574219 168.578125 40.601562 168.632812 40.632812 168.6875 Z M 40.53125 168.5 C 40.5 168.4375 40.464844 168.378906 40.429688 168.316406 C 40.464844 168.378906 40.5 168.4375 40.53125 168.5 Z M 40.402344 168.269531 C 40.375 168.222656 40.347656 168.175781 40.320312 168.132812 C 40.347656 168.175781 40.375 168.222656 40.402344 168.269531 Z M 40.289062 168.078125 C 40.253906 168.023438 40.21875 167.964844 40.183594 167.90625 C 40.21875 167.964844 40.253906 168.023438 40.289062 168.078125 Z M 40.175781 167.902344 C 40.140625 167.84375 40.101562 167.785156 40.0625 167.726562 C 40.101562 167.785156 40.140625 167.84375 40.175781 167.902344 Z M 40.027344 167.675781 C 40 167.632812 39.96875 167.589844 39.9375 167.546875 C 39.96875 167.589844 40 167.632812 40.027344 167.675781 Z M 39.90625 167.5 C 39.867188 167.441406 39.824219 167.386719 39.785156 167.332031 C 39.824219 167.386719 39.867188 167.441406 39.90625 167.5 Z M 39.765625 167.3125 C 39.730469 167.261719 39.691406 167.214844 39.65625 167.164062 C 39.691406 167.214844 39.730469 167.261719 39.765625 167.3125 Z M 39.617188 167.117188 C 39.582031 167.074219 39.550781 167.03125 39.515625 166.988281 C 39.550781 167.03125 39.582031 167.074219 39.617188 167.117188 Z M 39.484375 166.953125 C 39.4375 166.898438 39.394531 166.84375 39.347656 166.792969 C 39.394531 166.84375 39.4375 166.898438 39.484375 166.953125 Z M 39.324219 166.761719 C 39.285156 166.71875 39.25 166.675781 39.210938 166.636719 C 39.25 166.675781 39.285156 166.71875 39.324219 166.761719 Z M 39.167969 166.585938 C 39.128906 166.546875 39.089844 166.503906 39.050781 166.464844 C 39.089844 166.503906 39.128906 166.546875 39.167969 166.585938 Z M 39.023438 166.433594 C 38.976562 166.386719 38.929688 166.335938 38.878906 166.285156 C 38.929688 166.335938 38.976562 166.382812 39.023438 166.433594 Z M 38.839844 166.25 C 38.804688 166.210938 38.765625 166.175781 38.726562 166.136719 C 38.765625 166.175781 38.804688 166.210938 38.839844 166.25 Z M 38.683594 166.09375 C 38.636719 166.050781 38.589844 166.007812 38.546875 165.964844 C 38.589844 166.007812 38.636719 166.050781 38.683594 166.09375 Z M 38.53125 165.953125 C 38.476562 165.90625 38.425781 165.859375 38.375 165.8125 C 38.425781 165.859375 38.476562 165.90625 38.53125 165.953125 Z M 38.328125 165.777344 C 38.289062 165.742188 38.25 165.707031 38.207031 165.671875 C 38.25 165.707031 38.289062 165.742188 38.328125 165.777344 Z M 38 165.503906 C 37.945312 165.460938 37.890625 165.421875 37.835938 165.378906 C 37.890625 165.421875 37.945312 165.460938 38 165.503906 Z M 37.785156 165.339844 C 37.742188 165.308594 37.699219 165.277344 37.65625 165.246094 C 37.699219 165.277344 37.742188 165.308594 37.785156 165.339844 Z M 37.613281 165.214844 C 37.554688 165.175781 37.5 165.136719 37.441406 165.097656 C 37.5 165.136719 37.554688 165.175781 37.613281 165.214844 Z M 37.414062 165.078125 C 37.363281 165.046875 37.316406 165.015625 37.265625 164.980469 C 37.316406 165.015625 37.363281 165.046875 37.414062 165.078125 Z M 37.210938 164.945312 C 37.164062 164.917969 37.117188 164.886719 37.070312 164.859375 C 37.117188 164.886719 37.164062 164.917969 37.210938 164.945312 Z M 37.03125 164.835938 C 36.972656 164.800781 36.914062 164.765625 36.855469 164.730469 C 36.914062 164.765625 36.972656 164.800781 37.03125 164.835938 Z M 36.808594 164.703125 C 36.761719 164.675781 36.714844 164.652344 36.667969 164.625 C 36.714844 164.652344 36.761719 164.675781 36.808594 164.703125 Z M 36.613281 164.59375 C 36.5625 164.566406 36.507812 164.539062 36.457031 164.515625 C 36.507812 164.539062 36.5625 164.566406 36.613281 164.59375 Z M 36.421875 164.496094 C 36.359375 164.464844 36.296875 164.433594 36.234375 164.402344 C 36.296875 164.433594 36.359375 164.464844 36.421875 164.496094 Z M 36.1875 164.378906 C 36.140625 164.355469 36.089844 164.332031 36.039062 164.3125 C 36.089844 164.332031 36.140625 164.355469 36.1875 164.378906 Z M 35.984375 164.285156 C 35.925781 164.257812 35.867188 164.234375 35.808594 164.210938 C 35.867188 164.234375 35.925781 164.257812 35.984375 164.285156 Z M 35.789062 164.199219 C 35.722656 164.171875 35.660156 164.144531 35.59375 164.121094 C 35.660156 164.144531 35.722656 164.171875 35.789062 164.199219 Z M 35.539062 164.097656 C 35.488281 164.078125 35.4375 164.058594 35.386719 164.039062 C 35.4375 164.058594 35.488281 164.078125 35.539062 164.097656 Z M 35.332031 164.019531 C 35.265625 163.996094 35.199219 163.972656 35.132812 163.949219 C 35.199219 163.972656 35.265625 163.996094 35.332031 164.019531 Z M 35.117188 163.945312 C 35.054688 163.925781 34.992188 163.902344 34.929688 163.882812 C 34.992188 163.902344 35.054688 163.925781 35.117188 163.945312 Z M 34.867188 163.863281 C 34.816406 163.847656 34.765625 163.835938 34.714844 163.820312 C 34.765625 163.835938 34.816406 163.847656 34.867188 163.863281 Z M 34.65625 163.804688 C 34.589844 163.785156 34.519531 163.765625 34.453125 163.746094 C 34.519531 163.765625 34.589844 163.785156 34.65625 163.804688 Z M 34.417969 163.738281 C 34.359375 163.722656 34.300781 163.710938 34.238281 163.695312 C 34.300781 163.710938 34.359375 163.722656 34.417969 163.738281 Z M 34.179688 163.683594 C 34.121094 163.667969 34.066406 163.65625 34.007812 163.644531 C 34.066406 163.65625 34.121094 163.667969 34.179688 163.683594 Z M 33.964844 163.636719 C 33.894531 163.621094 33.824219 163.605469 33.75 163.59375 C 33.824219 163.605469 33.894531 163.621094 33.964844 163.636719 Z M 33.707031 163.585938 C 33.648438 163.578125 33.589844 163.566406 33.535156 163.558594 C 33.589844 163.566406 33.648438 163.578125 33.707031 163.585938 Z M 33.46875 163.546875 C 33.40625 163.539062 33.34375 163.53125 33.28125 163.523438 C 33.34375 163.53125 33.40625 163.539062 33.46875 163.546875 Z M 33.253906 163.519531 C 33.179688 163.507812 33.105469 163.5 33.03125 163.492188 C 33.105469 163.5 33.179688 163.507812 33.253906 163.519531 Z M 32.980469 163.488281 C 32.921875 163.480469 32.867188 163.476562 32.808594 163.472656 C 32.867188 163.476562 32.921875 163.480469 32.980469 163.488281 Z M 32.746094 163.46875 C 32.671875 163.460938 32.601562 163.457031 32.53125 163.453125 C 32.601562 163.457031 32.671875 163.460938 32.746094 163.46875 Z M 97.28125 51.457031 C 97.300781 51.496094 97.320312 51.535156 97.339844 51.574219 C 97.320312 51.535156 97.300781 51.496094 97.28125 51.457031 Z M 97.535156 51.933594 C 97.546875 51.953125 97.558594 51.972656 97.570312 51.992188 Z M 106.011719 50.796875 C 108.042969 50.796875 109.695312 49.148438 109.695312 47.113281 C 109.695312 45.078125 108.042969 43.429688 106.011719 43.429688 C 103.976562 43.429688 102.328125 45.078125 102.328125 47.113281 C 102.328125 49.148438 103.976562 50.796875 106.011719 50.796875 Z M 106.007812 56.789062 C 105.953125 56.789062 105.898438 56.789062 105.84375 56.789062 L 105.839844 56.789062 C 105.785156 56.785156 105.730469 56.785156 105.675781 56.785156 C 105.621094 56.78125 105.566406 56.78125 105.511719 56.777344 L 105.507812 56.777344 C 105.457031 56.773438 105.402344 56.769531 105.347656 56.765625 L 105.34375 56.765625 C 105.289062 56.761719 105.238281 56.757812 105.183594 56.753906 L 105.179688 56.753906 C 105.128906 56.75 105.074219 56.746094 105.019531 56.738281 C 104.964844 56.734375 104.910156 56.726562 104.859375 56.722656 L 104.855469 56.722656 C 104.800781 56.714844 104.75 56.707031 104.695312 56.699219 C 104.640625 56.695312 104.589844 56.6875 104.535156 56.679688 L 104.535156 56.675781 C 104.480469 56.667969 104.429688 56.660156 104.375 56.652344 C 104.320312 56.644531 104.269531 56.632812 104.21875 56.625 L 104.214844 56.625 C 104.164062 56.613281 104.113281 56.601562 104.058594 56.59375 Z M 39.945312 165.699219 L 39.949219 165.703125 C 40.003906 165.746094 40.058594 165.789062 40.109375 165.832031 L 40.15625 165.871094 Z M 39.945312 165.699219 " fill-opacity="1" fill-rule="nonzero"/></g><g fill="#126abf" fill-opacity="1"><g transform="translate(230.448432, 129.238241)"><g><path d="M 48.4375 -12.03125 L 23 -12.03125 L 18.9375 0 L 1.546875 0 L 26.21875 -68.15625 L 45.4375 -68.15625 L 70.09375 0 L 52.515625 0 Z M 44.171875 -24.859375 L 35.71875 -49.796875 L 27.375 -24.859375 Z M 44.171875 -24.859375 "/></g></g></g><g fill="#126abf" fill-opacity="1"><g transform="translate(300.530296, 129.238241)"><g><path d="M 83.203125 -68.15625 L 83.203125 0 L 66.59375 0 L 66.59375 -40.875 L 51.359375 0 L 37.953125 0 L 22.625 -40.96875 L 22.625 0 L 6.015625 0 L 6.015625 -68.15625 L 25.625 -68.15625 L 44.75 -20.96875 L 63.6875 -68.15625 Z M 83.203125 -68.15625 "/></g></g></g><g fill="#126abf" fill-opacity="1"><g transform="translate(388.181198, 129.238241)"><g><path d="M 30.671875 0.671875 C 25.691406 0.671875 21.226562 -0.132812 17.28125 -1.75 C 13.332031 -3.363281 10.175781 -5.753906 7.8125 -8.921875 C 5.445312 -12.097656 4.203125 -15.921875 4.078125 -20.390625 L 21.75 -20.390625 C 22.007812 -17.859375 22.878906 -15.929688 24.359375 -14.609375 C 25.847656 -13.285156 27.789062 -12.625 30.1875 -12.625 C 32.644531 -12.625 34.585938 -13.1875 36.015625 -14.3125 C 37.441406 -15.445312 38.15625 -17.019531 38.15625 -19.03125 C 38.15625 -20.707031 37.585938 -22.097656 36.453125 -23.203125 C 35.316406 -24.304688 33.921875 -25.210938 32.265625 -25.921875 C 30.617188 -26.628906 28.273438 -27.4375 25.234375 -28.34375 C 20.835938 -29.707031 17.25 -31.066406 14.46875 -32.421875 C 11.6875 -33.785156 9.289062 -35.789062 7.28125 -38.4375 C 5.269531 -41.09375 4.265625 -44.554688 4.265625 -48.828125 C 4.265625 -55.171875 6.5625 -60.140625 11.15625 -63.734375 C 15.757812 -67.328125 21.75 -69.125 29.125 -69.125 C 36.632812 -69.125 42.6875 -67.328125 47.28125 -63.734375 C 51.875 -60.140625 54.332031 -55.140625 54.65625 -48.734375 L 36.703125 -48.734375 C 36.566406 -50.929688 35.753906 -52.660156 34.265625 -53.921875 C 32.773438 -55.179688 30.867188 -55.8125 28.546875 -55.8125 C 26.535156 -55.8125 24.914062 -55.273438 23.6875 -54.203125 C 22.457031 -53.140625 21.84375 -51.609375 21.84375 -49.609375 C 21.84375 -47.410156 22.878906 -45.695312 24.953125 -44.46875 C 27.023438 -43.238281 30.257812 -41.910156 34.65625 -40.484375 C 39.0625 -38.992188 42.640625 -37.566406 45.390625 -36.203125 C 48.140625 -34.847656 50.515625 -32.875 52.515625 -30.28125 C 54.523438 -27.695312 55.53125 -24.367188 55.53125 -20.296875 C 55.53125 -16.410156 54.539062 -12.878906 52.5625 -9.703125 C 50.59375 -6.535156 47.726562 -4.015625 43.96875 -2.140625 C 40.21875 -0.265625 35.785156 0.671875 30.671875 0.671875 Z M 30.671875 0.671875 "/></g></g></g><g fill="#126abf" fill-opacity="1"><g transform="translate(446.420957, 129.238241)"><g/></g></g><g fill="#126abf" fill-opacity="1"><g transform="translate(465.542935, 129.238241)"><g><path d="M 55.046875 -68.15625 L 55.046875 -54.84375 L 36.984375 -54.84375 L 36.984375 0 L 20.390625 0 L 20.390625 -54.84375 L 2.328125 -54.84375 L 2.328125 -68.15625 Z M 55.046875 -68.15625 "/></g></g></g><g fill="#126abf" fill-opacity="1"><g transform="translate(521.453089, 129.238241)"><g><path d="M 22.625 -54.84375 L 22.625 -41.0625 L 44.84375 -41.0625 L 44.84375 -28.25 L 22.625 -28.25 L 22.625 -13.296875 L 47.765625 -13.296875 L 47.765625 0 L 6.015625 0 L 6.015625 -68.15625 L 47.765625 -68.15625 L 47.765625 -54.84375 Z M 22.625 -54.84375 "/></g></g></g><g fill="#126abf" fill-opacity="1"><g transform="translate(572.509942, 129.238241)"><g><path d="M 3.203125 -34.171875 C 3.203125 -40.898438 4.65625 -46.898438 7.5625 -52.171875 C 10.476562 -57.453125 14.539062 -61.5625 19.75 -64.5 C 24.957031 -67.445312 30.863281 -68.921875 37.46875 -68.921875 C 45.5625 -68.921875 52.488281 -66.785156 58.25 -62.515625 C 64.007812 -58.242188 67.859375 -52.421875 69.796875 -45.046875 L 51.546875 -45.046875 C 50.191406 -47.890625 48.265625 -50.054688 45.765625 -51.546875 C 43.273438 -53.035156 40.445312 -53.78125 37.28125 -53.78125 C 32.164062 -53.78125 28.019531 -52 24.84375 -48.4375 C 21.675781 -44.882812 20.09375 -40.128906 20.09375 -34.171875 C 20.09375 -28.210938 21.675781 -23.453125 24.84375 -19.890625 C 28.019531 -16.335938 32.164062 -14.5625 37.28125 -14.5625 C 40.445312 -14.5625 43.273438 -15.304688 45.765625 -16.796875 C 48.265625 -18.285156 50.191406 -20.453125 51.546875 -23.296875 L 69.796875 -23.296875 C 67.859375 -15.921875 64.007812 -10.113281 58.25 -5.875 C 52.488281 -1.632812 45.5625 0.484375 37.46875 0.484375 C 30.863281 0.484375 24.957031 -0.984375 19.75 -3.921875 C 14.539062 -6.867188 10.476562 -10.960938 7.5625 -16.203125 C 4.65625 -21.453125 3.203125 -27.441406 3.203125 -34.171875 Z M 3.203125 -34.171875 "/></g></g></g><g fill="#126abf" fill-opacity="1"><g transform="translate(645.018469, 129.238241)"><g><path d="M 65.046875 -68.15625 L 65.046875 0 L 48.4375 0 L 48.4375 -28.0625 L 22.625 -28.0625 L 22.625 0 L 6.015625 0 L 6.015625 -68.15625 L 22.625 -68.15625 L 22.625 -41.453125 L 48.4375 -41.453125 L 48.4375 -68.15625 Z M 65.046875 -68.15625 "/></g></g></g><g fill="#126abf" fill-opacity="1"><g transform="translate(301.371139, 180.590729)"><g><path d="M 8.453125 -20.03125 C 10.628906 -20.03125 12.515625 -19.617188 14.109375 -18.796875 C 15.710938 -17.984375 16.941406 -16.820312 17.796875 -15.3125 C 18.648438 -13.800781 19.078125 -12.019531 19.078125 -9.96875 C 19.078125 -7.914062 18.648438 -6.140625 17.796875 -4.640625 C 16.941406 -3.140625 15.710938 -1.988281 14.109375 -1.1875 C 12.515625 -0.394531 10.628906 0 8.453125 0 L 2.21875 0 L 2.21875 -20.03125 Z M 8.453125 -2.15625 C 11.035156 -2.15625 13.003906 -2.835938 14.359375 -4.203125 C 15.722656 -5.578125 16.40625 -7.5 16.40625 -9.96875 C 16.40625 -12.457031 15.71875 -14.398438 14.34375 -15.796875 C 12.976562 -17.203125 11.015625 -17.90625 8.453125 -17.90625 L 4.828125 -17.90625 L 4.828125 -2.15625 Z M 8.453125 -2.15625 "/></g></g></g><g fill="#126abf" fill-opacity="1"><g transform="translate(330.183393, 180.590729)"><g><path d="M 4.828125 -20.03125 L 4.828125 0 L 2.21875 0 L 2.21875 -20.03125 Z M 4.828125 -20.03125 "/></g></g></g><g fill="#126abf" fill-opacity="1"><g transform="translate(345.754489, 180.590729)"><g><path d="M 17.390625 -14.21875 C 16.828125 -15.382812 16.019531 -16.289062 14.96875 -16.9375 C 13.914062 -17.582031 12.691406 -17.90625 11.296875 -17.90625 C 9.890625 -17.90625 8.625 -17.582031 7.5 -16.9375 C 6.382812 -16.289062 5.503906 -15.367188 4.859375 -14.171875 C 4.222656 -12.984375 3.90625 -11.601562 3.90625 -10.03125 C 3.90625 -8.457031 4.222656 -7.078125 4.859375 -5.890625 C 5.503906 -4.703125 6.382812 -3.785156 7.5 -3.140625 C 8.625 -2.503906 9.890625 -2.1875 11.296875 -2.1875 C 13.242188 -2.1875 14.847656 -2.769531 16.109375 -3.9375 C 17.378906 -5.101562 18.117188 -6.679688 18.328125 -8.671875 L 10.34375 -8.671875 L 10.34375 -10.796875 L 21.125 -10.796875 L 21.125 -8.796875 C 20.96875 -7.148438 20.445312 -5.640625 19.5625 -4.265625 C 18.6875 -2.898438 17.53125 -1.816406 16.09375 -1.015625 C 14.65625 -0.222656 13.054688 0.171875 11.296875 0.171875 C 9.429688 0.171875 7.734375 -0.257812 6.203125 -1.125 C 4.671875 -2 3.457031 -3.210938 2.5625 -4.765625 C 1.675781 -6.316406 1.234375 -8.070312 1.234375 -10.03125 C 1.234375 -11.976562 1.675781 -13.734375 2.5625 -15.296875 C 3.457031 -16.859375 4.671875 -18.070312 6.203125 -18.9375 C 7.734375 -19.8125 9.429688 -20.25 11.296875 -20.25 C 13.421875 -20.25 15.300781 -19.722656 16.9375 -18.671875 C 18.570312 -17.617188 19.765625 -16.132812 20.515625 -14.21875 Z M 17.390625 -14.21875 "/></g></g></g><g fill="#126abf" fill-opacity="1"><g transform="translate(376.60606, 180.590729)"><g><path d="M 4.828125 -20.03125 L 4.828125 0 L 2.21875 0 L 2.21875 -20.03125 Z M 4.828125 -20.03125 "/></g></g></g><g fill="#126abf" fill-opacity="1"><g transform="translate(392.177153, 180.590729)"><g><path d="M 14.546875 -20.03125 L 14.546875 -17.90625 L 9.078125 -17.90625 L 9.078125 0 L 6.46875 0 L 6.46875 -17.90625 L 0.984375 -17.90625 L 0.984375 -20.03125 Z M 14.546875 -20.03125 "/></g></g></g><g fill="#126abf" fill-opacity="1"><g transform="translate(416.221441, 180.590729)"><g><path d="M 14.046875 -4.453125 L 5.3125 -4.453125 L 3.703125 0 L 0.953125 0 L 8.1875 -19.90625 L 11.203125 -19.90625 L 18.421875 0 L 15.65625 0 Z M 13.296875 -6.578125 L 9.6875 -16.6875 L 6.0625 -6.578125 Z M 13.296875 -6.578125 "/></g></g></g><g fill="#126abf" fill-opacity="1"><g transform="translate(444.085847, 180.590729)"><g><path d="M 4.828125 -2.125 L 11.84375 -2.125 L 11.84375 0 L 2.21875 0 L 2.21875 -20.03125 L 4.828125 -20.03125 Z M 4.828125 -2.125 "/></g></g></g><g fill="#126abf" fill-opacity="1"><g transform="translate(464.999362, 180.590729)"><g><path d="M 14.046875 -4.453125 L 5.3125 -4.453125 L 3.703125 0 L 0.953125 0 L 8.1875 -19.90625 L 11.203125 -19.90625 L 18.421875 0 L 15.65625 0 Z M 13.296875 -6.578125 L 9.6875 -16.6875 L 6.0625 -6.578125 Z M 13.296875 -6.578125 "/></g></g></g><g fill="#126abf" fill-opacity="1"><g transform="translate(492.863768, 180.590729)"><g><path d="M 17.390625 -14.21875 C 16.828125 -15.382812 16.019531 -16.289062 14.96875 -16.9375 C 13.914062 -17.582031 12.691406 -17.90625 11.296875 -17.90625 C 9.890625 -17.90625 8.625 -17.582031 7.5 -16.9375 C 6.382812 -16.289062 5.503906 -15.367188 4.859375 -14.171875 C 4.222656 -12.984375 3.90625 -11.601562 3.90625 -10.03125 C 3.90625 -8.457031 4.222656 -7.078125 4.859375 -5.890625 C 5.503906 -4.703125 6.382812 -3.785156 7.5 -3.140625 C 8.625 -2.503906 9.890625 -2.1875 11.296875 -2.1875 C 13.242188 -2.1875 14.847656 -2.769531 16.109375 -3.9375 C 17.378906 -5.101562 18.117188 -6.679688 18.328125 -8.671875 L 10.34375 -8.671875 L 10.34375 -10.796875 L 21.125 -10.796875 L 21.125 -8.796875 C 20.96875 -7.148438 20.445312 -5.640625 19.5625 -4.265625 C 18.6875 -2.898438 17.53125 -1.816406 16.09375 -1.015625 C 14.65625 -0.222656 13.054688 0.171875 11.296875 0.171875 C 9.429688 0.171875 7.734375 -0.257812 6.203125 -1.125 C 4.671875 -2 3.457031 -3.210938 2.5625 -4.765625 C 1.675781 -6.316406 1.234375 -8.070312 1.234375 -10.03125 C 1.234375 -11.976562 1.675781 -13.734375 2.5625 -15.296875 C 3.457031 -16.859375 4.671875 -18.070312 6.203125 -18.9375 C 7.734375 -19.8125 9.429688 -20.25 11.296875 -20.25 C 13.421875 -20.25 15.300781 -19.722656 16.9375 -18.671875 C 18.570312 -17.617188 19.765625 -16.132812 20.515625 -14.21875 Z M 17.390625 -14.21875 "/></g></g></g><g fill="#126abf" fill-opacity="1"><g transform="translate(523.715344, 180.590729)"><g><path d="M 4.828125 -17.90625 L 4.828125 -11.203125 L 12.125 -11.203125 L 12.125 -9.046875 L 4.828125 -9.046875 L 4.828125 -2.15625 L 12.984375 -2.15625 L 12.984375 0 L 2.21875 0 L 2.21875 -20.0625 L 12.984375 -20.0625 L 12.984375 -17.90625 Z M 4.828125 -17.90625 "/></g></g></g><g fill="#126abf" fill-opacity="1"><g transform="translate(546.95541, 180.590729)"><g><path d="M 17.953125 0 L 15.34375 0 L 4.828125 -15.953125 L 4.828125 0 L 2.21875 0 L 2.21875 -20.0625 L 4.828125 -20.0625 L 15.34375 -4.140625 L 15.34375 -20.0625 L 17.953125 -20.0625 Z M 17.953125 0 "/></g></g></g><g fill="#126abf" fill-opacity="1"><g transform="translate(575.652773, 180.590729)"><g><path d="M 14.546875 -20.03125 L 14.546875 -17.90625 L 9.078125 -17.90625 L 9.078125 0 L 6.46875 0 L 6.46875 -17.90625 L 0.984375 -17.90625 L 0.984375 -20.03125 Z M 14.546875 -20.03125 "/></g></g></g><g fill="#126abf" fill-opacity="1"><g transform="translate(599.697061, 180.590729)"><g><path d="M 4.765625 -20.03125 L 4.765625 -7.359375 C 4.765625 -5.578125 5.203125 -4.253906 6.078125 -3.390625 C 6.953125 -2.523438 8.164062 -2.09375 9.71875 -2.09375 C 11.25 -2.09375 12.445312 -2.523438 13.3125 -3.390625 C 14.1875 -4.253906 14.625 -5.578125 14.625 -7.359375 L 14.625 -20.03125 L 17.234375 -20.03125 L 17.234375 -7.390625 C 17.234375 -5.722656 16.898438 -4.316406 16.234375 -3.171875 C 15.566406 -2.035156 14.660156 -1.1875 13.515625 -0.625 C 12.378906 -0.0703125 11.101562 0.203125 9.6875 0.203125 C 8.269531 0.203125 6.988281 -0.0703125 5.84375 -0.625 C 4.707031 -1.1875 3.804688 -2.035156 3.140625 -3.171875 C 2.484375 -4.316406 2.15625 -5.722656 2.15625 -7.390625 L 2.15625 -20.03125 Z M 4.765625 -20.03125 "/></g></g></g><g fill="#126abf" fill-opacity="1"><g transform="translate(627.590203, 180.590729)"><g><path d="M 12.765625 0 L 7.984375 -8.1875 L 4.828125 -8.1875 L 4.828125 0 L 2.21875 0 L 2.21875 -20.03125 L 8.671875 -20.03125 C 10.191406 -20.03125 11.472656 -19.769531 12.515625 -19.25 C 13.554688 -18.726562 14.332031 -18.023438 14.84375 -17.140625 C 15.363281 -16.265625 15.625 -15.265625 15.625 -14.140625 C 15.625 -12.753906 15.226562 -11.535156 14.4375 -10.484375 C 13.644531 -9.429688 12.453125 -8.734375 10.859375 -8.390625 L 15.890625 0 Z M 4.828125 -10.28125 L 8.671875 -10.28125 C 10.085938 -10.28125 11.148438 -10.628906 11.859375 -11.328125 C 12.578125 -12.035156 12.9375 -12.972656 12.9375 -14.140625 C 12.9375 -15.328125 12.582031 -16.242188 11.875 -16.890625 C 11.175781 -17.546875 10.109375 -17.875 8.671875 -17.875 L 4.828125 -17.875 Z M 4.828125 -10.28125 "/></g></g></g></svg>