<svg xmlns="http://www.w3.org/2000/svg" xmlns:xlink="http://www.w3.org/1999/xlink" width="1500" zoomAndPan="magnify" viewBox="0 0 1125 225" height="300" preserveAspectRatio="xMidYMid meet" version="1.0"><defs><g/><clipPath id="id1"><path d="M 24 1.898438 L 227 1.898438 L 227 223 L 24 223 Z M 24 1.898438 " clip-rule="nonzero"/></clipPath></defs><g clip-path="url(#id1)"><path fill="#9d9df4" d="M 226.257812 171.824219 C 226.109375 165.179688 224.800781 158.777344 222.332031 152.609375 C 221.113281 149.425781 220.011719 146.871094 217.539062 141.367188 L 217.539062 141.054688 L 216.75 139.441406 C 201.613281 105.933594 185.699219 72.6875 169.015625 39.703125 L 167.523438 36.757812 C 164.8125 31.371094 163.59375 28.894531 161.90625 25.910156 C 159.359375 20.992188 156.109375 16.589844 152.164062 12.707031 C 150.523438 11.121094 148.757812 9.695312 146.867188 8.421875 C 144.976562 7.148438 142.988281 6.050781 140.902344 5.128906 C 138.820312 4.207031 136.671875 3.476562 134.457031 2.933594 C 132.242188 2.390625 130 2.046875 127.726562 1.898438 L 123.796875 1.898438 C 121.433594 2.015625 119.101562 2.34375 116.800781 2.886719 C 114.5 3.425781 112.265625 4.171875 110.101562 5.125 C 107.9375 6.074219 105.875 7.210938 103.917969 8.539062 C 101.960938 9.867188 100.140625 11.359375 98.457031 13.019531 C 94.6875 16.8125 91.570312 21.085938 89.105469 25.832031 C 87.453125 28.816406 86.121094 31.449219 83.527344 36.558594 L 83.210938 37.148438 L 82.035156 39.46875 C 70.929688 61.421875 60.085938 83.691406 49.503906 106.273438 C 41.644531 122.859375 36.300781 134.765625 31.039062 146.671875 C 28.167969 152.652344 26.203125 158.914062 25.144531 165.457031 C 24.738281 168.292969 24.578125 171.140625 24.664062 174.003906 C 24.746094 176.867188 25.078125 179.699219 25.648438 182.507812 C 26.222656 185.3125 27.027344 188.050781 28.074219 190.714844 C 29.117188 193.382812 30.378906 195.941406 31.863281 198.390625 C 32.988281 200.28125 34.238281 202.089844 35.613281 203.8125 C 36.984375 205.535156 38.46875 207.15625 40.0625 208.675781 C 41.65625 210.195312 43.347656 211.601562 45.132812 212.890625 C 46.917969 214.179688 48.78125 215.339844 50.726562 216.375 C 52.671875 217.410156 54.675781 218.308594 56.742188 219.066406 C 58.808594 219.828125 60.917969 220.445312 63.070312 220.917969 C 65.21875 221.390625 67.394531 221.714844 69.589844 221.890625 C 71.785156 222.066406 73.980469 222.09375 76.179688 221.96875 C 81.222656 221.609375 86.140625 220.621094 90.933594 219.003906 C 95.722656 217.382812 100.234375 215.191406 104.464844 212.417969 L 104.664062 212.417969 C 105.003906 212.203125 105.316406 211.949219 105.601562 211.65625 C 105.886719 211.367188 106.132812 211.046875 106.34375 210.703125 C 106.554688 210.355469 106.722656 209.988281 106.851562 209.601562 C 106.976562 209.21875 107.058594 208.824219 107.09375 208.417969 C 107.128906 208.015625 107.121094 207.609375 107.0625 207.207031 C 107.007812 206.808594 106.90625 206.417969 106.761719 206.039062 C 106.613281 205.660156 106.425781 205.300781 106.199219 204.964844 C 105.972656 204.628906 105.707031 204.324219 105.410156 204.050781 C 102.960938 201.699219 100.695312 199.183594 98.613281 196.503906 C 98.207031 195.980469 97.722656 195.542969 97.15625 195.195312 C 96.589844 194.851562 95.980469 194.617188 95.332031 194.492188 C 94.679688 194.371094 94.027344 194.367188 93.375 194.484375 C 92.722656 194.597656 92.109375 194.828125 91.539062 195.167969 C 87.875 197.4375 83.945312 199.074219 79.753906 200.078125 C 76.605469 200.824219 73.425781 201.007812 70.210938 200.628906 C 66.996094 200.253906 63.945312 199.335938 61.054688 197.878906 C 59.378906 197.007812 57.816406 195.972656 56.355469 194.777344 C 54.898438 193.582031 53.582031 192.246094 52.398438 190.773438 C 51.21875 189.304688 50.203125 187.726562 49.351562 186.042969 C 48.5 184.359375 47.828125 182.605469 47.34375 180.785156 C 46.628906 178.042969 46.324219 175.257812 46.433594 172.425781 C 46.539062 169.597656 47.050781 166.839844 47.972656 164.160156 C 49.339844 160.238281 50.910156 156.402344 52.683594 152.648438 L 52.882812 152.175781 L 53.941406 149.777344 C 68.742188 116.898438 84.457031 84.148438 101.089844 51.53125 L 102.34375 49.015625 C 105.292969 43.160156 106.667969 40.488281 108.394531 37.226562 C 110.066406 33.773438 112.355469 30.800781 115.269531 28.308594 C 116.027344 27.71875 116.824219 27.199219 117.667969 26.75 C 118.511719 26.296875 119.386719 25.921875 120.296875 25.621094 C 121.203125 25.316406 122.128906 25.09375 123.074219 24.949219 C 124.019531 24.804688 124.972656 24.742188 125.929688 24.761719 C 126.882812 24.777344 127.832031 24.875 128.773438 25.054688 C 129.710938 25.234375 130.628906 25.492188 131.523438 25.828125 C 132.421875 26.164062 133.28125 26.570312 134.109375 27.054688 C 134.933594 27.535156 135.714844 28.085938 136.445312 28.699219 C 139.613281 31.664062 142.085938 35.121094 143.871094 39.074219 C 147.800781 46.542969 151.179688 53.300781 157.425781 65.835938 L 158.527344 68.078125 L 158.527344 68.3125 C 172.488281 96.476562 185.832031 124.746094 198.5625 153.117188 L 199.191406 154.574219 L 199.425781 155.121094 C 201.109375 158.65625 202.507812 162.296875 203.628906 166.046875 C 204.332031 168.566406 204.683594 171.132812 204.683594 173.75 C 204.683594 176.367188 204.332031 178.933594 203.628906 181.453125 C 203.40625 182.246094 203.148438 183.027344 202.855469 183.792969 C 202.558594 184.5625 202.230469 185.316406 201.867188 186.054688 C 201.503906 186.792969 201.105469 187.515625 200.675781 188.21875 C 200.246094 188.917969 199.785156 189.601562 199.292969 190.257812 C 198.800781 190.917969 198.277344 191.554688 197.726562 192.167969 C 197.175781 192.777344 196.597656 193.363281 195.992188 193.921875 C 195.386719 194.480469 194.757812 195.007812 194.105469 195.507812 C 193.453125 196.007812 192.777344 196.480469 192.078125 196.917969 C 191.382812 197.355469 190.667969 197.761719 189.933594 198.132812 C 189.199219 198.507812 188.449219 198.84375 187.683594 199.148438 C 186.917969 199.449219 186.140625 199.71875 185.351562 199.949219 C 184.5625 200.183594 183.765625 200.378906 182.957031 200.535156 C 182.148438 200.695312 181.335938 200.816406 180.515625 200.898438 C 179.699219 200.980469 178.875 201.027344 178.054688 201.035156 C 177.230469 201.042969 176.410156 201.011719 175.589844 200.945312 C 174.769531 200.878906 173.953125 200.773438 173.140625 200.628906 C 169.054688 199.804688 165.148438 198.453125 161.421875 196.578125 C 157.695312 194.707031 154.28125 192.375 151.179688 189.585938 C 148.3125 187.210938 145.589844 184.683594 143.007812 182.003906 C 135.335938 174.503906 128.605469 166.238281 122.8125 157.207031 L 122.421875 156.65625 L 122.183594 156.339844 C 118.425781 150.734375 115.191406 144.839844 112.480469 138.65625 C 110.28125 133.890625 108.804688 128.914062 108.042969 123.722656 C 107.457031 119.882812 107.785156 116.125 109.023438 112.445312 C 109.589844 110.890625 110.390625 109.464844 111.417969 108.167969 C 112.445312 106.871094 113.652344 105.765625 115.035156 104.859375 C 115.890625 104.3125 116.78125 103.835938 117.710938 103.433594 C 118.640625 103.027344 119.59375 102.695312 120.578125 102.441406 C 121.558594 102.1875 122.550781 102.011719 123.5625 101.910156 C 124.570312 101.8125 125.582031 101.796875 126.59375 101.855469 C 127.605469 101.917969 128.605469 102.058594 129.597656 102.277344 C 130.585938 102.496094 131.554688 102.792969 132.496094 103.164062 C 133.4375 103.535156 134.347656 103.980469 135.222656 104.496094 C 136.09375 105.007812 136.921875 105.589844 137.703125 106.234375 C 139.203125 107.605469 140.40625 109.199219 141.3125 111.011719 C 142.21875 112.828125 142.773438 114.746094 142.96875 116.765625 C 143.429688 122.910156 142.484375 128.832031 140.140625 134.53125 C 139.722656 135.65625 139.261719 136.785156 138.765625 137.910156 C 138.328125 138.878906 138.027344 139.886719 137.859375 140.933594 C 137.691406 141.984375 137.664062 143.035156 137.773438 144.09375 C 137.882812 145.148438 138.128906 146.171875 138.511719 147.164062 C 138.890625 148.152344 139.394531 149.078125 140.023438 149.933594 C 142.011719 152.554688 143.898438 154.953125 145.679688 157.125 C 145.957031 157.457031 146.269531 157.753906 146.621094 158.007812 C 146.96875 158.265625 147.34375 158.472656 147.746094 158.640625 C 148.144531 158.804688 148.558594 158.917969 148.988281 158.980469 C 149.417969 159.046875 149.847656 159.058594 150.277344 159.015625 C 150.707031 158.976562 151.128906 158.882812 151.535156 158.742188 C 151.945312 158.597656 152.332031 158.410156 152.695312 158.171875 C 153.054688 157.9375 153.386719 157.660156 153.679688 157.34375 C 153.976562 157.027344 154.230469 156.679688 154.441406 156.300781 C 155.253906 154.835938 156.011719 153.367188 156.71875 151.898438 C 159.210938 147.144531 161.171875 142.179688 162.601562 137.007812 C 164.03125 131.835938 164.902344 126.566406 165.207031 121.207031 C 165.378906 117.566406 165.09375 113.964844 164.347656 110.394531 C 163.601562 106.828125 162.421875 103.410156 160.804688 100.144531 C 159.707031 98.011719 158.414062 96 156.9375 94.109375 C 155.457031 92.21875 153.816406 90.484375 152.011719 88.90625 C 150.207031 87.324219 148.269531 85.925781 146.199219 84.710938 C 144.132812 83.496094 141.96875 82.480469 139.707031 81.675781 C 135.515625 80.175781 131.191406 79.367188 126.742188 79.246094 C 122.289062 79.125 117.929688 79.699219 113.660156 80.964844 C 109.585938 82.132812 105.800781 83.921875 102.3125 86.328125 C 98.820312 88.738281 95.808594 91.640625 93.269531 95.035156 C 91.074219 98.046875 89.335938 101.300781 88.050781 104.800781 C 86.769531 108.300781 85.996094 111.910156 85.726562 115.628906 C 85.4375 120.703125 85.742188 125.738281 86.644531 130.742188 C 87.546875 135.742188 89.023438 140.566406 91.070312 145.21875 C 96.140625 157.101562 102.6875 168.105469 110.714844 178.230469 C 113.777344 182.160156 119.316406 188.410156 125.210938 194.539062 C 130.960938 200.78125 137.335938 206.296875 144.34375 211.082031 C 148.535156 214.003906 153.019531 216.363281 157.800781 218.160156 C 162.585938 219.957031 167.515625 221.136719 172.59375 221.695312 C 175.382812 221.992188 178.179688 222.042969 180.980469 221.855469 C 183.78125 221.664062 186.542969 221.234375 189.269531 220.566406 C 191.996094 219.894531 194.644531 218.996094 197.214844 217.867188 C 199.785156 216.734375 202.234375 215.390625 204.570312 213.835938 C 206.273438 212.679688 207.894531 211.429688 209.4375 210.074219 C 210.984375 208.71875 212.4375 207.273438 213.800781 205.738281 C 215.167969 204.203125 216.429688 202.589844 217.597656 200.898438 C 218.761719 199.207031 219.816406 197.449219 220.761719 195.625 C 221.710938 193.800781 222.539062 191.925781 223.253906 190 C 223.964844 188.074219 224.558594 186.113281 225.027344 184.113281 C 225.5 182.113281 225.84375 180.089844 226.0625 178.046875 C 226.28125 176.003906 226.371094 173.957031 226.335938 171.902344 Z M 226.257812 171.824219 " fill-opacity="1" fill-rule="nonzero"/></g><g fill="#09094f" fill-opacity="1"><g transform="translate(297.632039, 141.439678)"><g><path d="M 70.203125 0 L 65.03125 -12.03125 L 27.265625 -12.03125 L 22.09375 0 L 1.8125 0 L 43.078125 -93.984375 L 49.375 -93.984375 L 90.484375 0 Z M 58.46875 -27.546875 L 46.15625 -58.734375 L 33.84375 -27.546875 Z M 58.46875 -27.546875 "/></g></g></g><g fill="#09094f" fill-opacity="1"><g transform="translate(396.228104, 141.439678)"><g><path d="M 94.828125 -93.984375 L 100.984375 -93.984375 L 100.984375 0 L 82.09375 0 L 82.09375 -49.234375 L 58.875 -20.140625 L 52.734375 -20.140625 L 29.515625 -49.234375 L 29.515625 0 L 10.625 0 L 10.625 -93.984375 L 16.78125 -93.984375 L 55.796875 -44.0625 Z M 94.828125 -93.984375 "/></g></g></g><g fill="#09094f" fill-opacity="1"><g transform="translate(513.983844, 141.439678)"><g><path d="M 4.203125 -18.734375 L 17.203125 -28.53125 C 23.734375 -19.582031 31.285156 -15.109375 39.859375 -15.109375 C 43.960938 -15.109375 47.175781 -16.015625 49.5 -17.828125 C 51.832031 -19.648438 53 -22.144531 53 -25.3125 C 53 -27.925781 52.207031 -29.953125 50.625 -31.390625 C 49.039062 -32.835938 45.921875 -34.632812 41.265625 -36.78125 L 31.328125 -41.265625 C 16.410156 -47.878906 8.953125 -56.734375 8.953125 -67.828125 C 8.953125 -75.660156 11.84375 -81.976562 17.625 -86.78125 C 23.40625 -91.582031 30.722656 -93.984375 39.578125 -93.984375 C 46.484375 -93.984375 52.546875 -92.421875 57.765625 -89.296875 C 62.984375 -86.171875 67.082031 -81.90625 70.0625 -76.5 L 57.203125 -66.578125 C 52.441406 -73.660156 46.566406 -77.203125 39.578125 -77.203125 C 36.222656 -77.203125 33.472656 -76.410156 31.328125 -74.828125 C 29.179688 -73.242188 28.109375 -71.050781 28.109375 -68.25 C 28.109375 -65.914062 28.878906 -64.023438 30.421875 -62.578125 C 31.960938 -61.140625 34.78125 -59.488281 38.875 -57.625 L 49.375 -53 C 57.300781 -49.457031 63.082031 -45.613281 66.71875 -41.46875 C 70.351562 -37.320312 72.171875 -32.171875 72.171875 -26.015625 C 72.171875 -17.710938 69.140625 -11.019531 63.078125 -5.9375 C 57.015625 -0.863281 49.273438 1.671875 39.859375 1.671875 C 32.117188 1.671875 25.148438 -0.144531 18.953125 -3.78125 C 12.753906 -7.414062 7.835938 -12.398438 4.203125 -18.734375 Z M 4.203125 -18.734375 "/></g></g></g><g fill="#09094f" fill-opacity="1"><g transform="translate(598.315033, 141.439678)"><g/></g></g><g fill="#09094f" fill-opacity="1"><g transform="translate(643.627615, 141.439678)"><g><path d="M 31.46875 0 L 31.46875 -75.25 L 1.953125 -75.25 L 1.953125 -92.3125 L 80 -92.3125 L 80 -75.25 L 50.34375 -75.25 L 50.34375 0 Z M 31.46875 0 "/></g></g></g><g fill="#09094f" fill-opacity="1"><g transform="translate(731.594958, 141.439678)"><g><path d="M 10.625 0 L 10.625 -92.3125 L 72.734375 -92.3125 L 72.734375 -75.25 L 29.515625 -75.25 L 29.515625 -56.5 L 61.265625 -56.5 L 61.265625 -40.421875 L 29.515625 -40.421875 L 29.515625 -17.0625 L 74.40625 -17.0625 L 74.40625 0 Z M 10.625 0 "/></g></g></g><g fill="#09094f" fill-opacity="1"><g transform="translate(817.884093, 141.439678)"><g><path d="M 5.3125 -46.15625 C 5.125 -59.394531 9.925781 -70.742188 19.71875 -80.203125 C 29.507812 -89.671875 41.117188 -94.265625 54.546875 -93.984375 C 63.304688 -93.984375 71.253906 -91.953125 78.390625 -87.890625 C 85.523438 -83.835938 91.144531 -78.222656 95.25 -71.046875 L 80.984375 -60.984375 C 74.359375 -71.328125 65.546875 -76.5 54.546875 -76.5 C 45.960938 -76.5 38.847656 -73.609375 33.203125 -67.828125 C 27.566406 -62.046875 24.75 -54.769531 24.75 -46 C 24.75 -37.238281 27.566406 -30.015625 33.203125 -24.328125 C 38.847656 -18.640625 45.960938 -15.796875 54.546875 -15.796875 C 65.546875 -15.796875 74.359375 -20.972656 80.984375 -31.328125 L 95.25 -21.265625 C 91.238281 -14.078125 85.640625 -8.457031 78.453125 -4.40625 C 71.273438 -0.351562 63.257812 1.671875 54.40625 1.671875 C 40.882812 1.953125 29.25 -2.632812 19.5 -12.09375 C 9.757812 -21.5625 5.03125 -32.914062 5.3125 -46.15625 Z M 5.3125 -46.15625 "/></g></g></g><g fill="#09094f" fill-opacity="1"><g transform="translate(924.731394, 141.439678)"><g><path d="M 10.625 0 L 10.625 -92.3125 L 29.515625 -92.3125 L 29.515625 -56.921875 L 70.34375 -56.921875 L 70.34375 -92.3125 L 89.234375 -92.3125 L 89.234375 0 L 70.34375 0 L 70.34375 -39.859375 L 29.515625 -39.859375 L 29.515625 0 Z M 10.625 0 "/></g></g></g><g fill="#09094f" fill-opacity="1"><g transform="translate(376.908382, 193.827996)"><g><path d="M 3.265625 0 L 3.265625 -25.921875 L 11.390625 -25.921875 C 15.597656 -25.921875 19 -24.726562 21.59375 -22.34375 C 24.1875 -19.957031 25.484375 -16.84375 25.484375 -13 C 25.484375 -9.195312 24.179688 -6.078125 21.578125 -3.640625 C 18.972656 -1.210938 15.578125 0 11.390625 0 Z M 7.421875 -3.734375 L 11.34375 -3.734375 C 14.332031 -3.734375 16.722656 -4.585938 18.515625 -6.296875 C 20.304688 -8.015625 21.203125 -10.25 21.203125 -13 C 21.203125 -15.769531 20.3125 -17.984375 18.53125 -19.640625 C 16.75 -21.304688 14.351562 -22.140625 11.34375 -22.140625 L 7.421875 -22.140625 Z M 7.421875 -3.734375 "/></g></g></g><g fill="#09094f" fill-opacity="1"><g transform="translate(422.607797, 193.827996)"><g><path d="M 3.265625 0 L 3.265625 -25.921875 L 7.421875 -25.921875 L 7.421875 0 Z M 3.265625 0 "/></g></g></g><g fill="#09094f" fill-opacity="1"><g transform="translate(451.81891, 193.827996)"><g><path d="M 1.6875 -12.953125 C 1.613281 -16.648438 2.929688 -19.816406 5.640625 -22.453125 C 8.347656 -25.097656 11.585938 -26.394531 15.359375 -26.34375 C 19.910156 -26.34375 23.484375 -24.535156 26.078125 -20.921875 L 23.046875 -18.453125 C 21.109375 -21.171875 18.53125 -22.53125 15.3125 -22.53125 C 12.59375 -22.53125 10.359375 -21.628906 8.609375 -19.828125 C 6.867188 -18.023438 6 -15.75 6 -13 C 6 -10.21875 6.894531 -7.90625 8.6875 -6.0625 C 10.488281 -4.21875 12.773438 -3.296875 15.546875 -3.296875 C 19.003906 -3.296875 21.582031 -4.601562 23.28125 -7.21875 L 23.28125 -10.015625 L 15.3125 -10.015625 L 15.3125 -13.703125 L 27.453125 -13.703125 L 27.453125 -6.40625 C 26.273438 -4.3125 24.609375 -2.644531 22.453125 -1.40625 C 20.304688 -0.175781 17.941406 0.4375 15.359375 0.4375 C 11.554688 0.488281 8.3125 -0.796875 5.625 -3.421875 C 2.945312 -6.054688 1.632812 -9.234375 1.6875 -12.953125 Z M 1.6875 -12.953125 "/></g></g></g><g fill="#09094f" fill-opacity="1"><g transform="translate(499.638251, 193.827996)"><g><path d="M 3.265625 0 L 3.265625 -25.921875 L 7.421875 -25.921875 L 7.421875 0 Z M 3.265625 0 "/></g></g></g><g fill="#09094f" fill-opacity="1"><g transform="translate(528.849363, 193.827996)"><g><path d="M 9.34375 0 L 9.34375 -22.1875 L 0.625 -22.1875 L 0.625 -25.921875 L 22.265625 -25.921875 L 22.265625 -22.1875 L 13.5 -22.1875 L 13.5 0 Z M 9.34375 0 "/></g></g></g><g fill="#09094f" fill-opacity="1"><g transform="translate(570.269672, 193.827996)"><g><path d="M 20.65625 0 L 18.8125 -4.3125 L 7.140625 -4.3125 L 5.296875 0 L 0.859375 0 L 12.296875 -26.34375 L 13.703125 -26.34375 L 25.125 0 Z M 17.3125 -7.890625 L 13 -18.609375 L 8.640625 -7.890625 Z M 17.3125 -7.890625 "/></g></g></g><g fill="#09094f" fill-opacity="1"><g transform="translate(614.791353, 193.827996)"><g><path d="M 3.265625 0 L 3.265625 -25.921875 L 7.421875 -25.921875 L 7.421875 -3.734375 L 19.28125 -3.734375 L 19.28125 0 Z M 3.265625 0 "/></g></g></g><g fill="#09094f" fill-opacity="1"><g transform="translate(653.542122, 193.827996)"><g><path d="M 20.65625 0 L 18.8125 -4.3125 L 7.140625 -4.3125 L 5.296875 0 L 0.859375 0 L 12.296875 -26.34375 L 13.703125 -26.34375 L 25.125 0 Z M 17.3125 -7.890625 L 13 -18.609375 L 8.640625 -7.890625 Z M 17.3125 -7.890625 "/></g></g></g><g fill="#09094f" fill-opacity="1"><g transform="translate(698.063804, 193.827996)"><g><path d="M 1.6875 -12.953125 C 1.613281 -16.648438 2.929688 -19.816406 5.640625 -22.453125 C 8.347656 -25.097656 11.585938 -26.394531 15.359375 -26.34375 C 19.910156 -26.34375 23.484375 -24.535156 26.078125 -20.921875 L 23.046875 -18.453125 C 21.109375 -21.171875 18.53125 -22.53125 15.3125 -22.53125 C 12.59375 -22.53125 10.359375 -21.628906 8.609375 -19.828125 C 6.867188 -18.023438 6 -15.75 6 -13 C 6 -10.21875 6.894531 -7.90625 8.6875 -6.0625 C 10.488281 -4.21875 12.773438 -3.296875 15.546875 -3.296875 C 19.003906 -3.296875 21.582031 -4.601562 23.28125 -7.21875 L 23.28125 -10.015625 L 15.3125 -10.015625 L 15.3125 -13.703125 L 27.453125 -13.703125 L 27.453125 -6.40625 C 26.273438 -4.3125 24.609375 -2.644531 22.453125 -1.40625 C 20.304688 -0.175781 17.941406 0.4375 15.359375 0.4375 C 11.554688 0.488281 8.3125 -0.796875 5.625 -3.421875 C 2.945312 -6.054688 1.632812 -9.234375 1.6875 -12.953125 Z M 1.6875 -12.953125 "/></g></g></g><g fill="#09094f" fill-opacity="1"><g transform="translate(745.883145, 193.827996)"><g><path d="M 3.265625 0 L 3.265625 -25.921875 L 20.296875 -25.921875 L 20.296875 -22.1875 L 7.421875 -22.1875 L 7.421875 -15.546875 L 17.125 -15.546875 L 17.125 -11.9375 L 7.421875 -11.9375 L 7.421875 -3.734375 L 20.765625 -3.734375 L 20.765625 0 Z M 3.265625 0 "/></g></g></g><g fill="#09094f" fill-opacity="1"><g transform="translate(786.753841, 193.827996)"><g><path d="M 20.453125 -25.921875 L 24.625 -25.921875 L 24.625 0.4375 L 23.203125 0.4375 L 7.421875 -17.546875 L 7.421875 0 L 3.265625 0 L 3.265625 -26.34375 L 4.71875 -26.34375 L 20.453125 -8.4375 Z M 20.453125 -25.921875 "/></g></g></g><g fill="#09094f" fill-opacity="1"><g transform="translate(833.199136, 193.827996)"><g><path d="M 9.34375 0 L 9.34375 -22.1875 L 0.625 -22.1875 L 0.625 -25.921875 L 22.265625 -25.921875 L 22.265625 -22.1875 L 13.5 -22.1875 L 13.5 0 Z M 9.34375 0 "/></g></g></g><g fill="#09094f" fill-opacity="1"><g transform="translate(874.619423, 193.827996)"><g><path d="M 2.984375 -10.484375 L 2.984375 -25.921875 L 7.140625 -25.921875 L 7.140625 -10.203125 C 7.140625 -8.054688 7.734375 -6.378906 8.921875 -5.171875 C 10.117188 -3.972656 11.703125 -3.375 13.671875 -3.375 C 15.597656 -3.375 17.148438 -3.972656 18.328125 -5.171875 C 19.515625 -6.378906 20.109375 -8.054688 20.109375 -10.203125 L 20.109375 -25.921875 L 24.265625 -25.921875 L 24.265625 -10.484375 C 24.265625 -7.128906 23.273438 -4.46875 21.296875 -2.5 C 19.328125 -0.539062 16.785156 0.4375 13.671875 0.4375 C 10.492188 0.4375 7.914062 -0.539062 5.9375 -2.5 C 3.96875 -4.46875 2.984375 -7.128906 2.984375 -10.484375 Z M 2.984375 -10.484375 "/></g></g></g><g fill="#09094f" fill-opacity="1"><g transform="translate(920.397344, 193.827996)"><g><path d="M 24.3125 0 L 19.546875 0 L 12.171875 -10.015625 L 7.421875 -10.015625 L 7.421875 0 L 3.265625 0 L 3.265625 -25.921875 L 12.71875 -25.921875 C 15.34375 -25.921875 17.460938 -25.179688 19.078125 -23.703125 C 20.703125 -22.222656 21.515625 -20.316406 21.515625 -17.984375 C 21.515625 -16.285156 21.078125 -14.789062 20.203125 -13.5 C 19.328125 -12.21875 18.101562 -11.28125 16.53125 -10.6875 Z M 7.421875 -22.21875 L 7.421875 -13.703125 L 12.640625 -13.703125 C 14.054688 -13.703125 15.175781 -14.085938 16 -14.859375 C 16.820312 -15.628906 17.234375 -16.65625 17.234375 -17.9375 C 17.234375 -19.226562 16.820312 -20.265625 16 -21.046875 C 15.175781 -21.828125 14.054688 -22.21875 12.640625 -22.21875 Z M 7.421875 -22.21875 "/></g></g></g></svg>