<svg xmlns="http://www.w3.org/2000/svg" xmlns:xlink="http://www.w3.org/1999/xlink" width="500" zoomAndPan="magnify" viewBox="0 0 375 374.999991" height="500" preserveAspectRatio="xMidYMid meet" version="1.0"><defs><g/><clipPath id="id1"><path d="M 202 46.628906 L 305.515625 46.628906 L 305.515625 192 L 202 192 Z M 202 46.628906 " clip-rule="nonzero"/></clipPath><clipPath id="id2"><path d="M 69.265625 88 L 188 88 L 188 246.128906 L 69.265625 246.128906 Z M 69.265625 88 " clip-rule="nonzero"/></clipPath><clipPath id="id3"><path d="M 131 72 L 305.515625 72 L 305.515625 246.128906 L 131 246.128906 Z M 131 72 " clip-rule="nonzero"/></clipPath></defs><g clip-path="url(#id1)"><path fill="#f7b35a" d="M 250.09375 46.519531 C 229.542969 46.519531 211.566406 57.796875 202 74.503906 C 209.191406 76.460938 215.914062 79.867188 221.816406 84.574219 C 227.683594 75.085938 238.164062 68.75 250.09375 68.75 C 268.429688 68.75 283.347656 83.707031 283.347656 102.09375 L 283.347656 145.761719 L 289.28125 151.714844 C 299.75 162.210938 305.515625 176.164062 305.515625 191.007812 L 305.515625 102.09375 C 305.515625 71.449219 280.65625 46.519531 250.09375 46.519531 Z M 250.09375 46.519531 " fill-opacity="1" fill-rule="nonzero"/></g><path fill="#010101" d="M 150.253906 86.882812 C 150.292969 86.84375 150.339844 86.808594 150.386719 86.769531 C 150.339844 86.808594 150.292969 86.84375 150.253906 86.882812 Z M 150.253906 86.882812 " fill-opacity="1" fill-rule="nonzero"/><path fill="#010101" d="M 149.207031 87.859375 C 149.304688 87.765625 149.402344 87.675781 149.503906 87.585938 C 149.402344 87.675781 149.304688 87.765625 149.207031 87.859375 Z M 149.207031 87.859375 " fill-opacity="1" fill-rule="nonzero"/><path fill="#010101" d="M 148.203125 88.839844 C 148.339844 88.707031 148.472656 88.574219 148.613281 88.441406 C 148.472656 88.574219 148.339844 88.707031 148.203125 88.839844 C 148.199219 88.847656 148.1875 88.855469 148.183594 88.859375 Z M 148.203125 88.839844 " fill-opacity="1" fill-rule="nonzero"/><g clip-path="url(#id2)"><path fill="#9d9df4" d="M 85.5 230.304688 C 95.96875 240.800781 109.886719 246.582031 124.6875 246.582031 C 139.492188 246.582031 153.40625 240.800781 163.875 230.304688 L 187.390625 206.722656 L 171.714844 191.007812 L 148.199219 214.585938 C 141.917969 220.882812 133.566406 224.351562 124.683594 224.351562 C 115.800781 224.351562 107.449219 220.882812 101.167969 214.585938 C 94.894531 208.289062 91.433594 199.914062 91.433594 191.007812 C 91.433594 182.101562 94.894531 173.726562 101.171875 167.429688 L 132.542969 135.972656 C 130.191406 119.269531 135.402344 101.6875 148.179688 88.859375 L 85.5 151.714844 C 75.03125 162.210938 69.265625 176.164062 69.265625 191.007812 C 69.265625 205.851562 75.03125 219.8125 85.5 230.304688 Z M 85.5 230.304688 " fill-opacity="1" fill-rule="nonzero"/></g><path fill="#010101" d="M 148.609375 88.441406 C 148.808594 88.242188 149.003906 88.046875 149.203125 87.859375 C 149.007812 88.046875 148.808594 88.242188 148.609375 88.441406 Z M 148.609375 88.441406 " fill-opacity="1" fill-rule="nonzero"/><path fill="#010101" d="M 149.5 87.585938 C 149.75 87.351562 150 87.113281 150.253906 86.882812 C 150 87.113281 149.75 87.351562 149.5 87.585938 Z M 149.5 87.585938 " fill-opacity="1" fill-rule="nonzero"/><g clip-path="url(#id3)"><path fill="#126abf" d="M 289.28125 151.714844 L 283.347656 145.761719 L 226.578125 88.839844 C 226.472656 88.734375 226.371094 88.636719 226.265625 88.53125 C 226.035156 88.304688 225.804688 88.078125 225.574219 87.851562 C 225.484375 87.765625 225.398438 87.6875 225.308594 87.605469 C 225.046875 87.359375 224.789062 87.121094 224.527344 86.878906 C 224.492188 86.84375 224.453125 86.8125 224.417969 86.777344 C 223.566406 86.011719 222.695312 85.277344 221.816406 84.574219 C 221.816406 84.574219 221.816406 84.574219 221.816406 84.570312 C 215.914062 79.863281 209.191406 76.457031 202 74.5 C 201.992188 74.511719 201.988281 74.519531 201.984375 74.53125 C 197.214844 73.234375 192.304688 72.582031 187.394531 72.582031 C 174.140625 72.582031 160.882812 77.308594 150.386719 86.761719 C 150.34375 86.804688 150.300781 86.839844 150.253906 86.878906 C 150 87.109375 149.75 87.34375 149.5 87.582031 C 149.402344 87.671875 149.304688 87.761719 149.203125 87.851562 C 149.003906 88.042969 148.804688 88.238281 148.609375 88.433594 C 148.472656 88.570312 148.332031 88.699219 148.199219 88.835938 L 148.179688 88.855469 C 135.402344 101.679688 130.1875 119.265625 132.542969 135.96875 C 134.167969 147.484375 139.386719 158.582031 148.203125 167.425781 L 171.71875 191.003906 L 187.394531 206.71875 L 210.910156 230.296875 L 210.929688 230.277344 L 210.910156 230.296875 C 220.695312 240.109375 233.488281 245.796875 247.207031 246.5 C 247.222656 246.5 247.242188 246.5 247.257812 246.503906 C 247.664062 246.527344 248.066406 246.539062 248.476562 246.550781 C 248.546875 246.550781 248.617188 246.554688 248.683594 246.5625 C 249.152344 246.570312 249.625 246.582031 250.097656 246.582031 C 250.574219 246.582031 251.046875 246.574219 251.515625 246.5625 C 251.585938 246.5625 251.65625 246.554688 251.71875 246.550781 C 252.125 246.539062 252.535156 246.527344 252.941406 246.503906 C 252.957031 246.503906 252.976562 246.503906 252.992188 246.5 C 266.707031 245.796875 279.503906 240.109375 289.289062 230.296875 C 299.070312 220.488281 304.746094 207.65625 305.445312 193.902344 C 305.445312 193.890625 305.445312 193.867188 305.449219 193.855469 C 305.472656 193.445312 305.484375 193.039062 305.496094 192.628906 C 305.496094 192.558594 305.5 192.492188 305.507812 192.421875 C 305.515625 191.953125 305.527344 191.480469 305.527344 191.003906 C 305.515625 176.164062 299.75 162.210938 289.28125 151.714844 Z M 283.308594 192.710938 C 283.300781 192.789062 283.292969 192.871094 283.289062 192.949219 C 283.257812 193.4375 283.226562 193.929688 283.175781 194.410156 C 283.175781 194.425781 283.171875 194.441406 283.171875 194.457031 C 281.566406 210.089844 269.136719 222.558594 253.539062 224.175781 C 253.523438 224.175781 253.503906 224.179688 253.488281 224.179688 C 253.007812 224.230469 252.519531 224.265625 252.03125 224.292969 C 251.949219 224.296875 251.871094 224.308594 251.789062 224.3125 C 251.230469 224.34375 250.664062 224.355469 250.09375 224.355469 C 249.523438 224.355469 248.964844 224.34375 248.398438 224.3125 C 248.316406 224.308594 248.238281 224.296875 248.15625 224.292969 C 247.671875 224.261719 247.1875 224.230469 246.703125 224.179688 C 246.6875 224.179688 246.667969 224.175781 246.652344 224.175781 C 239.070312 223.398438 232.042969 220.066406 226.578125 214.585938 L 203.0625 191.007812 L 194.667969 182.589844 L 187.386719 175.289062 L 163.871094 151.710938 C 150.910156 138.714844 150.90625 117.566406 163.859375 104.566406 C 163.867188 104.5625 163.867188 104.5625 163.871094 104.558594 C 163.960938 104.464844 164.050781 104.386719 164.140625 104.300781 C 164.457031 103.996094 164.773438 103.683594 165.097656 103.394531 C 165.1875 103.308594 165.28125 103.230469 165.378906 103.152344 C 165.710938 102.855469 166.042969 102.566406 166.386719 102.285156 C 166.421875 102.257812 166.453125 102.234375 166.488281 102.203125 C 172.386719 97.40625 179.683594 94.792969 187.386719 94.792969 C 190 94.792969 192.558594 95.097656 195.039062 95.679688 C 199.816406 96.804688 204.28125 98.976562 208.148438 102.09375 C 208.199219 102.132812 208.25 102.167969 208.292969 102.207031 C 208.324219 102.234375 208.355469 102.253906 208.382812 102.277344 C 208.734375 102.566406 209.074219 102.859375 209.410156 103.160156 C 209.496094 103.238281 209.585938 103.3125 209.671875 103.386719 C 210.011719 103.699219 210.34375 104.019531 210.675781 104.347656 C 210.746094 104.417969 210.820312 104.480469 210.890625 104.550781 L 216.824219 110.503906 L 242.246094 135.992188 L 273.59375 167.425781 C 279.875 173.722656 283.332031 182.097656 283.332031 191.003906 C 283.347656 191.582031 283.332031 192.148438 283.308594 192.710938 Z M 283.308594 192.710938 " fill-opacity="1" fill-rule="nonzero"/></g><g fill="#126abf" fill-opacity="1"><g transform="translate(77.851257, 297.456987)"><g><path d="M 24.402344 0 L 31.804688 0 L 19.109375 -31.402344 L 12.695312 -31.402344 L 0.359375 0 L 7.582031 0 L 9.734375 -5.921875 L 22.207031 -5.921875 Z M 15.96875 -23.101562 L 20.097656 -11.84375 L 11.84375 -11.84375 Z M 15.96875 -23.101562 "/></g></g></g><g fill="#126abf" fill-opacity="1"><g transform="translate(109.160475, 297.456987)"><g><path d="M 42.035156 0 L 37.1875 -31.402344 L 30.371094 -31.402344 L 21.847656 -12.113281 L 13.324219 -31.402344 L 6.550781 -31.402344 L 1.613281 0 L 8.523438 0 L 11.617188 -20.457031 L 20.996094 -0.0429688 L 22.652344 -0.0429688 L 32.03125 -20.457031 L 35.125 0 Z M 42.035156 0 "/></g></g></g><g fill="#126abf" fill-opacity="1"><g transform="translate(151.997673, 297.456987)"><g><path d="M 13.996094 0.628906 C 20.5 0.628906 25.882812 -2.648438 25.882812 -9.421875 C 25.882812 -16.464844 19.871094 -17.945312 15.117188 -19.15625 C 11.753906 -19.960938 9.0625 -20.636719 9.0625 -22.832031 C 9.0625 -24.898438 11.261719 -25.839844 13.457031 -25.839844 C 16.015625 -25.839844 18.257812 -24.582031 18.257812 -21.847656 L 24.941406 -21.847656 C 24.941406 -28.128906 20.859375 -31.984375 13.636719 -31.984375 C 6.683594 -31.984375 2.242188 -28.574219 2.242188 -22.566406 C 2.242188 -15.789062 7.984375 -14.398438 12.738281 -13.234375 C 16.148438 -12.472656 19.019531 -11.796875 19.019531 -9.332031 C 19.019531 -7 16.507812 -5.652344 13.953125 -5.652344 C 11.171875 -5.652344 8.65625 -7.132812 8.65625 -10.136719 L 1.792969 -10.136719 C 1.792969 -3.410156 6.773438 0.628906 13.996094 0.628906 Z M 13.996094 0.628906 "/></g></g></g><g fill="#126abf" fill-opacity="1"><g transform="translate(178.866154, 297.456987)"><g/></g></g><g fill="#126abf" fill-opacity="1"><g transform="translate(188.689379, 297.456987)"><g><path d="M 25.210938 -31.402344 L 0.941406 -31.402344 L 0.941406 -25.078125 L 9.691406 -25.078125 L 9.691406 0 L 16.464844 0 L 16.464844 -25.078125 L 25.210938 -25.078125 Z M 25.210938 -31.402344 "/></g></g></g><g fill="#126abf" fill-opacity="1"><g transform="translate(213.987903, 297.456987)"><g><path d="M 26.648438 -12.15625 C 26.648438 -19.15625 21.53125 -24.898438 14.085938 -24.898438 C 6.910156 -24.898438 1.523438 -19.378906 1.523438 -12.113281 C 1.523438 -4.84375 6.953125 0.71875 14.085938 0.71875 C 19.738281 0.71875 24.359375 -2.648438 26.109375 -7.941406 L 19.246094 -7.941406 C 18.257812 -6.191406 16.375 -5.113281 14.085938 -5.113281 C 10.902344 -5.113281 8.746094 -6.953125 8.164062 -10.273438 L 26.511719 -10.273438 C 26.601562 -10.902344 26.648438 -11.527344 26.648438 -12.15625 Z M 14.085938 -19.289062 C 17.046875 -19.289062 19.15625 -17.675781 20.097656 -14.714844 L 8.34375 -14.714844 C 9.105469 -17.585938 11.171875 -19.289062 14.085938 -19.289062 Z M 14.085938 -19.289062 "/></g></g></g><g fill="#126abf" fill-opacity="1"><g transform="translate(241.260092, 297.456987)"><g><path d="M 14.398438 0.71875 C 20.726562 0.71875 25.703125 -3.410156 26.828125 -9.511719 L 20.230469 -9.511719 C 19.109375 -6.910156 17.046875 -5.472656 14.398438 -5.472656 C 10.902344 -5.472656 8.164062 -8.390625 8.164062 -12.113281 C 8.164062 -15.878906 10.855469 -18.75 14.398438 -18.75 C 17 -18.75 19.199219 -17.316406 20.230469 -14.9375 L 26.738281 -14.9375 C 25.570312 -20.90625 20.726562 -24.898438 14.445312 -24.898438 C 7.085938 -24.898438 1.523438 -19.425781 1.523438 -12.15625 C 1.523438 -4.890625 7.085938 0.71875 14.398438 0.71875 Z M 14.398438 0.71875 "/></g></g></g><g fill="#126abf" fill-opacity="1"><g transform="translate(268.397707, 297.456987)"><g><path d="M 17 -24.761719 C 14.085938 -24.761719 11.527344 -23.6875 9.691406 -21.9375 L 9.691406 -32.925781 L 3.140625 -32.925781 L 3.140625 0 L 9.691406 0 L 9.691406 -12.695312 C 9.691406 -16.644531 11.84375 -19.019531 15.117188 -19.019531 C 18.035156 -19.019531 19.335938 -17.226562 19.335938 -13.59375 L 19.335938 0 L 25.882812 0 L 25.882812 -14.714844 C 25.882812 -20.859375 22.476562 -24.761719 17 -24.761719 Z M 17 -24.761719 "/></g></g></g><g fill="#126abf" fill-opacity="1"><g transform="translate(144.99192, 322.834619)"><g><path d="M 8.386719 0 L 10.929688 0 L 6.566406 -10.792969 L 4.363281 -10.792969 L 0.125 0 L 2.605469 0 L 3.34375 -2.035156 L 7.632812 -2.035156 Z M 5.488281 -7.9375 L 6.90625 -4.070312 L 4.070312 -4.070312 Z M 5.488281 -7.9375 "/></g></g></g><g fill="#126abf" fill-opacity="1"><g transform="translate(157.908581, 322.834619)"><g><path d="M 5.964844 -5.625 L 5.964844 -3.839844 L 9.203125 -3.839844 C 8.800781 -2.730469 7.585938 -1.988281 6.195312 -1.988281 C 4.253906 -1.988281 2.976562 -3.375 2.976562 -5.378906 C 2.976562 -7.398438 4.285156 -8.789062 6.195312 -8.789062 C 7.554688 -8.789062 8.695312 -8.0625 9.15625 -6.90625 L 11.5625 -6.90625 C 11.054688 -9.328125 8.832031 -11.023438 6.152344 -11.023438 C 2.960938 -11.023438 0.601562 -8.601562 0.601562 -5.378906 C 0.601562 -2.144531 3.023438 0.246094 6.195312 0.246094 C 9.433594 0.246094 11.699219 -2.25 11.699219 -5.625 Z M 5.964844 -5.625 "/></g></g></g><g fill="#126abf" fill-opacity="1"><g transform="translate(172.042804, 322.834619)"><g><path d="M 3.5625 -2.160156 L 3.5625 -4.378906 L 7.308594 -4.378906 L 7.308594 -6.488281 L 3.5625 -6.488281 L 3.5625 -8.632812 L 7.707031 -8.632812 L 7.707031 -10.792969 L 1.234375 -10.792969 L 1.234375 0 L 7.878906 0 L 7.878906 -2.160156 Z M 3.5625 -2.160156 "/></g></g></g><g fill="#126abf" fill-opacity="1"><g transform="translate(182.508936, 322.834619)"><g><path d="M 8.0625 -10.792969 L 8.0625 -4.207031 L 3.328125 -10.792969 L 1.234375 -10.792969 L 1.234375 0 L 3.515625 0 L 3.515625 -6.738281 L 8.402344 0 L 10.359375 0 L 10.359375 -10.792969 Z M 8.0625 -10.792969 "/></g></g></g><g fill="#126abf" fill-opacity="1"><g transform="translate(195.949618, 322.834619)"><g><path d="M 8.664062 -10.792969 L 0.324219 -10.792969 L 0.324219 -8.617188 L 3.328125 -8.617188 L 3.328125 0 L 5.65625 0 L 5.65625 -8.617188 L 8.664062 -8.617188 Z M 8.664062 -10.792969 "/></g></g></g><g fill="#126abf" fill-opacity="1"><g transform="translate(206.801058, 322.834619)"><g><path d="M 5.582031 0.246094 C 8.125 0.246094 10.035156 -1.527344 10.035156 -4.054688 L 10.035156 -10.792969 L 7.691406 -10.792969 L 7.691406 -4.164062 C 7.691406 -2.820312 6.8125 -1.957031 5.582031 -1.957031 C 4.332031 -1.957031 3.453125 -2.820312 3.453125 -4.164062 L 3.453125 -10.792969 L 1.109375 -10.792969 L 1.109375 -4.054688 C 1.109375 -1.527344 3.023438 0.246094 5.582031 0.246094 Z M 5.582031 0.246094 "/></g></g></g><g fill="#126abf" fill-opacity="1"><g transform="translate(219.810193, 322.834619)"><g><path d="M 7.167969 0 L 9.773438 0 L 7.382812 -4.070312 C 8.585938 -4.65625 9.359375 -5.796875 9.359375 -7.214844 C 9.359375 -9.296875 7.738281 -10.792969 5.582031 -10.792969 L 1.234375 -10.792969 L 1.234375 0 L 3.5625 0 L 3.5625 -3.667969 L 5.054688 -3.667969 Z M 3.5625 -8.632812 L 5.425781 -8.632812 C 6.414062 -8.632812 6.984375 -8.03125 6.984375 -7.230469 C 6.984375 -6.414062 6.414062 -5.828125 5.425781 -5.828125 L 3.5625 -5.828125 Z M 3.5625 -8.632812 "/></g></g></g></svg>