<svg xmlns="http://www.w3.org/2000/svg" xmlns:xlink="http://www.w3.org/1999/xlink" width="500" zoomAndPan="magnify" viewBox="0 0 375 374.999991" height="500" preserveAspectRatio="xMidYMid meet" version="1.0"><defs><g/><clipPath id="id1"><path d="M 114 51 L 235 51 L 235 214.363281 L 114 214.363281 Z M 114 51 " clip-rule="nonzero"/></clipPath><clipPath id="id2"><path d="M 161 119 L 295.066406 119 L 295.066406 210 L 161 210 Z M 161 119 " clip-rule="nonzero"/></clipPath><clipPath id="id3"><path d="M 79.816406 50.863281 L 182 50.863281 L 182 210 L 79.816406 210 Z M 79.816406 50.863281 " clip-rule="nonzero"/></clipPath></defs><g clip-path="url(#id1)"><path fill="#126abf" d="M 205.945312 207.808594 C 203.726562 207.808594 201.925781 206.011719 201.925781 203.792969 C 201.925781 201.574219 203.726562 199.777344 205.945312 199.777344 C 208.164062 199.777344 209.964844 201.574219 209.964844 203.792969 C 209.964844 206.011719 208.164062 207.808594 205.945312 207.808594 Z M 224.246094 95.023438 C 222.023438 95.023438 220.226562 93.226562 220.226562 91.007812 C 220.226562 88.792969 222.023438 86.996094 224.246094 86.996094 C 226.464844 86.996094 228.261719 88.792969 228.261719 91.007812 C 228.261719 93.226562 226.464844 95.023438 224.246094 95.023438 Z M 205.945312 193.246094 C 202.347656 193.246094 199.175781 195.039062 197.269531 197.78125 L 130.589844 197.703125 L 204.546875 68.527344 L 214.851562 86.191406 C 214.109375 87.636719 213.683594 89.273438 213.683594 91.007812 C 213.683594 96.832031 218.414062 101.554688 224.246094 101.554688 C 230.078125 101.554688 234.804688 96.832031 234.804688 91.007812 C 234.804688 85.46875 230.53125 80.933594 225.097656 80.5 L 208.324219 52.730469 C 208.324219 52.730469 203.367188 47.847656 197.746094 57.585938 L 116.554688 198.328125 C 116.554688 198.328125 109.535156 208.574219 120.871094 209.113281 L 196.828125 209.113281 C 198.660156 212.238281 202.054688 214.339844 205.945312 214.339844 C 211.777344 214.339844 216.503906 209.617188 216.503906 203.792969 C 216.503906 197.96875 211.773438 193.246094 205.945312 193.246094 Z M 205.945312 193.246094 " fill-opacity="1" fill-rule="nonzero"/></g><g clip-path="url(#id2)"><path fill="#f7b35a" d="M 200.042969 119.628906 C 209.289062 119.40625 240.070312 118.421875 245.101562 120.949219 C 247.933594 122.375 251.386719 129.699219 253.128906 132.34375 C 264.054688 148.902344 293.078125 198.867188 293.078125 198.867188 C 293.078125 198.867188 299.011719 206.953125 290.375 209.113281 L 243.953125 209.113281 C 243.953125 209.113281 241.253906 209.796875 238.015625 203.792969 L 219.121094 170.828125 L 174.625 170.828125 L 174.613281 170.847656 L 161.757812 170.847656 C 168.6875 158.992188 182.761719 135.046875 192.328125 119.628906 Z M 200.042969 119.628906 " fill-opacity="1" fill-rule="nonzero"/></g><g clip-path="url(#id3)"><path fill="#126abf" d="M 90.457031 202.789062 C 92.675781 202.789062 94.476562 200.992188 94.476562 198.773438 C 94.476562 196.554688 92.675781 194.757812 90.457031 194.757812 C 88.238281 194.757812 86.4375 196.554688 86.4375 198.773438 C 86.4375 200.992188 88.238281 202.789062 90.457031 202.789062 Z M 165.328125 70.207031 C 165.363281 70.226562 165.394531 70.25 165.429688 70.273438 Z M 168.308594 71.546875 C 168.355469 71.558594 168.40625 71.570312 168.453125 71.582031 Z M 168.726562 71.644531 C 168.757812 71.648438 168.789062 71.65625 168.820312 71.664062 C 168.789062 71.65625 168.757812 71.648438 168.726562 71.644531 Z M 170.945312 71.878906 L 153.757812 101.902344 L 100.046875 194.824219 L 100.042969 194.8125 C 100.515625 196.007812 100.773438 197.308594 100.773438 198.671875 C 100.773438 204.496094 96.042969 209.21875 90.214844 209.21875 C 86.324219 209.21875 82.929688 207.117188 81.097656 203.988281 L 81 203.988281 C 80.09375 202.425781 79.574219 200.609375 79.574219 198.667969 C 79.574219 196.4375 80.261719 194.367188 81.441406 192.660156 L 81.539062 192.660156 C 83.445312 189.917969 86.617188 188.121094 90.214844 188.121094 C 90.394531 188.121094 90.574219 188.125 90.753906 188.136719 L 90.75 188.136719 L 161.308594 65.832031 L 161.339844 65.894531 C 160.679688 64.511719 160.308594 62.964844 160.308594 61.332031 C 160.308594 59.097656 161 57.027344 162.175781 55.320312 L 162.273438 55.320312 C 164.179688 52.578125 167.355469 50.78125 170.949219 50.78125 C 176.78125 50.78125 181.507812 55.503906 181.507812 61.332031 C 181.507812 67.15625 176.78125 71.878906 170.949219 71.878906 Z M 100.027344 194.769531 C 100.003906 194.710938 99.980469 194.652344 99.953125 194.59375 C 99.980469 194.652344 100.003906 194.710938 100.027344 194.769531 Z M 99.929688 194.535156 C 99.902344 194.476562 99.878906 194.417969 99.851562 194.363281 C 99.878906 194.417969 99.902344 194.476562 99.929688 194.535156 Z M 99.835938 194.320312 C 99.804688 194.25 99.769531 194.179688 99.738281 194.113281 C 99.769531 194.179688 99.804688 194.25 99.835938 194.320312 Z M 99.714844 194.0625 C 99.6875 194.007812 99.660156 193.953125 99.632812 193.902344 C 99.660156 193.953125 99.6875 194.007812 99.714844 194.0625 Z M 99.601562 193.839844 C 99.570312 193.78125 99.539062 193.722656 99.507812 193.664062 C 99.539062 193.722656 99.570312 193.78125 99.601562 193.839844 Z M 99.496094 193.636719 C 99.457031 193.570312 99.421875 193.503906 99.382812 193.4375 C 99.421875 193.503906 99.457031 193.570312 99.496094 193.636719 Z M 99.351562 193.386719 C 99.324219 193.335938 99.292969 193.285156 99.261719 193.234375 C 99.292969 193.285156 99.324219 193.335938 99.351562 193.386719 Z M 99.230469 193.179688 C 99.191406 193.117188 99.152344 193.054688 99.113281 192.992188 C 99.152344 193.054688 99.191406 193.117188 99.230469 193.179688 Z M 99.109375 192.984375 C 99.066406 192.921875 99.027344 192.859375 98.984375 192.796875 C 99.027344 192.859375 99.066406 192.921875 99.109375 192.984375 Z M 98.945312 192.738281 C 98.914062 192.691406 98.878906 192.644531 98.847656 192.597656 C 98.878906 192.644531 98.914062 192.691406 98.945312 192.738281 Z M 98.8125 192.546875 C 98.765625 192.484375 98.722656 192.425781 98.675781 192.363281 C 98.722656 192.425781 98.765625 192.484375 98.8125 192.546875 Z M 98.660156 192.339844 C 98.621094 192.289062 98.578125 192.234375 98.539062 192.179688 C 98.578125 192.234375 98.621094 192.289062 98.660156 192.339844 Z M 98.496094 192.128906 C 98.460938 192.082031 98.421875 192.035156 98.386719 191.992188 C 98.421875 192.035156 98.460938 192.082031 98.496094 192.128906 Z M 98.351562 191.949219 C 98.300781 191.890625 98.253906 191.832031 98.203125 191.773438 C 98.253906 191.832031 98.300781 191.890625 98.351562 191.949219 Z M 98.175781 191.742188 C 98.136719 191.695312 98.09375 191.652344 98.050781 191.605469 C 98.09375 191.652344 98.136719 191.695312 98.175781 191.742188 Z M 98.003906 191.554688 C 97.964844 191.507812 97.921875 191.460938 97.878906 191.417969 C 97.921875 191.460938 97.964844 191.507812 98.003906 191.554688 Z M 97.847656 191.386719 C 97.796875 191.332031 97.746094 191.277344 97.691406 191.222656 C 97.746094 191.277344 97.796875 191.332031 97.847656 191.386719 Z M 97.648438 191.183594 C 97.609375 191.140625 97.566406 191.101562 97.523438 191.0625 C 97.566406 191.101562 97.609375 191.140625 97.648438 191.183594 Z M 97.476562 191.015625 C 97.425781 190.96875 97.375 190.921875 97.328125 190.875 C 97.375 190.921875 97.425781 190.96875 97.476562 191.015625 Z M 97.308594 190.859375 C 97.253906 190.808594 97.195312 190.757812 97.140625 190.710938 C 97.195312 190.757812 97.253906 190.808594 97.308594 190.859375 Z M 97.089844 190.667969 C 97.046875 190.628906 97.003906 190.59375 96.957031 190.554688 C 97.003906 190.59375 97.046875 190.628906 97.089844 190.667969 Z M 96.730469 190.371094 C 96.671875 190.324219 96.613281 190.28125 96.550781 190.234375 C 96.613281 190.28125 96.671875 190.324219 96.730469 190.371094 Z M 96.496094 190.195312 C 96.453125 190.160156 96.40625 190.125 96.355469 190.09375 C 96.40625 190.125 96.453125 190.160156 96.496094 190.195312 Z M 96.308594 190.058594 C 96.246094 190.015625 96.183594 189.972656 96.121094 189.929688 C 96.183594 189.972656 96.246094 190.015625 96.308594 190.058594 Z M 96.089844 189.90625 C 96.039062 189.871094 95.984375 189.835938 95.929688 189.800781 C 95.984375 189.835938 96.039062 189.871094 96.089844 189.90625 Z M 95.871094 189.765625 C 95.820312 189.730469 95.769531 189.699219 95.71875 189.667969 C 95.769531 189.699219 95.820312 189.730469 95.871094 189.765625 Z M 95.675781 189.644531 C 95.613281 189.605469 95.546875 189.566406 95.480469 189.527344 C 95.546875 189.566406 95.613281 189.605469 95.675781 189.644531 Z M 95.429688 189.5 C 95.378906 189.46875 95.328125 189.441406 95.277344 189.414062 C 95.328125 189.441406 95.378906 189.46875 95.429688 189.5 Z M 95.214844 189.378906 C 95.160156 189.351562 95.105469 189.320312 95.050781 189.292969 C 95.105469 189.320312 95.160156 189.351562 95.214844 189.378906 Z M 95.011719 189.273438 C 94.941406 189.238281 94.875 189.203125 94.804688 189.171875 C 94.875 189.203125 94.941406 189.238281 95.011719 189.273438 Z M 94.753906 189.144531 C 94.699219 189.121094 94.648438 189.09375 94.59375 189.070312 C 94.648438 189.09375 94.699219 189.121094 94.753906 189.144531 Z M 94.53125 189.042969 C 94.46875 189.015625 94.40625 188.988281 94.34375 188.960938 C 94.40625 188.988281 94.46875 189.015625 94.53125 189.042969 Z M 94.320312 188.949219 C 94.246094 188.921875 94.175781 188.890625 94.105469 188.863281 C 94.175781 188.890625 94.25 188.921875 94.320312 188.949219 Z M 94.046875 188.839844 C 93.992188 188.820312 93.933594 188.796875 93.878906 188.777344 C 93.933594 188.796875 93.992188 188.820312 94.046875 188.839844 Z M 93.820312 188.753906 C 93.75 188.726562 93.675781 188.703125 93.601562 188.675781 C 93.675781 188.703125 93.75 188.726562 93.820312 188.753906 Z M 93.585938 188.671875 C 93.519531 188.648438 93.449219 188.628906 93.382812 188.605469 C 93.449219 188.628906 93.519531 188.648438 93.585938 188.671875 Z M 93.3125 188.585938 C 93.257812 188.566406 93.199219 188.550781 93.144531 188.535156 C 93.203125 188.550781 93.257812 188.566406 93.3125 188.585938 Z M 93.082031 188.515625 C 93.007812 188.496094 92.933594 188.476562 92.859375 188.457031 C 92.933594 188.476562 93.007812 188.496094 93.082031 188.515625 Z M 92.824219 188.449219 C 92.757812 188.429688 92.691406 188.414062 92.628906 188.398438 C 92.691406 188.414062 92.757812 188.429688 92.824219 188.449219 Z M 92.5625 188.386719 C 92.5 188.371094 92.4375 188.359375 92.375 188.34375 C 92.4375 188.359375 92.5 188.371094 92.5625 188.386719 Z M 92.328125 188.335938 C 92.25 188.320312 92.171875 188.304688 92.09375 188.289062 C 92.171875 188.304688 92.25 188.320312 92.328125 188.335938 Z M 92.046875 188.28125 C 91.984375 188.269531 91.921875 188.261719 91.859375 188.25 C 91.921875 188.261719 91.984375 188.269531 92.046875 188.28125 Z M 91.789062 188.238281 C 91.71875 188.230469 91.652344 188.21875 91.582031 188.210938 C 91.652344 188.21875 91.71875 188.230469 91.789062 188.238281 Z M 91.550781 188.207031 C 91.46875 188.195312 91.390625 188.1875 91.308594 188.179688 C 91.390625 188.1875 91.46875 188.195312 91.550781 188.207031 Z M 91.253906 188.171875 C 91.191406 188.167969 91.128906 188.160156 91.066406 188.15625 C 91.128906 188.164062 91.191406 188.167969 91.253906 188.171875 Z M 90.996094 188.152344 C 90.917969 188.144531 90.839844 188.140625 90.761719 188.136719 C 90.839844 188.140625 90.917969 188.144531 90.996094 188.152344 Z M 161.421875 66.066406 C 161.441406 66.109375 161.464844 66.152344 161.488281 66.195312 C 161.464844 66.152344 161.441406 66.109375 161.421875 66.066406 Z M 161.699219 66.585938 C 161.710938 66.609375 161.722656 66.628906 161.734375 66.648438 Z M 170.949219 65.34375 C 173.167969 65.34375 174.96875 63.546875 174.96875 61.332031 C 174.96875 59.113281 173.167969 57.316406 170.949219 57.316406 C 168.730469 57.316406 166.929688 59.113281 166.929688 61.332031 C 166.929688 63.546875 168.730469 65.34375 170.949219 65.34375 Z M 170.945312 71.878906 C 170.886719 71.878906 170.824219 71.878906 170.765625 71.878906 L 170.761719 71.878906 C 170.703125 71.875 170.644531 71.875 170.585938 71.871094 L 170.582031 71.871094 C 170.523438 71.871094 170.464844 71.867188 170.402344 71.863281 C 170.34375 71.863281 170.285156 71.859375 170.222656 71.855469 C 170.164062 71.851562 170.105469 71.84375 170.046875 71.839844 L 170.042969 71.839844 C 169.984375 71.835938 169.925781 71.832031 169.867188 71.824219 L 169.863281 71.824219 C 169.808594 71.816406 169.75 71.8125 169.691406 71.804688 L 169.6875 71.804688 C 169.628906 71.796875 169.570312 71.789062 169.515625 71.78125 L 169.511719 71.78125 C 169.453125 71.773438 169.394531 71.765625 169.339844 71.757812 L 169.335938 71.757812 C 169.28125 71.746094 169.222656 71.738281 169.164062 71.730469 C 169.105469 71.71875 169.046875 71.707031 168.992188 71.699219 L 168.988281 71.699219 C 168.933594 71.6875 168.875 71.675781 168.820312 71.664062 Z M 98.855469 190.585938 L 98.859375 190.589844 C 98.917969 190.636719 98.976562 190.683594 99.035156 190.730469 L 99.082031 190.769531 Z M 98.855469 190.585938 " fill-opacity="1" fill-rule="nonzero"/></g><g fill="#126abf" fill-opacity="1"><g transform="translate(51.011697, 284.568145)"><g><path d="M 27.234375 -6.765625 L 12.9375 -6.765625 L 10.640625 0 L 0.875 0 L 14.734375 -38.3125 L 25.546875 -38.3125 L 39.40625 0 L 29.53125 0 Z M 24.828125 -13.96875 L 20.078125 -28 L 15.390625 -13.96875 Z M 24.828125 -13.96875 "/></g></g></g><g fill="#126abf" fill-opacity="1"><g transform="translate(90.414094, 284.568145)"><g><path d="M 46.765625 -38.3125 L 46.765625 0 L 37.4375 0 L 37.4375 -22.984375 L 28.875 0 L 21.34375 0 L 12.71875 -23.03125 L 12.71875 0 L 3.390625 0 L 3.390625 -38.3125 L 14.40625 -38.3125 L 25.15625 -11.78125 L 35.796875 -38.3125 Z M 46.765625 -38.3125 "/></g></g></g><g fill="#126abf" fill-opacity="1"><g transform="translate(139.694422, 284.568145)"><g><path d="M 17.25 0.375 C 14.445312 0.375 11.9375 -0.078125 9.71875 -0.984375 C 7.5 -1.890625 5.722656 -3.234375 4.390625 -5.015625 C 3.066406 -6.804688 2.367188 -8.957031 2.296875 -11.46875 L 12.21875 -11.46875 C 12.363281 -10.039062 12.851562 -8.953125 13.6875 -8.203125 C 14.53125 -7.460938 15.625 -7.09375 16.96875 -7.09375 C 18.351562 -7.09375 19.445312 -7.410156 20.25 -8.046875 C 21.050781 -8.679688 21.453125 -9.566406 21.453125 -10.703125 C 21.453125 -11.640625 21.128906 -12.414062 20.484375 -13.03125 C 19.847656 -13.65625 19.066406 -14.164062 18.140625 -14.5625 C 17.210938 -14.96875 15.894531 -15.425781 14.1875 -15.9375 C 11.71875 -16.695312 9.695312 -17.457031 8.125 -18.21875 C 6.5625 -18.988281 5.21875 -20.117188 4.09375 -21.609375 C 2.96875 -23.097656 2.40625 -25.046875 2.40625 -27.453125 C 2.40625 -31.015625 3.695312 -33.804688 6.28125 -35.828125 C 8.863281 -37.847656 12.226562 -38.859375 16.375 -38.859375 C 20.59375 -38.859375 23.992188 -37.847656 26.578125 -35.828125 C 29.160156 -33.804688 30.546875 -30.992188 30.734375 -27.390625 L 20.625 -27.390625 C 20.550781 -28.628906 20.097656 -29.601562 19.265625 -30.3125 C 18.429688 -31.019531 17.359375 -31.375 16.046875 -31.375 C 14.921875 -31.375 14.007812 -31.070312 13.3125 -30.46875 C 12.625 -29.875 12.28125 -29.015625 12.28125 -27.890625 C 12.28125 -26.648438 12.859375 -25.679688 14.015625 -24.984375 C 15.179688 -24.296875 17.003906 -23.554688 19.484375 -22.765625 C 21.960938 -21.921875 23.972656 -21.117188 25.515625 -20.359375 C 27.054688 -19.597656 28.390625 -18.488281 29.515625 -17.03125 C 30.648438 -15.570312 31.21875 -13.695312 31.21875 -11.40625 C 31.21875 -9.21875 30.660156 -7.234375 29.546875 -5.453125 C 28.441406 -3.671875 26.832031 -2.253906 24.71875 -1.203125 C 22.613281 -0.148438 20.125 0.375 17.25 0.375 Z M 17.25 0.375 "/></g></g></g><g fill="#126abf" fill-opacity="1"><g transform="translate(172.438771, 284.568145)"><g/></g></g><g fill="#126abf" fill-opacity="1"><g transform="translate(183.189716, 284.568145)"><g><path d="M 30.953125 -38.3125 L 30.953125 -30.84375 L 20.796875 -30.84375 L 20.796875 0 L 11.46875 0 L 11.46875 -30.84375 L 1.3125 -30.84375 L 1.3125 -38.3125 Z M 30.953125 -38.3125 "/></g></g></g><g fill="#126abf" fill-opacity="1"><g transform="translate(214.624276, 284.568145)"><g><path d="M 12.71875 -30.84375 L 12.71875 -23.09375 L 25.21875 -23.09375 L 25.21875 -15.875 L 12.71875 -15.875 L 12.71875 -7.484375 L 26.859375 -7.484375 L 26.859375 0 L 3.390625 0 L 3.390625 -38.3125 L 26.859375 -38.3125 L 26.859375 -30.84375 Z M 12.71875 -30.84375 "/></g></g></g><g fill="#126abf" fill-opacity="1"><g transform="translate(243.330131, 284.568145)"><g><path d="M 1.796875 -19.21875 C 1.796875 -23 2.613281 -26.367188 4.25 -29.328125 C 5.894531 -32.296875 8.179688 -34.609375 11.109375 -36.265625 C 14.035156 -37.921875 17.351562 -38.75 21.0625 -38.75 C 25.613281 -38.75 29.507812 -37.546875 32.75 -35.140625 C 35.988281 -32.742188 38.148438 -29.472656 39.234375 -25.328125 L 28.984375 -25.328125 C 28.210938 -26.921875 27.125 -28.132812 25.71875 -28.96875 C 24.320312 -29.8125 22.734375 -30.234375 20.953125 -30.234375 C 18.078125 -30.234375 15.75 -29.234375 13.96875 -27.234375 C 12.1875 -25.234375 11.296875 -22.5625 11.296875 -19.21875 C 11.296875 -15.863281 12.1875 -13.1875 13.96875 -11.1875 C 15.75 -9.1875 18.078125 -8.1875 20.953125 -8.1875 C 22.734375 -8.1875 24.320312 -8.601562 25.71875 -9.4375 C 27.125 -10.28125 28.210938 -11.5 28.984375 -13.09375 L 39.234375 -13.09375 C 38.148438 -8.945312 35.988281 -5.679688 32.75 -3.296875 C 29.507812 -0.921875 25.613281 0.265625 21.0625 0.265625 C 17.351562 0.265625 14.035156 -0.554688 11.109375 -2.203125 C 8.179688 -3.859375 5.894531 -6.160156 4.25 -9.109375 C 2.613281 -12.054688 1.796875 -15.425781 1.796875 -19.21875 Z M 1.796875 -19.21875 "/></g></g></g><g fill="#126abf" fill-opacity="1"><g transform="translate(284.096889, 284.568145)"><g><path d="M 36.5625 -38.3125 L 36.5625 0 L 27.234375 0 L 27.234375 -15.765625 L 12.71875 -15.765625 L 12.71875 0 L 3.390625 0 L 3.390625 -38.3125 L 12.71875 -38.3125 L 12.71875 -23.3125 L 27.234375 -23.3125 L 27.234375 -38.3125 Z M 36.5625 -38.3125 "/></g></g></g><g fill="#126abf" fill-opacity="1"><g transform="translate(117.416941, 318.873085)"><g><path d="M 10.9375 -3.46875 L 4.140625 -3.46875 L 2.890625 0 L 0.734375 0 L 6.375 -15.5 L 8.71875 -15.5 L 14.328125 0 L 12.1875 0 Z M 10.359375 -5.125 L 7.53125 -12.984375 L 4.71875 -5.125 Z M 10.359375 -5.125 "/></g></g></g><g fill="#126abf" fill-opacity="1"><g transform="translate(139.107479, 318.873085)"><g><path d="M 13.53125 -11.0625 C 13.09375 -11.976562 12.460938 -12.6875 11.640625 -13.1875 C 10.828125 -13.6875 9.875 -13.9375 8.78125 -13.9375 C 7.695312 -13.9375 6.71875 -13.6875 5.84375 -13.1875 C 4.96875 -12.6875 4.28125 -11.96875 3.78125 -11.03125 C 3.289062 -10.101562 3.046875 -9.023438 3.046875 -7.796875 C 3.046875 -6.578125 3.289062 -5.503906 3.78125 -4.578125 C 4.28125 -3.660156 4.96875 -2.953125 5.84375 -2.453125 C 6.71875 -1.953125 7.695312 -1.703125 8.78125 -1.703125 C 10.300781 -1.703125 11.550781 -2.15625 12.53125 -3.0625 C 13.519531 -3.96875 14.097656 -5.195312 14.265625 -6.75 L 8.046875 -6.75 L 8.046875 -8.40625 L 16.4375 -8.40625 L 16.4375 -6.84375 C 16.3125 -5.5625 15.90625 -4.382812 15.21875 -3.3125 C 14.539062 -2.25 13.640625 -1.40625 12.515625 -0.78125 C 11.398438 -0.164062 10.15625 0.140625 8.78125 0.140625 C 7.34375 0.140625 6.023438 -0.195312 4.828125 -0.875 C 3.640625 -1.5625 2.695312 -2.503906 2 -3.703125 C 1.3125 -4.910156 0.96875 -6.273438 0.96875 -7.796875 C 0.96875 -9.316406 1.3125 -10.6875 2 -11.90625 C 2.695312 -13.125 3.640625 -14.070312 4.828125 -14.75 C 6.023438 -15.425781 7.34375 -15.765625 8.78125 -15.765625 C 10.4375 -15.765625 11.898438 -15.351562 13.171875 -14.53125 C 14.453125 -13.707031 15.382812 -12.550781 15.96875 -11.0625 Z M 13.53125 -11.0625 "/></g></g></g><g fill="#126abf" fill-opacity="1"><g transform="translate(163.123399, 318.873085)"><g><path d="M 3.75 -13.9375 L 3.75 -8.71875 L 9.4375 -8.71875 L 9.4375 -7.046875 L 3.75 -7.046875 L 3.75 -1.671875 L 10.109375 -1.671875 L 10.109375 0 L 1.71875 0 L 1.71875 -15.609375 L 10.109375 -15.609375 L 10.109375 -13.9375 Z M 3.75 -13.9375 "/></g></g></g><g fill="#126abf" fill-opacity="1"><g transform="translate(181.214076, 318.873085)"><g><path d="M 13.96875 0 L 11.9375 0 L 3.75 -12.40625 L 3.75 0 L 1.71875 0 L 1.71875 -15.609375 L 3.75 -15.609375 L 11.9375 -3.21875 L 11.9375 -15.609375 L 13.96875 -15.609375 Z M 13.96875 0 "/></g></g></g><g fill="#126abf" fill-opacity="1"><g transform="translate(203.553033, 318.873085)"><g><path d="M 11.3125 -15.578125 L 11.3125 -13.9375 L 7.0625 -13.9375 L 7.0625 0 L 5.03125 0 L 5.03125 -13.9375 L 0.765625 -13.9375 L 0.765625 -15.578125 Z M 11.3125 -15.578125 "/></g></g></g><g fill="#126abf" fill-opacity="1"><g transform="translate(222.269764, 318.873085)"><g><path d="M 3.71875 -15.578125 L 3.71875 -5.71875 C 3.71875 -4.332031 4.054688 -3.300781 4.734375 -2.625 C 5.410156 -1.957031 6.351562 -1.625 7.5625 -1.625 C 8.75 -1.625 9.679688 -1.957031 10.359375 -2.625 C 11.035156 -3.300781 11.375 -4.332031 11.375 -5.71875 L 11.375 -15.578125 L 13.421875 -15.578125 L 13.421875 -5.75 C 13.421875 -4.445312 13.15625 -3.351562 12.625 -2.46875 C 12.101562 -1.582031 11.398438 -0.921875 10.515625 -0.484375 C 9.628906 -0.0546875 8.632812 0.15625 7.53125 0.15625 C 6.425781 0.15625 5.429688 -0.0546875 4.546875 -0.484375 C 3.660156 -0.921875 2.957031 -1.582031 2.4375 -2.46875 C 1.925781 -3.351562 1.671875 -4.445312 1.671875 -5.75 L 1.671875 -15.578125 Z M 3.71875 -15.578125 "/></g></g></g><g fill="#126abf" fill-opacity="1"><g transform="translate(243.98266, 318.873085)"><g><path d="M 9.921875 0 L 6.21875 -6.375 L 3.75 -6.375 L 3.75 0 L 1.71875 0 L 1.71875 -15.578125 L 6.75 -15.578125 C 7.925781 -15.578125 8.921875 -15.375 9.734375 -14.96875 C 10.546875 -14.570312 11.148438 -14.03125 11.546875 -13.34375 C 11.953125 -12.65625 12.15625 -11.875 12.15625 -11 C 12.15625 -9.925781 11.847656 -8.976562 11.234375 -8.15625 C 10.617188 -7.34375 9.691406 -6.800781 8.453125 -6.53125 L 12.359375 0 Z M 3.75 -8 L 6.75 -8 C 7.851562 -8 8.679688 -8.269531 9.234375 -8.8125 C 9.785156 -9.363281 10.0625 -10.09375 10.0625 -11 C 10.0625 -11.925781 9.785156 -12.640625 9.234375 -13.140625 C 8.691406 -13.648438 7.863281 -13.90625 6.75 -13.90625 L 3.75 -13.90625 Z M 3.75 -8 "/></g></g></g></svg>