<?xml version="1.0" encoding="utf-8"?>
<svg width="1000" zoomAndPan="magnify" viewBox="0 0 750 225" height="300" preserveAspectRatio="xMidYMid meet" version="1.0" xmlns="http://www.w3.org/2000/svg">
  <defs>
    <g/>
    <clipPath id="id1">
      <path d="M 152 43.867188 L 223.558594 43.867188 L 223.558594 143 L 152 143 Z M 152 43.867188 " clip-rule="nonzero"/>
    </clipPath>
    <clipPath id="id2">
      <path d="M 60.808594 72 L 143 72 L 143 180.976562 L 60.808594 180.976562 Z M 60.808594 72 " clip-rule="nonzero"/>
    </clipPath>
    <clipPath id="id3">
      <path d="M 104 61 L 223.558594 61 L 223.558594 180.976562 L 104 180.976562 Z M 104 61 " clip-rule="nonzero"/>
    </clipPath>
  </defs>
  <rect x="-75" width="900" y="-22.5" height="270" style="fill: none; fill-opacity: 0;"/>
  <rect x="-75" width="900" y="-22.5" height="270" style="fill: none; fill-opacity: 0;"/>
  <rect x="-75" width="900" y="-22.5" height="270" style="fill: none; fill-opacity: 0;"/>
  <g clip-path="url(#id1)">
    <path fill="#f7b35a" d="M 185.378906 43.796875 C 171.222656 43.796875 158.839844 51.523438 152.246094 62.976562 C 157.203125 64.316406 161.835938 66.652344 165.898438 69.878906 C 169.941406 63.375 177.160156 59.03125 185.378906 59.03125 C 198.011719 59.03125 208.289062 69.28125 208.289062 81.882812 L 208.289062 111.8125 L 212.375 115.890625 C 219.589844 123.085938 223.558594 132.652344 223.558594 142.824219 L 223.558594 81.882812 C 223.558594 60.882812 206.433594 43.796875 185.378906 43.796875 Z M 185.378906 43.796875 " fill-opacity="1" fill-rule="nonzero"/>
  </g>
  <path fill="#010101" d="M 116.601562 71.460938 C 116.628906 71.433594 116.660156 71.410156 116.691406 71.378906 C 116.660156 71.410156 116.628906 71.433594 116.601562 71.460938 Z M 116.601562 71.460938 " fill-opacity="1" fill-rule="nonzero"/>
  <path fill="#010101" d="M 115.882812 72.128906 C 115.945312 72.066406 116.015625 72.003906 116.085938 71.941406 C 116.015625 72.003906 115.945312 72.066406 115.882812 72.128906 Z M 115.882812 72.128906 " fill-opacity="1" fill-rule="nonzero"/>
  <path fill="#010101" d="M 115.1875 72.800781 C 115.28125 72.707031 115.375 72.617188 115.472656 72.527344 C 115.375 72.617188 115.28125 72.707031 115.1875 72.800781 C 115.183594 72.804688 115.179688 72.8125 115.175781 72.816406 Z M 115.1875 72.800781 " fill-opacity="1" fill-rule="nonzero"/>
  <g clip-path="url(#id2)">
    <path fill="#9d9df4" d="M 71.992188 169.753906 C 79.203125 176.949219 88.792969 180.910156 98.988281 180.910156 C 109.1875 180.910156 118.773438 176.949219 125.984375 169.753906 L 142.183594 153.59375 L 131.382812 142.824219 L 115.183594 158.984375 C 110.859375 163.300781 105.105469 165.675781 98.984375 165.675781 C 92.867188 165.675781 87.113281 163.300781 82.785156 158.984375 C 78.464844 154.667969 76.082031 148.925781 76.082031 142.824219 C 76.082031 136.71875 78.464844 130.980469 82.789062 126.664062 L 104.402344 105.105469 C 102.78125 93.65625 106.371094 81.605469 115.171875 72.816406 L 71.992188 115.890625 C 64.78125 123.085938 60.808594 132.652344 60.808594 142.824219 C 60.808594 152.996094 64.78125 162.5625 71.992188 169.753906 Z M 71.992188 169.753906 " fill-opacity="1" fill-rule="nonzero"/>
  </g>
  <path fill="#010101" d="M 115.46875 72.527344 C 115.605469 72.390625 115.738281 72.257812 115.878906 72.128906 C 115.742188 72.257812 115.605469 72.390625 115.46875 72.527344 Z M 115.46875 72.527344 " fill-opacity="1" fill-rule="nonzero"/>
  <path fill="#010101" d="M 116.082031 71.941406 C 116.253906 71.78125 116.425781 71.617188 116.601562 71.460938 C 116.425781 71.617188 116.253906 71.78125 116.082031 71.941406 Z M 116.082031 71.941406 " fill-opacity="1" fill-rule="nonzero"/>
  <g clip-path="url(#id3)">
    <path fill="#126abf" d="M 212.375 115.890625 L 208.289062 111.8125 L 169.179688 72.800781 C 169.109375 72.730469 169.035156 72.660156 168.964844 72.585938 C 168.804688 72.433594 168.648438 72.277344 168.488281 72.125 C 168.425781 72.066406 168.367188 72.011719 168.304688 71.957031 C 168.125 71.785156 167.945312 71.621094 167.765625 71.457031 C 167.742188 71.433594 167.714844 71.410156 167.691406 71.386719 C 167.105469 70.863281 166.503906 70.359375 165.898438 69.878906 C 165.898438 69.878906 165.898438 69.878906 165.898438 69.875 C 161.835938 66.648438 157.203125 64.3125 152.246094 62.972656 C 152.242188 62.980469 152.242188 62.984375 152.238281 62.992188 C 148.953125 62.105469 145.570312 61.660156 142.1875 61.660156 C 133.054688 61.660156 123.925781 64.898438 116.691406 71.378906 C 116.664062 71.40625 116.632812 71.429688 116.601562 71.457031 C 116.425781 71.613281 116.253906 71.777344 116.082031 71.9375 C 116.015625 72 115.945312 72.0625 115.878906 72.125 C 115.738281 72.253906 115.601562 72.386719 115.46875 72.523438 C 115.375 72.617188 115.277344 72.703125 115.183594 72.796875 L 115.171875 72.8125 C 106.371094 81.601562 102.777344 93.652344 104.402344 105.101562 C 105.519531 112.992188 109.113281 120.601562 115.1875 126.660156 L 131.386719 142.820312 L 142.1875 153.589844 L 158.386719 169.75 L 158.402344 169.738281 L 158.386719 169.75 C 165.125 176.472656 173.941406 180.375 183.390625 180.855469 C 183.402344 180.855469 183.414062 180.855469 183.425781 180.859375 C 183.703125 180.871094 183.984375 180.882812 184.265625 180.890625 C 184.316406 180.890625 184.363281 180.894531 184.40625 180.898438 C 184.730469 180.902344 185.054688 180.910156 185.382812 180.910156 C 185.710938 180.910156 186.035156 180.90625 186.359375 180.898438 C 186.40625 180.898438 186.457031 180.894531 186.5 180.890625 C 186.78125 180.882812 187.0625 180.871094 187.339844 180.859375 C 187.351562 180.859375 187.367188 180.859375 187.375 180.855469 C 196.824219 180.375 205.640625 176.472656 212.378906 169.75 C 219.121094 163.027344 223.027344 154.234375 223.511719 144.808594 C 223.511719 144.796875 223.511719 144.785156 223.515625 144.773438 C 223.527344 144.496094 223.539062 144.214844 223.546875 143.933594 C 223.546875 143.886719 223.550781 143.839844 223.554688 143.792969 C 223.558594 143.46875 223.566406 143.144531 223.566406 142.820312 C 223.558594 132.652344 219.589844 123.085938 212.375 115.890625 Z M 208.261719 143.988281 C 208.257812 144.042969 208.25 144.097656 208.246094 144.152344 C 208.226562 144.488281 208.207031 144.824219 208.171875 145.15625 C 208.171875 145.164062 208.167969 145.175781 208.167969 145.1875 C 207.0625 155.902344 198.496094 164.449219 187.75 165.554688 C 187.742188 165.554688 187.726562 165.558594 187.71875 165.558594 C 187.386719 165.59375 187.050781 165.617188 186.714844 165.632812 C 186.660156 165.636719 186.605469 165.644531 186.546875 165.648438 C 186.164062 165.667969 185.773438 165.679688 185.378906 165.679688 C 184.988281 165.679688 184.601562 165.667969 184.210938 165.648438 C 184.15625 165.644531 184.101562 165.636719 184.046875 165.632812 C 183.710938 165.613281 183.378906 165.59375 183.042969 165.558594 C 183.03125 165.558594 183.019531 165.554688 183.007812 165.554688 C 177.785156 165.023438 172.945312 162.738281 169.179688 158.984375 L 152.980469 142.824219 L 147.195312 137.050781 L 142.179688 132.046875 L 125.980469 115.890625 C 117.054688 106.980469 117.050781 92.488281 125.976562 83.578125 C 125.980469 83.574219 125.980469 83.574219 125.980469 83.570312 C 126.042969 83.511719 126.105469 83.457031 126.167969 83.398438 C 126.386719 83.1875 126.601562 82.972656 126.828125 82.773438 C 126.890625 82.714844 126.953125 82.664062 127.019531 82.609375 C 127.25 82.40625 127.476562 82.207031 127.714844 82.015625 C 127.738281 81.996094 127.761719 81.980469 127.785156 81.960938 C 131.847656 78.671875 136.875 76.878906 142.179688 76.878906 C 143.980469 76.878906 145.746094 77.089844 147.453125 77.488281 C 150.746094 78.257812 153.820312 79.746094 156.484375 81.882812 C 156.519531 81.910156 156.554688 81.933594 156.585938 81.960938 C 156.605469 81.980469 156.625 81.992188 156.644531 82.011719 C 156.886719 82.207031 157.121094 82.410156 157.351562 82.617188 C 157.410156 82.667969 157.472656 82.71875 157.53125 82.769531 C 157.765625 82.984375 157.996094 83.203125 158.226562 83.425781 C 158.273438 83.476562 158.324219 83.519531 158.375 83.570312 L 162.460938 87.648438 L 179.976562 105.117188 L 201.570312 126.660156 C 205.894531 130.976562 208.277344 136.714844 208.277344 142.820312 C 208.289062 143.214844 208.277344 143.605469 208.261719 143.988281 Z M 208.261719 143.988281 " fill-opacity="1" fill-rule="nonzero"/>
  </g>
  <g fill="#126abf" fill-opacity="1">
    <g transform="translate(245.426259, 133.198908)">
      <g>
        <path d="M 44.671875 -11.09375 L 21.21875 -11.09375 L 17.453125 0 L 1.4375 0 L 24.171875 -62.84375 L 41.890625 -62.84375 L 64.625 0 L 48.421875 0 Z M 40.734375 -22.921875 L 32.9375 -45.921875 L 25.25 -22.921875 Z M 40.734375 -22.921875 "/>
      </g>
    </g>
  </g>
  <g fill="#126abf" fill-opacity="1">
    <g transform="translate(309.603572, 133.198908)">
      <g>
        <path d="M 76.71875 -62.84375 L 76.71875 0 L 61.40625 0 L 61.40625 -37.6875 L 47.359375 0 L 35 0 L 20.859375 -37.78125 L 20.859375 0 L 5.546875 0 L 5.546875 -62.84375 L 23.625 -62.84375 L 41.265625 -19.328125 L 58.71875 -62.84375 Z M 76.71875 -62.84375 "/>
      </g>
    </g>
  </g>
  <g fill="#126abf" fill-opacity="1">
    <g transform="translate(389.981872, 133.198908)">
      <g>
        <path d="M 28.28125 0.625 C 23.6875 0.625 19.566406 -0.117188 15.921875 -1.609375 C 12.285156 -3.097656 9.378906 -5.304688 7.203125 -8.234375 C 5.023438 -11.160156 3.878906 -14.679688 3.765625 -18.796875 L 20.046875 -18.796875 C 20.285156 -16.472656 21.09375 -14.695312 22.46875 -13.46875 C 23.84375 -12.25 25.632812 -11.640625 27.84375 -11.640625 C 30.101562 -11.640625 31.890625 -12.160156 33.203125 -13.203125 C 34.515625 -14.242188 35.171875 -15.691406 35.171875 -17.546875 C 35.171875 -19.097656 34.648438 -20.378906 33.609375 -21.390625 C 32.566406 -22.410156 31.285156 -23.25 29.765625 -23.90625 C 28.242188 -24.5625 26.082031 -25.304688 23.28125 -26.140625 C 19.21875 -27.390625 15.898438 -28.640625 13.328125 -29.890625 C 10.765625 -31.148438 8.554688 -33.003906 6.703125 -35.453125 C 4.859375 -37.898438 3.9375 -41.09375 3.9375 -45.03125 C 3.9375 -50.875 6.054688 -55.453125 10.296875 -58.765625 C 14.535156 -62.078125 20.054688 -63.734375 26.859375 -63.734375 C 33.773438 -63.734375 39.351562 -62.078125 43.59375 -58.765625 C 47.832031 -55.453125 50.097656 -50.84375 50.390625 -44.9375 L 33.84375 -44.9375 C 33.71875 -46.96875 32.96875 -48.5625 31.59375 -49.71875 C 30.226562 -50.882812 28.46875 -51.46875 26.3125 -51.46875 C 24.46875 -51.46875 22.976562 -50.972656 21.84375 -49.984375 C 20.707031 -49.003906 20.140625 -47.59375 20.140625 -45.75 C 20.140625 -43.71875 21.09375 -42.132812 23 -41 C 24.914062 -39.863281 27.898438 -38.640625 31.953125 -37.328125 C 36.015625 -35.953125 39.3125 -34.640625 41.84375 -33.390625 C 44.382812 -32.140625 46.578125 -30.316406 48.421875 -27.921875 C 50.273438 -25.535156 51.203125 -22.460938 51.203125 -18.703125 C 51.203125 -15.128906 50.289062 -11.878906 48.46875 -8.953125 C 46.65625 -6.023438 44.015625 -3.695312 40.546875 -1.96875 C 37.085938 -0.238281 33 0.625 28.28125 0.625 Z M 28.28125 0.625 "/>
      </g>
    </g>
  </g>
  <g fill="#126abf" fill-opacity="1">
    <g transform="translate(443.239191, 133.198908)">
      <g/>
    </g>
  </g>
  <g fill="#126abf" fill-opacity="1">
    <g transform="translate(460.424693, 133.198908)">
      <g>
        <path d="M 50.75 -62.84375 L 50.75 -50.578125 L 34.109375 -50.578125 L 34.109375 0 L 18.796875 0 L 18.796875 -50.578125 L 2.140625 -50.578125 L 2.140625 -62.84375 Z M 50.75 -62.84375 "/>
      </g>
    </g>
  </g>
  <g fill="#126abf" fill-opacity="1">
    <g transform="translate(511.533808, 133.198908)">
      <g>
        <path d="M 20.859375 -50.578125 L 20.859375 -37.859375 L 41.359375 -37.859375 L 41.359375 -26.046875 L 20.859375 -26.046875 L 20.859375 -12.265625 L 44.046875 -12.265625 L 44.046875 0 L 5.546875 0 L 5.546875 -62.84375 L 44.046875 -62.84375 L 44.046875 -50.578125 Z M 20.859375 -50.578125 "/>
      </g>
    </g>
  </g>
  <g fill="#126abf" fill-opacity="1">
    <g transform="translate(558.167513, 133.198908)">
      <g>
        <path d="M 2.953125 -31.515625 C 2.953125 -37.710938 4.296875 -43.242188 6.984375 -48.109375 C 9.671875 -52.972656 13.414062 -56.765625 18.21875 -59.484375 C 23.019531 -62.203125 28.460938 -63.5625 34.546875 -63.5625 C 42.015625 -63.5625 48.398438 -61.585938 53.703125 -57.640625 C 59.015625 -53.703125 62.566406 -48.332031 64.359375 -41.53125 L 47.53125 -41.53125 C 46.28125 -44.15625 44.503906 -46.15625 42.203125 -47.53125 C 39.910156 -48.90625 37.300781 -49.59375 34.375 -49.59375 C 29.65625 -49.59375 25.832031 -47.953125 22.90625 -44.671875 C 19.988281 -41.390625 18.53125 -37.003906 18.53125 -31.515625 C 18.53125 -26.023438 19.988281 -21.632812 22.90625 -18.34375 C 25.832031 -15.0625 29.65625 -13.421875 34.375 -13.421875 C 37.300781 -13.421875 39.910156 -14.109375 42.203125 -15.484375 C 44.503906 -16.859375 46.28125 -18.859375 47.53125 -21.484375 L 64.359375 -21.484375 C 62.566406 -14.679688 59.015625 -9.320312 53.703125 -5.40625 C 48.398438 -1.5 42.015625 0.453125 34.546875 0.453125 C 28.460938 0.453125 23.019531 -0.90625 18.21875 -3.625 C 13.414062 -6.34375 9.671875 -10.117188 6.984375 -14.953125 C 4.296875 -19.785156 2.953125 -25.304688 2.953125 -31.515625 Z M 2.953125 -31.515625 "/>
      </g>
    </g>
  </g>
  <g fill="#126abf" fill-opacity="1">
    <g transform="translate(624.582548, 133.198908)">
      <g>
        <path d="M 59.96875 -62.84375 L 59.96875 0 L 44.671875 0 L 44.671875 -25.875 L 20.859375 -25.875 L 20.859375 0 L 5.546875 0 L 5.546875 -62.84375 L 20.859375 -62.84375 L 20.859375 -38.21875 L 44.671875 -38.21875 L 44.671875 -62.84375 Z M 59.96875 -62.84375 "/>
      </g>
    </g>
  </g>
  <g fill="#9d9df4" fill-opacity="1">
    <g transform="translate(350.145277, 169.522049)">
      <g>
        <path d="M 7.9375 -18.8125 C 9.988281 -18.8125 11.765625 -18.429688 13.265625 -17.671875 C 14.773438 -16.910156 15.925781 -15.816406 16.71875 -14.390625 C 17.519531 -12.972656 17.921875 -11.300781 17.921875 -9.375 C 17.921875 -7.445312 17.519531 -5.773438 16.71875 -4.359375 C 15.925781 -2.941406 14.773438 -1.859375 13.265625 -1.109375 C 11.765625 -0.367188 9.988281 0 7.9375 0 L 2.078125 0 L 2.078125 -18.8125 Z M 7.9375 -2.03125 C 10.363281 -2.03125 12.21875 -2.671875 13.5 -3.953125 C 14.78125 -5.242188 15.421875 -7.050781 15.421875 -9.375 C 15.421875 -11.707031 14.773438 -13.53125 13.484375 -14.84375 C 12.203125 -16.164062 10.351562 -16.828125 7.9375 -16.828125 L 4.53125 -16.828125 L 4.53125 -2.03125 Z M 7.9375 -2.03125 "/>
      </g>
    </g>
  </g>
  <g fill="#9d9df4" fill-opacity="1">
    <g transform="translate(372.474285, 169.522049)">
      <g>
        <path d="M 3.34375 -17.203125 C 2.875 -17.203125 2.476562 -17.363281 2.15625 -17.6875 C 1.832031 -18.007812 1.671875 -18.40625 1.671875 -18.875 C 1.671875 -19.34375 1.832031 -19.738281 2.15625 -20.0625 C 2.476562 -20.382812 2.875 -20.546875 3.34375 -20.546875 C 3.789062 -20.546875 4.171875 -20.382812 4.484375 -20.0625 C 4.804688 -19.738281 4.96875 -19.34375 4.96875 -18.875 C 4.96875 -18.40625 4.804688 -18.007812 4.484375 -17.6875 C 4.171875 -17.363281 3.789062 -17.203125 3.34375 -17.203125 Z M 4.53125 -14.796875 L 4.53125 0 L 2.078125 0 L 2.078125 -14.796875 Z M 4.53125 -14.796875 "/>
      </g>
    </g>
  </g>
  <g fill="#9d9df4" fill-opacity="1">
    <g transform="translate(382.356286, 169.522049)">
      <g>
        <path d="M 8.1875 -15.03125 C 9.457031 -15.03125 10.570312 -14.75 11.53125 -14.1875 C 12.5 -13.632812 13.21875 -12.9375 13.6875 -12.09375 L 13.6875 -14.796875 L 16.171875 -14.796875 L 16.171875 0.328125 C 16.171875 1.671875 15.878906 2.867188 15.296875 3.921875 C 14.722656 4.984375 13.898438 5.8125 12.828125 6.40625 C 11.765625 7 10.519531 7.296875 9.09375 7.296875 C 7.15625 7.296875 5.535156 6.832031 4.234375 5.90625 C 2.941406 4.988281 2.175781 3.738281 1.9375 2.15625 L 4.375 2.15625 C 4.644531 3.0625 5.203125 3.785156 6.046875 4.328125 C 6.890625 4.878906 7.90625 5.15625 9.09375 5.15625 C 10.445312 5.15625 11.550781 4.734375 12.40625 3.890625 C 13.257812 3.046875 13.6875 1.859375 13.6875 0.328125 L 13.6875 -2.78125 C 13.195312 -1.914062 12.472656 -1.191406 11.515625 -0.609375 C 10.566406 -0.0351562 9.457031 0.25 8.1875 0.25 C 6.863281 0.25 5.664062 -0.0703125 4.59375 -0.71875 C 3.53125 -1.375 2.691406 -2.285156 2.078125 -3.453125 C 1.460938 -4.628906 1.15625 -5.960938 1.15625 -7.453125 C 1.15625 -8.960938 1.460938 -10.289062 2.078125 -11.4375 C 2.691406 -12.582031 3.53125 -13.46875 4.59375 -14.09375 C 5.664062 -14.71875 6.863281 -15.03125 8.1875 -15.03125 Z M 13.6875 -7.421875 C 13.6875 -8.535156 13.460938 -9.503906 13.015625 -10.328125 C 12.566406 -11.160156 11.957031 -11.796875 11.1875 -12.234375 C 10.425781 -12.679688 9.585938 -12.90625 8.671875 -12.90625 C 7.753906 -12.90625 6.914062 -12.6875 6.15625 -12.25 C 5.394531 -11.820312 4.789062 -11.191406 4.34375 -10.359375 C 3.894531 -9.535156 3.671875 -8.566406 3.671875 -7.453125 C 3.671875 -6.316406 3.894531 -5.328125 4.34375 -4.484375 C 4.789062 -3.648438 5.394531 -3.015625 6.15625 -2.578125 C 6.914062 -2.140625 7.753906 -1.921875 8.671875 -1.921875 C 9.585938 -1.921875 10.425781 -2.140625 11.1875 -2.578125 C 11.957031 -3.015625 12.566406 -3.648438 13.015625 -4.484375 C 13.460938 -5.328125 13.6875 -6.304688 13.6875 -7.421875 Z M 13.6875 -7.421875 "/>
      </g>
    </g>
  </g>
  <g fill="#9d9df4" fill-opacity="1">
    <g transform="translate(403.848295, 169.522049)">
      <g>
        <path d="M 3.34375 -17.203125 C 2.875 -17.203125 2.476562 -17.363281 2.15625 -17.6875 C 1.832031 -18.007812 1.671875 -18.40625 1.671875 -18.875 C 1.671875 -19.34375 1.832031 -19.738281 2.15625 -20.0625 C 2.476562 -20.382812 2.875 -20.546875 3.34375 -20.546875 C 3.789062 -20.546875 4.171875 -20.382812 4.484375 -20.0625 C 4.804688 -19.738281 4.96875 -19.34375 4.96875 -18.875 C 4.96875 -18.40625 4.804688 -18.007812 4.484375 -17.6875 C 4.171875 -17.363281 3.789062 -17.203125 3.34375 -17.203125 Z M 4.53125 -14.796875 L 4.53125 0 L 2.078125 0 L 2.078125 -14.796875 Z M 4.53125 -14.796875 "/>
      </g>
    </g>
  </g>
  <g fill="#9d9df4" fill-opacity="1">
    <g transform="translate(413.730297, 169.522049)">
      <g>
        <path d="M 5.078125 -12.765625 L 5.078125 -4.046875 C 5.078125 -3.328125 5.226562 -2.816406 5.53125 -2.515625 C 5.84375 -2.222656 6.375 -2.078125 7.125 -2.078125 L 8.9375 -2.078125 L 8.9375 0 L 6.71875 0 C 5.351562 0 4.328125 -0.3125 3.640625 -0.9375 C 2.960938 -1.570312 2.625 -2.609375 2.625 -4.046875 L 2.625 -12.765625 L 0.703125 -12.765625 L 0.703125 -14.796875 L 2.625 -14.796875 L 2.625 -18.515625 L 5.078125 -18.515625 L 5.078125 -14.796875 L 8.9375 -14.796875 L 8.9375 -12.765625 Z M 5.078125 -12.765625 "/>
      </g>
    </g>
  </g>
  <g fill="#9d9df4" fill-opacity="1">
    <g transform="translate(426.798299, 169.522049)">
      <g>
        <path d="M 1.15625 -7.453125 C 1.15625 -8.960938 1.460938 -10.289062 2.078125 -11.4375 C 2.691406 -12.582031 3.53125 -13.46875 4.59375 -14.09375 C 5.664062 -14.71875 6.863281 -15.03125 8.1875 -15.03125 C 9.476562 -15.03125 10.597656 -14.75 11.546875 -14.1875 C 12.503906 -13.632812 13.21875 -12.9375 13.6875 -12.09375 L 13.6875 -14.796875 L 16.171875 -14.796875 L 16.171875 0 L 13.6875 0 L 13.6875 -2.75 C 13.195312 -1.882812 12.472656 -1.164062 11.515625 -0.59375 C 10.554688 -0.03125 9.4375 0.25 8.15625 0.25 C 6.84375 0.25 5.65625 -0.0703125 4.59375 -0.71875 C 3.53125 -1.375 2.691406 -2.285156 2.078125 -3.453125 C 1.460938 -4.628906 1.15625 -5.960938 1.15625 -7.453125 Z M 13.6875 -7.421875 C 13.6875 -8.535156 13.460938 -9.503906 13.015625 -10.328125 C 12.566406 -11.160156 11.957031 -11.796875 11.1875 -12.234375 C 10.425781 -12.679688 9.585938 -12.90625 8.671875 -12.90625 C 7.753906 -12.90625 6.914062 -12.6875 6.15625 -12.25 C 5.394531 -11.820312 4.789062 -11.191406 4.34375 -10.359375 C 3.894531 -9.535156 3.671875 -8.566406 3.671875 -7.453125 C 3.671875 -6.316406 3.894531 -5.328125 4.34375 -4.484375 C 4.789062 -3.648438 5.394531 -3.015625 6.15625 -2.578125 C 6.914062 -2.140625 7.753906 -1.921875 8.671875 -1.921875 C 9.585938 -1.921875 10.425781 -2.140625 11.1875 -2.578125 C 11.957031 -3.015625 12.566406 -3.648438 13.015625 -4.484375 C 13.460938 -5.328125 13.6875 -6.304688 13.6875 -7.421875 Z M 13.6875 -7.421875 "/>
      </g>
    </g>
  </g>
  <g fill="#9d9df4" fill-opacity="1">
    <g transform="translate(448.290308, 169.522049)">
      <g>
        <path d="M 4.53125 -19.984375 L 4.53125 0 L 2.078125 0 L 2.078125 -19.984375 Z M 4.53125 -19.984375 "/>
      </g>
    </g>
  </g>
  <g fill="#9d9df4" fill-opacity="1">
    <g transform="translate(458.172304, 169.522049)">
      <g>
        <path d="M 1.15625 -7.453125 C 1.15625 -8.960938 1.460938 -10.289062 2.078125 -11.4375 C 2.691406 -12.582031 3.53125 -13.46875 4.59375 -14.09375 C 5.664062 -14.71875 6.863281 -15.03125 8.1875 -15.03125 C 9.476562 -15.03125 10.597656 -14.75 11.546875 -14.1875 C 12.503906 -13.632812 13.21875 -12.9375 13.6875 -12.09375 L 13.6875 -14.796875 L 16.171875 -14.796875 L 16.171875 0 L 13.6875 0 L 13.6875 -2.75 C 13.195312 -1.882812 12.472656 -1.164062 11.515625 -0.59375 C 10.554688 -0.03125 9.4375 0.25 8.15625 0.25 C 6.84375 0.25 5.65625 -0.0703125 4.59375 -0.71875 C 3.53125 -1.375 2.691406 -2.285156 2.078125 -3.453125 C 1.460938 -4.628906 1.15625 -5.960938 1.15625 -7.453125 Z M 13.6875 -7.421875 C 13.6875 -8.535156 13.460938 -9.503906 13.015625 -10.328125 C 12.566406 -11.160156 11.957031 -11.796875 11.1875 -12.234375 C 10.425781 -12.679688 9.585938 -12.90625 8.671875 -12.90625 C 7.753906 -12.90625 6.914062 -12.6875 6.15625 -12.25 C 5.394531 -11.820312 4.789062 -11.191406 4.34375 -10.359375 C 3.894531 -9.535156 3.671875 -8.566406 3.671875 -7.453125 C 3.671875 -6.316406 3.894531 -5.328125 4.34375 -4.484375 C 4.789062 -3.648438 5.394531 -3.015625 6.15625 -2.578125 C 6.914062 -2.140625 7.753906 -1.921875 8.671875 -1.921875 C 9.585938 -1.921875 10.425781 -2.140625 11.1875 -2.578125 C 11.957031 -3.015625 12.566406 -3.648438 13.015625 -4.484375 C 13.460938 -5.328125 13.6875 -6.304688 13.6875 -7.421875 Z M 13.6875 -7.421875 "/>
      </g>
    </g>
  </g>
  <g fill="#9d9df4" fill-opacity="1">
    <g transform="translate(479.664307, 169.522049)">
      <g>
        <path d="M 8.1875 -15.03125 C 9.457031 -15.03125 10.570312 -14.75 11.53125 -14.1875 C 12.5 -13.632812 13.21875 -12.9375 13.6875 -12.09375 L 13.6875 -14.796875 L 16.171875 -14.796875 L 16.171875 0.328125 C 16.171875 1.671875 15.878906 2.867188 15.296875 3.921875 C 14.722656 4.984375 13.898438 5.8125 12.828125 6.40625 C 11.765625 7 10.519531 7.296875 9.09375 7.296875 C 7.15625 7.296875 5.535156 6.832031 4.234375 5.90625 C 2.941406 4.988281 2.175781 3.738281 1.9375 2.15625 L 4.375 2.15625 C 4.644531 3.0625 5.203125 3.785156 6.046875 4.328125 C 6.890625 4.878906 7.90625 5.15625 9.09375 5.15625 C 10.445312 5.15625 11.550781 4.734375 12.40625 3.890625 C 13.257812 3.046875 13.6875 1.859375 13.6875 0.328125 L 13.6875 -2.78125 C 13.195312 -1.914062 12.472656 -1.191406 11.515625 -0.609375 C 10.566406 -0.0351562 9.457031 0.25 8.1875 0.25 C 6.863281 0.25 5.664062 -0.0703125 4.59375 -0.71875 C 3.53125 -1.375 2.691406 -2.285156 2.078125 -3.453125 C 1.460938 -4.628906 1.15625 -5.960938 1.15625 -7.453125 C 1.15625 -8.960938 1.460938 -10.289062 2.078125 -11.4375 C 2.691406 -12.582031 3.53125 -13.46875 4.59375 -14.09375 C 5.664062 -14.71875 6.863281 -15.03125 8.1875 -15.03125 Z M 13.6875 -7.421875 C 13.6875 -8.535156 13.460938 -9.503906 13.015625 -10.328125 C 12.566406 -11.160156 11.957031 -11.796875 11.1875 -12.234375 C 10.425781 -12.679688 9.585938 -12.90625 8.671875 -12.90625 C 7.753906 -12.90625 6.914062 -12.6875 6.15625 -12.25 C 5.394531 -11.820312 4.789062 -11.191406 4.34375 -10.359375 C 3.894531 -9.535156 3.671875 -8.566406 3.671875 -7.453125 C 3.671875 -6.316406 3.894531 -5.328125 4.34375 -4.484375 C 4.789062 -3.648438 5.394531 -3.015625 6.15625 -2.578125 C 6.914062 -2.140625 7.753906 -1.921875 8.671875 -1.921875 C 9.585938 -1.921875 10.425781 -2.140625 11.1875 -2.578125 C 11.957031 -3.015625 12.566406 -3.648438 13.015625 -4.484375 C 13.460938 -5.328125 13.6875 -6.304688 13.6875 -7.421875 Z M 13.6875 -7.421875 "/>
      </g>
    </g>
  </g>
  <g fill="#9d9df4" fill-opacity="1">
    <g transform="translate(501.156311, 169.522049)">
      <g>
        <path d="M 15.578125 -7.96875 C 15.578125 -7.5 15.550781 -7.003906 15.5 -6.484375 L 3.671875 -6.484375 C 3.765625 -5.023438 4.265625 -3.882812 5.171875 -3.0625 C 6.078125 -2.25 7.179688 -1.84375 8.484375 -1.84375 C 9.546875 -1.84375 10.429688 -2.085938 11.140625 -2.578125 C 11.847656 -3.078125 12.347656 -3.738281 12.640625 -4.5625 L 15.28125 -4.5625 C 14.882812 -3.144531 14.09375 -1.988281 12.90625 -1.09375 C 11.71875 -0.195312 10.242188 0.25 8.484375 0.25 C 7.078125 0.25 5.816406 -0.0625 4.703125 -0.6875 C 3.597656 -1.320312 2.726562 -2.21875 2.09375 -3.375 C 1.46875 -4.539062 1.15625 -5.890625 1.15625 -7.421875 C 1.15625 -8.953125 1.460938 -10.289062 2.078125 -11.4375 C 2.691406 -12.59375 3.550781 -13.476562 4.65625 -14.09375 C 5.757812 -14.71875 7.035156 -15.03125 8.484375 -15.03125 C 9.878906 -15.03125 11.117188 -14.722656 12.203125 -14.109375 C 13.285156 -13.503906 14.117188 -12.664062 14.703125 -11.59375 C 15.285156 -10.519531 15.578125 -9.3125 15.578125 -7.96875 Z M 13.046875 -8.484375 C 13.046875 -9.410156 12.835938 -10.210938 12.421875 -10.890625 C 12.003906 -11.566406 11.441406 -12.078125 10.734375 -12.421875 C 10.023438 -12.773438 9.238281 -12.953125 8.375 -12.953125 C 7.125 -12.953125 6.0625 -12.554688 5.1875 -11.765625 C 4.320312 -10.972656 3.828125 -9.878906 3.703125 -8.484375 Z M 13.046875 -8.484375 "/>
      </g>
    </g>
  </g>
  <g fill="#9d9df4" fill-opacity="1">
    <g transform="translate(521.136321, 169.522049)">
      <g>
        <path d="M 9.28125 -15.0625 C 11.082031 -15.0625 12.539062 -14.515625 13.65625 -13.421875 C 14.78125 -12.335938 15.34375 -10.769531 15.34375 -8.71875 L 15.34375 0 L 12.90625 0 L 12.90625 -8.375 C 12.90625 -9.84375 12.535156 -10.96875 11.796875 -11.75 C 11.054688 -12.539062 10.050781 -12.9375 8.78125 -12.9375 C 7.476562 -12.9375 6.441406 -12.53125 5.671875 -11.71875 C 4.910156 -10.90625 4.53125 -9.726562 4.53125 -8.1875 L 4.53125 0 L 2.078125 0 L 2.078125 -14.796875 L 4.53125 -14.796875 L 4.53125 -12.6875 C 5.019531 -13.445312 5.679688 -14.03125 6.515625 -14.4375 C 7.359375 -14.851562 8.28125 -15.0625 9.28125 -15.0625 Z M 9.28125 -15.0625 "/>
      </g>
    </g>
  </g>
  <g fill="#9d9df4" fill-opacity="1">
    <g transform="translate(541.656332, 169.522049)">
      <g>
        <path d="M 5.078125 -12.765625 L 5.078125 -4.046875 C 5.078125 -3.328125 5.226562 -2.816406 5.53125 -2.515625 C 5.84375 -2.222656 6.375 -2.078125 7.125 -2.078125 L 8.9375 -2.078125 L 8.9375 0 L 6.71875 0 C 5.351562 0 4.328125 -0.3125 3.640625 -0.9375 C 2.960938 -1.570312 2.625 -2.609375 2.625 -4.046875 L 2.625 -12.765625 L 0.703125 -12.765625 L 0.703125 -14.796875 L 2.625 -14.796875 L 2.625 -18.515625 L 5.078125 -18.515625 L 5.078125 -14.796875 L 8.9375 -14.796875 L 8.9375 -12.765625 Z M 5.078125 -12.765625 "/>
      </g>
    </g>
  </g>
  <g fill="#9d9df4" fill-opacity="1">
    <g transform="translate(554.72434, 169.522049)">
      <g>
        <path d="M 15.203125 -14.796875 L 15.203125 0 L 12.75 0 L 12.75 -2.1875 C 12.28125 -1.425781 11.625 -0.832031 10.78125 -0.40625 C 9.945312 0.0078125 9.023438 0.21875 8.015625 0.21875 C 6.867188 0.21875 5.832031 -0.0195312 4.90625 -0.5 C 3.988281 -0.976562 3.265625 -1.691406 2.734375 -2.640625 C 2.203125 -3.597656 1.9375 -4.757812 1.9375 -6.125 L 1.9375 -14.796875 L 4.375 -14.796875 L 4.375 -6.453125 C 4.375 -4.992188 4.742188 -3.875 5.484375 -3.09375 C 6.222656 -2.3125 7.226562 -1.921875 8.5 -1.921875 C 9.8125 -1.921875 10.847656 -2.320312 11.609375 -3.125 C 12.367188 -3.9375 12.75 -5.117188 12.75 -6.671875 L 12.75 -14.796875 Z M 15.203125 -14.796875 "/>
      </g>
    </g>
  </g>
  <g fill="#9d9df4" fill-opacity="1">
    <g transform="translate(575.244351, 169.522049)">
      <g>
        <path d="M 4.53125 -12.390625 C 4.96875 -13.234375 5.585938 -13.890625 6.390625 -14.359375 C 7.191406 -14.828125 8.164062 -15.0625 9.3125 -15.0625 L 9.3125 -12.53125 L 8.671875 -12.53125 C 5.910156 -12.53125 4.53125 -11.035156 4.53125 -8.046875 L 4.53125 0 L 2.078125 0 L 2.078125 -14.796875 L 4.53125 -14.796875 Z M 4.53125 -12.390625 "/>
      </g>
    </g>
  </g>
</svg>