<svg xmlns="http://www.w3.org/2000/svg" xmlns:xlink="http://www.w3.org/1999/xlink" width="1000" zoomAndPan="magnify" viewBox="0 0 750 749.999995" height="1000" preserveAspectRatio="xMidYMid meet" version="1.0"><defs><clipPath id="id1"><path d="M 56 25.003906 L 695 25.003906 L 695 722 L 56 722 Z M 56 25.003906 " clip-rule="nonzero"/></clipPath></defs><g clip-path="url(#id1)"><path fill="#9d9df4" d="M 694.558594 562.433594 C 694.324219 552.011719 693.160156 541.699219 691.074219 531.484375 C 688.984375 521.273438 686 511.332031 682.125 501.65625 C 678.273438 491.589844 674.792969 483.507812 666.960938 466.109375 L 666.960938 465.113281 L 664.472656 460.019531 C 616.570312 354.042969 566.226562 248.890625 513.433594 144.570312 L 508.710938 135.25 C 500.132812 118.222656 496.277344 110.390625 490.933594 100.945312 C 482.871094 85.390625 472.597656 71.46875 460.101562 59.183594 C 457.515625 56.683594 454.820312 54.304688 452.023438 52.042969 C 449.226562 49.777344 446.332031 47.644531 443.347656 45.636719 C 440.359375 43.628906 437.292969 41.753906 434.140625 40.015625 C 430.992188 38.277344 427.769531 36.679688 424.480469 35.226562 C 421.1875 33.773438 417.839844 32.464844 414.433594 31.304688 C 411.027344 30.144531 407.574219 29.136719 404.078125 28.277344 C 400.585938 27.421875 397.058594 26.71875 393.5 26.171875 C 389.945312 25.625 386.371094 25.238281 382.78125 25.003906 L 370.347656 25.003906 C 366.621094 25.1875 362.90625 25.539062 359.210938 26.0625 C 355.515625 26.582031 351.851562 27.269531 348.214844 28.125 C 344.582031 28.980469 340.996094 30 337.453125 31.183594 C 333.914062 32.363281 330.433594 33.707031 327.015625 35.207031 C 323.597656 36.707031 320.253906 38.355469 316.988281 40.160156 C 313.71875 41.964844 310.539062 43.914062 307.449219 46.007812 C 304.359375 48.105469 301.371094 50.332031 298.484375 52.699219 C 295.597656 55.066406 292.824219 57.558594 290.167969 60.179688 C 278.238281 72.179688 268.378906 85.683594 260.578125 100.699219 C 255.359375 110.144531 251.132812 118.472656 242.925781 134.628906 L 241.933594 136.492188 L 238.203125 143.824219 C 203.0625 213.261719 168.753906 283.691406 135.273438 355.117188 C 110.410156 407.570312 93.503906 445.226562 76.84375 482.886719 C 67.765625 501.792969 61.550781 521.597656 58.199219 542.296875 C 57.558594 546.773438 57.109375 551.265625 56.855469 555.78125 C 56.601562 560.292969 56.542969 564.808594 56.675781 569.328125 C 56.808594 573.84375 57.136719 578.351562 57.65625 582.839844 C 58.175781 587.328125 58.890625 591.789062 59.792969 596.21875 C 60.699219 600.648438 61.789062 605.03125 63.070312 609.363281 C 64.351562 613.699219 65.816406 617.972656 67.460938 622.183594 C 69.109375 626.390625 70.933594 630.523438 72.9375 634.574219 C 74.941406 638.628906 77.113281 642.585938 79.457031 646.453125 C 81.234375 649.441406 83.113281 652.367188 85.09375 655.230469 C 87.074219 658.09375 89.148438 660.882812 91.316406 663.605469 C 93.488281 666.324219 95.746094 668.96875 98.09375 671.535156 C 100.445312 674.101562 102.878906 676.585938 105.398438 678.984375 C 107.917969 681.386719 110.515625 683.699219 113.191406 685.921875 C 115.867188 688.144531 118.617188 690.273438 121.441406 692.3125 C 124.261719 694.347656 127.148438 696.285156 130.105469 698.125 C 133.058594 699.964844 136.070312 701.699219 139.144531 703.332031 C 142.214844 704.96875 145.339844 706.496094 148.515625 707.917969 C 151.695312 709.335938 154.914062 710.648438 158.179688 711.851562 C 161.445312 713.050781 164.75 714.140625 168.089844 715.117188 C 171.429688 716.09375 174.800781 716.953125 178.199219 717.703125 C 181.597656 718.449219 185.019531 719.078125 188.460938 719.589844 C 191.902344 720.105469 195.359375 720.5 198.828125 720.777344 C 202.296875 721.058594 205.769531 721.21875 209.25 721.257812 C 212.730469 721.300781 216.207031 721.222656 219.679688 721.027344 C 227.628906 720.460938 235.507812 719.390625 243.320312 717.820312 C 251.132812 716.25 258.8125 714.191406 266.363281 711.644531 C 273.914062 709.09375 281.269531 706.078125 288.4375 702.597656 C 295.601562 699.113281 302.519531 695.1875 309.1875 690.824219 L 309.808594 690.824219 C 310.347656 690.480469 310.867188 690.105469 311.363281 689.703125 C 311.859375 689.300781 312.332031 688.871094 312.777344 688.414062 C 313.226562 687.957031 313.644531 687.472656 314.039062 686.96875 C 314.429688 686.464844 314.792969 685.9375 315.125 685.390625 C 315.457031 684.84375 315.757812 684.28125 316.027344 683.699219 C 316.292969 683.117188 316.527344 682.523438 316.726562 681.914062 C 316.925781 681.308594 317.089844 680.691406 317.222656 680.0625 C 317.351562 679.4375 317.441406 678.804688 317.5 678.167969 C 317.554688 677.53125 317.578125 676.890625 317.5625 676.253906 C 317.542969 675.613281 317.492188 674.976562 317.402344 674.34375 C 317.3125 673.710938 317.1875 673.082031 317.027344 672.464844 C 316.867188 671.84375 316.671875 671.238281 316.441406 670.640625 C 316.210938 670.042969 315.949219 669.460938 315.652344 668.894531 C 315.355469 668.328125 315.027344 667.78125 314.667969 667.25 C 314.308594 666.722656 313.917969 666.214844 313.5 665.730469 C 313.082031 665.242188 312.640625 664.785156 312.167969 664.351562 C 304.425781 656.914062 297.253906 648.960938 290.664062 640.488281 C 290.027344 639.664062 289.320312 638.90625 288.546875 638.210938 C 287.773438 637.515625 286.941406 636.898438 286.054688 636.355469 C 285.167969 635.8125 284.238281 635.351562 283.265625 634.976562 C 282.296875 634.605469 281.300781 634.320312 280.277344 634.125 C 279.253906 633.933594 278.222656 633.835938 277.183594 633.828125 C 276.144531 633.824219 275.109375 633.910156 274.085938 634.09375 C 273.0625 634.277344 272.0625 634.550781 271.089844 634.914062 C 270.113281 635.277344 269.179688 635.726562 268.289062 636.261719 C 256.6875 643.4375 244.257812 648.617188 230.992188 651.796875 C 226.050781 652.96875 221.042969 653.699219 215.96875 653.988281 C 210.898438 654.28125 205.839844 654.132812 200.792969 653.539062 C 195.746094 652.945312 190.789062 651.917969 185.925781 650.457031 C 181.058594 648.996094 176.359375 647.121094 171.820312 644.835938 C 169.179688 643.464844 166.617188 641.957031 164.136719 640.316406 C 161.652344 638.679688 159.261719 636.914062 156.960938 635.027344 C 154.660156 633.140625 152.464844 631.136719 150.371094 629.023438 C 148.277344 626.90625 146.300781 624.6875 144.4375 622.367188 C 142.578125 620.046875 140.839844 617.636719 139.226562 615.136719 C 137.617188 612.632812 136.136719 610.054688 134.792969 607.402344 C 133.449219 604.746094 132.246094 602.03125 131.183594 599.25 C 130.121094 596.472656 129.203125 593.644531 128.433594 590.769531 C 127.3125 586.460938 126.507812 582.089844 126.027344 577.660156 C 125.546875 573.230469 125.386719 568.789062 125.554688 564.335938 C 125.726562 559.886719 126.21875 555.46875 127.03125 551.089844 C 127.847656 546.707031 128.980469 542.410156 130.425781 538.195312 C 134.753906 525.792969 139.726562 513.65625 145.339844 501.78125 L 145.964844 500.289062 L 149.320312 492.707031 C 196.144531 388.71875 245.871094 285.144531 298.496094 181.984375 L 302.472656 174.027344 C 311.796875 155.507812 316.148438 147.058594 321.617188 136.742188 C 324.230469 131.339844 327.371094 126.261719 331.035156 121.507812 C 334.699219 116.757812 338.8125 112.429688 343.371094 108.527344 C 344.566406 107.601562 345.792969 106.726562 347.0625 105.902344 C 348.328125 105.082031 349.628906 104.3125 350.960938 103.601562 C 352.292969 102.890625 353.652344 102.234375 355.039062 101.640625 C 356.425781 101.042969 357.839844 100.503906 359.273438 100.027344 C 360.703125 99.550781 362.15625 99.136719 363.625 98.785156 C 365.09375 98.429688 366.574219 98.140625 368.066406 97.910156 C 369.5625 97.683594 371.0625 97.519531 372.566406 97.421875 C 374.074219 97.320312 375.585938 97.285156 377.09375 97.3125 C 378.605469 97.339844 380.109375 97.433594 381.613281 97.589844 C 383.117188 97.746094 384.609375 97.964844 386.09375 98.246094 C 387.578125 98.53125 389.046875 98.875 390.5 99.28125 C 391.957031 99.691406 393.390625 100.160156 394.804688 100.6875 C 396.21875 101.21875 397.609375 101.804688 398.972656 102.453125 C 400.339844 103.101562 401.671875 103.804688 402.976562 104.566406 C 404.28125 105.328125 405.550781 106.144531 406.789062 107.011719 C 408.023438 107.878906 409.21875 108.800781 410.378906 109.769531 C 415.335938 114.410156 419.792969 119.492188 423.746094 125.015625 C 427.703125 130.539062 431.078125 136.394531 433.871094 142.582031 C 446.304688 166.199219 456.996094 187.574219 476.761719 227.222656 L 480.242188 234.308594 L 480.242188 235.054688 C 524.414062 324.128906 566.640625 413.535156 606.917969 503.269531 L 608.90625 507.871094 L 609.652344 509.609375 C 614.976562 520.785156 619.410156 532.300781 622.953125 544.164062 C 624.058594 548.128906 624.890625 552.152344 625.449219 556.230469 C 626.007812 560.308594 626.285156 564.40625 626.285156 568.523438 C 626.285156 572.640625 626.007812 576.738281 625.449219 580.816406 C 624.890625 584.894531 624.058594 588.917969 622.953125 592.882812 C 622.25 595.390625 621.429688 597.859375 620.5 600.292969 C 619.566406 602.722656 618.527344 605.109375 617.375 607.445312 C 616.226562 609.78125 614.96875 612.058594 613.609375 614.277344 C 612.25 616.5 610.789062 618.652344 609.230469 620.738281 C 607.671875 622.824219 606.019531 624.835938 604.277344 626.769531 C 602.535156 628.703125 600.703125 630.550781 598.789062 632.320312 C 596.875 634.085938 594.886719 635.757812 592.816406 637.339844 C 590.75 638.925781 588.613281 640.410156 586.410156 641.792969 C 584.203125 643.179688 581.941406 644.464844 579.617188 645.640625 C 577.292969 646.820312 574.921875 647.886719 572.5 648.847656 C 570.082031 649.808594 567.621094 650.652344 565.121094 651.386719 C 562.621094 652.121094 560.09375 652.738281 557.539062 653.238281 C 554.984375 653.738281 552.410156 654.121094 549.820312 654.386719 C 547.226562 654.648438 544.628906 654.792969 542.027344 654.820312 C 539.421875 654.84375 536.824219 654.75 534.226562 654.535156 C 531.632812 654.320312 529.050781 653.988281 526.484375 653.539062 C 520.046875 652.234375 513.726562 650.511719 507.515625 648.367188 C 501.308594 646.222656 495.269531 643.675781 489.402344 640.726562 C 483.53125 637.777344 477.886719 634.453125 472.460938 630.75 C 467.035156 627.046875 461.878906 623 456.996094 618.613281 C 447.925781 611.101562 439.304688 603.105469 431.136719 594.625 C 406.863281 570.90625 385.566406 544.761719 367.242188 516.199219 L 365.996094 514.457031 L 365.25 513.464844 C 353.351562 495.734375 343.117188 477.089844 334.546875 457.53125 C 327.589844 442.464844 322.90625 426.722656 320.5 410.304688 C 319.585938 404.320312 319.394531 398.3125 319.917969 392.28125 C 320.445312 386.25 321.675781 380.367188 323.605469 374.632812 C 324.5 372.1875 325.578125 369.832031 326.847656 367.5625 C 328.121094 365.292969 329.5625 363.140625 331.179688 361.101562 C 332.792969 359.0625 334.5625 357.167969 336.484375 355.414062 C 338.402344 353.660156 340.449219 352.070312 342.625 350.644531 C 343.976562 349.78125 345.355469 348.972656 346.769531 348.21875 C 348.183594 347.464844 349.625 346.769531 351.089844 346.128906 C 352.558594 345.488281 354.050781 344.90625 355.5625 344.382812 C 357.078125 343.859375 358.609375 343.398438 360.160156 342.996094 C 361.710938 342.59375 363.273438 342.25 364.851562 341.972656 C 366.425781 341.691406 368.011719 341.476562 369.605469 341.320312 C 371.199219 341.164062 372.796875 341.074219 374.398438 341.042969 C 376 341.015625 377.601562 341.050781 379.199219 341.148438 C 380.796875 341.242188 382.390625 341.402344 383.976562 341.625 C 385.5625 341.847656 387.136719 342.132812 388.699219 342.476562 C 390.265625 342.824219 391.8125 343.230469 393.34375 343.699219 C 394.875 344.167969 396.386719 344.695312 397.875 345.28125 C 399.367188 345.867188 400.832031 346.511719 402.269531 347.214844 C 403.710938 347.917969 405.117188 348.675781 406.5 349.488281 C 407.878906 350.300781 409.222656 351.167969 410.535156 352.085938 C 411.847656 353.003906 413.121094 353.976562 414.355469 354.992188 C 416.703125 357.140625 418.839844 359.484375 420.757812 362.023438 C 422.675781 364.566406 424.347656 367.257812 425.773438 370.105469 C 427.195312 372.953125 428.347656 375.90625 429.230469 378.964844 C 430.109375 382.023438 430.703125 385.136719 431.011719 388.304688 C 431.730469 397.886719 431.332031 407.425781 429.820312 416.914062 C 428.308594 426.40625 425.722656 435.59375 422.0625 444.480469 C 420.738281 448.046875 419.285156 451.609375 417.710938 455.171875 C 417.027344 456.695312 416.441406 458.257812 415.964844 459.859375 C 415.484375 461.460938 415.113281 463.089844 414.847656 464.738281 C 414.582031 466.390625 414.425781 468.050781 414.378906 469.722656 C 414.335938 471.394531 414.398438 473.0625 414.574219 474.722656 C 414.746094 476.386719 415.027344 478.03125 415.417969 479.65625 C 415.808594 481.28125 416.304688 482.875 416.90625 484.433594 C 417.507812 485.996094 418.207031 487.507812 419.007812 488.976562 C 419.808594 490.445312 420.703125 491.855469 421.691406 493.203125 C 427.988281 501.488281 433.957031 509.070312 439.589844 515.949219 C 440.027344 516.472656 440.496094 516.964844 440.996094 517.433594 C 441.492188 517.898438 442.015625 518.335938 442.566406 518.738281 C 443.117188 519.140625 443.691406 519.507812 444.289062 519.839844 C 444.882812 520.175781 445.496094 520.472656 446.125 520.730469 C 446.757812 520.992188 447.402344 521.210938 448.058594 521.390625 C 448.71875 521.574219 449.386719 521.714844 450.058594 521.816406 C 450.734375 521.914062 451.414062 521.976562 452.09375 521.992188 C 452.777344 522.011719 453.457031 521.988281 454.136719 521.925781 C 454.816406 521.859375 455.488281 521.757812 456.15625 521.609375 C 456.824219 521.464844 457.480469 521.28125 458.125 521.054688 C 458.765625 520.832031 459.394531 520.566406 460.007812 520.265625 C 460.621094 519.964844 461.210938 519.628906 461.785156 519.257812 C 462.355469 518.882812 462.902344 518.480469 463.425781 518.039062 C 463.949219 517.601562 464.441406 517.132812 464.910156 516.632812 C 465.375 516.136719 465.808594 515.609375 466.210938 515.058594 C 466.613281 514.507812 466.980469 513.933594 467.3125 513.339844 C 469.882812 508.699219 472.285156 504.058594 474.523438 499.417969 C 478.453125 491.921875 481.972656 484.238281 485.085938 476.363281 C 488.195312 468.492188 490.878906 460.476562 493.136719 452.316406 C 495.394531 444.160156 497.210938 435.90625 498.585938 427.550781 C 499.964844 419.199219 500.894531 410.800781 501.375 402.347656 C 501.648438 396.613281 501.554688 390.886719 501.101562 385.164062 C 500.644531 379.441406 499.832031 373.769531 498.65625 368.152344 C 497.484375 362.53125 495.957031 357.011719 494.082031 351.585938 C 492.207031 346.160156 489.996094 340.875 487.453125 335.730469 C 485.714844 332.363281 483.824219 329.085938 481.78125 325.898438 C 479.734375 322.710938 477.546875 319.628906 475.210938 316.644531 C 472.875 313.664062 470.40625 310.796875 467.804688 308.046875 C 465.199219 305.296875 462.472656 302.675781 459.625 300.179688 C 456.773438 297.6875 453.8125 295.332031 450.742188 293.117188 C 447.671875 290.902344 444.5 288.832031 441.234375 286.914062 C 437.96875 284.996094 434.621094 283.234375 431.191406 281.632812 C 427.761719 280.027344 424.261719 278.589844 420.695312 277.3125 C 414.101562 274.960938 407.363281 273.140625 400.484375 271.851562 C 393.601562 270.5625 386.660156 269.824219 379.664062 269.636719 C 372.664062 269.445312 365.695312 269.808594 358.753906 270.71875 C 351.8125 271.632812 344.988281 273.082031 338.277344 275.074219 C 331.871094 276.910156 325.65625 279.246094 319.628906 282.09375 C 313.605469 284.9375 307.851562 288.25 302.367188 292.035156 C 296.882812 295.816406 291.742188 300.019531 286.941406 304.636719 C 282.140625 309.257812 277.746094 314.234375 273.757812 319.570312 C 270.300781 324.308594 267.1875 329.265625 264.421875 334.4375 C 261.660156 339.613281 259.265625 344.953125 257.25 350.460938 C 255.230469 355.96875 253.605469 361.585938 252.371094 367.324219 C 251.140625 373.058594 250.3125 378.847656 249.890625 384.699219 C 249.429688 392.695312 249.445312 400.6875 249.929688 408.683594 C 250.417969 416.675781 251.371094 424.613281 252.796875 432.496094 C 254.21875 440.375 256.101562 448.148438 258.445312 455.804688 C 260.785156 463.464844 263.570312 470.957031 266.796875 478.289062 C 274.78125 496.996094 283.976562 515.089844 294.382812 532.570312 C 304.789062 550.046875 316.3125 566.753906 328.953125 582.691406 C 338.648438 595.121094 356.175781 614.882812 374.824219 634.273438 C 393.011719 654.019531 413.191406 671.460938 435.363281 686.597656 C 441.96875 691.199219 448.832031 695.375 455.957031 699.121094 C 463.082031 702.863281 470.414062 706.152344 477.949219 708.980469 C 485.484375 711.8125 493.167969 714.160156 501 716.03125 C 508.828125 717.898438 516.742188 719.277344 524.746094 720.15625 C 529.152344 720.625 533.574219 720.902344 538.003906 720.988281 C 542.4375 721.070312 546.863281 720.964844 551.285156 720.664062 C 555.710938 720.367188 560.109375 719.875 564.492188 719.195312 C 568.871094 718.515625 573.214844 717.644531 577.519531 716.589844 C 581.824219 715.53125 586.074219 714.289062 590.269531 712.863281 C 594.46875 711.4375 598.59375 709.832031 602.652344 708.046875 C 606.710938 706.261719 610.683594 704.308594 614.570312 702.179688 C 618.460938 700.050781 622.246094 697.757812 625.9375 695.296875 C 628.625 693.476562 631.25 691.574219 633.820312 689.589844 C 636.386719 687.605469 638.894531 685.542969 641.332031 683.402344 C 643.773438 681.265625 646.148438 679.050781 648.449219 676.765625 C 650.753906 674.476562 652.984375 672.121094 655.140625 669.695312 C 657.296875 667.269531 659.378906 664.78125 661.382812 662.226562 C 663.382812 659.671875 665.304688 657.058594 667.148438 654.386719 C 668.988281 651.710938 670.742188 648.984375 672.414062 646.203125 C 674.085938 643.421875 675.671875 640.589844 677.167969 637.707031 C 678.660156 634.828125 680.066406 631.90625 681.382812 628.9375 C 682.695312 625.96875 683.917969 622.964844 685.046875 619.921875 C 686.171875 616.878906 687.207031 613.800781 688.144531 610.695312 C 689.082031 607.585938 689.921875 604.453125 690.664062 601.292969 C 691.40625 598.136719 692.050781 594.957031 692.59375 591.757812 C 693.140625 588.558594 693.585938 585.34375 693.933594 582.117188 C 694.28125 578.890625 694.527344 575.65625 694.671875 572.414062 C 694.816406 569.171875 694.863281 565.925781 694.804688 562.683594 Z M 694.558594 562.433594 " fill-opacity="1" fill-rule="nonzero"/></g></svg>