<svg xmlns="http://www.w3.org/2000/svg" xmlns:xlink="http://www.w3.org/1999/xlink" width="1000" zoomAndPan="magnify" viewBox="0 0 750 225" height="300" preserveAspectRatio="xMidYMid meet" version="1.0"><defs><g/><clipPath id="id1"><path d="M 54 38 L 165 38 L 165 187.511719 L 54 187.511719 Z M 54 38 " clip-rule="nonzero"/></clipPath><clipPath id="id2"><path d="M 97 100 L 219.75 100 L 219.75 183 L 97 183 Z M 97 100 " clip-rule="nonzero"/></clipPath><clipPath id="id3"><path d="M 22.5 37.511719 L 116 37.511719 L 116 183 L 22.5 183 Z M 22.5 37.511719 " clip-rule="nonzero"/></clipPath></defs><g clip-path="url(#id1)"><path fill="#126abf" d="M 138.078125 181.5 C 136.046875 181.5 134.398438 179.851562 134.398438 177.816406 C 134.398438 175.785156 136.046875 174.136719 138.078125 174.136719 C 140.113281 174.136719 141.761719 175.785156 141.761719 177.816406 C 141.761719 179.851562 140.113281 181.5 138.078125 181.5 Z M 154.851562 78.023438 C 152.816406 78.023438 151.167969 76.375 151.167969 74.339844 C 151.167969 72.308594 152.816406 70.65625 154.851562 70.65625 C 156.882812 70.65625 158.53125 72.308594 158.53125 74.339844 C 158.53125 76.375 156.882812 78.023438 154.851562 78.023438 Z M 138.078125 168.140625 C 134.785156 168.140625 131.878906 169.789062 130.128906 172.304688 L 69.027344 172.230469 L 136.796875 53.714844 L 146.242188 69.921875 C 145.5625 71.246094 145.171875 72.75 145.171875 74.339844 C 145.171875 79.683594 149.507812 84.019531 154.851562 84.019531 C 160.195312 84.019531 164.527344 79.683594 164.527344 74.339844 C 164.527344 69.257812 160.609375 65.097656 155.632812 64.699219 L 140.261719 39.222656 C 140.261719 39.222656 135.71875 34.742188 130.570312 43.675781 L 56.164062 172.804688 C 56.164062 172.804688 49.734375 182.203125 60.121094 182.699219 L 129.726562 182.699219 C 131.40625 185.566406 134.515625 187.496094 138.078125 187.496094 C 143.421875 187.496094 147.753906 183.164062 147.753906 177.820312 C 147.753906 172.472656 143.421875 168.140625 138.078125 168.140625 Z M 138.078125 168.140625 " fill-opacity="1" fill-rule="nonzero"/></g><g clip-path="url(#id2)"><path fill="#f7b35a" d="M 132.671875 100.597656 C 141.144531 100.394531 169.351562 99.492188 173.964844 101.8125 C 176.558594 103.117188 179.722656 109.839844 181.320312 112.265625 C 191.332031 127.457031 217.925781 173.296875 217.925781 173.296875 C 217.925781 173.296875 223.367188 180.71875 215.453125 182.699219 L 172.910156 182.699219 C 172.910156 182.699219 170.4375 183.328125 167.46875 177.816406 L 150.15625 147.574219 L 109.378906 147.574219 L 109.367188 147.59375 L 97.589844 147.59375 C 103.941406 136.714844 116.835938 114.742188 125.601562 100.597656 Z M 132.671875 100.597656 " fill-opacity="1" fill-rule="nonzero"/></g><g clip-path="url(#id3)"><path fill="#126abf" d="M 32.25 176.894531 C 34.28125 176.894531 35.933594 175.246094 35.933594 173.214844 C 35.933594 171.179688 34.28125 169.53125 32.25 169.53125 C 30.214844 169.53125 28.566406 171.179688 28.566406 173.214844 C 28.566406 175.246094 30.214844 176.894531 32.25 176.894531 Z M 100.863281 55.253906 C 100.890625 55.273438 100.921875 55.296875 100.953125 55.316406 Z M 103.59375 56.484375 C 103.636719 56.496094 103.679688 56.507812 103.722656 56.519531 Z M 103.972656 56.574219 C 104.003906 56.578125 104.03125 56.585938 104.058594 56.589844 C 104.03125 56.585938 104.003906 56.578125 103.972656 56.574219 Z M 106.007812 56.789062 L 90.257812 84.335938 L 41.039062 169.589844 L 41.035156 169.578125 C 41.464844 170.675781 41.703125 171.867188 41.703125 173.117188 C 41.703125 178.460938 37.371094 182.796875 32.027344 182.796875 C 28.464844 182.796875 25.351562 180.867188 23.671875 177.996094 L 23.585938 177.996094 C 22.753906 176.5625 22.277344 174.894531 22.277344 173.117188 C 22.277344 171.070312 22.910156 169.171875 23.988281 167.601562 L 24.078125 167.601562 C 25.824219 165.085938 28.734375 163.441406 32.027344 163.441406 C 32.195312 163.441406 32.359375 163.445312 32.523438 163.453125 L 32.519531 163.453125 L 97.175781 51.242188 L 97.207031 51.300781 C 96.601562 50.03125 96.261719 48.609375 96.261719 47.113281 C 96.261719 45.0625 96.894531 43.164062 97.972656 41.597656 L 98.0625 41.597656 C 99.808594 39.082031 102.714844 37.433594 106.011719 37.433594 C 111.355469 37.433594 115.6875 41.765625 115.6875 47.113281 C 115.6875 52.457031 111.355469 56.789062 106.011719 56.789062 Z M 41.019531 169.539062 C 40.996094 169.484375 40.976562 169.433594 40.953125 169.378906 C 40.976562 169.433594 40.996094 169.484375 41.019531 169.539062 Z M 40.929688 169.324219 C 40.90625 169.269531 40.882812 169.21875 40.859375 169.164062 C 40.882812 169.21875 40.90625 169.269531 40.929688 169.324219 Z M 40.84375 169.125 C 40.816406 169.0625 40.785156 169 40.753906 168.933594 C 40.785156 169 40.816406 169.0625 40.84375 169.125 Z M 40.730469 168.890625 C 40.707031 168.839844 40.683594 168.789062 40.660156 168.742188 C 40.683594 168.789062 40.707031 168.839844 40.730469 168.890625 Z M 40.632812 168.6875 C 40.601562 168.632812 40.574219 168.578125 40.542969 168.523438 C 40.574219 168.578125 40.601562 168.632812 40.632812 168.6875 Z M 40.53125 168.5 C 40.5 168.4375 40.464844 168.378906 40.429688 168.316406 C 40.464844 168.378906 40.5 168.4375 40.53125 168.5 Z M 40.402344 168.269531 C 40.375 168.222656 40.347656 168.175781 40.320312 168.132812 C 40.347656 168.175781 40.375 168.222656 40.402344 168.269531 Z M 40.289062 168.078125 C 40.253906 168.023438 40.21875 167.964844 40.183594 167.90625 C 40.21875 167.964844 40.253906 168.023438 40.289062 168.078125 Z M 40.175781 167.902344 C 40.140625 167.84375 40.101562 167.785156 40.0625 167.726562 C 40.101562 167.785156 40.140625 167.84375 40.175781 167.902344 Z M 40.027344 167.675781 C 40 167.632812 39.96875 167.589844 39.9375 167.546875 C 39.96875 167.589844 40 167.632812 40.027344 167.675781 Z M 39.90625 167.5 C 39.867188 167.441406 39.824219 167.386719 39.785156 167.332031 C 39.824219 167.386719 39.867188 167.441406 39.90625 167.5 Z M 39.765625 167.3125 C 39.730469 167.261719 39.691406 167.214844 39.65625 167.164062 C 39.691406 167.214844 39.730469 167.261719 39.765625 167.3125 Z M 39.617188 167.117188 C 39.582031 167.074219 39.550781 167.03125 39.515625 166.988281 C 39.550781 167.03125 39.582031 167.074219 39.617188 167.117188 Z M 39.484375 166.953125 C 39.4375 166.898438 39.394531 166.84375 39.347656 166.792969 C 39.394531 166.84375 39.4375 166.898438 39.484375 166.953125 Z M 39.324219 166.761719 C 39.285156 166.71875 39.25 166.675781 39.210938 166.636719 C 39.25 166.675781 39.285156 166.71875 39.324219 166.761719 Z M 39.167969 166.585938 C 39.128906 166.546875 39.089844 166.503906 39.050781 166.464844 C 39.089844 166.503906 39.128906 166.546875 39.167969 166.585938 Z M 39.023438 166.433594 C 38.976562 166.386719 38.929688 166.335938 38.878906 166.285156 C 38.929688 166.335938 38.976562 166.382812 39.023438 166.433594 Z M 38.839844 166.25 C 38.804688 166.210938 38.765625 166.175781 38.726562 166.136719 C 38.765625 166.175781 38.804688 166.210938 38.839844 166.25 Z M 38.683594 166.09375 C 38.636719 166.050781 38.589844 166.007812 38.546875 165.964844 C 38.589844 166.007812 38.636719 166.050781 38.683594 166.09375 Z M 38.53125 165.953125 C 38.476562 165.90625 38.425781 165.859375 38.375 165.8125 C 38.425781 165.859375 38.476562 165.90625 38.53125 165.953125 Z M 38.328125 165.777344 C 38.289062 165.742188 38.25 165.707031 38.207031 165.671875 C 38.25 165.707031 38.289062 165.742188 38.328125 165.777344 Z M 38 165.503906 C 37.945312 165.460938 37.890625 165.421875 37.835938 165.378906 C 37.890625 165.421875 37.945312 165.460938 38 165.503906 Z M 37.785156 165.339844 C 37.742188 165.308594 37.699219 165.277344 37.65625 165.246094 C 37.699219 165.277344 37.742188 165.308594 37.785156 165.339844 Z M 37.613281 165.214844 C 37.554688 165.175781 37.5 165.136719 37.441406 165.097656 C 37.5 165.136719 37.554688 165.175781 37.613281 165.214844 Z M 37.414062 165.078125 C 37.363281 165.046875 37.316406 165.015625 37.265625 164.980469 C 37.316406 165.015625 37.363281 165.046875 37.414062 165.078125 Z M 37.210938 164.945312 C 37.164062 164.917969 37.117188 164.886719 37.070312 164.859375 C 37.117188 164.886719 37.164062 164.917969 37.210938 164.945312 Z M 37.03125 164.835938 C 36.972656 164.800781 36.914062 164.765625 36.855469 164.730469 C 36.914062 164.765625 36.972656 164.800781 37.03125 164.835938 Z M 36.808594 164.703125 C 36.761719 164.675781 36.714844 164.652344 36.667969 164.625 C 36.714844 164.652344 36.761719 164.675781 36.808594 164.703125 Z M 36.613281 164.59375 C 36.5625 164.566406 36.507812 164.539062 36.457031 164.515625 C 36.507812 164.539062 36.5625 164.566406 36.613281 164.59375 Z M 36.421875 164.496094 C 36.359375 164.464844 36.296875 164.433594 36.234375 164.402344 C 36.296875 164.433594 36.359375 164.464844 36.421875 164.496094 Z M 36.1875 164.378906 C 36.140625 164.355469 36.089844 164.332031 36.039062 164.3125 C 36.089844 164.332031 36.140625 164.355469 36.1875 164.378906 Z M 35.984375 164.285156 C 35.925781 164.257812 35.867188 164.234375 35.808594 164.210938 C 35.867188 164.234375 35.925781 164.257812 35.984375 164.285156 Z M 35.789062 164.199219 C 35.722656 164.171875 35.660156 164.144531 35.59375 164.121094 C 35.660156 164.144531 35.722656 164.171875 35.789062 164.199219 Z M 35.539062 164.097656 C 35.488281 164.078125 35.4375 164.058594 35.386719 164.039062 C 35.4375 164.058594 35.488281 164.078125 35.539062 164.097656 Z M 35.332031 164.019531 C 35.265625 163.996094 35.199219 163.972656 35.132812 163.949219 C 35.199219 163.972656 35.265625 163.996094 35.332031 164.019531 Z M 35.117188 163.945312 C 35.054688 163.925781 34.992188 163.902344 34.929688 163.882812 C 34.992188 163.902344 35.054688 163.925781 35.117188 163.945312 Z M 34.867188 163.863281 C 34.816406 163.847656 34.765625 163.835938 34.714844 163.820312 C 34.765625 163.835938 34.816406 163.847656 34.867188 163.863281 Z M 34.65625 163.804688 C 34.589844 163.785156 34.519531 163.765625 34.453125 163.746094 C 34.519531 163.765625 34.589844 163.785156 34.65625 163.804688 Z M 34.417969 163.738281 C 34.359375 163.722656 34.300781 163.710938 34.238281 163.695312 C 34.300781 163.710938 34.359375 163.722656 34.417969 163.738281 Z M 34.179688 163.683594 C 34.121094 163.667969 34.066406 163.65625 34.007812 163.644531 C 34.066406 163.65625 34.121094 163.667969 34.179688 163.683594 Z M 33.964844 163.636719 C 33.894531 163.621094 33.824219 163.605469 33.75 163.59375 C 33.824219 163.605469 33.894531 163.621094 33.964844 163.636719 Z M 33.707031 163.585938 C 33.648438 163.578125 33.589844 163.566406 33.535156 163.558594 C 33.589844 163.566406 33.648438 163.578125 33.707031 163.585938 Z M 33.46875 163.546875 C 33.40625 163.539062 33.34375 163.53125 33.28125 163.523438 C 33.34375 163.53125 33.40625 163.539062 33.46875 163.546875 Z M 33.253906 163.519531 C 33.179688 163.507812 33.105469 163.5 33.03125 163.492188 C 33.105469 163.5 33.179688 163.507812 33.253906 163.519531 Z M 32.980469 163.488281 C 32.921875 163.480469 32.867188 163.476562 32.808594 163.472656 C 32.867188 163.476562 32.921875 163.480469 32.980469 163.488281 Z M 32.746094 163.46875 C 32.671875 163.460938 32.601562 163.457031 32.53125 163.453125 C 32.601562 163.457031 32.671875 163.460938 32.746094 163.46875 Z M 97.28125 51.457031 C 97.300781 51.496094 97.320312 51.535156 97.339844 51.574219 C 97.320312 51.535156 97.300781 51.496094 97.28125 51.457031 Z M 97.535156 51.933594 C 97.546875 51.953125 97.558594 51.972656 97.570312 51.992188 Z M 106.011719 50.796875 C 108.042969 50.796875 109.695312 49.148438 109.695312 47.113281 C 109.695312 45.078125 108.042969 43.429688 106.011719 43.429688 C 103.976562 43.429688 102.328125 45.078125 102.328125 47.113281 C 102.328125 49.148438 103.976562 50.796875 106.011719 50.796875 Z M 106.007812 56.789062 C 105.953125 56.789062 105.898438 56.789062 105.84375 56.789062 L 105.839844 56.789062 C 105.785156 56.785156 105.730469 56.785156 105.675781 56.785156 C 105.621094 56.78125 105.566406 56.78125 105.511719 56.777344 L 105.507812 56.777344 C 105.457031 56.773438 105.402344 56.769531 105.347656 56.765625 L 105.34375 56.765625 C 105.289062 56.761719 105.238281 56.757812 105.183594 56.753906 L 105.179688 56.753906 C 105.128906 56.75 105.074219 56.746094 105.019531 56.738281 C 104.964844 56.734375 104.910156 56.726562 104.859375 56.722656 L 104.855469 56.722656 C 104.800781 56.714844 104.75 56.707031 104.695312 56.699219 C 104.640625 56.695312 104.589844 56.6875 104.535156 56.679688 L 104.535156 56.675781 C 104.480469 56.667969 104.429688 56.660156 104.375 56.652344 C 104.320312 56.644531 104.269531 56.632812 104.21875 56.625 L 104.214844 56.625 C 104.164062 56.613281 104.113281 56.601562 104.058594 56.59375 Z M 39.945312 165.699219 L 39.949219 165.703125 C 40.003906 165.746094 40.058594 165.789062 40.109375 165.832031 L 40.15625 165.871094 Z M 39.945312 165.699219 " fill-opacity="1" fill-rule="nonzero"/></g><g fill="#126abf" fill-opacity="1"><g transform="translate(230.567323, 135.708825)"><g><path d="M 14.84375 0.4375 C 11.6875 0.144531 7.988281 0 3.75 0 L -0.609375 0 L 23.40625 -67.296875 C 24.476562 -70.316406 25.015625 -72.070312 25.015625 -72.5625 C 25.015625 -73.0625 24.992188 -73.367188 24.953125 -73.484375 L 25.015625 -73.59375 C 27.398438 -73.476562 29.9375 -73.421875 32.625 -73.421875 C 34.832031 -73.421875 37.484375 -73.457031 40.578125 -73.53125 L 40.625 -73.421875 C 40.550781 -73.273438 40.515625 -73.070312 40.515625 -72.8125 C 40.515625 -72.113281 41.066406 -70.253906 42.171875 -67.234375 L 66.6875 0.171875 C 65.945312 0.128906 65.082031 0.109375 64.09375 0.109375 C 64.09375 0.109375 63.132812 0.0703125 61.21875 0 C 60.300781 0 59.472656 0 58.734375 0 L 50.1875 0 L 45 -15.90625 L 20.046875 -15.90625 Z M 40.6875 -29.15625 L 32.34375 -54.8125 L 24.234375 -29.15625 Z M 40.6875 -29.15625 "/></g></g></g><g fill="#126abf" fill-opacity="1"><g transform="translate(294.953163, 135.708825)"><g><path d="M 24.40625 0.328125 C 22.632812 0.109375 19.226562 0 14.1875 0 L 9.765625 0 L 9.765625 -73.640625 C 12.128906 -73.492188 14.726562 -73.421875 17.5625 -73.421875 C 20.394531 -73.421875 22.398438 -73.566406 23.578125 -73.859375 L 42.125 -42.34375 L 59.953125 -73.859375 C 61.128906 -73.566406 63.375 -73.421875 66.6875 -73.421875 C 70 -73.421875 72.832031 -73.492188 75.1875 -73.640625 L 75.1875 0 L 70.78125 0 C 65.738281 0 62.332031 0.109375 60.5625 0.328125 L 60.5625 -49.140625 L 42.515625 -16.84375 L 24.40625 -46.53125 Z M 24.40625 0.328125 "/></g></g></g><g fill="#126abf" fill-opacity="1"><g transform="translate(378.219542, 135.708825)"><g><path d="M 53.828125 -69.34375 L 52.78125 -53.109375 L 52.390625 -53 C 49.671875 -57.082031 45.035156 -59.734375 38.484375 -60.953125 C 36.421875 -61.359375 34.441406 -61.5625 32.546875 -61.5625 C 30.648438 -61.5625 29.03125 -61.394531 27.6875 -61.0625 C 26.34375 -60.726562 25.191406 -60.25 24.234375 -59.625 C 22.210938 -58.300781 21.203125 -56.570312 21.203125 -54.4375 C 21.203125 -51.632812 22.082031 -49.535156 23.84375 -48.140625 C 26.050781 -46.441406 29.710938 -45.253906 34.828125 -44.578125 C 39.953125 -43.898438 44.054688 -42.972656 47.140625 -41.796875 C 50.234375 -40.617188 52.773438 -39.125 54.765625 -37.3125 C 58.515625 -33.925781 60.390625 -29.144531 60.390625 -22.96875 C 60.390625 -14.875 57.335938 -8.632812 51.234375 -4.25 C 46.003906 -0.5 39.414062 1.375 31.46875 1.375 C 25.0625 1.375 18.734375 0.160156 12.484375 -2.265625 C 10.421875 -3.078125 8.613281 -4.015625 7.0625 -5.078125 L 7.671875 -23.515625 L 7.890625 -23.6875 C 12.453125 -15.8125 19.941406 -11.875 30.359375 -11.875 C 37.753906 -11.875 42.648438 -13.65625 45.046875 -17.21875 C 45.859375 -18.4375 46.265625 -19.789062 46.265625 -21.28125 C 46.265625 -22.769531 46.023438 -24 45.546875 -24.96875 C 45.066406 -25.945312 44.273438 -26.789062 43.171875 -27.5 C 41.035156 -28.894531 37.445312 -29.832031 32.40625 -30.3125 C 27.363281 -30.789062 23.238281 -31.691406 20.03125 -33.015625 C 16.832031 -34.335938 14.273438 -35.972656 12.359375 -37.921875 C 8.898438 -41.453125 7.171875 -46.382812 7.171875 -52.71875 C 7.171875 -59.269531 9.472656 -64.570312 14.078125 -68.625 C 18.753906 -72.738281 25.054688 -74.796875 32.984375 -74.796875 C 40.910156 -74.796875 47.859375 -72.976562 53.828125 -69.34375 Z M 53.828125 -69.34375 "/></g></g></g><g fill="#126abf" fill-opacity="1"><g transform="translate(442.384558, 135.708825)"><g/></g></g><g fill="#f7b35a" fill-opacity="1"><g transform="translate(478.170945, 135.708825)"><g><path d="M 36 0.328125 C 34.226562 0.109375 29.679688 0 22.359375 0 L 20.59375 0 L 20.59375 -61.0625 L 9.65625 -61.0625 C 6.414062 -61.0625 4.5 -60.894531 3.90625 -60.5625 C 3.320312 -60.226562 2.867188 -59.929688 2.546875 -59.671875 L 2.375 -59.734375 L 2.375 -73.859375 L 2.546875 -74.03125 C 3.753906 -73.625 7.023438 -73.421875 12.359375 -73.421875 L 46.984375 -73.421875 C 50.222656 -73.421875 52.132812 -73.585938 52.71875 -73.921875 C 53.3125 -74.253906 53.773438 -74.546875 54.109375 -74.796875 L 54.265625 -74.75 L 54.265625 -60.609375 L 54.109375 -60.453125 C 52.890625 -60.859375 49.613281 -61.0625 44.28125 -61.0625 L 36 -61.0625 Z M 36 0.328125 "/></g></g></g><g fill="#f7b35a" fill-opacity="1"><g transform="translate(533.11651, 135.708825)"><g><path d="M 46.421875 -13.25 C 48.703125 -13.25 50.285156 -13.46875 51.171875 -13.90625 L 51.390625 -13.859375 L 50.84375 0 L 9.5 0 L 9.5 -73.8125 C 10.488281 -73.738281 11.59375 -73.679688 12.8125 -73.640625 L 16.671875 -73.53125 C 19.242188 -73.457031 22.039062 -73.421875 25.0625 -73.421875 C 33.488281 -73.421875 41.828125 -73.566406 50.078125 -73.859375 C 49.671875 -70.628906 49.46875 -66.304688 49.46875 -60.890625 C 49.46875 -60.304688 49.503906 -59.863281 49.578125 -59.5625 L 49.46875 -59.40625 C 47.550781 -59.957031 44.828125 -60.234375 41.296875 -60.234375 L 23.90625 -60.234375 L 23.90625 -46.15625 L 36.984375 -46.15625 C 41.035156 -46.15625 43.46875 -46.265625 44.28125 -46.484375 L 44.4375 -32.84375 C 42.675781 -33.03125 40.394531 -33.125 37.59375 -33.125 L 23.90625 -33.125 L 23.90625 -13.25 Z M 46.421875 -13.25 "/></g></g></g><g fill="#f7b35a" fill-opacity="1"><g transform="translate(588.062074, 135.708825)"><g><path d="M 42.40625 -74.796875 C 49.28125 -74.796875 55.148438 -73.601562 60.015625 -71.21875 L 60.015625 -54.328125 L 59.90625 -54.21875 C 57.84375 -57.375 53.5 -59.46875 46.875 -60.5 C 44.914062 -60.832031 42.445312 -61 39.46875 -61 C 36.488281 -61 33.5625 -60.4375 30.6875 -59.3125 C 27.820312 -58.195312 25.46875 -56.609375 23.625 -54.546875 C 20.050781 -50.535156 18.265625 -44.8125 18.265625 -37.375 C 18.265625 -28.726562 20.53125 -22.285156 25.0625 -18.046875 C 28.8125 -14.515625 33.78125 -12.75 39.96875 -12.75 C 46.957031 -12.75 52.625 -14.238281 56.96875 -17.21875 C 58.550781 -18.289062 59.894531 -19.617188 61 -21.203125 L 61.171875 -21.09375 L 61.171875 -5.625 C 55.535156 -0.957031 47.953125 1.375 38.421875 1.375 C 27.191406 1.375 18.394531 -2.191406 12.03125 -9.328125 C 5.925781 -16.140625 2.875 -25.15625 2.875 -36.375 C 2.875 -48.269531 6.222656 -57.640625 12.921875 -64.484375 C 19.691406 -71.359375 29.519531 -74.796875 42.40625 -74.796875 Z M 42.40625 -74.796875 "/></g></g></g><g fill="#f7b35a" fill-opacity="1"><g transform="translate(651.951052, 135.708825)"><g><path d="M 24.40625 0.328125 C 20.863281 0.109375 16.664062 0 11.8125 0 L 10.046875 0 L 10.046875 -73.703125 C 12.328125 -73.515625 13.945312 -73.421875 14.90625 -73.421875 L 17.171875 -73.421875 C 20.078125 -73.421875 22.488281 -73.566406 24.40625 -73.859375 L 24.40625 -44.4375 L 50.34375 -44.4375 L 50.34375 -73.703125 C 53.40625 -73.515625 56.378906 -73.421875 59.265625 -73.421875 C 62.148438 -73.421875 63.960938 -73.566406 64.703125 -73.859375 L 64.703125 0.328125 C 62.929688 0.109375 59.4375 0 54.21875 0 L 50.34375 0 L 50.34375 -31.1875 L 24.40625 -31.1875 Z M 24.40625 0.328125 "/></g></g></g><g fill="#126abf" fill-opacity="1"><g transform="translate(307.805602, 179.450131)"><g><path d="M 6.953125 0.34375 C 5.441406 0.34375 4.019531 0.222656 2.6875 -0.015625 L 2.6875 -18.78125 C 3.914062 -18.9375 5.34375 -19.015625 6.96875 -19.015625 C 8.601562 -19.015625 10.082031 -18.789062 11.40625 -18.34375 C 12.738281 -17.894531 13.847656 -17.257812 14.734375 -16.4375 C 16.523438 -14.789062 17.421875 -12.488281 17.421875 -9.53125 C 17.421875 -6.207031 16.421875 -3.6875 14.421875 -1.96875 C 12.628906 -0.425781 10.140625 0.34375 6.953125 0.34375 Z M 6.328125 -3.078125 C 6.929688 -2.960938 7.535156 -2.90625 8.140625 -2.90625 C 8.753906 -2.90625 9.410156 -3.023438 10.109375 -3.265625 C 10.816406 -3.503906 11.425781 -3.875 11.9375 -4.375 C 13.039062 -5.445312 13.59375 -7 13.59375 -9.03125 C 13.59375 -12.382812 12.375 -14.441406 9.9375 -15.203125 C 9.132812 -15.460938 8.203125 -15.59375 7.140625 -15.59375 L 6.765625 -15.59375 C 6.617188 -15.59375 6.472656 -15.585938 6.328125 -15.578125 Z M 6.328125 -3.078125 "/></g></g></g><g fill="#126abf" fill-opacity="1"><g transform="translate(335.435083, 179.450131)"><g><path d="M 2.84375 -18.71875 C 3.78125 -18.675781 4.347656 -18.65625 4.546875 -18.65625 L 5.5625 -18.65625 C 6.050781 -18.65625 6.445312 -18.691406 6.75 -18.765625 L 6.734375 0 L 2.84375 0 Z M 2.84375 -18.71875 "/></g></g></g><g fill="#126abf" fill-opacity="1"><g transform="translate(353.530517, 179.450131)"><g><path d="M 17.796875 -11.25 C 17.617188 -10.9375 17.53125 -10.175781 17.53125 -8.96875 L 17.53125 -4.609375 C 17.53125 -3.296875 16.84375 -2.148438 15.46875 -1.171875 C 14.0625 -0.160156 12.332031 0.34375 10.28125 0.34375 C 7.4375 0.34375 5.171875 -0.546875 3.484375 -2.328125 C 1.847656 -4.023438 1.03125 -6.195312 1.03125 -8.84375 C 1.03125 -11.644531 1.859375 -13.984375 3.515625 -15.859375 C 5.378906 -17.960938 7.941406 -19.015625 11.203125 -19.015625 C 13.390625 -19.015625 15.117188 -18.59375 16.390625 -17.75 L 16.15625 -13.609375 L 16.046875 -13.578125 C 15.722656 -14.148438 15.078125 -14.617188 14.109375 -14.984375 C 13.191406 -15.328125 12.226562 -15.5 11.21875 -15.5 C 10.21875 -15.5 9.34375 -15.335938 8.59375 -15.015625 C 7.84375 -14.703125 7.203125 -14.253906 6.671875 -13.671875 C 5.566406 -12.460938 5.015625 -10.863281 5.015625 -8.875 C 5.015625 -7.144531 5.503906 -5.757812 6.484375 -4.71875 C 7.453125 -3.675781 8.707031 -3.15625 10.25 -3.15625 C 11.9375 -3.15625 13.078125 -3.59375 13.671875 -4.46875 C 13.859375 -4.75 13.953125 -5.070312 13.953125 -5.4375 L 13.953125 -7.765625 L 12.140625 -7.765625 C 11.160156 -7.765625 10.628906 -7.675781 10.546875 -7.5 L 10.515625 -7.515625 L 10.375 -11.1875 C 10.644531 -11.101562 11.707031 -11.0625 13.5625 -11.0625 L 15.21875 -11.0625 C 16.25 -11.0625 17.09375 -11.132812 17.75 -11.28125 Z M 17.796875 -11.25 "/></g></g></g><g fill="#126abf" fill-opacity="1"><g transform="translate(381.159997, 179.450131)"><g><path d="M 2.84375 -18.71875 C 3.78125 -18.675781 4.347656 -18.65625 4.546875 -18.65625 L 5.5625 -18.65625 C 6.050781 -18.65625 6.445312 -18.691406 6.75 -18.765625 L 6.734375 0 L 2.84375 0 Z M 2.84375 -18.71875 "/></g></g></g><g fill="#126abf" fill-opacity="1"><g transform="translate(399.255431, 179.450131)"><g><path d="M 9.140625 0.078125 C 8.691406 0.0234375 7.539062 0 5.6875 0 L 5.234375 0 L 5.234375 -15.515625 L 2.453125 -15.515625 C 1.628906 -15.515625 1.140625 -15.472656 0.984375 -15.390625 C 0.835938 -15.304688 0.722656 -15.234375 0.640625 -15.171875 L 0.609375 -15.1875 L 0.609375 -18.765625 L 0.640625 -18.8125 C 0.953125 -18.707031 1.785156 -18.65625 3.140625 -18.65625 L 11.9375 -18.65625 C 12.757812 -18.65625 13.242188 -18.695312 13.390625 -18.78125 C 13.546875 -18.863281 13.664062 -18.941406 13.75 -19.015625 L 13.796875 -19 L 13.796875 -15.40625 L 13.75 -15.359375 C 13.4375 -15.460938 12.601562 -15.515625 11.25 -15.515625 L 9.140625 -15.515625 Z M 9.140625 0.078125 "/></g></g></g><g fill="#126abf" fill-opacity="1"><g transform="translate(422.14593, 179.450131)"><g><path d="M 3.78125 0.109375 C 2.96875 0.0351562 2.023438 0 0.953125 0 L -0.15625 0 L 5.953125 -17.109375 C 6.222656 -17.867188 6.359375 -18.3125 6.359375 -18.4375 C 6.359375 -18.5625 6.351562 -18.640625 6.34375 -18.671875 L 6.359375 -18.703125 C 6.960938 -18.671875 7.609375 -18.65625 8.296875 -18.65625 C 8.859375 -18.65625 9.53125 -18.664062 10.3125 -18.6875 L 10.328125 -18.65625 C 10.304688 -18.625 10.296875 -18.570312 10.296875 -18.5 C 10.296875 -18.320312 10.4375 -17.851562 10.71875 -17.09375 L 16.953125 0.046875 C 16.765625 0.0351562 16.546875 0.03125 16.296875 0.03125 C 16.296875 0.03125 16.050781 0.0195312 15.5625 0 C 15.320312 0 15.109375 0 14.921875 0 L 12.75 0 L 11.4375 -4.046875 L 5.09375 -4.046875 Z M 10.34375 -7.40625 L 8.21875 -13.9375 L 6.15625 -7.40625 Z M 10.34375 -7.40625 "/></g></g></g><g fill="#126abf" fill-opacity="1"><g transform="translate(447.433972, 179.450131)"><g><path d="M 5.15625 0 C 3.78125 0 2.863281 0.0234375 2.40625 0.078125 L 2.40625 -18.75 C 2.632812 -18.6875 3.101562 -18.65625 3.8125 -18.65625 C 4.519531 -18.65625 5.335938 -18.675781 6.265625 -18.71875 L 6.265625 -3.375 L 9.171875 -3.375 C 10.015625 -3.375 10.691406 -3.398438 11.203125 -3.453125 C 11.128906 -1.265625 11.09375 -0.128906 11.09375 -0.046875 L 11.09375 0.09375 C 10.175781 0.03125 8.640625 0 6.484375 0 Z M 5.15625 0 "/></g></g></g><g fill="#126abf" fill-opacity="1"><g transform="translate(467.92695, 179.450131)"><g><path d="M 3.78125 0.109375 C 2.96875 0.0351562 2.023438 0 0.953125 0 L -0.15625 0 L 5.953125 -17.109375 C 6.222656 -17.867188 6.359375 -18.3125 6.359375 -18.4375 C 6.359375 -18.5625 6.351562 -18.640625 6.34375 -18.671875 L 6.359375 -18.703125 C 6.960938 -18.671875 7.609375 -18.65625 8.296875 -18.65625 C 8.859375 -18.65625 9.53125 -18.664062 10.3125 -18.6875 L 10.328125 -18.65625 C 10.304688 -18.625 10.296875 -18.570312 10.296875 -18.5 C 10.296875 -18.320312 10.4375 -17.851562 10.71875 -17.09375 L 16.953125 0.046875 C 16.765625 0.0351562 16.546875 0.03125 16.296875 0.03125 C 16.296875 0.03125 16.050781 0.0195312 15.5625 0 C 15.320312 0 15.109375 0 14.921875 0 L 12.75 0 L 11.4375 -4.046875 L 5.09375 -4.046875 Z M 10.34375 -7.40625 L 8.21875 -13.9375 L 6.15625 -7.40625 Z M 10.34375 -7.40625 "/></g></g></g><g fill="#126abf" fill-opacity="1"><g transform="translate(493.214993, 179.450131)"><g><path d="M 17.796875 -11.25 C 17.617188 -10.9375 17.53125 -10.175781 17.53125 -8.96875 L 17.53125 -4.609375 C 17.53125 -3.296875 16.84375 -2.148438 15.46875 -1.171875 C 14.0625 -0.160156 12.332031 0.34375 10.28125 0.34375 C 7.4375 0.34375 5.171875 -0.546875 3.484375 -2.328125 C 1.847656 -4.023438 1.03125 -6.195312 1.03125 -8.84375 C 1.03125 -11.644531 1.859375 -13.984375 3.515625 -15.859375 C 5.378906 -17.960938 7.941406 -19.015625 11.203125 -19.015625 C 13.390625 -19.015625 15.117188 -18.59375 16.390625 -17.75 L 16.15625 -13.609375 L 16.046875 -13.578125 C 15.722656 -14.148438 15.078125 -14.617188 14.109375 -14.984375 C 13.191406 -15.328125 12.226562 -15.5 11.21875 -15.5 C 10.21875 -15.5 9.34375 -15.335938 8.59375 -15.015625 C 7.84375 -14.703125 7.203125 -14.253906 6.671875 -13.671875 C 5.566406 -12.460938 5.015625 -10.863281 5.015625 -8.875 C 5.015625 -7.144531 5.503906 -5.757812 6.484375 -4.71875 C 7.453125 -3.675781 8.707031 -3.15625 10.25 -3.15625 C 11.9375 -3.15625 13.078125 -3.59375 13.671875 -4.46875 C 13.859375 -4.75 13.953125 -5.070312 13.953125 -5.4375 L 13.953125 -7.765625 L 12.140625 -7.765625 C 11.160156 -7.765625 10.628906 -7.675781 10.546875 -7.5 L 10.515625 -7.515625 L 10.375 -11.1875 C 10.644531 -11.101562 11.707031 -11.0625 13.5625 -11.0625 L 15.21875 -11.0625 C 16.25 -11.0625 17.09375 -11.132812 17.75 -11.28125 Z M 17.796875 -11.25 "/></g></g></g><g fill="#126abf" fill-opacity="1"><g transform="translate(520.844461, 179.450131)"><g><path d="M 11.796875 -3.375 C 12.378906 -3.375 12.78125 -3.425781 13 -3.53125 L 13.0625 -3.515625 L 12.921875 0 L 2.40625 0 L 2.40625 -18.765625 C 2.664062 -18.742188 2.945312 -18.726562 3.25 -18.71875 L 4.234375 -18.6875 C 4.890625 -18.664062 5.601562 -18.65625 6.375 -18.65625 C 8.507812 -18.65625 10.625 -18.691406 12.71875 -18.765625 C 12.625 -17.941406 12.578125 -16.84375 12.578125 -15.46875 C 12.578125 -15.320312 12.582031 -15.210938 12.59375 -15.140625 L 12.578125 -15.09375 C 12.085938 -15.238281 11.394531 -15.3125 10.5 -15.3125 L 6.078125 -15.3125 L 6.078125 -11.734375 L 9.40625 -11.734375 C 10.425781 -11.734375 11.039062 -11.757812 11.25 -11.8125 L 11.296875 -8.34375 C 10.847656 -8.394531 10.269531 -8.421875 9.5625 -8.421875 L 6.078125 -8.421875 L 6.078125 -3.375 Z M 11.796875 -3.375 "/></g></g></g><g fill="#126abf" fill-opacity="1"><g transform="translate(543.734971, 179.450131)"><g><path d="M 2.546875 0 C 2.597656 -0.320312 2.625 -0.664062 2.625 -1.03125 L 2.625 -18.65625 L 5.4375 -18.65625 L 12.859375 -6.953125 L 12.859375 -17.703125 C 12.859375 -18.222656 12.8125 -18.539062 12.71875 -18.65625 L 16.515625 -18.65625 C 16.460938 -18.28125 16.4375 -17.867188 16.4375 -17.421875 L 16.4375 0 L 13.53125 0 L 6.203125 -11.234375 L 6.203125 0 Z M 2.546875 0 "/></g></g></g><g fill="#126abf" fill-opacity="1"><g transform="translate(571.294372, 179.450131)"><g><path d="M 9.140625 0.078125 C 8.691406 0.0234375 7.539062 0 5.6875 0 L 5.234375 0 L 5.234375 -15.515625 L 2.453125 -15.515625 C 1.628906 -15.515625 1.140625 -15.472656 0.984375 -15.390625 C 0.835938 -15.304688 0.722656 -15.234375 0.640625 -15.171875 L 0.609375 -15.1875 L 0.609375 -18.765625 L 0.640625 -18.8125 C 0.953125 -18.707031 1.785156 -18.65625 3.140625 -18.65625 L 11.9375 -18.65625 C 12.757812 -18.65625 13.242188 -18.695312 13.390625 -18.78125 C 13.546875 -18.863281 13.664062 -18.941406 13.75 -19.015625 L 13.796875 -19 L 13.796875 -15.40625 L 13.75 -15.359375 C 13.4375 -15.460938 12.601562 -15.515625 11.25 -15.515625 L 9.140625 -15.515625 Z M 9.140625 0.078125 "/></g></g></g><g fill="#126abf" fill-opacity="1"><g transform="translate(594.184882, 179.450131)"><g><path d="M 13.046875 -18.734375 C 13.628906 -18.679688 14.113281 -18.65625 14.5 -18.65625 L 15.65625 -18.65625 C 16.050781 -18.65625 16.460938 -18.691406 16.890625 -18.765625 L 16.890625 -7.171875 C 16.890625 -4.867188 16.191406 -3.019531 14.796875 -1.625 C 13.484375 -0.3125 11.828125 0.34375 9.828125 0.34375 C 7.648438 0.34375 5.890625 -0.21875 4.546875 -1.34375 C 3.035156 -2.613281 2.28125 -4.445312 2.28125 -6.84375 L 2.28125 -18.734375 C 3.0625 -18.679688 3.796875 -18.65625 4.484375 -18.65625 C 5.171875 -18.65625 5.738281 -18.691406 6.1875 -18.765625 L 6.1875 -6.671875 C 6.1875 -5.484375 6.546875 -4.566406 7.265625 -3.921875 C 7.941406 -3.316406 8.785156 -3.015625 9.796875 -3.015625 C 11.285156 -3.015625 12.28125 -3.78125 12.78125 -5.3125 C 12.957031 -5.863281 13.046875 -6.546875 13.046875 -7.359375 Z M 13.046875 -18.734375 "/></g></g></g><g fill="#126abf" fill-opacity="1"><g transform="translate(621.870432, 179.450131)"><g><path d="M 8.453125 -7.25 C 8.171875 -7.226562 7.867188 -7.21875 7.546875 -7.21875 C 7.234375 -7.21875 6.757812 -7.242188 6.125 -7.296875 L 6.125 0 L 2.40625 0 L 2.40625 -18.765625 C 3.71875 -18.929688 5.328125 -19.015625 7.234375 -19.015625 C 9.835938 -19.015625 11.773438 -18.535156 13.046875 -17.578125 C 14.328125 -16.617188 14.96875 -15.132812 14.96875 -13.125 C 14.96875 -11.570312 14.382812 -10.242188 13.21875 -9.140625 C 12.832031 -8.785156 12.390625 -8.476562 11.890625 -8.21875 L 14.765625 -2.1875 C 15.328125 -0.945312 15.753906 -0.207031 16.046875 0.03125 L 15.984375 0.09375 C 15.078125 -0.0507812 13.648438 -0.046875 11.703125 0.109375 Z M 7.5 -15.703125 C 7.03125 -15.703125 6.570312 -15.675781 6.125 -15.625 L 6.125 -10.265625 C 6.582031 -10.203125 7.117188 -10.171875 7.734375 -10.171875 C 8.359375 -10.171875 8.878906 -10.222656 9.296875 -10.328125 C 9.722656 -10.441406 10.085938 -10.609375 10.390625 -10.828125 C 11.054688 -11.328125 11.390625 -12.070312 11.390625 -13.0625 C 11.390625 -14.050781 11.046875 -14.75 10.359375 -15.15625 C 9.710938 -15.519531 8.757812 -15.703125 7.5 -15.703125 Z M 7.5 -15.703125 "/></g></g></g></svg>