<svg xmlns="http://www.w3.org/2000/svg" xmlns:xlink="http://www.w3.org/1999/xlink" width="500" zoomAndPan="magnify" viewBox="0 0 375 374.999991" height="500" preserveAspectRatio="xMidYMid meet" version="1.0"><defs><g/><clipPath id="id1"><path d="M 161 105 L 295.066406 105 L 295.066406 196 L 161 196 Z M 161 105 " clip-rule="nonzero"/></clipPath><clipPath id="id2"><path d="M 79.816406 37.5 L 182 37.5 L 182 196 L 79.816406 196 Z M 79.816406 37.5 " clip-rule="nonzero"/></clipPath></defs><path fill="#126abf" d="M 205.945312 194.445312 C 203.726562 194.445312 201.925781 192.648438 201.925781 190.429688 C 201.925781 188.210938 203.726562 186.414062 205.945312 186.414062 C 208.164062 186.414062 209.964844 188.210938 209.964844 190.429688 C 209.964844 192.648438 208.164062 194.445312 205.945312 194.445312 Z M 224.246094 81.660156 C 222.023438 81.660156 220.226562 79.863281 220.226562 77.644531 C 220.226562 75.429688 222.023438 73.628906 224.246094 73.628906 C 226.464844 73.628906 228.261719 75.429688 228.261719 77.644531 C 228.261719 79.863281 226.464844 81.660156 224.246094 81.660156 Z M 205.945312 179.882812 C 202.347656 179.882812 199.175781 181.675781 197.269531 184.417969 L 130.589844 184.339844 L 204.546875 55.164062 L 214.851562 72.828125 C 214.109375 74.273438 213.683594 75.910156 213.683594 77.644531 C 213.683594 83.46875 218.414062 88.191406 224.246094 88.191406 C 230.078125 88.191406 234.804688 83.46875 234.804688 77.644531 C 234.804688 72.105469 230.53125 67.570312 225.097656 67.136719 L 208.324219 39.367188 C 208.324219 39.367188 203.367188 34.484375 197.746094 44.222656 L 116.554688 184.964844 C 116.554688 184.964844 109.535156 195.210938 120.871094 195.75 L 196.828125 195.75 C 198.660156 198.875 202.054688 200.976562 205.945312 200.976562 C 211.777344 200.976562 216.503906 196.253906 216.503906 190.429688 C 216.503906 184.605469 211.773438 179.882812 205.945312 179.882812 Z M 205.945312 179.882812 " fill-opacity="1" fill-rule="nonzero"/><g clip-path="url(#id1)"><path fill="#f7b35a" d="M 200.042969 106.265625 C 209.289062 106.042969 240.070312 105.058594 245.101562 107.585938 C 247.933594 109.011719 251.386719 116.335938 253.128906 118.980469 C 264.054688 135.539062 293.078125 185.503906 293.078125 185.503906 C 293.078125 185.503906 299.011719 193.589844 290.375 195.75 L 243.953125 195.75 C 243.953125 195.75 241.253906 196.433594 238.015625 190.429688 L 219.121094 157.464844 L 174.625 157.464844 L 174.613281 157.484375 L 161.757812 157.484375 C 168.6875 145.628906 182.761719 121.683594 192.328125 106.265625 Z M 200.042969 106.265625 " fill-opacity="1" fill-rule="nonzero"/></g><g clip-path="url(#id2)"><path fill="#126abf" d="M 90.457031 189.425781 C 92.675781 189.425781 94.476562 187.628906 94.476562 185.410156 C 94.476562 183.191406 92.675781 181.394531 90.457031 181.394531 C 88.238281 181.394531 86.4375 183.191406 86.4375 185.410156 C 86.4375 187.628906 88.238281 189.425781 90.457031 189.425781 Z M 165.328125 56.84375 C 165.363281 56.863281 165.394531 56.886719 165.429688 56.910156 Z M 168.308594 58.183594 C 168.355469 58.195312 168.40625 58.207031 168.453125 58.21875 Z M 168.726562 58.28125 C 168.757812 58.285156 168.789062 58.292969 168.820312 58.300781 C 168.789062 58.292969 168.757812 58.285156 168.726562 58.28125 Z M 170.945312 58.515625 L 153.757812 88.539062 L 100.046875 181.460938 L 100.042969 181.449219 C 100.515625 182.644531 100.773438 183.945312 100.773438 185.308594 C 100.773438 191.132812 96.042969 195.855469 90.214844 195.855469 C 86.324219 195.855469 82.929688 193.753906 81.097656 190.625 L 81 190.625 C 80.09375 189.0625 79.574219 187.246094 79.574219 185.304688 C 79.574219 183.074219 80.261719 181.003906 81.441406 179.296875 L 81.539062 179.296875 C 83.445312 176.554688 86.617188 174.757812 90.214844 174.757812 C 90.394531 174.757812 90.574219 174.761719 90.753906 174.773438 L 90.75 174.773438 L 161.308594 52.46875 L 161.339844 52.53125 C 160.679688 51.148438 160.308594 49.601562 160.308594 47.96875 C 160.308594 45.734375 161 43.664062 162.175781 41.957031 L 162.273438 41.957031 C 164.179688 39.214844 167.355469 37.417969 170.949219 37.417969 C 176.78125 37.417969 181.507812 42.140625 181.507812 47.96875 C 181.507812 53.792969 176.78125 58.515625 170.949219 58.515625 Z M 100.027344 181.40625 C 100.003906 181.347656 99.980469 181.289062 99.953125 181.230469 C 99.980469 181.289062 100.003906 181.347656 100.027344 181.40625 Z M 99.929688 181.171875 C 99.902344 181.113281 99.878906 181.054688 99.851562 181 C 99.878906 181.054688 99.902344 181.113281 99.929688 181.171875 Z M 99.835938 180.957031 C 99.804688 180.886719 99.769531 180.816406 99.738281 180.75 C 99.769531 180.816406 99.804688 180.886719 99.835938 180.957031 Z M 99.714844 180.699219 C 99.6875 180.644531 99.660156 180.589844 99.632812 180.535156 C 99.660156 180.589844 99.6875 180.644531 99.714844 180.699219 Z M 99.601562 180.476562 C 99.570312 180.417969 99.539062 180.359375 99.507812 180.300781 C 99.539062 180.359375 99.570312 180.417969 99.601562 180.476562 Z M 99.496094 180.273438 C 99.457031 180.207031 99.421875 180.140625 99.382812 180.074219 C 99.421875 180.140625 99.457031 180.207031 99.496094 180.273438 Z M 99.351562 180.023438 C 99.324219 179.972656 99.292969 179.921875 99.261719 179.871094 C 99.292969 179.921875 99.324219 179.972656 99.351562 180.023438 Z M 99.230469 179.816406 C 99.191406 179.753906 99.152344 179.691406 99.113281 179.628906 C 99.152344 179.691406 99.191406 179.75 99.230469 179.816406 Z M 99.109375 179.621094 C 99.066406 179.558594 99.027344 179.492188 98.984375 179.433594 C 99.027344 179.496094 99.066406 179.558594 99.109375 179.621094 Z M 98.945312 179.375 C 98.914062 179.328125 98.878906 179.28125 98.847656 179.234375 C 98.878906 179.28125 98.914062 179.328125 98.945312 179.375 Z M 98.8125 179.183594 C 98.765625 179.121094 98.722656 179.0625 98.675781 179 C 98.722656 179.0625 98.765625 179.121094 98.8125 179.183594 Z M 98.660156 178.976562 C 98.621094 178.925781 98.578125 178.871094 98.539062 178.816406 C 98.578125 178.871094 98.621094 178.925781 98.660156 178.976562 Z M 98.496094 178.765625 C 98.460938 178.71875 98.421875 178.671875 98.386719 178.628906 C 98.421875 178.671875 98.460938 178.71875 98.496094 178.765625 Z M 98.351562 178.585938 C 98.300781 178.527344 98.253906 178.46875 98.203125 178.410156 C 98.253906 178.46875 98.300781 178.527344 98.351562 178.585938 Z M 98.175781 178.378906 C 98.136719 178.332031 98.09375 178.289062 98.050781 178.242188 C 98.09375 178.289062 98.136719 178.332031 98.175781 178.378906 Z M 98.003906 178.1875 C 97.964844 178.144531 97.921875 178.097656 97.878906 178.054688 C 97.921875 178.097656 97.964844 178.144531 98.003906 178.1875 Z M 97.847656 178.023438 C 97.796875 177.96875 97.746094 177.914062 97.691406 177.859375 C 97.746094 177.914062 97.796875 177.96875 97.847656 178.023438 Z M 97.648438 177.820312 C 97.609375 177.777344 97.566406 177.738281 97.523438 177.699219 C 97.566406 177.738281 97.609375 177.777344 97.648438 177.820312 Z M 97.476562 177.652344 C 97.425781 177.605469 97.375 177.558594 97.328125 177.511719 C 97.375 177.558594 97.425781 177.605469 97.476562 177.652344 Z M 97.308594 177.496094 C 97.253906 177.445312 97.195312 177.394531 97.140625 177.347656 C 97.195312 177.394531 97.253906 177.445312 97.308594 177.496094 Z M 97.089844 177.304688 C 97.046875 177.265625 97.003906 177.230469 96.957031 177.191406 C 97.003906 177.230469 97.046875 177.265625 97.089844 177.304688 Z M 96.730469 177.007812 C 96.671875 176.960938 96.613281 176.917969 96.550781 176.871094 C 96.613281 176.917969 96.671875 176.960938 96.730469 177.007812 Z M 96.496094 176.832031 C 96.453125 176.796875 96.40625 176.761719 96.355469 176.730469 C 96.40625 176.761719 96.453125 176.796875 96.496094 176.832031 Z M 96.308594 176.695312 C 96.246094 176.648438 96.183594 176.605469 96.121094 176.566406 C 96.183594 176.605469 96.246094 176.648438 96.308594 176.695312 Z M 96.089844 176.542969 C 96.039062 176.507812 95.984375 176.472656 95.929688 176.4375 C 95.984375 176.472656 96.039062 176.507812 96.089844 176.542969 Z M 95.871094 176.402344 C 95.820312 176.367188 95.769531 176.335938 95.71875 176.304688 C 95.769531 176.335938 95.820312 176.367188 95.871094 176.402344 Z M 95.675781 176.28125 C 95.613281 176.242188 95.546875 176.203125 95.480469 176.164062 C 95.546875 176.203125 95.613281 176.242188 95.675781 176.28125 Z M 95.429688 176.136719 C 95.378906 176.105469 95.328125 176.078125 95.277344 176.050781 C 95.328125 176.078125 95.378906 176.105469 95.429688 176.136719 Z M 95.214844 176.015625 C 95.160156 175.988281 95.105469 175.957031 95.050781 175.929688 C 95.105469 175.957031 95.160156 175.988281 95.214844 176.015625 Z M 95.011719 175.910156 C 94.941406 175.875 94.875 175.839844 94.804688 175.808594 C 94.875 175.839844 94.941406 175.875 95.011719 175.910156 Z M 94.753906 175.78125 C 94.699219 175.757812 94.648438 175.730469 94.59375 175.707031 C 94.648438 175.730469 94.699219 175.757812 94.753906 175.78125 Z M 94.53125 175.679688 C 94.46875 175.652344 94.40625 175.625 94.34375 175.597656 C 94.40625 175.625 94.46875 175.652344 94.53125 175.679688 Z M 94.320312 175.585938 C 94.246094 175.558594 94.175781 175.527344 94.105469 175.5 C 94.175781 175.527344 94.25 175.554688 94.320312 175.585938 Z M 94.046875 175.476562 C 93.992188 175.453125 93.933594 175.433594 93.878906 175.414062 C 93.933594 175.433594 93.992188 175.453125 94.046875 175.476562 Z M 93.820312 175.390625 C 93.75 175.363281 93.675781 175.339844 93.601562 175.3125 C 93.675781 175.339844 93.75 175.363281 93.820312 175.390625 Z M 93.585938 175.308594 C 93.519531 175.285156 93.449219 175.265625 93.382812 175.242188 C 93.449219 175.265625 93.519531 175.285156 93.585938 175.308594 Z M 93.3125 175.222656 C 93.257812 175.203125 93.199219 175.1875 93.144531 175.171875 C 93.203125 175.1875 93.257812 175.203125 93.3125 175.222656 Z M 93.082031 175.152344 C 93.007812 175.132812 92.933594 175.113281 92.859375 175.09375 C 92.933594 175.113281 93.007812 175.132812 93.082031 175.152344 Z M 92.824219 175.085938 C 92.757812 175.066406 92.691406 175.050781 92.628906 175.035156 C 92.691406 175.050781 92.757812 175.066406 92.824219 175.085938 Z M 92.5625 175.023438 C 92.5 175.007812 92.4375 174.996094 92.375 174.980469 C 92.4375 174.996094 92.5 175.007812 92.5625 175.023438 Z M 92.328125 174.972656 C 92.25 174.957031 92.171875 174.941406 92.09375 174.925781 C 92.171875 174.941406 92.25 174.957031 92.328125 174.972656 Z M 92.046875 174.917969 C 91.984375 174.90625 91.921875 174.898438 91.859375 174.886719 C 91.921875 174.898438 91.984375 174.90625 92.046875 174.917969 Z M 91.789062 174.875 C 91.71875 174.867188 91.652344 174.855469 91.582031 174.847656 C 91.652344 174.855469 91.71875 174.867188 91.789062 174.875 Z M 91.550781 174.84375 C 91.46875 174.832031 91.390625 174.824219 91.308594 174.816406 C 91.390625 174.824219 91.46875 174.832031 91.550781 174.84375 Z M 91.253906 174.808594 C 91.191406 174.804688 91.128906 174.796875 91.066406 174.792969 C 91.128906 174.796875 91.191406 174.804688 91.253906 174.808594 Z M 90.996094 174.789062 C 90.917969 174.78125 90.839844 174.777344 90.761719 174.773438 C 90.839844 174.777344 90.917969 174.78125 90.996094 174.789062 Z M 161.421875 52.703125 C 161.441406 52.746094 161.464844 52.789062 161.488281 52.832031 C 161.464844 52.789062 161.441406 52.746094 161.421875 52.703125 Z M 161.699219 53.222656 C 161.710938 53.246094 161.722656 53.265625 161.734375 53.285156 Z M 170.949219 51.980469 C 173.167969 51.980469 174.96875 50.183594 174.96875 47.96875 C 174.96875 45.75 173.167969 43.953125 170.949219 43.953125 C 168.730469 43.953125 166.929688 45.75 166.929688 47.96875 C 166.929688 50.183594 168.730469 51.980469 170.949219 51.980469 Z M 170.945312 58.515625 C 170.886719 58.515625 170.824219 58.515625 170.765625 58.511719 L 170.761719 58.511719 C 170.703125 58.511719 170.644531 58.511719 170.585938 58.507812 L 170.582031 58.507812 C 170.523438 58.507812 170.464844 58.503906 170.402344 58.5 C 170.34375 58.5 170.285156 58.496094 170.222656 58.492188 C 170.164062 58.488281 170.105469 58.480469 170.046875 58.476562 L 170.042969 58.476562 C 169.984375 58.472656 169.925781 58.464844 169.867188 58.460938 L 169.863281 58.460938 C 169.808594 58.453125 169.75 58.449219 169.691406 58.441406 L 169.6875 58.441406 C 169.628906 58.433594 169.570312 58.425781 169.515625 58.417969 L 169.511719 58.417969 C 169.453125 58.410156 169.394531 58.402344 169.339844 58.394531 L 169.335938 58.394531 C 169.28125 58.382812 169.222656 58.375 169.164062 58.367188 L 169.164062 58.363281 C 169.105469 58.355469 169.046875 58.34375 168.992188 58.335938 L 168.988281 58.335938 C 168.933594 58.324219 168.875 58.3125 168.820312 58.300781 Z M 98.855469 177.222656 L 98.859375 177.226562 C 98.917969 177.273438 98.976562 177.320312 99.035156 177.367188 L 99.082031 177.40625 Z M 98.855469 177.222656 " fill-opacity="1" fill-rule="nonzero"/></g><g fill="#126abf" fill-opacity="1"><g transform="translate(41.278929, 277.67606)"><g><path d="M 8.75 0.265625 C 6.882812 0.0859375 4.703125 0 2.203125 0 L -0.359375 0 L 13.78125 -39.625 C 14.40625 -41.40625 14.71875 -42.441406 14.71875 -42.734375 C 14.71875 -43.023438 14.707031 -43.203125 14.6875 -43.265625 L 14.71875 -43.328125 C 16.132812 -43.265625 17.632812 -43.234375 19.21875 -43.234375 C 20.507812 -43.234375 22.066406 -43.253906 23.890625 -43.296875 L 23.921875 -43.234375 C 23.878906 -43.148438 23.859375 -43.03125 23.859375 -42.875 C 23.859375 -42.46875 24.1875 -41.375 24.84375 -39.59375 L 39.265625 0.09375 C 38.835938 0.0703125 38.332031 0.0625 37.75 0.0625 C 37.75 0.0625 37.179688 0.0390625 36.046875 0 C 35.503906 0 35.019531 0 34.59375 0 L 29.546875 0 L 26.5 -9.359375 L 11.796875 -9.359375 Z M 23.953125 -17.171875 L 19.046875 -32.28125 L 14.265625 -17.171875 Z M 23.953125 -17.171875 "/></g></g></g><g fill="#126abf" fill-opacity="1"><g transform="translate(79.184609, 277.67606)"><g><path d="M 14.375 0.1875 C 13.332031 0.0625 11.328125 0 8.359375 0 L 5.75 0 L 5.75 -43.359375 C 7.132812 -43.273438 8.660156 -43.234375 10.328125 -43.234375 C 12.003906 -43.234375 13.1875 -43.320312 13.875 -43.5 L 24.796875 -24.9375 L 35.296875 -43.5 C 35.992188 -43.320312 37.316406 -43.234375 39.265625 -43.234375 C 41.222656 -43.234375 42.894531 -43.273438 44.28125 -43.359375 L 44.28125 0 L 41.671875 0 C 38.703125 0 36.695312 0.0625 35.65625 0.1875 L 35.65625 -28.9375 L 25.03125 -9.921875 L 14.375 -27.40625 Z M 14.375 0.1875 "/></g></g></g><g fill="#126abf" fill-opacity="1"><g transform="translate(128.205844, 277.67606)"><g><path d="M 31.703125 -40.828125 L 31.078125 -31.28125 L 30.84375 -31.203125 C 29.238281 -33.609375 26.507812 -35.171875 22.65625 -35.890625 C 21.445312 -36.128906 20.28125 -36.25 19.15625 -36.25 C 18.039062 -36.25 17.085938 -36.148438 16.296875 -35.953125 C 15.503906 -35.753906 14.828125 -35.472656 14.265625 -35.109375 C 13.078125 -34.328125 12.484375 -33.304688 12.484375 -32.046875 C 12.484375 -30.398438 13.003906 -29.164062 14.046875 -28.34375 C 15.347656 -27.351562 17.503906 -26.65625 20.515625 -26.25 C 23.523438 -25.851562 25.941406 -25.304688 27.765625 -24.609375 C 29.585938 -23.910156 31.082031 -23.03125 32.25 -21.96875 C 34.457031 -19.976562 35.5625 -17.164062 35.5625 -13.53125 C 35.5625 -8.757812 33.765625 -5.082031 30.171875 -2.5 C 27.085938 -0.289062 23.207031 0.8125 18.53125 0.8125 C 14.757812 0.8125 11.03125 0.0976562 7.34375 -1.328125 C 6.132812 -1.804688 5.070312 -2.359375 4.15625 -2.984375 L 4.515625 -13.84375 L 4.65625 -13.953125 C 7.34375 -9.304688 11.75 -6.984375 17.875 -6.984375 C 22.238281 -6.984375 25.125 -8.035156 26.53125 -10.140625 C 27.007812 -10.859375 27.25 -11.65625 27.25 -12.53125 C 27.25 -13.40625 27.101562 -14.128906 26.8125 -14.703125 C 26.53125 -15.285156 26.066406 -15.78125 25.421875 -16.1875 C 24.160156 -17.007812 22.046875 -17.5625 19.078125 -17.84375 C 16.109375 -18.125 13.679688 -18.65625 11.796875 -19.4375 C 9.910156 -20.21875 8.40625 -21.179688 7.28125 -22.328125 C 5.238281 -24.410156 4.21875 -27.316406 4.21875 -31.046875 C 4.21875 -34.898438 5.578125 -38.019531 8.296875 -40.40625 C 11.046875 -42.832031 14.753906 -44.046875 19.421875 -44.046875 C 24.097656 -44.046875 28.191406 -42.972656 31.703125 -40.828125 Z M 31.703125 -40.828125 "/></g></g></g><g fill="#126abf" fill-opacity="1"><g transform="translate(165.981515, 277.67606)"><g/></g></g><g fill="#126abf" fill-opacity="1"><g transform="translate(187.051348, 277.67606)"><g><path d="M 21.203125 0.1875 C 20.160156 0.0625 17.484375 0 13.171875 0 L 12.125 0 L 12.125 -35.953125 L 5.6875 -35.953125 C 3.78125 -35.953125 2.648438 -35.851562 2.296875 -35.65625 C 1.953125 -35.46875 1.6875 -35.296875 1.5 -35.140625 L 1.390625 -35.171875 L 1.390625 -43.5 L 1.5 -43.59375 C 2.207031 -43.351562 4.132812 -43.234375 7.28125 -43.234375 L 27.671875 -43.234375 C 29.578125 -43.234375 30.703125 -43.332031 31.046875 -43.53125 C 31.390625 -43.726562 31.660156 -43.898438 31.859375 -44.046875 L 31.953125 -44.015625 L 31.953125 -35.6875 L 31.859375 -35.59375 C 31.140625 -35.832031 29.210938 -35.953125 26.078125 -35.953125 L 21.203125 -35.953125 Z M 21.203125 0.1875 "/></g></g></g><g fill="#126abf" fill-opacity="1"><g transform="translate(219.399247, 277.67606)"><g><path d="M 27.34375 -7.796875 C 28.6875 -7.796875 29.617188 -7.925781 30.140625 -8.1875 L 30.265625 -8.15625 L 29.9375 0 L 5.59375 0 L 5.59375 -43.46875 C 6.175781 -43.425781 6.828125 -43.390625 7.546875 -43.359375 L 9.8125 -43.296875 C 11.332031 -43.253906 12.984375 -43.234375 14.765625 -43.234375 C 19.722656 -43.234375 24.628906 -43.320312 29.484375 -43.5 C 29.242188 -41.59375 29.125 -39.046875 29.125 -35.859375 C 29.125 -35.515625 29.144531 -35.253906 29.1875 -35.078125 L 29.125 -34.984375 C 28 -35.304688 26.394531 -35.46875 24.3125 -35.46875 L 14.078125 -35.46875 L 14.078125 -27.171875 L 21.78125 -27.171875 C 24.164062 -27.171875 25.597656 -27.238281 26.078125 -27.375 L 26.171875 -19.34375 C 25.128906 -19.445312 23.785156 -19.5 22.140625 -19.5 L 14.078125 -19.5 L 14.078125 -7.796875 Z M 27.34375 -7.796875 "/></g></g></g><g fill="#126abf" fill-opacity="1"><g transform="translate(251.747146, 277.67606)"><g><path d="M 24.96875 -44.046875 C 29.019531 -44.046875 32.476562 -43.34375 35.34375 -41.9375 L 35.34375 -31.984375 L 35.265625 -31.921875 C 34.054688 -33.785156 31.5 -35.019531 27.59375 -35.625 C 26.445312 -35.820312 24.992188 -35.921875 23.234375 -35.921875 C 21.484375 -35.921875 19.765625 -35.585938 18.078125 -34.921875 C 16.390625 -34.265625 15 -33.332031 13.90625 -32.125 C 11.8125 -29.757812 10.765625 -26.390625 10.765625 -22.015625 C 10.765625 -16.921875 12.097656 -13.125 14.765625 -10.625 C 16.972656 -8.550781 19.894531 -7.515625 23.53125 -7.515625 C 27.65625 -7.515625 30.992188 -8.390625 33.546875 -10.140625 C 34.484375 -10.765625 35.273438 -11.546875 35.921875 -12.484375 L 36.015625 -12.421875 L 36.015625 -3.3125 C 32.703125 -0.5625 28.238281 0.8125 22.625 0.8125 C 16.019531 0.8125 10.84375 -1.289062 7.09375 -5.5 C 3.488281 -9.507812 1.6875 -14.816406 1.6875 -21.421875 C 1.6875 -28.421875 3.660156 -33.9375 7.609375 -37.96875 C 11.597656 -42.019531 17.382812 -44.046875 24.96875 -44.046875 Z M 24.96875 -44.046875 "/></g></g></g><g fill="#126abf" fill-opacity="1"><g transform="translate(289.36031, 277.67606)"><g><path d="M 14.375 0.1875 C 12.289062 0.0625 9.816406 0 6.953125 0 L 5.921875 0 L 5.921875 -43.40625 C 7.265625 -43.289062 8.21875 -43.234375 8.78125 -43.234375 L 10.109375 -43.234375 C 11.816406 -43.234375 13.238281 -43.320312 14.375 -43.5 L 14.375 -26.171875 L 29.640625 -26.171875 L 29.640625 -43.40625 C 31.441406 -43.289062 33.191406 -43.234375 34.890625 -43.234375 C 36.597656 -43.234375 37.664062 -43.320312 38.09375 -43.5 L 38.09375 0.1875 C 37.0625 0.0625 35.003906 0 31.921875 0 L 29.640625 0 L 29.640625 -18.375 L 14.375 -18.375 Z M 14.375 0.1875 "/></g></g></g><g fill="#126abf" fill-opacity="1"><g transform="translate(112.167739, 330.404628)"><g><path d="M 3.328125 0.09375 C 2.617188 0.03125 1.789062 0 0.84375 0 L -0.140625 0 L 5.25 -15.09375 C 5.488281 -15.769531 5.609375 -16.160156 5.609375 -16.265625 C 5.609375 -16.378906 5.601562 -16.453125 5.59375 -16.484375 L 5.609375 -16.5 C 6.148438 -16.476562 6.71875 -16.46875 7.3125 -16.46875 C 7.8125 -16.46875 8.40625 -16.476562 9.09375 -16.5 L 9.109375 -16.46875 C 9.097656 -16.4375 9.09375 -16.390625 9.09375 -16.328125 C 9.09375 -16.171875 9.210938 -15.753906 9.453125 -15.078125 L 14.953125 0.03125 C 14.785156 0.03125 14.59375 0.03125 14.375 0.03125 C 14.375 0.03125 14.160156 0.0195312 13.734375 0 C 13.523438 0 13.335938 0 13.171875 0 L 11.25 0 L 10.09375 -3.5625 L 4.5 -3.5625 Z M 9.125 -6.53125 L 7.25 -12.296875 L 5.4375 -6.53125 Z M 9.125 -6.53125 "/></g></g></g><g fill="#126abf" fill-opacity="1"><g transform="translate(134.491373, 330.404628)"><g><path d="M 15.703125 -9.9375 C 15.546875 -9.65625 15.46875 -8.976562 15.46875 -7.90625 L 15.46875 -4.078125 C 15.46875 -2.910156 14.863281 -1.898438 13.65625 -1.046875 C 12.40625 -0.140625 10.878906 0.3125 9.078125 0.3125 C 6.566406 0.3125 4.566406 -0.476562 3.078125 -2.0625 C 1.628906 -3.5625 0.90625 -5.472656 0.90625 -7.796875 C 0.90625 -10.273438 1.640625 -12.34375 3.109375 -14 C 4.753906 -15.851562 7.015625 -16.78125 9.890625 -16.78125 C 11.816406 -16.78125 13.34375 -16.40625 14.46875 -15.65625 L 14.265625 -12.015625 L 14.171875 -11.984375 C 13.878906 -12.484375 13.304688 -12.894531 12.453125 -13.21875 C 11.648438 -13.53125 10.800781 -13.6875 9.90625 -13.6875 C 9.019531 -13.6875 8.242188 -13.546875 7.578125 -13.265625 C 6.921875 -12.984375 6.359375 -12.582031 5.890625 -12.0625 C 4.921875 -11 4.4375 -9.59375 4.4375 -7.84375 C 4.4375 -6.3125 4.863281 -5.082031 5.71875 -4.15625 C 6.582031 -3.238281 7.691406 -2.78125 9.046875 -2.78125 C 10.535156 -2.78125 11.539062 -3.171875 12.0625 -3.953125 C 12.226562 -4.203125 12.3125 -4.484375 12.3125 -4.796875 L 12.3125 -6.84375 L 10.703125 -6.84375 C 9.847656 -6.84375 9.382812 -6.769531 9.3125 -6.625 L 9.28125 -6.640625 L 9.15625 -9.875 C 9.394531 -9.800781 10.332031 -9.765625 11.96875 -9.765625 L 13.4375 -9.765625 C 14.34375 -9.765625 15.082031 -9.828125 15.65625 -9.953125 Z M 15.703125 -9.9375 "/></g></g></g><g fill="#126abf" fill-opacity="1"><g transform="translate(158.881968, 330.404628)"><g><path d="M 10.40625 -2.96875 C 10.925781 -2.96875 11.285156 -3.019531 11.484375 -3.125 L 11.53125 -3.109375 L 11.40625 0 L 2.125 0 L 2.125 -16.5625 C 2.351562 -16.539062 2.601562 -16.523438 2.875 -16.515625 L 3.734375 -16.5 C 4.316406 -16.476562 4.945312 -16.46875 5.625 -16.46875 C 7.507812 -16.46875 9.378906 -16.5 11.234375 -16.5625 C 11.140625 -15.84375 11.09375 -14.875 11.09375 -13.65625 C 11.09375 -13.519531 11.101562 -13.421875 11.125 -13.359375 L 11.09375 -13.328125 C 10.664062 -13.453125 10.054688 -13.515625 9.265625 -13.515625 L 5.359375 -13.515625 L 5.359375 -10.359375 L 8.296875 -10.359375 C 9.203125 -10.359375 9.75 -10.378906 9.9375 -10.421875 L 9.96875 -7.375 C 9.570312 -7.40625 9.0625 -7.421875 8.4375 -7.421875 L 5.359375 -7.421875 L 5.359375 -2.96875 Z M 10.40625 -2.96875 "/></g></g></g><g fill="#126abf" fill-opacity="1"><g transform="translate(179.089111, 330.404628)"><g><path d="M 2.234375 0 C 2.285156 -0.28125 2.3125 -0.585938 2.3125 -0.921875 L 2.3125 -16.46875 L 4.796875 -16.46875 L 11.359375 -6.140625 L 11.359375 -15.625 C 11.359375 -16.082031 11.316406 -16.363281 11.234375 -16.46875 L 14.578125 -16.46875 C 14.535156 -16.132812 14.515625 -15.769531 14.515625 -15.375 L 14.515625 0 L 11.9375 0 L 5.46875 -9.921875 L 5.46875 0 Z M 2.234375 0 "/></g></g></g><g fill="#126abf" fill-opacity="1"><g transform="translate(203.417831, 330.404628)"><g><path d="M 8.078125 0.078125 C 7.679688 0.0234375 6.660156 0 5.015625 0 L 4.625 0 L 4.625 -13.6875 L 2.171875 -13.6875 C 1.441406 -13.6875 1.007812 -13.648438 0.875 -13.578125 C 0.75 -13.503906 0.644531 -13.441406 0.5625 -13.390625 L 0.53125 -13.390625 L 0.53125 -16.5625 L 0.5625 -16.609375 C 0.84375 -16.515625 1.582031 -16.46875 2.78125 -16.46875 L 10.53125 -16.46875 C 11.257812 -16.46875 11.6875 -16.503906 11.8125 -16.578125 C 11.945312 -16.648438 12.054688 -16.71875 12.140625 -16.78125 L 12.171875 -16.765625 L 12.171875 -13.59375 L 12.140625 -13.5625 C 11.859375 -13.644531 11.125 -13.6875 9.9375 -13.6875 L 8.078125 -13.6875 Z M 8.078125 0.078125 "/></g></g></g><g fill="#126abf" fill-opacity="1"><g transform="translate(223.624974, 330.404628)"><g><path d="M 11.515625 -16.53125 C 12.023438 -16.488281 12.453125 -16.46875 12.796875 -16.46875 L 13.8125 -16.46875 C 14.164062 -16.46875 14.53125 -16.5 14.90625 -16.5625 L 14.90625 -6.328125 C 14.90625 -4.296875 14.289062 -2.664062 13.0625 -1.4375 C 11.894531 -0.269531 10.4375 0.3125 8.6875 0.3125 C 6.757812 0.3125 5.203125 -0.1875 4.015625 -1.1875 C 2.679688 -2.3125 2.015625 -3.929688 2.015625 -6.046875 L 2.015625 -16.53125 C 2.703125 -16.488281 3.347656 -16.46875 3.953125 -16.46875 C 4.554688 -16.46875 5.054688 -16.5 5.453125 -16.5625 L 5.453125 -5.875 C 5.453125 -4.84375 5.773438 -4.035156 6.421875 -3.453125 C 7.015625 -2.921875 7.753906 -2.65625 8.640625 -2.65625 C 9.960938 -2.65625 10.84375 -3.332031 11.28125 -4.6875 C 11.4375 -5.175781 11.515625 -5.78125 11.515625 -6.5 Z M 11.515625 -16.53125 "/></g></g></g><g fill="#126abf" fill-opacity="1"><g transform="translate(248.065077, 330.404628)"><g><path d="M 7.453125 -6.40625 C 7.203125 -6.382812 6.9375 -6.375 6.65625 -6.375 C 6.375 -6.375 5.957031 -6.394531 5.40625 -6.4375 L 5.40625 0 L 2.125 0 L 2.125 -16.5625 C 3.28125 -16.707031 4.703125 -16.78125 6.390625 -16.78125 C 8.679688 -16.78125 10.390625 -16.351562 11.515625 -15.5 C 12.648438 -14.65625 13.21875 -13.351562 13.21875 -11.59375 C 13.21875 -10.21875 12.703125 -9.046875 11.671875 -8.078125 C 11.328125 -7.765625 10.9375 -7.488281 10.5 -7.25 L 13.03125 -1.9375 C 13.519531 -0.832031 13.898438 -0.175781 14.171875 0.03125 L 14.109375 0.09375 C 13.304688 -0.0390625 12.046875 -0.0390625 10.328125 0.09375 Z M 6.625 -13.859375 C 6.207031 -13.859375 5.800781 -13.835938 5.40625 -13.796875 L 5.40625 -9.0625 C 5.8125 -9.007812 6.285156 -8.984375 6.828125 -8.984375 C 7.378906 -8.984375 7.835938 -9.03125 8.203125 -9.125 C 8.578125 -9.21875 8.898438 -9.363281 9.171875 -9.5625 C 9.753906 -10 10.046875 -10.65625 10.046875 -11.53125 C 10.046875 -12.40625 9.742188 -13.019531 9.140625 -13.375 C 8.566406 -13.695312 7.726562 -13.859375 6.625 -13.859375 Z M 6.625 -13.859375 "/></g></g></g></svg>