<svg xmlns="http://www.w3.org/2000/svg" width="46" height="46" viewBox="0 0 46 46">
  <g id="Group_89257" data-name="Group 89257" transform="translate(-233 -5611)">
    <g id="Group_89249" data-name="Group 89249" transform="translate(0 287)">
      <rect id="Rectangle_262" data-name="Rectangle 262" width="46" height="46" rx="10" transform="translate(233 5324)" fill="#f3f9ff"/>
      <g id="Group_89248" data-name="Group 89248" transform="translate(3667.605 4168.277)">
        <path id="Path_21593" data-name="Path 21593" d="M-3405.16,1167.369a4.369,4.369,0,0,0-1.527,1.966c-.152-.063-.294-.119-.433-.182a10.429,10.429,0,0,0-1.952-.663,9.128,9.128,0,0,0-1.838-.267,9.725,9.725,0,0,0-1.075-.029c-.616.052-1.231.138-1.842.235a8.7,8.7,0,0,0-2.189.685,11.046,11.046,0,0,0-5.18,4.664,10.616,10.616,0,0,0-1.165,2.98,10.866,10.866,0,0,0-.272,2.087,10.876,10.876,0,0,0,2.886,7.843,10.627,10.627,0,0,0,3.554,2.6,13.336,13.336,0,0,0,1.8.63,13.3,13.3,0,0,0,1.392.276,7.422,7.422,0,0,0,1.845.1c.594-.044,1.185-.14,1.774-.234a8.752,8.752,0,0,0,2.188-.686,11.033,11.033,0,0,0,5.171-4.649,10.176,10.176,0,0,0,1.3-3.673,13.23,13.23,0,0,0,.16-1.845,10.008,10.008,0,0,0-.486-3.171c-.121-.367-.255-.73-.392-1.092-.035-.094-.014-.132.073-.162a4.106,4.106,0,0,0,1.7-1.128c.242-.263.244-.263.392.059a12.985,12.985,0,0,1,1.01,3.341,13.165,13.165,0,0,1,.169,2.758,13.424,13.424,0,0,1-.777,3.97,13.457,13.457,0,0,1-5.239,6.707,12.77,12.77,0,0,1-2.68,1.39,17.15,17.15,0,0,1-1.766.541,8.631,8.631,0,0,1-1.32.222,19.209,19.209,0,0,1-2.014.116,13.077,13.077,0,0,1-1.818-.172,13.964,13.964,0,0,1-1.7-.364,12.847,12.847,0,0,1-2.682-1.113,13.6,13.6,0,0,1-3.6-2.858,13.51,13.51,0,0,1-2.408-3.812,13.144,13.144,0,0,1-.888-3.187,13.156,13.156,0,0,1-.132-2.694,13.487,13.487,0,0,1,1.176-4.848,13.536,13.536,0,0,1,5.282-6,12.8,12.8,0,0,1,2.405-1.167,12.838,12.838,0,0,1,2.122-.576,11.912,11.912,0,0,1,1.833-.21c.359-.008.719-.05,1.075-.029.569.034,1.136.1,1.7.171a9.907,9.907,0,0,1,1.232.234,14.78,14.78,0,0,1,1.523.484c.495.191.969.436,1.452.658A1.677,1.677,0,0,1-3405.16,1167.369Z" transform="translate(0)" fill="#4a8af8" style="isolation: isolate"/>
        <path id="Path_21594" data-name="Path 21594" d="M-2989.61,1594.946a6.153,6.153,0,0,1-6.094,6.17,6.17,6.17,0,0,1-6.234-6.155,6.169,6.169,0,0,1,6.191-6.163A6.156,6.156,0,0,1-2989.61,1594.946Z" transform="translate(-415.832 -415.713)" fill="#4a8af8" style="isolation: isolate"/>
        <path id="Path_21595" data-name="Path 21595" d="M-2299.992,1300.378a2.78,2.78,0,0,1,2.817-2.806,2.8,2.8,0,0,1,2.787,2.819,2.782,2.782,0,0,1-2.783,2.789A2.765,2.765,0,0,1-2299.992,1300.378Z" transform="translate(-1105.561 -129.556)" fill="#4a8af8" style="isolation: isolate"/>
      </g>
    </g>
  </g>
</svg>
