<svg xmlns="http://www.w3.org/2000/svg" xmlns:xlink="http://www.w3.org/1999/xlink" width="46" height="46" viewBox="0 0 46 46">
  <defs>
    <linearGradient id="linear-gradient" x1="0.472" y1="1.027" x2="0.595" y2="0.029" gradientUnits="objectBoundingBox">
      <stop offset="0" stop-color="#fc3023"/>
      <stop offset="0.161" stop-color="#fb3423"/>
      <stop offset="0.349" stop-color="#fb4326"/>
      <stop offset="0.551" stop-color="#f95a2b"/>
      <stop offset="0.762" stop-color="#f87b32"/>
      <stop offset="0.812" stop-color="#f88434"/>
    </linearGradient>
  </defs>
  <g id="Group_89258" data-name="Group 89258" transform="translate(-177 -5611)">
    <g id="Group_89247" data-name="Group 89247" transform="translate(0 287)">
      <rect id="Rectangle_262" data-name="Rectangle 262" width="46" height="46" rx="10" transform="translate(177 5324)" fill="#f3f9ff"/>
      <path id="Path_21592" data-name="Path 21592" d="M4922.657,338.2a9.278,9.278,0,0,0-.464-1.99,8.432,8.432,0,0,0-.507-1.216,9.785,9.785,0,0,0-1.042-1.73c-.1-.134-.194-.271-.3-.4a.2.2,0,0,1-.037-.211,3.751,3.751,0,0,0,.138-.547,8.434,8.434,0,0,0,.263-1.527,7.708,7.708,0,0,0,.068-1.242,7.341,7.341,0,0,0-.027-.879c-.016-.192-.027-.384-.048-.575a8.342,8.342,0,0,0-.153-1,14.815,14.815,0,0,0-.588-2.225h0a6.015,6.015,0,0,0-.267-.721,8.2,8.2,0,0,0-.339-.8c-.167-.391-.374-.762-.572-1.137a13.131,13.131,0,0,0-.762-1.268,13.591,13.591,0,0,0-.859-1.212c-.105-.136-.207-.274-.314-.406-.264-.321-.525-.645-.82-.939a5.683,5.683,0,0,0-.5-.538,13.655,13.655,0,0,0-.993-.937.628.628,0,0,0-.165-.145l-.043-.036h0a.49.49,0,0,0-.138-.121l-.043-.034h0a15.688,15.688,0,0,0-1.689-1.288,7.847,7.847,0,0,0-.927-.593l.435.624h0c.1.151.19.3.288.453.257.4.48.817.722,1.225h0c.242.479.472.963.7,1.451h0q.243.642.486,1.285h0q.183.622.367,1.245h0q.129.646.258,1.292h0a4.258,4.258,0,0,0,.06.484c.016.209.045.418.069.626l.034.768q0,.362-.006.723c-.03.353-.063.707-.094,1.06-.053.39-.13.777-.208,1.163-.025.091-.051.181-.074.272-.1.408-.241.8-.374,1.2-.048.1-.1.008-.151,0a3.947,3.947,0,0,0-.437-.27c-.616-.384-1.208-.8-1.812-1.2l-.542-.388q-.541-.388-1.084-.776l-1.4-1.058-.928-.724-1.75-1.423c-.121-.1-.24-.208-.361-.311l-1.186-1.009-1.611-1.443-.28-.263-1.292-1.211L4900,316.94c-.014-.023-.023-.051-.07-.041.019.024.035.045.049.065.114.171.224.345.342.514.208.3.408.6.636.888h0c.338.494.693.974,1.061,1.446.345.483.708.953,1.077,1.419h0q.505.669,1.038,1.316h0c.375.487.769.958,1.167,1.426.187.238.381.471.585.695h0c.3.369.616.731.942,1.08q.509.6,1.058,1.166l.256.289-.02.024-.565-.342-1.739-1.16-.85-.6q-.312-.247-.645-.465l-.985-.723h0c-.362-.274-.722-.548-1.084-.821l-.9-.679-.967-.767-1.178-.937-1.153-.959-1.507-1.316c-.024-.032-.042-.073-.1-.072a.152.152,0,0,0,.063.106h0a14.173,14.173,0,0,0,.929,1.347h0c.237.343.55.622.8.952.1.136.2.275.311.408.34.424.667.859,1.025,1.27h0c.39.5.8.992,1.214,1.473.2.247.4.494.62.724h0a5.545,5.545,0,0,0,.448.52c.166.186.33.372.5.558.339.4.695.787,1.057,1.167.125.135.25.272.376.406.344.361.681.729,1.043,1.071.315.339.646.661.984.977.426.428.866.839,1.318,1.239.229.207.456.418.689.621.323.282.642.571.984.83.2.186.412.35.623.519.25.2.5.4.758.6l-.119.089h0a.557.557,0,0,0-.069.031,10.65,10.65,0,0,1-3.028,1.205,12.877,12.877,0,0,1-3.49.326,15.687,15.687,0,0,1-2.465-.295,17.117,17.117,0,0,1-2.379-.663c-.51-.182-1.007-.392-1.5-.6-.479-.232-.96-.456-1.423-.717-.291-.164-.578-.333-.868-.5-.28-.2-.558-.4-.841-.591-.111-.077-.195-.193-.332-.233a6.666,6.666,0,0,0,.565.857,13.182,13.182,0,0,0,.935,1.208,16.538,16.538,0,0,0,1.627,1.731,14.9,14.9,0,0,0,1.385,1.2.9.9,0,0,0,.092.09c.567.431,1.149.843,1.756,1.216a12.941,12.941,0,0,0,1.2.682.478.478,0,0,0,.04.028c.513.276,1.042.513,1.581.738a17.792,17.792,0,0,0,2.914.941,16.366,16.366,0,0,0,2.337.365,14.471,14.471,0,0,0,1.945.034,13.2,13.2,0,0,0,2.514-.372,10.516,10.516,0,0,0,2.383-.873,9.835,9.835,0,0,1,2.132-.845,6.8,6.8,0,0,1,1.283-.195,4.473,4.473,0,0,1,1.537.195,3.8,3.8,0,0,1,1.668,1.14,5.583,5.583,0,0,1,.712,1.068c.026.051.045.119.122.116s.1-.064.126-.116a1.38,1.38,0,0,0,.111-.354A6.091,6.091,0,0,0,4922.657,338.2Z" transform="translate(-4707.851 5019.457)" fill="url(#linear-gradient)"/>
    </g>
  </g>
</svg>
