<svg width="319" height="255" viewBox="0 0 319 255" fill="none" xmlns="http://www.w3.org/2000/svg">
<mask id="mask0" mask-type="alpha" maskUnits="userSpaceOnUse" x="0" y="0" width="319" height="255">
<rect width="318.944" height="255" fill="white"/>
</mask>
<g mask="url(#mask0)">
<path d="M294.62 110.436C294.776 122.604 288.812 134.417 277.786 145.37C266.76 156.325 250.703 166.384 230.772 175.024C190.912 192.301 135.653 203.855 74.4482 205.569C13.2436 207.282 -42.2723 198.83 -82.5475 183.796C-102.686 176.279 -118.99 167.125 -130.29 156.796C-141.589 146.468 -147.853 134.997 -148.009 122.829C-148.166 110.661 -142.201 98.8481 -131.176 87.8949C-120.149 76.9406 -104.092 66.8811 -84.1609 58.2419C-44.3008 40.9647 10.958 29.4103 72.1626 27.6966C133.367 25.983 188.883 34.4358 229.158 49.4693C249.297 56.9865 265.601 66.1401 276.901 76.4692C288.2 86.7973 294.464 98.2679 294.62 110.436Z" stroke="white" stroke-opacity="0.1"/>
<path d="M300.447 93.7126C302.501 119.264 282.932 146.301 249.288 169.355C215.679 192.386 168.178 211.325 114.753 220.685C61.3278 230.045 12.143 228.045 -24.1846 217.267C-60.5498 206.477 -83.8627 186.954 -85.9171 161.402C-87.9716 135.85 -68.4023 108.814 -34.7582 85.7591C-1.14903 62.7284 46.3522 43.7895 99.7771 34.4297C153.202 25.0699 202.387 27.0697 238.714 37.8478C275.079 48.637 298.392 68.161 300.447 93.7126Z" stroke="white" stroke-opacity="0.1"/>
</g>
</svg>
