<?xml version="1.0" encoding="utf-8"?>
<svg width="22" height="25" viewBox="0 0 22 25" fill="none" xmlns="http://www.w3.org/2000/svg">
  <path d="M0 0H13V9.5C13 13.0899 10.0899 16 6.5 16C2.91015 16 0 13.0899 0 9.5V0Z" fill="url(#paint0_linear)"/>
  <path fill-rule="evenodd" clip-rule="evenodd" d="M12.8125 19.6187C15.8079 19.0107 18.0625 16.3624 18.0625 13.1875V4H4.9375V13.1875C4.9375 16.3624 7.19206 19.0107 10.1875 19.6187V22.375H7.5625V25H15.4375V22.375H12.8125V19.6187ZM7.5625 6.625H15.4375V13.1875C15.4375 15.3621 13.6746 17.125 11.5 17.125C9.32538 17.125 7.5625 15.3621 7.5625 13.1875V6.625Z" style="fill: rgb(21, 42, 65);"/>
  <path d="M19.375 6.625H22V13.1875H19.375V6.625Z" style="fill: rgb(21, 42, 65);"/>
  <path d="M3.625 6.625H1V13.1875H3.625V6.625Z" style="fill: rgb(21, 42, 65);"/>
  <defs>
    <linearGradient id="paint0_linear" x1="6.5" y1="0" x2="6.5" y2="16" gradientUnits="userSpaceOnUse">
      <stop style="stop-color: rgb(157, 157, 244);"/>
      <stop offset="1" stop-opacity="0" style="stop-color: rgb(157, 157, 244);"/>
    </linearGradient>
  </defs>
</svg>