<?xml version="1.0" encoding="utf-8"?>
<svg width="26" height="26" viewBox="0 0 26 26" fill="none" xmlns="http://www.w3.org/2000/svg">
  <circle cx="10.5" cy="10.5" r="10.5" fill="url(#paint0_linear)"/>
  <path fill-rule="evenodd" clip-rule="evenodd" d="M26 15.5C26 21.299 21.299 26 15.5 26C9.70101 26 5 21.299 5 15.5C5 9.70101 9.70101 5 15.5 5C21.299 5 26 9.70101 26 15.5ZM23.9 15.5C23.9 20.1392 20.1392 23.9 15.5 23.9C10.8608 23.9 7.1 20.1392 7.1 15.5C7.1 10.8608 10.8608 7.1 15.5 7.1C20.1392 7.1 23.9 10.8608 23.9 15.5Z" style="fill: rgb(21, 42, 65);"/>
  <path d="M20 13.09L19.4737 13.235C18.9985 11.6509 18.2669 10.7529 16.893 10.7529H15.1212C15.0443 11.7696 15.0056 13.4598 15.0188 15.2161L16.2125 15.1764C17.0086 15.15 17.3296 14.5429 17.5225 13.6579H17.9715V17.3818H17.5221C17.3296 16.4838 16.9959 15.8763 16.1997 15.85L15.0188 15.8103C15.0315 17.144 15.0698 18.2794 15.1212 18.9533C15.1982 19.9437 15.4681 20.3795 16.1483 20.4848L16.7519 20.5508V21H11V20.5508L11.4752 20.4848C12.1554 20.3795 12.4249 19.9437 12.5023 18.9533C12.6306 17.3158 12.6562 13.922 12.5023 12.0207C12.4253 11.0434 12.1554 10.6075 11.4752 10.5018L11 10.4362V10H19.9489L20 13.09Z" style="fill: rgb(21, 42, 65);"/>
  <defs>
    <linearGradient id="paint0_linear" x1="10.5" y1="0" x2="10.5" y2="21" gradientUnits="userSpaceOnUse">
      <stop style="stop-color: rgb(157, 157, 244);"/>
      <stop offset="1" stop-opacity="0" style="stop-color: rgb(157, 157, 244);"/>
    </linearGradient>
  </defs>
</svg>