<?xml version="1.0" encoding="utf-8"?>
<svg width="28" height="28" viewBox="0 0 28 28" fill="none" xmlns="http://www.w3.org/2000/svg">
  <path d="M0 13.6514C0 21.194 6.10921 27.3032 13.6519 27.3032V13.6514H0Z" fill="url(#paint0_linear)"/>
  <path d="M27.3042 13.6519C27.3042 6.10921 21.195 0 13.6523 0V13.6519H27.3042Z" fill="url(#paint1_linear)"/>
  <path d="M12.3076 4.3501C10.3756 5.11688 8.43799 5.56081 6.50601 5.67612C5.91286 5.71647 5.46094 6.17769 5.46094 6.7254C5.46094 8.92773 5.46094 13.9435 5.46094 13.9435C5.46094 18.4693 8.83907 22.4127 13.5278 23.191C13.5673 23.1968 13.6069 23.2026 13.6521 23.2083C13.6916 23.2026 13.7311 23.1968 13.7763 23.191C18.4707 22.4127 21.8432 18.4693 21.8432 13.9435V6.73116C21.8432 6.17769 21.3913 5.71647 20.7981 5.68188C18.8661 5.56657 16.9285 5.12265 14.9965 4.35587C14.1322 4.00995 13.1662 4.00995 12.3076 4.3501Z" stroke-width="2" stroke-miterlimit="10" style="stroke: rgb(21, 42, 65);"/>
  <defs>
    <linearGradient id="paint0_linear" x1="6.82594" y1="13.6514" x2="6.82594" y2="27.3032" gradientUnits="userSpaceOnUse">
      <stop style="stop-color: rgb(157, 157, 244);"/>
      <stop offset="1" stop-opacity="0" style="stop-color: rgb(157, 157, 244);"/>
    </linearGradient>
    <linearGradient id="paint1_linear" x1="20.4783" y1="0" x2="20.4783" y2="13.6519" gradientUnits="userSpaceOnUse">
      <stop stop-opacity="0" style="stop-color: rgb(157, 157, 244);"/>
      <stop offset="1" style="stop-color: rgb(157, 157, 244);"/>
    </linearGradient>
  </defs>
</svg>