<?xml version="1.0" encoding="utf-8"?>
<svg width="26" height="26" viewBox="0 0 26 26" fill="none" xmlns="http://www.w3.org/2000/svg">
  <circle cx="10.5" cy="10.5" r="10.5" fill="url(#paint0_linear)"/>
  <path d="M19.7 16.55H17.6C17.6 17.7098 16.6598 18.65 15.5 18.65C14.3402 18.65 13.4 17.7098 13.4 16.55H11.3C11.3 18.8696 13.1804 20.75 15.5 20.75C17.8196 20.75 19.7 18.8696 19.7 16.55Z" style="fill: rgb(21, 42, 65);"/>
  <path d="M13.4 13.4C13.4 13.9799 12.9299 14.45 12.35 14.45C11.7701 14.45 11.3 13.9799 11.3 13.4C11.3 12.8201 11.7701 12.35 12.35 12.35C12.9299 12.35 13.4 12.8201 13.4 13.4Z" style="fill: rgb(21, 42, 65);"/>
  <path d="M18.65 14.45C19.2299 14.45 19.7 13.9799 19.7 13.4C19.7 12.8201 19.2299 12.35 18.65 12.35C18.0701 12.35 17.6 12.8201 17.6 13.4C17.6 13.9799 18.0701 14.45 18.65 14.45Z" style="fill: rgb(21, 42, 65);"/>
  <path fill-rule="evenodd" clip-rule="evenodd" d="M26 15.5C26 21.299 21.299 26 15.5 26C9.70101 26 5 21.299 5 15.5C5 9.70101 9.70101 5 15.5 5C21.299 5 26 9.70101 26 15.5ZM23.9 15.5C23.9 20.1392 20.1392 23.9 15.5 23.9C10.8608 23.9 7.1 20.1392 7.1 15.5C7.1 10.8608 10.8608 7.1 15.5 7.1C20.1392 7.1 23.9 10.8608 23.9 15.5Z" style="fill: rgb(21, 42, 65);"/>
  <defs>
    <linearGradient id="paint0_linear" x1="10.5" y1="0" x2="10.5" y2="21" gradientUnits="userSpaceOnUse">
      <stop style="stop-color: rgb(157, 157, 244);"/>
      <stop offset="1" stop-opacity="0" style="stop-color: rgb(157, 157, 244);"/>
    </linearGradient>
  </defs>
</svg>