<?xml version="1.0" encoding="utf-8"?>
<svg width="32" height="29" viewBox="0 0 32 29" fill="none" xmlns="http://www.w3.org/2000/svg">
  <circle cx="10.5" cy="10.5" r="10.5" fill="url(#paint0_linear)"/>
  <path d="M2 28C2 25 5.9543 25 7.93145 23C8.92003 22 5.9543 22 5.9543 17C5.9543 13.667 7.27207 12 9.9086 12C12.5451 12 13.8629 13.667 13.8629 17C13.8629 22 10.8972 22 11.8858 23C13.8629 25 17.8172 25 17.8172 28M16.494 25.6575C17.2413 25.1365 18.2115 24.7613 19.1399 24.309C19.8657 23.9554 20.566 23.5546 21.1142 23C22.1028 22 19.1371 22 19.1371 17C19.1371 13.667 20.4549 12 23.0914 12C25.7279 12 27.0457 13.667 27.0457 17C27.0457 22 24.08 22 25.0685 23C27.0457 25 31 25 31 28" stroke-width="2" stroke-linecap="round" style="stroke: rgb(21, 42, 65);"/>
  <defs>
    <linearGradient id="paint0_linear" x1="10.5" y1="0" x2="10.5" y2="21" gradientUnits="userSpaceOnUse">
      <stop style="stop-color: rgb(157, 157, 244);"/>
      <stop offset="1" stop-opacity="0" style="stop-color: rgb(157, 157, 244);"/>
    </linearGradient>
  </defs>
</svg>